<svg width="54" height="36" viewBox="0 0 54 36" fill="none" xmlns="http://www.w3.org/2000/svg">
<path d="M8.37435 35.5671V5.37514L0.694352 10.8951V7.00714L8.66235 1.24714H12.5504V35.5671H8.37435ZM27.3062 14.0631C29.8982 14.0631 31.5302 12.2871 31.5302 9.07114C31.5302 5.99914 29.8982 4.07914 27.3062 4.07914C24.7622 4.07914 23.0822 5.85514 23.0822 9.11914C23.0822 12.3831 24.7622 14.0631 27.3062 14.0631ZM27.3062 17.1831C23.2262 17.1831 19.4342 13.8231 19.4342 9.16714C19.4342 4.41514 23.1302 0.959138 27.3062 0.959138C31.5782 0.959138 35.1782 4.41514 35.1782 9.07114C35.1782 13.8231 31.4342 17.1831 27.3062 17.1831ZM24.2822 35.5671L45.2582 1.24714H48.9062L27.9302 35.5671H24.2822ZM45.9302 32.8311C48.5222 32.8311 50.1542 31.0551 50.1542 27.8391C50.1542 24.7671 48.5222 22.8471 45.9302 22.8471C43.3862 22.8471 41.7062 24.6231 41.7062 27.8871C41.7062 31.1511 43.3862 32.8311 45.9302 32.8311ZM45.9302 35.9511C41.8502 35.9511 38.0582 32.5911 38.0582 27.9351C38.0582 23.1831 41.7542 19.7271 45.9302 19.7271C50.2022 19.7271 53.8022 23.1831 53.8022 27.8391C53.8022 32.5911 50.0582 35.9511 45.9302 35.9511Z" fill="#E0E0E0"/>
</svg>
