<svg width="109" height="128" viewBox="0 0 109 128" fill="none" xmlns="http://www.w3.org/2000/svg">
<g style="mix-blend-mode:color-dodge" opacity="0.4" filter="url(#filter0_b_1334_9755)">
<path d="M38.784 105.821C9.18644 88.0822 0.835922 70.3456 0.360352 63.6947L4.11469 58.9013L108 0.343262C107.306 36.4418 105.697 110.501 104.815 117.949C106.481 126.77 95.8719 127.505 90.3591 126.77C85.4997 127.178 68.3815 123.56 38.784 105.821Z" fill="#91FF95" fill-opacity="0.2"/>
<path d="M105.184 117.809L52.2661 93.4839L0.55957 63.6522M99.1775 126.516L52.2661 93.4839L3.71446 59.2933M1.6275 70.2062L52.2661 93.4804L101.708 109.873M90.6377 126.868L52.2661 93.4804L11.0677 57.6321M22.2005 58.9757L52.2661 93.4804L93.8798 100.268M82.241 89.823L52.2661 93.4769L38.7392 105.622M52.5383 113.596L52.2661 93.4769L36.2509 63.3346M105.187 117.802L105.575 99.9577L102.643 92.9744L103.55 76.5334L98.155 69.5362L100.193 54.8855L102.168 40.6851L104.084 26.9104L105.941 13.544L104.458 12.0783L102.619 10.7032L100.58 9.5376L98.5109 8.6756L96.581 8.1905L85.0887 16.0358L73.2579 24.115L61.0712 32.4349L48.511 41.0096L35.5634 49.8496L22.2075 58.9687L11.0747 57.6251L3.72145 59.2828L0.57005 63.6417L1.63798 70.1992L6.61111 78.3342L14.9415 87.3836L25.9207 96.6877L52.273 93.4734L79.4246 124.635L90.6482 126.865L99.188 126.509L104.241 123.455L105.194 117.798L101.718 109.869L93.8902 100.265L96.061 84.651L98.1619 69.5327L90.17 62.1026L80.2622 54.9169L69.3423 48.6455L58.4258 43.8713L48.5145 41.0096L40.4737 40.2767L25.9661 48.841L19.4888 50.387L3.71796 59.2898M101.715 109.873L102.646 92.9744L96.054 84.6544L86.2753 75.7203L74.1479 66.999L60.8059 59.3282L47.5268 53.4372L35.5599 49.8565L25.9592 48.8445L11.0677 57.6321M107.738 0.579001L107.396 16.2836L107.738 0.579001ZM93.8798 100.275L82.241 89.83L67.8066 79.5347L51.9555 70.4086L36.2509 63.3416M25.9173 96.6981L38.7392 105.629L52.5383 113.603L66.4072 120.094M107.738 0.579001L106.943 14.9923L107.396 16.2836L107.047 32.3197M79.4176 124.649L66.4072 120.098L52.2661 93.4874L6.60063 78.3482M107.738 0.579001L105.934 13.5545L106.943 14.9923L106.126 29.7791L107.044 32.3197L106.688 48.6944L106.325 65.4181L105.951 82.5047M22.2005 58.9827L36.2474 63.345L47.5233 53.4442L58.4153 43.8818L68.9409 34.6405L79.121 25.7029L88.9695 17.0549L98.504 8.68258L107.738 0.575511M82.241 89.83L86.2718 75.7272L90.1595 62.1131L93.9147 48.9631L97.5443 36.2564L101.055 23.9684L104.451 12.0817L107.738 0.575511M107.738 0.575511L100.573 9.54458L93.1644 18.8208L85.4971 28.418L77.5575 38.3573L69.3318 48.656L60.8025 59.3316L51.9555 70.4086L52.2661 93.4874L104.231 123.469M14.931 87.3975L52.2627 93.4874L67.8032 79.5382L74.1409 67.006L80.2482 54.9274L86.1392 43.2816L91.8207 32.044L97.3069 21.1939L102.608 10.7102L107.731 0.575511M79.4665 16.5314L81.8222 15.8683L94.9372 8.12768L96.5671 8.19748L107.731 0.575511M93.7367 8.47667L94.9372 8.13117L107.735 0.579001M105.571 99.9647L105.951 82.5047L103.547 76.5404L104.43 60.5392L105.288 44.9567L106.126 29.7791L104.074 26.9174L101.052 23.9719L97.3069 21.1939L93.1609 18.8208L88.966 17.0549L85.0782 16.0463L81.8257 15.8718L68.3825 23.8078L54.5974 31.9428L40.4598 40.2872L34.9282 41.6727L22.8043 48.5164L19.4784 50.394M106.321 65.4146L104.426 60.5357L100.183 54.8925L93.9112 48.9631L86.1392 43.2781L77.554 38.3538L68.9374 34.637L61.0607 32.4419L54.6009 31.9359L50.0745 33.1189L37.8179 40.0394L34.9317 41.6692M106.688 48.6874L105.288 44.9497L102.161 40.6851L97.5443 36.2529L91.8242 32.0371L85.4971 28.411L79.121 25.6959L73.2509 24.1185L68.386 23.7974L64.9205 24.7397L52.472 31.7683L50.078 33.1189M64.9205 24.7397L66.7771 23.6927L79.4735 16.5279L80.7508 15.809L93.7437 8.47318L94.3998 8.10325L107.738 0.572021" fill="#91FF95" fill-opacity="0.2"/>
<path d="M105.184 117.809L52.2661 93.4839M52.2661 93.4839L0.55957 63.6522M52.2661 93.4839L99.1775 126.516M52.2661 93.4839L3.71446 59.2933M1.6275 70.2062L52.2661 93.4804M52.2661 93.4804L101.708 109.873M52.2661 93.4804L90.6377 126.868M52.2661 93.4804L11.0677 57.6321L25.9592 48.8445L35.5599 49.8565L47.5268 53.4372L60.8059 59.3282L74.1479 66.999L86.2753 75.7203L96.054 84.6544L102.646 92.9744L101.715 109.873M52.2661 93.4804L22.2005 58.9757M52.2661 93.4804L93.8798 100.268M82.241 89.823L52.2661 93.4769M52.2661 93.4769L38.7392 105.622M52.2661 93.4769L52.5383 113.596M52.2661 93.4769L36.2509 63.3346M105.187 117.802L105.575 99.9577L102.643 92.9744L103.55 76.5334L98.155 69.5362L100.193 54.8855L102.168 40.6851L104.084 26.9104L105.941 13.544L104.458 12.0783L102.619 10.7032L100.58 9.5376L98.5109 8.6756L96.581 8.1905L85.0887 16.0358L73.2579 24.115L61.0712 32.4349L48.511 41.0096L35.5634 49.8496L22.2075 58.9687L11.0747 57.6251L3.72145 59.2828L0.57005 63.6417L1.63798 70.1992L6.61111 78.3342L14.9415 87.3836L25.9207 96.6877L52.273 93.4734L79.4246 124.635L90.6482 126.865L99.188 126.509L104.241 123.455L105.194 117.798L101.718 109.869L93.8902 100.265L96.061 84.651L98.1619 69.5327L90.17 62.1026L80.2622 54.9169L69.3423 48.6455L58.4258 43.8713L48.5145 41.0096L40.4737 40.2767L25.9661 48.841L19.4888 50.387L3.71796 59.2898M107.738 0.579001L107.396 16.2836M107.738 0.579001L106.943 14.9923M107.738 0.579001L105.934 13.5545L106.943 14.9923M107.396 16.2836L106.943 14.9923M107.396 16.2836L107.047 32.3197M93.8798 100.275L82.241 89.83M82.241 89.83L67.8066 79.5347L51.9555 70.4086M82.241 89.83L86.2718 75.7273L90.1595 62.1131L93.9147 48.9631L97.5442 36.2564L101.055 23.9684L104.451 12.0817L107.738 0.575511M51.9555 70.4086L36.2509 63.3416M51.9555 70.4086L60.8025 59.3317L69.3318 48.656L77.5575 38.3573L85.4971 28.418L93.1644 18.8208L100.573 9.54458L107.738 0.575511M51.9555 70.4086L52.2661 93.4874M25.9173 96.6981L38.7392 105.629L52.5383 113.603L66.4072 120.094M106.943 14.9923L106.126 29.7791M79.4176 124.649L66.4072 120.098L52.2661 93.4874M52.2661 93.4874L6.60063 78.3482M52.2661 93.4874L104.231 123.469M106.126 29.7791L107.044 32.3197L106.688 48.6944L106.325 65.4181L105.951 82.5047M106.126 29.7791L105.288 44.9567L104.43 60.5392L103.547 76.5404L105.951 82.5047M106.126 29.7791L104.074 26.9174L101.052 23.9719L97.3069 21.1939M105.951 82.5047L105.571 99.9647M22.2005 58.9827L36.2474 63.345L47.5233 53.4442L58.4153 43.8818L68.9409 34.6405L79.121 25.7029L88.9695 17.0549L98.504 8.68258L107.738 0.575511M14.931 87.3975L52.2627 93.4874L67.8032 79.5382L74.1409 67.006L80.2482 54.9274L86.1392 43.2816L91.8207 32.044L97.3069 21.1939M97.3069 21.1939L102.608 10.7102L107.731 0.575511L96.5671 8.19748L94.9372 8.12768L81.8222 15.8683L79.4665 16.5314M97.3069 21.1939L93.1609 18.8208L88.966 17.0549L85.0782 16.0463L81.8257 15.8718L68.3825 23.8078L54.5974 31.9428L40.4597 40.2872L34.9282 41.6727L22.8043 48.5164L19.4784 50.394M93.7367 8.47667L94.9372 8.13117L107.735 0.579001M106.321 65.4146L104.426 60.5357L100.183 54.8925L93.9112 48.9631L86.1392 43.2781L77.554 38.3538L68.9374 34.637L61.0607 32.4419L54.6009 31.9359L50.0745 33.1189L37.8179 40.0394L34.9317 41.6692M106.688 48.6874L105.288 44.9497L102.161 40.6851L97.5442 36.2529L91.8242 32.0371L85.4971 28.411L79.121 25.6959L73.2509 24.1185L68.386 23.7974L64.9205 24.7397M64.9205 24.7397L52.472 31.7683L50.078 33.1189M64.9205 24.7397L66.7771 23.6927L79.4735 16.5279L80.7508 15.809L93.7437 8.47318L94.3998 8.10325L107.738 0.572021" stroke="#30FF51" stroke-width="0.697982" stroke-linecap="round" stroke-linejoin="round"/>
</g>
<defs>
<filter id="filter0_b_1334_9755" x="-10.7255" y="-10.7131" width="129.749" height="148.866" filterUnits="userSpaceOnUse" color-interpolation-filters="sRGB">
<feFlood flood-opacity="0" result="BackgroundImageFix"/>
<feGaussianBlur in="BackgroundImageFix" stdDeviation="5.46799"/>
<feComposite in2="SourceAlpha" operator="in" result="effect1_backgroundBlur_1334_9755"/>
<feBlend mode="normal" in="SourceGraphic" in2="effect1_backgroundBlur_1334_9755" result="shape"/>
</filter>
</defs>
</svg>
