<svg width="115" height="131" viewBox="0 0 115 131" fill="none" xmlns="http://www.w3.org/2000/svg">
<g filter="url(#filter0_b_1338_11623)">
<rect x="-0.233984" y="-0.405272" width="32.9589" height="32.9589" rx="3.51229" transform="matrix(0.86601 0.500028 3.18351e-05 1 29.4662 49.6551)" fill="#3BC4FF" fill-opacity="0.2" stroke="#00C2FF" stroke-width="0.540352"/>
<rect x="-0.233966" y="-0.135081" width="32.9589" height="32.9589" rx="3.51229" transform="matrix(0.86601 -0.500028 -3.18351e-05 1 57.5424 65.6311)" fill="#3BC4FF" fill-opacity="0.2" stroke="#00C2FF" stroke-width="0.540352"/>
<rect x="-0.467967" width="32.9589" height="32.9589" rx="3.51229" transform="matrix(0.866041 -0.499972 0.866041 0.499972 29.4349 49.307)" fill="#3BC4FF" fill-opacity="0.2" stroke="#00C2FF" stroke-width="0.540352"/>
</g>
<g filter="url(#filter1_b_1338_11623)">
<rect x="-0.233984" y="-0.405272" width="32.9589" height="32.9589" rx="3.51229" transform="matrix(0.86601 0.500028 3.18351e-05 1 29.4662 17.2327)" fill="#3BC4FF" fill-opacity="0.2" stroke="#00C2FF" stroke-width="0.540352"/>
<rect x="-0.233966" y="-0.135081" width="32.9589" height="32.9589" rx="3.51229" transform="matrix(0.86601 -0.500028 -3.18351e-05 1 57.5424 33.2082)" fill="#3BC4FF" fill-opacity="0.2" stroke="#00C2FF" stroke-width="0.540352"/>
<rect x="-0.467967" width="32.9589" height="32.9589" rx="3.51229" transform="matrix(0.866041 -0.499972 0.866041 0.499972 29.4349 16.8847)" fill="#3BC4FF" fill-opacity="0.2" stroke="#00C2FF" stroke-width="0.540352"/>
</g>
<g filter="url(#filter2_b_1338_11623)">
<rect x="-0.233984" y="-0.405272" width="32.9589" height="32.9589" rx="3.51229" transform="matrix(0.86601 0.500028 3.18351e-05 1 1.36808 65.8655)" fill="#3BC4FF" fill-opacity="0.2" stroke="#00C2FF" stroke-width="0.540352"/>
<rect x="-0.233966" y="-0.135081" width="32.9589" height="32.9589" rx="3.51229" transform="matrix(0.86601 -0.500028 -3.18351e-05 1 29.4437 81.8415)" fill="#3BC4FF" fill-opacity="0.2" stroke="#00C2FF" stroke-width="0.540352"/>
<rect x="-0.467967" width="32.9589" height="32.9589" rx="3.51229" transform="matrix(0.866041 -0.499972 0.866041 0.499972 1.33673 65.5175)" fill="#3BC4FF" fill-opacity="0.2" stroke="#00C2FF" stroke-width="0.540352"/>
</g>
<g filter="url(#filter3_b_1338_11623)">
<rect x="-0.233984" y="-0.405272" width="32.9589" height="32.9589" rx="3.51229" transform="matrix(0.86601 0.500028 3.18351e-05 1 1.36808 33.4432)" fill="#3BC4FF" fill-opacity="0.2" stroke="#00C2FF" stroke-width="0.540352"/>
<rect x="-0.233966" y="-0.135081" width="32.9589" height="32.9589" rx="3.51229" transform="matrix(0.86601 -0.500028 -3.18351e-05 1 29.4437 49.4191)" fill="#3BC4FF" fill-opacity="0.2" stroke="#00C2FF" stroke-width="0.540352"/>
<rect x="-0.467967" width="32.9589" height="32.9589" rx="3.51229" transform="matrix(0.866041 -0.499972 0.866041 0.499972 1.33673 33.0951)" fill="#3BC4FF" fill-opacity="0.2" stroke="#00C2FF" stroke-width="0.540352"/>
</g>
<g filter="url(#filter4_b_1338_11623)">
<rect x="-0.233984" y="-0.405272" width="32.9589" height="32.9589" rx="3.51229" transform="matrix(0.86601 0.500028 3.18351e-05 1 57.5649 65.8655)" fill="#3BC4FF" fill-opacity="0.2" stroke="#00C2FF" stroke-width="0.540352"/>
<rect x="-0.233966" y="-0.135081" width="32.9589" height="32.9589" rx="3.51229" transform="matrix(0.86601 -0.500028 -3.18351e-05 1 85.6405 81.8415)" fill="#3BC4FF" fill-opacity="0.2" stroke="#00C2FF" stroke-width="0.540352"/>
<rect x="-0.467967" width="32.9589" height="32.9589" rx="3.51229" transform="matrix(0.866041 -0.499972 0.866041 0.499972 57.5335 65.5175)" fill="#3BC4FF" fill-opacity="0.2" stroke="#00C2FF" stroke-width="0.540352"/>
</g>
<g filter="url(#filter5_b_1338_11623)">
<rect x="-0.233984" y="-0.405272" width="32.9589" height="32.9589" rx="3.51229" transform="matrix(0.86601 0.500028 3.18351e-05 1 57.5649 33.4432)" fill="#3BC4FF" fill-opacity="0.2" stroke="#00C2FF" stroke-width="0.540352"/>
<rect x="-0.233966" y="-0.135081" width="32.9589" height="32.9589" rx="3.51229" transform="matrix(0.86601 -0.500028 -3.18351e-05 1 85.6405 49.4191)" fill="#3BC4FF" fill-opacity="0.2" stroke="#00C2FF" stroke-width="0.540352"/>
<rect x="-0.467967" width="32.9589" height="32.9589" rx="3.51229" transform="matrix(0.866041 -0.499972 0.866041 0.499972 57.5335 33.0951)" fill="#3BC4FF" fill-opacity="0.2" stroke="#00C2FF" stroke-width="0.540352"/>
</g>
<g filter="url(#filter6_b_1338_11623)">
<rect x="-0.233984" y="-0.405272" width="32.9589" height="32.9589" rx="3.51229" transform="matrix(0.86601 0.500028 3.18351e-05 1 29.4662 82.0765)" fill="#3BC4FF" fill-opacity="0.2" stroke="#00C2FF" stroke-width="0.540352"/>
<rect x="-0.233966" y="-0.135081" width="32.9589" height="32.9589" rx="3.51229" transform="matrix(0.86601 -0.500028 -3.18351e-05 1 57.5424 98.0524)" fill="#3BC4FF" fill-opacity="0.2" stroke="#00C2FF" stroke-width="0.540352"/>
<rect x="-0.467967" width="32.9589" height="32.9589" rx="3.51229" transform="matrix(0.866041 -0.499972 0.866041 0.499972 29.4349 81.7284)" fill="#3BC4FF" fill-opacity="0.2" stroke="#00C2FF" stroke-width="0.540352"/>
</g>
<g filter="url(#filter7_b_1338_11623)">
<rect x="-0.233984" y="-0.405272" width="32.9589" height="32.9589" rx="3.51229" transform="matrix(0.86601 0.500028 3.18351e-05 1 29.4662 49.6536)" fill="#3BC4FF" fill-opacity="0.2" stroke="#00C2FF" stroke-width="0.540352"/>
<rect x="-0.233966" y="-0.135081" width="32.9589" height="32.9589" rx="3.51229" transform="matrix(0.86601 -0.500028 -3.18351e-05 1 57.5424 65.6296)" fill="#3BC4FF" fill-opacity="0.2" stroke="#00C2FF" stroke-width="0.540352"/>
<rect x="-0.467967" width="32.9589" height="32.9589" rx="3.51229" transform="matrix(0.866041 -0.499972 0.866041 0.499972 29.4349 49.3056)" fill="#3BC4FF" fill-opacity="0.2" stroke="#00C2FF" stroke-width="0.540352"/>
</g>
<defs>
<filter id="filter0_b_1338_11623" x="24.4908" y="29.3609" width="66.1643" height="72.7112" filterUnits="userSpaceOnUse" color-interpolation-filters="sRGB">
<feFlood flood-opacity="0" result="BackgroundImageFix"/>
<feGaussianBlur in="BackgroundImageFix" stdDeviation="2.26948"/>
<feComposite in2="SourceAlpha" operator="in" result="effect1_backgroundBlur_1338_11623"/>
<feBlend mode="normal" in="SourceGraphic" in2="effect1_backgroundBlur_1338_11623" result="shape"/>
</filter>
<filter id="filter1_b_1338_11623" x="24.4908" y="-3.06142" width="66.1643" height="72.7112" filterUnits="userSpaceOnUse" color-interpolation-filters="sRGB">
<feFlood flood-opacity="0" result="BackgroundImageFix"/>
<feGaussianBlur in="BackgroundImageFix" stdDeviation="2.26948"/>
<feComposite in2="SourceAlpha" operator="in" result="effect1_backgroundBlur_1338_11623"/>
<feBlend mode="normal" in="SourceGraphic" in2="effect1_backgroundBlur_1338_11623" result="shape"/>
</filter>
<filter id="filter2_b_1338_11623" x="-3.60732" y="45.5714" width="66.1639" height="72.7112" filterUnits="userSpaceOnUse" color-interpolation-filters="sRGB">
<feFlood flood-opacity="0" result="BackgroundImageFix"/>
<feGaussianBlur in="BackgroundImageFix" stdDeviation="2.26948"/>
<feComposite in2="SourceAlpha" operator="in" result="effect1_backgroundBlur_1338_11623"/>
<feBlend mode="normal" in="SourceGraphic" in2="effect1_backgroundBlur_1338_11623" result="shape"/>
</filter>
<filter id="filter3_b_1338_11623" x="-3.60732" y="13.149" width="66.1639" height="72.7112" filterUnits="userSpaceOnUse" color-interpolation-filters="sRGB">
<feFlood flood-opacity="0" result="BackgroundImageFix"/>
<feGaussianBlur in="BackgroundImageFix" stdDeviation="2.26948"/>
<feComposite in2="SourceAlpha" operator="in" result="effect1_backgroundBlur_1338_11623"/>
<feBlend mode="normal" in="SourceGraphic" in2="effect1_backgroundBlur_1338_11623" result="shape"/>
</filter>
<filter id="filter4_b_1338_11623" x="52.5895" y="45.5714" width="66.1639" height="72.7112" filterUnits="userSpaceOnUse" color-interpolation-filters="sRGB">
<feFlood flood-opacity="0" result="BackgroundImageFix"/>
<feGaussianBlur in="BackgroundImageFix" stdDeviation="2.26948"/>
<feComposite in2="SourceAlpha" operator="in" result="effect1_backgroundBlur_1338_11623"/>
<feBlend mode="normal" in="SourceGraphic" in2="effect1_backgroundBlur_1338_11623" result="shape"/>
</filter>
<filter id="filter5_b_1338_11623" x="52.5895" y="13.149" width="66.1639" height="72.7112" filterUnits="userSpaceOnUse" color-interpolation-filters="sRGB">
<feFlood flood-opacity="0" result="BackgroundImageFix"/>
<feGaussianBlur in="BackgroundImageFix" stdDeviation="2.26948"/>
<feComposite in2="SourceAlpha" operator="in" result="effect1_backgroundBlur_1338_11623"/>
<feBlend mode="normal" in="SourceGraphic" in2="effect1_backgroundBlur_1338_11623" result="shape"/>
</filter>
<filter id="filter6_b_1338_11623" x="24.4908" y="61.7823" width="66.1643" height="72.7112" filterUnits="userSpaceOnUse" color-interpolation-filters="sRGB">
<feFlood flood-opacity="0" result="BackgroundImageFix"/>
<feGaussianBlur in="BackgroundImageFix" stdDeviation="2.26948"/>
<feComposite in2="SourceAlpha" operator="in" result="effect1_backgroundBlur_1338_11623"/>
<feBlend mode="normal" in="SourceGraphic" in2="effect1_backgroundBlur_1338_11623" result="shape"/>
</filter>
<filter id="filter7_b_1338_11623" x="24.4908" y="29.3595" width="66.1643" height="72.7112" filterUnits="userSpaceOnUse" color-interpolation-filters="sRGB">
<feFlood flood-opacity="0" result="BackgroundImageFix"/>
<feGaussianBlur in="BackgroundImageFix" stdDeviation="2.26948"/>
<feComposite in2="SourceAlpha" operator="in" result="effect1_backgroundBlur_1338_11623"/>
<feBlend mode="normal" in="SourceGraphic" in2="effect1_backgroundBlur_1338_11623" result="shape"/>
</filter>
</defs>
</svg>
