<svg width="120" height="120" viewBox="0 0 120 120" fill="none" xmlns="http://www.w3.org/2000/svg">
<g filter="url(#filter0_b_1338_11259)">
<circle cx="60.1137" cy="60.1087" r="59.1144" transform="rotate(18.0621 60.1137 60.1087)" fill="#FF58DA" fill-opacity="0.2"/>
<path d="M112.904 53.2443L112.723 53.1441C98.4925 45.0588 63.3375 41.6662 34.3241 45.5698L34.1851 45.5892V45.4501C34.2239 24.4444 39.5796 8.29961 48.1597 3.31905C51.8725 1.16188 56.0543 1.27831 60.2554 3.64246C73.7547 1.84752 86.5651 5.59264 96.3936 14.2084C101.618 18.8095 105.751 24.5185 108.489 30.9191C111.442 37.7108 112.93 45.1493 112.917 53.0535L112.904 53.2443ZM59.6636 43.7101C81.3775 43.7101 102.354 47.0704 112.661 52.8304C112.661 45.0394 111.167 37.6946 108.256 31C105.528 24.6327 101.416 18.9529 96.2189 14.3733C86.4486 5.81256 73.6738 2.08361 60.2457 3.89796H60.2069L60.1713 3.87532C55.9669 1.495 51.976 1.37533 48.2794 3.51956C39.7963 8.45485 34.4923 24.4573 34.4276 45.311C42.7955 44.2252 51.2256 43.6904 59.6636 43.7101Z" fill="#FF01E6"/>
<path d="M86.7142 8.01504C79.5538 3.9465 61.8308 2.24211 47.2125 4.20199L47.1802 3.96267C61.8437 1.98985 79.6315 3.71364 86.8339 7.80482L86.7142 8.01504Z" fill="#FF01E6"/>
<path d="M105.576 25.6958C93.3053 18.7359 62.9497 15.7929 37.9078 19.1596L37.8755 18.9203C62.9594 15.5471 93.3861 18.4934 105.695 25.4856L105.576 25.6958Z" fill="#FF01E6"/>
<path d="M92.6841 46.6013H92.4416C92.4771 27.0768 86.8045 11.6177 77.2638 5.24321C72.1765 1.84737 66.3033 1.36225 60.2781 3.88811L60.1714 3.66496C66.2774 1.12293 72.2282 1.59835 77.3867 5.0427C87.0147 11.4592 92.7197 26.996 92.6841 46.6013Z" fill="#FF01E6"/>
<path d="M64.5311 43.8784H64.2885C64.3371 16.3883 62.8914 1.78941 61.4328 1.60183C61.2905 1.58242 60.8895 1.75706 60.3494 3.8075L60.1133 3.74606C60.5596 2.05461 60.9897 1.29458 61.4651 1.35927C63.6352 1.64387 64.5699 22.918 64.5311 43.8784Z" fill="#FF01E6"/>
<path d="M7.59102 67.4068L7.40991 67.3065C2.95651 64.7742 0.889897 61.9476 1.43323 59.1339C1.94746 56.4948 4.71588 53.9819 9.31158 51.7794C13.9234 33.6586 26.2132 17.9084 42.0281 9.55461C43.8165 6.76356 45.8734 4.6452 48.1729 3.31921C51.8954 1.15557 56.0901 1.27847 60.3041 3.67173L60.6276 3.8496L60.2686 3.89812C53.9544 4.77095 47.8434 6.7492 42.2156 9.74219C37.3386 17.3909 34.4796 30.1172 34.4537 45.4502V45.557H34.3502C23.8037 46.9735 15.2688 49.2115 9.54767 51.9185C8.27814 56.9093 7.62643 62.0371 7.60719 67.1869L7.59102 67.4068ZM9.23719 52.0673C4.8226 54.2083 2.16738 56.6339 1.67255 59.1824C1.15509 61.8473 3.11821 64.5446 7.35169 66.9928C7.38364 61.9603 8.01662 56.9496 9.23719 52.0673ZM41.7726 9.96535C26.2487 18.3029 14.1789 33.8138 9.59295 51.6468C15.3206 48.9625 23.7843 46.7504 34.1724 45.3435C34.2273 30.2531 37.0152 17.6788 41.7726 9.96535ZM53.7388 2.00292C51.8146 2.01502 49.9289 2.54451 48.2796 3.53589C46.1225 4.79074 44.1723 6.77003 42.4582 9.35733C47.8952 6.50796 53.7746 4.59773 59.8481 3.7073C57.9823 2.63539 55.8772 2.04932 53.7259 2.00292H53.7388Z" fill="#FF01E6"/>
<path d="M33.5999 15.1595C31.336 13.8658 30.2752 12.4201 30.5566 10.9745C31.1452 7.95058 37.5132 5.26301 47.18 3.96289L47.2124 4.20222C37.6523 5.49587 31.3651 8.08317 30.7959 11.0198C30.5372 12.3555 31.5495 13.7138 33.7067 14.946L33.5999 15.1595Z" fill="#FF01E6"/>
<path d="M14.6641 37.9244C10.809 35.7349 9.02375 33.2899 9.48946 30.8514C10.4856 25.7123 21.3587 21.149 37.869 18.9207L37.9013 19.16C21.5043 21.3657 10.7087 25.8514 9.71909 30.8966C9.26954 33.222 11.0127 35.5797 14.7708 37.711L14.6641 37.9244Z" fill="#FF01E6"/>
<path d="M11.3781 51.0255H11.1355C11.1646 34.8548 17.2512 20.5438 27.8301 11.7664C36.808 4.32787 48.3215 1.43979 60.2523 3.6584L60.2102 3.89773C48.3506 1.69205 36.9083 4.54456 27.9853 11.9507C17.4615 20.6764 11.4072 34.926 11.3781 51.0255Z" fill="#FF01E6"/>
<path d="M1.75013 58.8393H1.50757C1.53344 44.1822 7.38722 30.408 18.0016 20.0588C29.1917 9.13391 44.1981 3.31894 60.2459 3.66499V3.90755C44.224 3.53563 29.2985 9.35706 18.1569 20.2237C7.60391 30.5277 1.776 44.2372 1.75013 58.8393Z" fill="#FF01E6"/>
<path d="M60.5889 76.5269C38.7456 76.5269 17.659 73.1278 7.41008 67.3064L7.34863 67.2708V67.1997C7.40685 36.0744 31.1227 7.56876 60.2138 3.65869H60.2558L60.2914 3.6781C74.5636 11.7861 86.1256 43.6875 86.0674 74.7934V74.9002H85.9639C77.5507 76.0014 69.0739 76.5448 60.5889 76.5269ZM7.59119 67.1285C21.8214 75.1718 56.8761 78.5547 85.8249 74.6802C85.8572 43.7134 74.376 11.9963 60.2073 3.90449C31.2715 7.81779 7.68498 36.1617 7.59119 67.1285Z" fill="#FF01E6"/>
<path d="M60.4561 19.8162C49.4277 19.8162 38.7874 18.0988 33.6128 15.159L33.7325 14.9456C40.8928 19.0141 58.6126 20.725 73.2342 18.7586L73.2665 18.9979C69.0192 19.5539 64.7396 19.8273 60.4561 19.8162Z" fill="#FF01E6"/>
<path d="M60.5824 45.9032C41.7209 45.9032 23.5128 42.9666 14.6577 37.9407L14.7774 37.7273C27.0477 44.7001 57.4032 47.6334 82.4451 44.2635L82.4775 44.506C75.2178 45.4531 67.9035 45.9199 60.5824 45.9032Z" fill="#FF01E6"/>
<path d="M27.8305 73.6355H27.5879C27.6299 42.5264 42.2579 11.1359 60.1718 3.66504L60.2656 3.88819C42.4358 11.3267 27.8693 42.6137 27.8305 73.6355Z" fill="#FF01E6"/>
<path d="M55.9677 76.3586H55.7251C55.7801 45.2851 57.7497 12.7109 60.1138 3.74585L60.3499 3.8073C57.989 12.7561 56.0226 45.3012 55.9677 76.3586Z" fill="#FF01E6"/>
<path d="M85.8247 74.9263V74.7872C85.8829 43.7589 74.3759 11.9448 60.1716 3.88208L59.8481 3.70421L60.2039 3.65893C73.7032 1.84458 86.5459 5.59941 96.3712 14.1925C101.596 18.7936 105.728 24.5026 108.467 30.9033C111.41 37.6691 112.901 45.0914 112.894 52.9665C117.306 55.4891 119.363 58.3028 118.81 61.1036C117.658 67.0479 105.068 72.3357 85.9541 74.9069L85.8247 74.9263ZM60.6017 3.85944C74.709 12.2358 86.0899 43.8172 86.0673 74.6546C104.997 72.0932 117.438 66.8927 118.58 61.0712C119.104 58.3675 117.079 55.6314 112.723 53.1573L112.662 53.1218V53.0506C112.662 45.182 111.193 37.7693 108.257 31.0132C105.529 24.6459 101.417 18.9661 96.2192 14.3865C86.5362 5.88725 73.8972 2.15829 60.6017 3.85944Z" fill="#FF01E6"/>
<path d="M73.2535 18.9983L73.2212 18.7589C82.7813 17.4653 89.0684 14.878 89.6376 11.9414C89.8964 10.6089 88.8873 9.25059 86.7269 8.01515L86.8466 7.80493C89.1105 9.09858 90.1713 10.541 89.8899 11.9899C89.2787 15.0138 82.9204 17.6981 73.2535 18.9983Z" fill="#FF01E6"/>
<path d="M82.4869 44.4894L82.4546 44.2468C98.8581 42.0411 109.654 37.5457 110.63 32.5101C111.08 30.1848 109.337 27.8303 105.579 25.6958L105.698 25.4856C109.553 27.6751 111.339 30.1201 110.873 32.5586C109.867 37.6977 98.981 42.2675 82.4869 44.4894Z" fill="#FF01E6"/>
<path d="M109.117 69.2113H108.874C108.933 38.1992 87.1023 8.90122 60.2104 3.89802L60.2525 3.65869C87.2543 8.6813 109.175 38.0893 109.117 69.2113Z" fill="#FF01E6"/>
<path d="M118.745 61.4072H118.503C118.561 30.408 92.4193 4.60934 60.23 3.89783V3.65527C92.5551 4.37002 118.803 30.2754 118.745 61.4072Z" fill="#FF01E6"/>
<path d="M59.9969 116.582L59.9613 116.562C45.6923 108.454 34.1271 76.5527 34.1853 45.4501V45.3433H34.292C63.3474 41.4333 98.5865 44.8453 112.843 52.9436L112.904 52.9791V53.0503C112.846 84.1723 89.13 112.678 60.0389 116.588L59.9969 116.582ZM34.4278 45.5568C34.3987 76.5204 45.8767 108.238 60.0454 116.329C88.9812 112.413 112.564 84.0656 112.661 53.1085C98.4216 45.0652 63.3766 41.6985 34.4278 45.5568Z" fill="#FF01E6"/>
<path d="M105.469 82.5232C93.1988 75.5536 62.8433 72.6203 37.8014 75.987L37.769 75.7477C62.8562 72.3745 93.2797 75.3208 105.592 82.3129L105.469 82.5232Z" fill="#FF01E6"/>
<path d="M86.5331 105.288C79.3727 101.219 61.6529 99.5086 47.0314 101.475L46.999 101.236C61.6626 99.2628 79.4535 100.987 86.6527 105.078L86.5331 105.288Z" fill="#FF01E6"/>
<path d="M60.0684 116.569L59.9746 116.346C77.8206 108.907 92.3838 77.6201 92.4421 46.6016H92.6846C92.6264 77.7107 77.9952 109.098 60.0684 116.569Z" fill="#FF01E6"/>
<path d="M60.1396 116.488L59.9067 116.426C62.2644 107.477 64.2308 74.9323 64.289 43.8782H64.5316C64.4733 74.9517 62.5037 107.523 60.1396 116.488Z" fill="#FF01E6"/>
<path d="M53.4188 117.024C42.3808 117.024 32.0736 113.231 23.8718 106.028C18.647 101.427 14.5148 95.7183 11.7762 89.3176C8.8331 82.555 7.3454 75.1327 7.34864 67.2576C2.93728 64.735 0.880374 61.9213 1.43341 59.1205C2.588 53.1762 15.1785 47.8852 34.2922 45.3173L34.428 45.2979V45.4369C34.3698 76.4619 45.8801 108.27 60.0812 116.339L60.4046 116.517L60.0488 116.562C57.8517 116.864 55.6367 117.019 53.4188 117.024ZM34.1855 45.5792C15.2561 48.1407 2.81438 53.3411 1.67273 59.1626C1.1488 61.8663 3.17337 64.6024 7.52975 67.0765L7.5912 67.1121V67.1832C7.5912 75.0519 9.05949 82.4645 11.9993 89.2174C14.7242 95.5848 18.8342 101.265 24.0303 105.844C33.7165 114.33 46.3458 118.059 59.6543 116.365C45.547 107.998 34.1628 76.4231 34.1855 45.5792Z" fill="#FF01E6"/>
<path d="M14.5702 94.7383C10.7184 92.552 8.9299 90.1038 9.39562 87.6685C10.3917 82.5295 21.2681 77.9661 37.7751 75.7378L37.8075 75.9771C21.404 78.1828 10.6084 82.6815 9.63494 87.7138C9.18217 90.0391 10.9286 92.3968 14.6834 94.5281L14.5702 94.7383Z" fill="#FF01E6"/>
<path d="M33.4221 112.429C31.1582 111.135 30.0974 109.693 30.3755 108.247C30.9641 105.22 37.3321 102.536 46.999 101.236L47.0313 101.475C37.4712 102.769 31.1841 105.372 30.6148 108.292C30.3561 109.628 31.3684 110.983 33.5256 112.219L33.4221 112.429Z" fill="#FF01E6"/>
<path d="M60.0006 116.575C33.0053 111.556 11.0779 82.1447 11.1361 51.0259H11.3787C11.3204 82.0347 33.1508 111.333 60.0459 116.336L60.0006 116.575Z" fill="#FF01E6"/>
<path d="M60.0196 116.579C27.6977 115.864 1.44945 89.9584 1.50767 58.8298H1.75022C1.69201 89.829 27.8335 115.624 60.0261 116.336L60.0196 116.579Z" fill="#FF01E6"/>
<path d="M66.5333 118.451C64.2292 118.406 61.9764 117.762 59.9971 116.582C57.8167 116.876 55.6191 117.024 53.4189 117.025C42.3808 117.025 32.0737 113.231 23.8719 106.029C18.6471 101.428 14.5148 95.7186 11.7762 89.3179C8.82348 82.5262 7.33578 75.0877 7.34872 67.1867V66.9797L7.52659 67.08C21.7568 75.1653 56.915 78.5579 85.9284 74.6543L86.0643 74.6349V74.774C86.0254 95.7797 80.673 111.921 72.0928 116.902C70.4114 117.906 68.4917 118.441 66.5333 118.451ZM60.0457 116.329L60.0812 116.352C64.2856 118.732 68.2765 118.852 71.9731 116.708C80.4595 111.779 85.7635 95.7764 85.8249 74.926C56.9183 78.7875 21.9411 75.4208 7.59128 67.4066C7.59128 75.1977 9.08545 82.5391 11.9994 89.2338C14.7242 95.6013 18.8342 101.281 24.0304 105.86C33.8007 114.421 46.5787 118.15 60.0069 116.336L60.0457 116.329Z" fill="#FF01E6"/>
<path d="M60.4759 102.714C41.6145 102.714 23.4063 99.7774 14.5513 94.7483L14.6709 94.5381C26.9412 101.511 57.2968 104.444 82.3419 101.074L82.3743 101.317C75.1135 102.264 67.7982 102.731 60.4759 102.714Z" fill="#FF01E6"/>
<path d="M60.2754 117.09C49.247 117.09 38.6067 115.372 33.4321 112.429L33.5518 112.219C40.7122 116.288 58.432 117.998 73.0502 116.032L73.0826 116.271C68.8364 116.827 64.5579 117.101 60.2754 117.09Z" fill="#FF01E6"/>
<path d="M52.4581 118.179C49.0289 118.17 45.682 117.129 42.8528 115.191C33.2474 108.775 27.5327 93.241 27.5715 73.6357H27.8302C27.7914 93.1602 33.4673 108.619 43.0048 114.991C48.0921 118.386 53.9652 118.855 59.9904 116.346L60.0842 116.569C57.6742 117.606 55.0818 118.154 52.4581 118.179Z" fill="#FF01E6"/>
<path d="M58.8425 118.878H58.7908C56.6174 118.593 55.686 97.319 55.7248 76.3618H55.9674C55.9156 103.852 57.3645 118.448 58.8199 118.638C58.9622 118.638 59.3632 118.48 59.9065 116.429L60.1394 116.491C59.7092 118.114 59.2985 118.878 58.8425 118.878Z" fill="#FF01E6"/>
<path d="M66.5334 118.451C64.3924 118.451 62.1802 117.82 59.9616 116.562L59.6382 116.384L59.9939 116.336C66.3088 115.462 72.4206 113.483 78.0501 110.492C82.9239 102.843 85.7829 90.1168 85.812 74.787V74.6867H85.9187C96.462 73.2702 105 71.0321 110.718 68.3252C111.988 63.3344 112.639 58.2065 112.659 53.0568V52.8499L112.84 52.9501C117.3 55.463 119.356 58.2897 118.82 61.1034C118.309 63.7424 115.54 66.2553 110.944 68.4545C106.342 86.5657 94.0429 102.326 78.2247 110.679C76.4363 113.47 74.3794 115.589 72.0961 116.915C70.4125 117.915 68.4916 118.445 66.5334 118.451ZM60.3885 116.527C64.4667 118.739 68.3606 118.791 71.9635 116.708C74.1206 115.453 76.074 113.474 77.7849 110.903C72.3469 113.742 66.4689 115.643 60.3982 116.527H60.3885ZM86.0578 74.8937C86.0158 89.9842 83.2312 102.555 78.4738 110.269C93.9976 101.931 106.064 86.4234 110.65 68.5904C104.932 71.2747 96.4685 73.4869 86.0675 74.8937H86.0578ZM112.901 53.2477C112.868 58.2792 112.234 63.2888 111.012 68.1699C115.427 66.0289 118.085 63.6033 118.577 61.0549C119.098 58.3932 117.135 55.6927 112.904 53.2477H112.901Z" fill="#FF01E6"/>
<path d="M82.38 101.317L82.3477 101.074C98.7479 98.8683 109.543 94.3728 110.52 89.3373C110.97 87.0119 109.227 84.6575 105.468 82.523L105.591 82.3127C109.443 84.5023 111.232 86.9473 110.766 89.3858C109.76 94.5248 98.887 99.0947 82.38 101.317Z" fill="#FF01E6"/>
<path d="M73.0724 116.271L73.04 116.032C82.6034 114.738 88.8873 112.151 89.4565 109.214C89.7152 107.882 88.7062 106.523 86.5458 105.288L86.6654 105.078C88.9293 106.371 89.9901 107.814 89.7087 109.263C89.1104 112.287 82.7392 114.971 73.0724 116.271Z" fill="#FF01E6"/>
<path d="M67.798 117.306C65.1819 117.302 62.5717 117.058 60.0005 116.575L60.0458 116.336C71.9053 118.545 83.3477 115.689 92.2707 108.283C102.795 99.5508 108.846 85.3206 108.875 69.2114H109.117C109.088 85.3821 103.005 99.6931 92.4227 108.467C85.5136 114.225 76.7917 117.356 67.798 117.306Z" fill="#FF01E6"/>
<path d="M61.4005 116.591C60.9413 116.591 60.482 116.591 60.0195 116.591V116.349C76.0091 116.701 90.9475 110.902 102.092 100.023C112.642 89.7188 118.47 76.0093 118.496 61.4202H118.738C118.713 76.0773 112.859 89.8482 102.261 100.197C91.4003 110.796 76.9308 116.591 61.4005 116.591Z" fill="#FF01E6"/>
<path d="M60.192 118.894C58.866 118.894 57.734 118.843 57.1422 118.817C56.2949 118.778 54.3479 118.629 53.0348 118.461C51.7218 118.293 51.7412 118.293 49.8977 117.992C49.5517 117.937 49.1442 117.856 48.7464 117.775L48.2257 117.672C45.8486 117.178 43.5038 116.54 41.2044 115.76C39.8655 115.285 38.2937 114.68 37.1908 114.224C36.2626 113.836 35.0498 113.28 34.1799 112.84C32.8345 112.158 31.1398 111.223 29.9755 110.537C28.8112 109.852 27.4981 109.001 26.6217 108.367C24.1201 106.624 21.7555 104.692 19.5487 102.588C18.5008 101.585 17.3171 100.369 16.528 99.4863C15.5868 98.4352 14.2641 96.8634 13.31 95.6053C11.4064 93.0989 9.70527 90.445 8.22272 87.6688C6.85397 84.964 5.64029 82.1836 4.58756 79.3409C4.01635 77.7512 3.53159 76.1317 3.13543 74.4897C2.89934 73.5615 2.67618 72.4263 2.4595 71.3332C2.36247 70.8383 2.26868 70.3629 2.17812 69.9263C1.85767 68.2362 1.64701 66.5272 1.54747 64.8099L1.5313 64.5512C1.37775 62.6763 1.32485 60.7946 1.37283 58.9141C1.39547 58.5357 1.41487 58.1217 1.43428 57.6948C1.48926 56.5241 1.55394 55.1948 1.6639 54.1373C1.82036 52.4151 2.07084 50.7028 2.41422 49.0079C2.49184 48.6845 2.56946 48.3094 2.65354 47.9342C2.90257 46.7893 3.18717 45.4957 3.47178 44.4834C3.91162 42.9245 4.54875 40.9549 5.06297 39.5804C5.5772 38.2059 6.2693 36.5501 6.82234 35.3761C7.23307 34.5028 8.29387 32.3069 9.25117 30.7157C10.7227 28.2642 12.8669 25.25 14.2544 23.413C14.9982 22.4428 16.0526 21.2849 16.984 20.2759C17.3074 19.9525 17.5888 19.6291 17.8572 19.3057C18.8286 18.2617 19.8565 17.2716 20.9361 16.34C22.3526 15.1078 24.3028 13.578 25.645 12.5366C26.9001 11.5872 28.2101 10.7125 29.568 9.91697C31.3015 8.89822 33.7012 7.61427 35.535 6.72488C36.6184 6.19772 38.2743 5.51208 39.9657 4.89113C41.2756 4.40601 42.9961 3.85297 44.2412 3.51339C46.2729 2.93969 48.3338 2.47546 50.4152 2.12271C51.518 1.9222 53.7173 1.62789 55.344 1.50176C56.4986 1.41444 57.4042 1.35946 58.0381 1.34329C59.8039 1.29801 59.9785 1.29478 61.8608 1.34329C62.1098 1.34329 64.3705 1.39827 67.2327 1.74755C68.9144 1.9513 70.3148 2.20357 70.373 2.2165C70.9002 2.31353 71.6441 2.45259 72.2036 2.56902C72.6143 2.65635 73.1188 2.77277 73.5845 2.89244L74.1473 3.0218C74.752 3.16087 75.5897 3.38726 76.6343 3.69127C77.21 3.86268 78.0056 4.11494 79.0599 4.46423C80.4279 4.91377 82.0062 5.51855 83.0799 6.00367C83.8755 6.36266 84.7552 6.77986 85.6252 7.21C86.8046 7.74687 87.9602 8.33656 89.0922 8.97907L89.1633 9.02112C90.9271 10.0268 92.6381 11.1225 94.2894 12.3038C95.4343 13.1705 97.1614 14.4803 98.3806 15.5088C98.8366 15.8936 100.412 17.239 101.524 18.4195L101.734 18.6394C102.76 19.7164 104.037 21.0553 104.969 22.1323C105.774 23.0702 106.87 24.4641 107.698 25.5993C108.526 26.7345 109.639 28.4259 110.47 29.7616C111.349 31.204 112.168 32.6723 112.653 33.7008C113.241 34.9459 114.134 36.825 114.713 38.248C115.15 39.3249 115.725 40.9388 116.252 42.5655C117.101 45.2334 117.75 47.9608 118.193 50.7253C118.661 53.8672 118.91 57.0378 118.94 60.2142C118.94 61.7666 118.837 63.8655 118.701 65.4341C118.607 66.5175 118.41 67.8726 118.235 69.0693C118.183 69.4347 118.131 69.7872 118.086 70.1106C117.809 71.7981 117.445 73.4702 116.996 75.1203C116.673 76.3881 116.136 78.1151 115.641 79.522C115.146 80.9288 114.422 82.7561 113.746 84.2567C113.364 85.1106 112.847 86.1099 112.349 87.0801C112.129 87.507 111.915 87.9178 111.728 88.2929C110.902 89.8203 109.994 91.3015 109.008 92.7302C108.497 93.5031 107.831 94.3957 107.187 95.2593C106.912 95.628 106.65 95.9805 106.414 96.3071C105.305 97.7428 104.117 99.1161 102.857 100.421C101.867 101.479 100.667 102.659 99.8036 103.429C98.5423 104.551 96.728 106.048 95.1821 107.248C94.1213 108.073 92.6691 109.03 91.8994 109.528C90.9939 110.11 89.7778 110.822 88.7979 111.388L88.5003 111.559C86.5436 112.676 84.5108 113.654 82.4169 114.486C80.6285 115.185 79.2701 115.68 78.2675 116.006C77.0095 116.414 75.2824 116.902 73.9629 117.222C72.5917 117.546 70.981 117.892 69.8588 118.076L69.7068 118.099C69.1473 118.193 68.452 118.302 67.9151 118.37C66.9449 118.493 65.6965 118.623 64.9235 118.694C64.8588 118.694 63.2515 118.852 60.9391 118.888L60.192 118.894ZM60.027 1.59555C59.4772 1.59555 58.9889 1.59555 58.0316 1.63112C57.4009 1.6473 56.4986 1.70227 55.3505 1.7896C53.7334 1.91573 51.5407 2.2068 50.4443 2.40732C48.3733 2.7612 46.3222 3.22324 44.2995 3.79153C43.0576 4.11494 41.3467 4.68091 40.0401 5.1628C38.3584 5.78375 36.709 6.45645 35.6352 6.98685C33.8047 7.87623 31.4147 9.15372 29.6844 10.1692C28.3352 10.9535 27.0338 11.8175 25.7873 12.7565C24.4451 13.7979 22.5014 15.3244 21.0881 16.5534C20.016 17.4786 18.9957 18.4622 18.0318 19.4997L17.1554 20.4699C16.2272 21.4725 15.1793 22.6109 14.442 23.5877C13.0577 25.4214 10.92 28.4388 9.45169 30.8677C8.50085 32.4524 7.44329 34.6419 7.03579 35.5087C6.48599 36.6665 5.80035 38.3062 5.28289 39.6839C4.76543 41.0617 4.13478 43.0151 3.69817 44.5675C3.4168 45.5733 3.1322 46.8669 2.88317 48.0053C2.80231 48.3805 2.72146 48.746 2.64384 49.0791C2.30333 50.7656 2.05394 52.4692 1.89676 54.1825C1.79003 55.2239 1.72535 56.5467 1.67037 57.7142C1.65096 58.1444 1.63156 58.5583 1.60892 58.9367C1.56155 60.8075 1.61337 62.6794 1.76416 64.5447L1.78033 64.8034C1.88153 66.5099 2.09218 68.208 2.41098 69.8875C2.50154 70.3209 2.59533 70.7995 2.69236 71.2943C2.90581 72.3875 3.12896 73.5162 3.36506 74.4379C3.75825 76.0702 4.23977 77.6799 4.80748 79.26C5.74214 81.705 7.12958 85.13 8.4297 87.5588C9.90447 90.3268 11.6004 92.9712 13.5008 95.4662C14.4323 96.7114 15.7647 98.2767 16.7026 99.3246C17.4853 100.201 18.6657 101.414 19.7071 102.413C21.9078 104.507 24.2636 106.431 26.7543 108.17C27.6275 108.797 28.9373 109.648 30.0919 110.327C31.2465 111.006 32.9541 111.944 34.2963 112.623C35.163 113.063 36.3661 113.616 37.2911 114.001C38.3842 114.454 39.956 115.055 41.2917 115.531C43.5794 116.309 45.9123 116.947 48.2774 117.442L48.8014 117.546C49.1959 117.623 49.6034 117.704 49.943 117.759C51.7703 118.06 51.7703 118.06 53.0704 118.228C54.3705 118.396 56.3046 118.551 57.1519 118.581C57.8569 118.61 59.3123 118.674 60.9488 118.652C63.2515 118.616 64.8491 118.467 64.9138 118.461C65.6835 118.387 66.9287 118.26 67.8989 118.138C68.4293 118.07 69.1247 117.956 69.6809 117.866L69.8329 117.843C70.9487 117.659 72.5528 117.326 73.9209 116.993C75.2307 116.669 76.9545 116.187 78.2061 115.78C79.2022 115.456 80.5573 114.962 82.3426 114.266C84.4244 113.437 86.4463 112.465 88.3936 111.356L88.6879 111.184C89.6582 110.618 90.8807 109.91 91.783 109.331C92.3975 108.93 93.9531 107.914 95.0462 107.067C96.5889 105.87 98.3968 104.373 99.6549 103.257C100.515 102.491 101.709 101.317 102.692 100.266C103.942 98.968 105.119 97.601 106.217 96.1713C106.453 95.8479 106.718 95.4921 106.993 95.1267C107.64 94.2632 108.287 93.3705 108.804 92.604C109.775 91.1832 110.67 89.7117 111.485 88.1959C111.673 87.8208 111.886 87.4068 112.106 86.9799C112.604 86.0097 113.119 85.02 113.497 84.1727C114.173 82.6591 114.913 80.8092 115.389 79.4573C115.864 78.1054 116.411 76.3137 116.734 75.0718C117.182 73.4313 117.544 71.769 117.821 70.0912C117.866 69.7678 117.918 69.4121 117.97 69.0499C118.144 67.8565 118.338 66.5014 118.432 65.4244C118.568 63.8623 118.662 61.7731 118.672 60.2239C118.641 57.0537 118.389 53.8896 117.918 50.7544C117.483 48.0034 116.843 45.2888 116.003 42.6335C115.476 41.0164 114.904 39.3993 114.467 38.3321C113.892 36.9155 113.002 35.0397 112.414 33.8043C111.932 32.7888 111.12 31.3237 110.24 29.8877C109.428 28.5553 108.319 26.8897 107.485 25.7416C106.65 24.5935 105.567 23.2222 104.765 22.2908C103.843 21.217 102.569 19.8813 101.547 18.8076L101.337 18.5877C100.231 17.4266 98.6652 16.0909 98.2124 15.7061C96.9964 14.6841 95.2726 13.3743 94.131 12.5107C92.4848 11.3357 90.7804 10.2444 89.0243 9.24104L88.9596 9.20546C87.9893 8.69447 86.7636 8.05735 85.512 7.44286C77.8051 3.92736 69.1602 2.70162 60.2858 3.88532H60.2599L60.2276 3.64599C67.1705 2.66718 74.2446 3.26296 80.926 5.38919C80.2792 5.14339 79.6032 4.90407 78.9855 4.69708C77.9312 4.34779 77.1388 4.09553 76.5664 3.92736C75.525 3.62335 74.6938 3.4002 74.0923 3.26113L73.5295 3.13176C73.0671 3.02504 72.5593 2.90537 72.1518 2.80835C71.5955 2.68869 70.8582 2.54962 70.331 2.45583C70.2695 2.45583 68.8789 2.19063 67.2036 1.98688C64.3543 1.64083 62.1034 1.58908 61.8543 1.58585C60.9876 1.59555 60.496 1.59555 60.027 1.59555Z" fill="#FF01E6"/>
<path d="M112.904 53.2448L112.723 53.1446C98.493 45.0592 63.338 41.6666 34.3246 45.5702L34.1855 45.5896V45.4506C34.2244 24.4449 39.5801 8.3001 48.1602 3.31954C51.873 1.16237 56.0548 1.2788 60.2559 3.64295C73.7552 1.84801 86.5656 5.59313 96.3941 14.2089C101.619 18.81 105.751 24.5189 108.49 30.9196C111.442 37.7113 112.93 45.1498 112.917 53.054L112.904 53.2448ZM59.664 43.7106C81.378 43.7106 102.355 47.0709 112.662 52.8309C112.662 45.0398 111.168 37.6951 108.257 31.0005C105.529 24.6331 101.417 18.9534 96.2194 14.3738C86.4491 5.81305 73.6743 2.0841 60.2462 3.89845H60.2074L60.1718 3.87581C55.9674 1.49549 51.9765 1.37582 48.2799 3.52005C39.7968 8.45534 34.4928 24.4578 34.4281 45.3115C42.7959 44.2257 51.2261 43.6909 59.664 43.7106Z" fill="#FF01E6"/>
<path d="M86.7147 8.01504C79.5543 3.9465 61.8313 2.24211 47.213 4.20199L47.1807 3.96267C61.8442 1.98985 79.632 3.71364 86.8344 7.80482L86.7147 8.01504Z" fill="#FF01E6"/>
<path d="M105.576 25.6963C93.3053 18.7364 62.9497 15.7933 37.9078 19.1601L37.8755 18.9208C62.9594 15.5476 93.3861 18.4938 105.695 25.486L105.576 25.6963Z" fill="#FF01E6"/>
<path d="M92.6841 46.6013H92.4416C92.4771 27.0768 86.8045 11.6177 77.2638 5.24321C72.1765 1.84737 66.3033 1.36225 60.2781 3.88811L60.1714 3.66496C66.2774 1.12293 72.2282 1.59835 77.3867 5.0427C87.0147 11.4592 92.7197 26.996 92.6841 46.6013Z" fill="#FF01E6"/>
<path d="M64.5311 43.8784H64.2885C64.3371 16.3883 62.8914 1.78941 61.4328 1.60183C61.2905 1.58242 60.8895 1.75706 60.3494 3.8075L60.1133 3.74606C60.5596 2.05461 60.9897 1.29458 61.4651 1.35927C63.6352 1.64387 64.5699 22.918 64.5311 43.8784Z" fill="#FF01E6"/>
<path d="M7.59126 67.4068L7.41015 67.3065C2.95675 64.7742 0.890141 61.9476 1.43347 59.1339C1.9477 56.4948 4.71612 53.9819 9.31182 51.7794C13.9237 33.6586 26.2134 17.9084 42.0283 9.55461C43.8168 6.76356 45.8737 4.6452 48.1732 3.31921C51.8956 1.15557 56.0903 1.27847 60.3044 3.67173L60.6278 3.8496L60.2688 3.89812C53.9547 4.77095 47.8437 6.7492 42.2159 9.74219C37.3388 17.3909 34.4798 30.1172 34.454 45.4502V45.557H34.3505C23.804 46.9735 15.2691 49.2115 9.54791 51.9185C8.27838 56.9093 7.62667 62.0371 7.60743 67.1869L7.59126 67.4068ZM9.23743 52.0673C4.82284 54.2083 2.16762 56.6339 1.6728 59.1824C1.15534 61.8473 3.11845 64.5446 7.35193 66.9928C7.38388 61.9603 8.01687 56.9496 9.23743 52.0673ZM41.7728 9.96535C26.249 18.3029 14.1792 33.8138 9.59319 51.6468C15.3208 48.9625 23.7846 46.7504 34.1726 45.3435C34.2276 30.2531 37.0154 17.6788 41.7728 9.96535ZM53.7391 2.00292C51.8148 2.01502 49.9292 2.54451 48.2799 3.53589C46.1227 4.79074 44.1725 6.77003 42.4584 9.35733C47.8955 6.50796 53.7749 4.59773 59.8484 3.7073C57.9826 2.63539 55.8774 2.04932 53.7262 2.00292H53.7391Z" fill="#FF01E6"/>
<path d="M33.6004 15.1595C31.3365 13.8658 30.2757 12.4201 30.5571 10.9745C31.1457 7.95058 37.5137 5.26301 47.1805 3.96289L47.2129 4.20222C37.6528 5.49587 31.3656 8.08317 30.7964 11.0198C30.5377 12.3555 31.55 13.7138 33.7071 14.946L33.6004 15.1595Z" fill="#FF01E6"/>
<path d="M14.6641 37.9244C10.809 35.7349 9.02375 33.2899 9.48946 30.8514C10.4856 25.7123 21.3587 21.149 37.869 18.9207L37.9013 19.16C21.5043 21.3657 10.7087 25.8514 9.71909 30.8966C9.26954 33.222 11.0127 35.5797 14.7708 37.711L14.6641 37.9244Z" fill="#FF01E6"/>
<path d="M11.3783 51.026H11.1357C11.1648 34.8553 17.2515 20.5443 27.8303 11.7669C36.8083 4.32836 48.3218 1.44028 60.2525 3.65889L60.2105 3.89822C48.3509 1.69254 36.9085 4.54505 27.9856 11.9512C17.4617 20.6769 11.4074 34.9265 11.3783 51.026Z" fill="#FF01E6"/>
<path d="M1.75037 58.8395H1.50781C1.53369 44.1824 7.38747 30.4083 18.0019 20.0591C29.192 9.13415 44.1984 3.31918 60.2461 3.66524V3.9078C44.2242 3.53587 29.2987 9.35731 18.1571 20.224C7.60415 30.5279 1.77625 44.2374 1.75037 58.8395Z" fill="#FF01E6"/>
<path d="M60.5892 76.5269C38.7458 76.5269 17.6593 73.1278 7.41033 67.3064L7.34888 67.2708V67.1997C7.40709 36.0744 31.123 7.56876 60.214 3.65869H60.2561L60.2916 3.6781C74.5639 11.7861 86.1259 43.6875 86.0677 74.7934V74.9002H85.9642C77.551 76.0014 69.0741 76.5448 60.5892 76.5269ZM7.59144 67.1285C21.8216 75.1718 56.8764 78.5547 85.8251 74.6802C85.8574 43.7134 74.3763 11.9963 60.2075 3.90449C31.2718 7.81779 7.68523 36.1617 7.59144 67.1285Z" fill="#FF01E6"/>
<path d="M60.4561 19.8162C49.4277 19.8162 38.7874 18.0988 33.6128 15.159L33.7325 14.9456C40.8928 19.0141 58.6126 20.725 73.2342 18.7586L73.2665 18.9979C69.0192 19.5539 64.7396 19.8273 60.4561 19.8162Z" fill="#FF01E6"/>
<path d="M60.5824 45.9032C41.7209 45.9032 23.5128 42.9666 14.6577 37.9407L14.7774 37.7273C27.0477 44.7001 57.4032 47.6334 82.4451 44.2635L82.4775 44.506C75.2178 45.4531 67.9035 45.9199 60.5824 45.9032Z" fill="#FF01E6"/>
<path d="M27.83 73.6357H27.5874C27.6294 42.5266 42.2574 11.1361 60.1713 3.66528L60.2651 3.88844C42.4353 11.3269 27.8688 42.6139 27.83 73.6357Z" fill="#FF01E6"/>
<path d="M55.9677 76.3586H55.7251C55.7801 45.2851 57.7497 12.7109 60.1138 3.74585L60.3499 3.8073C57.989 12.7561 56.0226 45.3012 55.9677 76.3586Z" fill="#FF01E6"/>
<path d="M85.8247 74.9263V74.7872C85.8829 43.7589 74.3759 11.9448 60.1716 3.88208L59.8481 3.70421L60.2039 3.65893C73.7032 1.84458 86.5459 5.59941 96.3712 14.1925C101.596 18.7936 105.728 24.5026 108.467 30.9033C111.41 37.6691 112.901 45.0914 112.894 52.9665C117.306 55.4891 119.363 58.3028 118.81 61.1036C117.658 67.0479 105.068 72.3357 85.9541 74.9069L85.8247 74.9263ZM60.6017 3.85944C74.709 12.2358 86.0899 43.8172 86.0673 74.6546C104.997 72.0932 117.438 66.8927 118.58 61.0712C119.104 58.3675 117.079 55.6314 112.723 53.1573L112.662 53.1218V53.0506C112.662 45.182 111.193 37.7693 108.257 31.0132C105.529 24.6459 101.417 18.9661 96.2192 14.3865C86.5362 5.88725 73.8972 2.15829 60.6017 3.85944Z" fill="#FF01E6"/>
<path d="M73.2535 18.9983L73.2212 18.7589C82.7813 17.4653 89.0684 14.878 89.6376 11.9414C89.8964 10.6089 88.8873 9.25059 86.7269 8.01515L86.8466 7.80493C89.1105 9.09858 90.1713 10.541 89.8899 11.9899C89.2787 15.0138 82.9204 17.6981 73.2535 18.9983Z" fill="#FF01E6"/>
<path d="M82.4869 44.4896L82.4546 44.247C98.8581 42.0414 109.654 37.5459 110.63 32.5104C111.08 30.185 109.337 27.8306 105.579 25.6961L105.698 25.4858C109.553 27.6753 111.339 30.1204 110.873 32.5589C109.867 37.6979 98.981 42.2678 82.4869 44.4896Z" fill="#FF01E6"/>
<path d="M109.117 69.2113H108.874C108.933 38.1992 87.1023 8.90122 60.2104 3.89802L60.2525 3.65869C87.2543 8.6813 109.175 38.0893 109.117 69.2113Z" fill="#FF01E6"/>
<path d="M118.745 61.4077H118.503C118.561 30.4085 92.4193 4.60983 60.23 3.89832V3.65576C92.5551 4.3705 118.803 30.2759 118.745 61.4077Z" fill="#FF01E6"/>
<path d="M59.9969 116.582L59.9613 116.562C45.6923 108.454 34.1271 76.553 34.1853 45.4503V45.3436H34.292C63.3474 41.4335 98.5865 44.8455 112.843 52.9438L112.904 52.9794V53.0505C112.846 84.1726 89.13 112.678 60.0389 116.588L59.9969 116.582ZM34.4278 45.557C34.3987 76.5206 45.8767 108.238 60.0454 116.33C88.9812 112.413 112.564 84.0658 112.661 53.1087C98.4216 45.0654 63.3766 41.6987 34.4278 45.557Z" fill="#FF01E6"/>
<path d="M105.469 82.5232C93.1988 75.5536 62.8433 72.6203 37.8014 75.987L37.769 75.7477C62.8562 72.3745 93.2797 75.3208 105.592 82.3129L105.469 82.5232Z" fill="#FF01E6"/>
<path d="M86.5331 105.288C79.3727 101.22 61.6529 99.5088 47.0314 101.475L46.999 101.236C61.6626 99.263 79.4535 100.987 86.6527 105.078L86.5331 105.288Z" fill="#FF01E6"/>
<path d="M60.0684 116.569L59.9746 116.346C77.8206 108.907 92.3838 77.6201 92.4421 46.6016H92.6846C92.6264 77.7107 77.9952 109.098 60.0684 116.569Z" fill="#FF01E6"/>
<path d="M60.1396 116.488L59.9067 116.426C62.2644 107.478 64.2308 74.9326 64.289 43.8784H64.5316C64.4733 74.952 62.5037 107.523 60.1396 116.488Z" fill="#FF01E6"/>
<path d="M53.4191 117.025C42.381 117.025 32.0738 113.231 23.8721 106.029C18.6473 101.428 14.515 95.7185 11.7764 89.3179C8.83335 82.5553 7.34565 75.133 7.34888 67.2579C2.93752 64.7352 0.880618 61.9215 1.43365 59.1208C2.58824 53.1764 15.1787 47.8854 34.2924 45.3175L34.4283 45.2981V45.4372C34.3701 76.4622 45.8803 108.27 60.0814 116.339L60.4048 116.517L60.0491 116.562C57.8519 116.865 55.6369 117.019 53.4191 117.025ZM34.1857 45.5795C15.2563 48.1409 2.81463 53.3414 1.67298 59.1628C1.14905 61.8666 3.17361 64.6026 7.52999 67.0767L7.59144 67.1123V67.1835C7.59144 75.0521 9.05974 82.4647 11.9996 89.2176C14.7244 95.5851 18.8344 101.265 24.0305 105.844C33.7168 114.331 46.346 118.06 59.6545 116.365C45.5472 107.998 34.1631 76.4234 34.1857 45.5795Z" fill="#FF01E6"/>
<path d="M14.5705 94.7383C10.7186 92.552 8.93015 90.1038 9.39586 87.6685C10.392 82.5295 21.2684 77.9661 37.7754 75.7378L37.8077 75.9771C21.4042 78.1828 10.6087 82.6815 9.63519 87.7138C9.18241 90.0391 10.9288 92.3968 14.6837 94.5281L14.5705 94.7383Z" fill="#FF01E6"/>
<path d="M33.4221 112.429C31.1582 111.135 30.0974 109.693 30.3755 108.247C30.9641 105.22 37.3321 102.536 46.999 101.236L47.0313 101.475C37.4712 102.769 31.1841 105.372 30.6148 108.292C30.3561 109.628 31.3684 110.983 33.5256 112.219L33.4221 112.429Z" fill="#FF01E6"/>
<path d="M60.0001 116.575C33.0048 111.556 11.0774 82.1447 11.1356 51.0259H11.3782C11.32 82.0347 33.1503 111.333 60.0454 116.336L60.0001 116.575Z" fill="#FF01E6"/>
<path d="M60.0198 116.579C27.6979 115.864 1.44969 89.9584 1.50791 58.8298H1.75047C1.69225 89.829 27.8337 115.624 60.0263 116.336L60.0198 116.579Z" fill="#FF01E6"/>
<path d="M66.5336 118.451C64.2294 118.406 61.9767 117.762 59.9974 116.582C57.817 116.876 55.6193 117.024 53.4192 117.025C42.3811 117.025 32.0739 113.231 23.8721 106.029C18.6474 101.428 14.5151 95.7186 11.7765 89.3179C8.82373 82.5262 7.33602 75.0877 7.34896 67.1867V66.9797L7.52684 67.08C21.757 75.1653 56.9153 78.5579 85.9287 74.6543L86.0645 74.6349V74.774C86.0257 95.7797 80.6732 111.921 72.093 116.902C70.4117 117.906 68.4919 118.441 66.5336 118.451ZM60.0459 116.329L60.0815 116.352C64.2859 118.732 68.2768 118.852 71.9734 116.708C80.4597 111.779 85.7637 95.7764 85.8252 74.926C56.9185 78.7875 21.9414 75.4208 7.59152 67.4066C7.59152 75.1977 9.08569 82.5391 11.9996 89.2338C14.7245 95.6013 18.8345 101.281 24.0306 105.86C33.8009 114.421 46.579 118.15 60.0071 116.336L60.0459 116.329Z" fill="#FF01E6"/>
<path d="M60.4759 102.714C41.6145 102.714 23.4063 99.7774 14.5513 94.7483L14.6709 94.5381C26.9412 101.511 57.2968 104.444 82.3419 101.074L82.3743 101.317C75.1135 102.264 67.7982 102.731 60.4759 102.714Z" fill="#FF01E6"/>
<path d="M60.2754 117.09C49.247 117.09 38.6067 115.372 33.4321 112.429L33.5518 112.219C40.7122 116.288 58.432 117.998 73.0502 116.032L73.0826 116.271C68.8364 116.827 64.5579 117.101 60.2754 117.09Z" fill="#FF01E6"/>
<path d="M52.4586 118.179C49.0294 118.17 45.6824 117.129 42.8533 115.191C33.2479 108.775 27.5332 93.241 27.572 73.6357H27.8307C27.7919 93.1602 33.4678 108.619 43.0053 114.991C48.0925 118.386 53.9657 118.855 59.9909 116.346L60.0847 116.569C57.6747 117.606 55.0823 118.154 52.4586 118.179Z" fill="#FF01E6"/>
<path d="M58.843 118.878H58.7912C56.6179 118.593 55.6865 97.3192 55.7253 76.3621H55.9678C55.9161 103.852 57.365 118.448 58.8204 118.639C58.9627 118.639 59.3637 118.48 59.907 116.43L60.1399 116.491C59.7097 118.115 59.299 118.878 58.843 118.878Z" fill="#FF01E6"/>
<path d="M66.5329 118.451C64.3919 118.451 62.1797 117.821 59.9611 116.563L59.6377 116.385L59.9935 116.336C66.3083 115.462 72.4201 113.484 78.0496 110.492C82.9234 102.843 85.7824 90.117 85.8115 74.7872V74.687H85.9182C96.4615 73.2704 105 71.0324 110.718 68.3254C111.987 63.3346 112.639 58.2068 112.658 53.0571V52.8501L112.839 52.9504C117.299 55.4633 119.356 58.2899 118.819 61.1036C118.308 63.7427 115.54 66.2556 110.944 68.4548C106.342 86.5659 94.0424 102.326 78.2243 110.68C76.4358 113.471 74.3789 115.589 72.0956 116.915C70.412 117.915 68.4911 118.446 66.5329 118.451ZM60.388 116.527C64.4663 118.739 68.3601 118.791 71.963 116.708C74.1201 115.453 76.0735 113.474 77.7844 110.903C72.3464 113.742 66.4684 115.643 60.3977 116.527H60.388ZM86.0573 74.8939C86.0153 89.9844 83.2307 102.555 78.4733 110.269C93.9971 101.931 106.064 86.4236 110.65 68.5906C104.932 71.2749 96.468 73.4871 86.067 74.8939H86.0573ZM112.901 53.2479C112.868 58.2795 112.233 63.2891 111.012 68.1702C115.426 66.0292 118.085 63.6036 118.577 61.0551C119.097 58.3934 117.134 55.6929 112.904 53.2479H112.901Z" fill="#FF01E6"/>
<path d="M82.3805 101.317L82.3481 101.074C98.7484 98.8683 109.544 94.3728 110.521 89.3373C110.97 87.0119 109.227 84.6575 105.469 82.523L105.592 82.3127C109.444 84.5023 111.232 86.9473 110.766 89.3858C109.761 94.5248 98.8875 99.0947 82.3805 101.317Z" fill="#FF01E6"/>
<path d="M73.0724 116.271L73.04 116.032C82.6034 114.738 88.8873 112.151 89.4565 109.214C89.7152 107.882 88.7062 106.524 86.5458 105.288L86.6654 105.078C88.9293 106.372 89.9901 107.814 89.7087 109.263C89.1104 112.287 82.7392 114.971 73.0724 116.271Z" fill="#FF01E6"/>
<path d="M67.798 117.306C65.1819 117.302 62.5717 117.058 60.0005 116.575L60.0458 116.336C71.9053 118.545 83.3477 115.689 92.2707 108.283C102.795 99.5508 108.846 85.3206 108.875 69.2114H109.117C109.088 85.3821 103.005 99.6931 92.4227 108.467C85.5136 114.225 76.7917 117.356 67.798 117.306Z" fill="#FF01E6"/>
<path d="M61.401 116.591C60.9417 116.591 60.4825 116.591 60.02 116.591V116.349C76.0096 116.701 90.948 110.902 102.093 100.023C112.643 89.7188 118.47 76.0093 118.496 61.4202H118.739C118.713 76.0773 112.859 89.8482 102.261 100.197C91.4008 110.796 76.9313 116.591 61.401 116.591Z" fill="#FF01E6"/>
<path d="M60.114 118.894H59.6742C58.8721 118.878 57.8501 118.849 57.1354 118.82C55.5927 118.755 53.8786 118.561 53.0572 118.467C51.8347 118.328 50.0688 118.027 49.9524 118.005C48.5261 117.74 47.5074 117.549 46.2816 117.238C45.5572 117.057 44.7325 116.847 44.1148 116.669C43.303 116.436 42.3813 116.165 41.6956 115.925L41.327 115.793C40.5087 115.508 39.4932 115.146 38.7397 114.848C37.4137 114.328 36.4337 113.91 35.7384 113.574C34.6776 113.057 32.6724 112.067 31.188 111.242C29.8943 110.518 28.6006 109.742 27.7986 109.163C27.5043 108.952 27.1744 108.726 26.8283 108.493C26.0166 107.93 25.1757 107.352 24.5095 106.828C23.9112 106.359 21.8348 104.716 20.2728 103.27C19.4513 102.51 18.1544 101.258 17.2068 100.227C16.3627 99.3083 14.7877 97.5586 13.7139 96.1388C11.7463 93.6142 9.9886 90.9328 8.45848 88.1214C7.05956 85.4355 5.82193 82.6687 4.75216 79.8356C4.1647 78.2259 3.66377 76.586 3.25152 74.9229C3.00573 74.0044 2.77611 72.8789 2.55295 71.7923C2.45269 71.2942 2.35243 70.822 2.25864 70.3757C1.92413 68.6799 1.69836 66.9645 1.58271 65.2399C1.45335 63.4838 1.36603 61.4366 1.36279 60.0233C1.36279 58.9754 1.43394 57.6591 1.49863 56.4981C1.5245 56.0517 1.54714 55.6248 1.56654 55.2335C1.67977 53.2996 1.93488 51.3766 2.3298 49.48L2.53355 48.5356C2.78258 47.3455 3.06718 45.9968 3.35502 44.9425C3.76252 43.4354 4.37377 41.4949 4.87506 40.1139C5.35695 38.7847 6.04581 37.09 6.59562 35.9096C6.98048 35.0719 7.97336 32.9536 8.88538 31.3979C10.2761 29.0176 12.3394 26.0261 13.8045 24.0209C14.8315 22.685 15.9249 21.4016 17.0807 20.1755C18.3 18.8468 19.5878 17.5827 20.939 16.3883C21.7863 15.6607 24.7488 13.1542 27.2682 11.4466C28.4972 10.6122 30.3568 9.43172 31.8898 8.61996L32.155 8.47765C33.0023 8.02811 34.0599 7.4686 34.8878 7.07727C35.7157 6.68594 37.3231 5.94533 38.5456 5.47961L39.0016 5.30174C39.5514 5.09152 40.1724 4.84896 40.6769 4.68402C41.7668 4.32503 43.5876 3.71378 44.946 3.36773C47.3728 2.71903 49.8376 2.22217 52.3262 1.88002L52.3424 1.99969L52.3262 1.88002C53.8204 1.67951 55.4569 1.52103 56.7053 1.45635C57.8081 1.39814 58.2188 1.3755 59.3249 1.35933C60.431 1.34316 61.5565 1.35933 61.8637 1.38197C62.6399 1.40784 63.374 1.43371 64.451 1.51457C65.528 1.59542 66.0907 1.65363 67.2162 1.783C68.1864 1.89943 68.319 1.91883 70.2983 2.24225C70.6799 2.30369 71.136 2.39425 71.5402 2.4751L71.9865 2.56242C73.0409 2.76617 75.0299 3.25453 76.1553 3.58441C77.6883 4.03072 79.6482 4.68078 81.0389 5.20148C82.2031 5.63809 83.5777 6.21376 84.5414 6.66977C85.8351 7.28426 87.6688 8.21892 89.0951 9.00158C89.6514 9.325 90.2012 9.64841 90.738 9.97182C91.3493 10.3373 91.9444 10.7027 92.4457 11.0456C94.1403 12.2131 96.1132 13.6684 97.4715 14.7551C99.4961 16.3722 101.973 18.8948 103.662 20.6477C104.957 22.0082 106.154 23.4585 107.245 24.9879L107.801 25.7867C108.603 26.9284 109.509 28.2253 110.175 29.2861C110.98 30.5545 111.721 31.8628 112.394 33.2058L112.672 33.7815C113.277 35.0364 114.027 36.6017 114.535 37.8242C115.043 39.0467 115.673 40.7672 116.11 42.1256C116.546 43.4839 117.103 45.502 117.458 47.035C117.83 48.652 118.18 50.7866 118.315 51.6371C118.73 54.4771 118.934 57.344 118.923 60.2141C118.848 63.3864 118.586 66.5515 118.141 69.6933C117.905 71.3796 117.555 73.048 117.093 74.6868C116.97 75.1008 116.837 75.5665 116.702 76.0452C116.398 77.1059 116.084 78.2055 115.773 79.1014C115.25 80.6901 114.64 82.2491 113.946 83.7715C113.772 84.1337 113.584 84.5348 113.387 84.9487C112.934 85.919 112.416 86.9927 111.967 87.8303C111.223 89.2016 110.198 90.9319 109.415 92.1317C108.632 93.3316 107.623 94.7546 106.857 95.7475C106.427 96.3005 104.916 98.2248 103.623 99.6284C102.384 100.961 101.359 101.993 100.622 102.698C99.3796 103.862 97.8531 105.191 96.7406 106.084C95.8706 106.779 94.564 107.772 93.5064 108.48C92.119 109.418 90.2367 110.573 88.9399 111.339C86.8361 112.518 84.6655 113.573 82.4392 114.499C81.6631 114.803 79.6838 115.569 78.1152 116.074C76.8895 116.469 75.1625 116.95 73.817 117.277C72.4716 117.604 70.8611 117.924 69.7259 118.115C67.5428 118.467 66.7343 118.542 64.9652 118.707C64.5674 118.742 63.1056 118.865 60.9646 118.901L60.114 118.894ZM60.0332 1.59542H59.312C58.2091 1.61159 57.8016 1.63423 56.7053 1.69244C55.4569 1.75713 53.8301 1.9156 52.3424 2.11288C49.8646 2.45413 47.4105 2.94992 44.9945 3.59735C43.6491 3.94987 41.825 4.54818 40.7351 4.891C40.2371 5.05594 39.6193 5.29527 39.0728 5.50548L38.6168 5.68336C37.4007 6.14584 35.8128 6.87999 34.9751 7.27456C34.1375 7.66912 33.0993 8.22216 32.252 8.66847L31.9868 8.81077C30.4076 9.66985 28.8727 10.6079 27.3879 11.6212C24.8782 13.3256 21.9254 15.8256 21.0813 16.5468C19.7369 17.7339 18.4565 18.9916 17.2456 20.3146C16.094 21.5341 15.0049 22.811 13.9824 24.1406C12.5205 26.1393 10.4669 29.1211 9.07943 31.495C8.17387 33.0409 7.181 35.1495 6.79937 35.9872C6.2528 37.1709 5.56716 38.8591 5.08528 40.1916C4.60339 41.524 3.97921 43.5001 3.57171 45.0007C3.2871 46.0486 3.0025 47.394 2.75347 48.5777C2.68232 48.9011 2.61763 49.2245 2.55295 49.5253C2.15756 51.4086 1.90351 53.3188 1.79293 55.24C1.77353 55.6313 1.75089 56.0582 1.72501 56.5045C1.66033 57.6623 1.58918 58.9754 1.58918 60.0136C1.58918 61.4236 1.67973 63.4644 1.8091 65.214C1.9241 66.9276 2.14771 68.6322 2.47857 70.3175C2.57559 70.7541 2.67261 71.236 2.77611 71.7373C2.99603 72.8207 3.22565 73.9397 3.46821 74.855C3.88037 76.5089 4.38241 78.1392 4.97209 79.7385C6.03749 82.562 7.27082 85.3191 8.66546 87.9953C10.1903 90.7962 11.9415 93.4679 13.9015 95.9836C14.9688 97.3937 16.5373 99.1401 17.3782 100.052C18.3193 101.077 19.613 102.316 20.4312 103.082C21.9836 104.522 24.0567 106.161 24.6356 106.64C25.2986 107.161 26.133 107.736 26.9448 108.296L27.915 108.969C29.0008 109.712 30.1234 110.401 31.2785 111.032C32.7597 111.853 34.7584 112.843 35.8063 113.357C36.4952 113.681 37.4719 114.108 38.7882 114.628C39.5514 114.926 40.5637 115.275 41.3755 115.569L41.7474 115.699C42.4266 115.938 43.3451 116.207 44.1536 116.439C44.7681 116.614 45.5896 116.824 46.3108 117.005C47.53 117.313 48.5455 117.503 49.9524 117.769C50.085 117.795 51.8379 118.092 53.0539 118.228C53.8754 118.322 55.583 118.516 57.116 118.58C57.8307 118.61 58.8495 118.639 59.6516 118.655C60.0623 118.655 60.6218 118.655 60.9129 118.655C63.0474 118.619 64.5027 118.5 64.8973 118.461C66.6631 118.299 67.4652 118.221 69.6418 117.872C70.7737 117.688 72.3714 117.361 73.7136 117.038C75.0557 116.714 76.7763 116.232 77.9955 115.841C79.5576 115.337 81.5305 114.573 82.3066 114.269C84.5219 113.349 86.6817 112.301 88.7749 111.129C90.0686 110.363 91.9444 109.211 93.3286 108.277C94.3732 107.571 95.6733 106.582 96.5433 105.89C97.6558 105.004 99.1759 103.678 100.424 102.517C101.171 101.818 102.177 100.79 103.413 99.4603C104.706 98.0728 106.207 96.1582 106.647 95.6052C107.41 94.6349 108.432 93.1699 109.192 92.0056C109.952 90.8413 110.993 89.0949 111.734 87.7204C112.184 86.8892 112.704 85.8058 113.147 84.8517L113.71 83.6745C114.399 82.1589 115.005 80.6075 115.528 79.027C115.835 78.1376 116.145 77.0413 116.449 75.9837C116.585 75.5051 116.718 75.0393 116.841 74.6221C117.299 72.998 117.647 71.3449 117.882 69.6739C118.325 66.5416 118.585 63.3862 118.662 60.2238C118.673 57.3667 118.47 54.5127 118.057 51.6857C117.921 50.8416 117.572 48.7006 117.203 47.1029C116.847 45.5732 116.307 43.61 115.861 42.2129C115.414 40.8157 114.797 39.1372 114.292 37.9277C113.788 36.7181 113.037 35.1528 112.433 33.8979L112.158 33.3223C111.487 31.9925 110.749 30.6972 109.949 29.4413C109.286 28.3837 108.383 27.0901 107.585 25.9517L107.025 25.1528C105.943 23.6331 104.754 22.1924 103.468 20.8417C101.783 19.0921 99.3117 16.5824 97.3001 14.9686L96.802 14.5772C106.744 23.4452 112.565 36.6631 112.889 51.5886C112.889 52.035 112.905 52.478 112.905 52.9276V53.0375C112.847 84.1596 89.1307 112.665 60.0396 116.575L60.0073 116.336C88.9819 112.455 112.604 84.0432 112.662 53.0375V52.9276C112.662 34.6871 104.454 18.8657 90.5957 10.182L90.0168 9.83922C89.6417 9.61607 89.2827 9.40261 88.9593 9.1924C87.5395 8.4162 85.7251 7.48154 84.4315 6.87029C83.4612 6.41751 82.1029 5.84184 80.9483 5.40846C79.5641 4.88453 77.6075 4.23447 76.0971 3.7914C74.9749 3.46798 72.9988 2.98286 71.951 2.77911L71.4917 2.69826C71.0907 2.62064 70.6379 2.53008 70.2757 2.47187C68.2867 2.14846 68.167 2.12582 67.1871 2.01262C66.0648 1.88002 65.5409 1.82504 64.4316 1.74419C63.3223 1.66334 62.6302 1.63746 61.8443 1.60836C61.6017 1.59542 60.8514 1.59542 60.0332 1.59542Z" fill="#FF01E6"/>
<path d="M59.9977 116.892L59.9621 116.873C45.6187 108.719 33.9758 76.6432 34.0438 45.3692V45.256H34.1505C63.3676 41.3265 98.7975 44.7547 113.134 52.8982L113.196 52.9338V53.0049C113.138 84.2919 89.2795 112.953 60.0397 116.886L59.9977 116.892ZM34.2992 45.4759C34.2701 76.6109 45.8128 108.503 60.0591 116.627C89.1663 112.691 112.872 84.1917 112.963 53.0567C98.6358 44.9811 63.4064 41.5787 34.2992 45.4759Z" fill="#FF01E6"/>
<path d="M86.6926 105.537C79.4934 101.446 61.6734 99.7154 46.9742 101.701L46.9419 101.462C61.6863 99.4793 79.5743 101.213 86.8123 105.323L86.6926 105.537Z" fill="#FF01E6"/>
<path d="M105.722 82.6458C93.3835 75.6375 62.8598 72.6879 37.6788 76.0741L37.6465 75.8347C62.8727 72.4421 93.4644 75.4046 105.841 82.4356L105.722 82.6458Z" fill="#FF01E6"/>
<path d="M60.0689 116.879L59.9751 116.656C77.9181 109.176 92.5622 77.7173 92.6204 46.5273H92.863C92.8048 77.8079 78.0927 109.367 60.0689 116.879Z" fill="#FF01E6"/>
<path d="M60.1394 116.798L59.9033 116.737C62.2772 107.739 64.2532 75.0164 64.3114 43.7876H64.554C64.4958 75.0326 62.5165 107.785 60.1394 116.798Z" fill="#FF01E6"/>
<path d="M53.3806 117.339C42.2811 117.339 31.9189 113.522 23.6687 106.294C18.4134 101.664 14.2587 95.918 11.5083 89.4765C8.54911 82.6848 7.05171 75.2108 7.05818 67.2936C2.62095 64.7548 0.56404 61.9282 1.10737 59.1145C2.28136 53.1507 14.93 47.8435 34.1505 45.2562L34.2863 45.2368V45.3759C34.2281 76.5723 45.7998 108.555 60.0818 116.669L60.4052 116.847L60.0494 116.892C57.8389 117.189 55.611 117.339 53.3806 117.339ZM34.0405 45.5085C15.0044 48.0958 2.48188 53.3189 1.3467 59.1759C0.819536 61.8926 2.85704 64.6448 7.23929 67.1319L7.30074 67.1675V67.2483C7.28457 75.159 8.7755 82.6137 11.7283 89.4054C14.4691 95.8083 18.6035 101.519 23.8304 106.123C33.5684 114.654 46.2785 118.412 59.6516 116.701C45.4667 108.27 34.0211 76.5141 34.0438 45.5085H34.0405Z" fill="#FF01E6"/>
<path d="M33.2744 112.717C30.9911 111.423 29.9335 109.965 30.2149 108.513C30.8035 105.472 37.2071 102.772 46.9289 101.465L46.9612 101.705C37.3462 102.998 31.0234 105.624 30.4672 108.561C30.2052 109.903 31.2239 111.268 33.407 112.51L33.2744 112.717Z" fill="#FF01E6"/>
<path d="M14.3093 94.9391C10.4284 92.7399 8.63667 90.2819 9.11209 87.824C10.1147 82.6494 21.046 78.0602 37.6468 75.8286L37.6792 76.0679C21.1851 78.2866 10.3314 82.8079 9.34818 87.8693C8.8954 90.2076 10.6418 92.5782 14.429 94.7224L14.3093 94.9391Z" fill="#FF01E6"/>
<path d="M60.0012 116.886C32.8345 111.834 10.8101 82.2805 10.8683 50.9773H11.1108C11.0526 82.1576 33.0027 111.617 60.0433 116.646L60.0012 116.886Z" fill="#FF01E6"/>
<path d="M60.0202 116.889C27.5075 116.171 1.1267 90.1232 1.18491 58.8201H1.42747C1.36926 89.9874 27.6563 115.928 60.0235 116.643L60.0202 116.889Z" fill="#FF01E6"/>
<path d="M66.5697 118.774C64.2528 118.728 61.9879 118.079 59.9979 116.892C46.4404 118.706 33.5427 114.951 23.6722 106.294C18.4168 101.663 14.2622 95.9177 11.5118 89.4762C8.54288 82.6554 7.04548 75.1652 7.06165 67.2221V67.0151L7.24276 67.1154C21.5376 75.2395 56.9029 78.6548 86.0715 74.7318L86.2106 74.7124V74.8514C86.1718 95.9703 80.7869 112.202 72.1615 117.219C70.4705 118.229 68.5393 118.766 66.5697 118.774ZM60.0464 116.64L60.082 116.662C64.2864 119.056 68.3226 119.178 72.0483 117.018C80.5832 112.063 85.9163 95.9703 85.9777 75.0067C56.9093 78.8876 21.7414 75.5015 7.31391 67.4453C7.31391 75.2783 8.81455 82.6619 11.7414 89.3953C14.4822 95.7983 18.6166 101.509 23.8436 106.113C33.6689 114.722 46.5148 118.464 60.0173 116.646L60.0464 116.64Z" fill="#FF01E6"/>
<path d="M60.2757 117.4C49.1891 117.4 38.4809 115.676 33.2739 112.717L33.3936 112.507C40.5928 116.598 58.4128 118.328 73.112 116.339L73.1443 116.582C68.8774 117.137 64.5786 117.41 60.2757 117.4Z" fill="#FF01E6"/>
<path d="M60.4768 102.947C41.5151 102.947 23.2067 99.9939 14.3096 94.939L14.4292 94.7288C26.7674 101.74 57.288 104.687 82.4721 101.301L82.5013 101.54C75.1988 102.494 67.8413 102.964 60.4768 102.947Z" fill="#FF01E6"/>
<path d="M52.4106 118.499C48.963 118.49 45.5981 117.443 42.7535 115.495C33.0932 109.043 27.3494 93.4218 27.3849 73.7097H27.6275C27.5919 93.3409 33.2969 108.884 42.8894 115.291C48.0025 118.709 53.9113 119.172 59.9688 116.656L60.0626 116.879C57.6445 117.921 55.0435 118.471 52.4106 118.499Z" fill="#FF01E6"/>
<path d="M58.8365 119.201H58.7815C56.5985 118.916 55.6606 97.5323 55.6994 76.449H55.942C55.8902 104.101 57.3488 118.764 58.8139 118.955C58.9691 118.984 59.3637 118.793 59.9038 116.737L60.1399 116.798C59.7097 118.431 59.2925 119.201 58.8365 119.201Z" fill="#FF01E6"/>
<path d="M66.5694 118.774C64.4155 118.774 62.1904 118.127 59.9621 116.873L59.6387 116.695L59.9977 116.646C66.3469 115.769 72.492 113.78 78.1508 110.77C83.0538 103.079 85.9289 90.2847 85.958 74.8709V74.7641H86.0615C96.6662 73.3379 105.259 71.0902 111.003 68.367C112.276 63.3483 112.928 58.1922 112.944 53.0146V52.8076L113.125 52.9079C117.604 55.4531 119.68 58.2959 119.134 61.1226C118.62 63.7778 115.835 66.2972 111.213 68.519C106.589 86.7369 94.218 102.574 78.3158 110.973C76.5176 113.781 74.4348 115.909 72.1515 117.244C70.4608 118.244 68.5333 118.772 66.5694 118.774ZM60.3987 116.834C64.4996 119.059 68.4161 119.12 72.0416 117.015C74.2117 115.757 76.1748 113.781 77.8953 111.177C72.4246 114.038 66.5087 115.952 60.3987 116.837V116.834ZM86.2103 74.9711C86.1683 90.1457 83.3675 102.785 78.5842 110.547C94.1921 102.16 106.33 86.5655 110.926 68.6355C105.178 71.336 96.6695 73.561 86.2103 74.9744V74.9711ZM113.193 53.2054C113.161 58.2654 112.524 63.3034 111.294 68.2118C115.738 66.0611 118.409 63.6193 118.904 61.0579C119.425 58.3833 117.449 55.6698 113.193 53.2086V53.2054Z" fill="#FF01E6"/>
<path d="M73.1441 116.582L73.1118 116.339C82.7269 115.045 89.0529 112.422 89.6221 109.486C89.8808 108.144 88.862 106.779 86.679 105.537L86.7987 105.323C89.082 106.617 90.1395 108.076 89.8582 109.528C89.2792 112.571 82.866 115.272 73.1441 116.582Z" fill="#FF01E6"/>
<path d="M82.4881 101.53L82.459 101.29C98.9531 99.0719 109.804 94.5505 110.787 89.4891C111.24 87.1508 109.493 84.7802 105.709 82.636L105.829 82.4258C109.71 84.6282 111.498 87.0862 111.026 89.5409C110.036 94.7122 99.1018 99.308 82.4881 101.53Z" fill="#FF01E6"/>
<path d="M67.8405 117.62C65.2103 117.616 62.5861 117.371 60.001 116.886L60.043 116.647C71.9673 118.865 83.4743 116 92.4458 108.561C103.028 99.7805 109.115 85.463 109.147 69.2729H109.389C109.357 85.5342 103.245 99.9228 92.601 108.729C85.6543 114.52 76.8842 117.669 67.8405 117.62Z" fill="#FF01E6"/>
<path d="M61.4075 116.902C60.945 116.902 60.4825 116.902 60.02 116.902V116.659C76.1098 117.012 91.1227 111.184 102.326 100.243C112.937 89.8935 118.797 76.0999 118.82 61.4331H119.062C119.036 76.1678 113.15 90.0131 102.494 100.421C91.5722 111.074 77.0251 116.902 61.4075 116.902Z" fill="#FF01E6"/>
<path d="M113.192 53.2055L113.011 53.1053C98.7164 44.9811 63.3544 41.5659 34.1825 45.4889L34.0435 45.5083V45.3692C34.0823 24.2471 39.4671 8.01499 48.0958 3.00209C51.8279 0.835221 56.0323 0.951649 60.2561 3.3255C73.8103 1.51439 86.7113 5.26598 96.5819 13.9238C101.836 18.5549 105.991 24.3004 108.742 30.7412C111.711 37.562 113.209 45.049 113.196 52.9953L113.192 53.2055ZM59.661 43.6196C81.4979 43.6196 102.581 46.9992 112.953 52.7916C112.953 44.9552 111.449 37.5717 108.522 30.8415C105.782 24.4376 101.647 18.7255 96.4202 14.121C86.5949 5.51178 73.7554 1.77312 60.2496 3.58747H60.2076L60.172 3.56806C55.9676 1.17157 51.9314 1.05191 48.2057 3.20907C39.6838 8.17023 34.3507 24.2633 34.299 45.2302C42.7086 44.1384 51.1808 43.6003 59.661 43.6196Z" fill="#FF01E6"/>
<path d="M105.828 25.5084C93.4835 18.4968 62.963 15.5505 37.7853 18.9367L37.7529 18.6941C62.9792 15.3015 93.5676 18.264 105.948 25.295L105.828 25.5084Z" fill="#FF01E6"/>
<path d="M86.8606 7.74045C79.6614 3.64927 61.8446 1.91901 47.1422 3.908L47.1099 3.66868C61.8543 1.68615 79.7423 3.41641 86.9803 7.53023L86.8606 7.74045Z" fill="#FF01E6"/>
<path d="M92.8627 46.5269H92.6202C92.6557 26.8957 86.9507 11.3493 77.3583 4.94244C72.2451 1.52396 66.3396 1.06148 60.2788 3.58087L60.1851 3.35448C66.3299 0.796282 72.3066 1.27817 77.4941 4.73869C87.1545 11.194 92.8983 26.8213 92.8627 46.5269Z" fill="#FF01E6"/>
<path d="M64.5542 43.7877H64.3117C64.3763 16.1488 62.9048 1.46907 61.4398 1.27178C61.2942 1.24915 60.8932 1.43026 60.3499 3.4904L60.1138 3.42895C60.5633 1.73103 60.9999 0.97101 61.4721 1.02922C63.6551 1.3203 64.593 22.7141 64.5542 43.7877Z" fill="#FF01E6"/>
<path d="M7.30394 67.4454L7.12282 67.3451C2.64032 64.7999 0.564003 61.9571 1.11057 59.1305C1.62803 56.4752 4.40939 53.9558 9.03096 51.734C13.6558 33.5129 26.0263 17.6753 41.9318 9.2763C43.73 6.46907 45.8127 4.34102 48.096 3.00532C51.8379 0.831982 56.0552 0.954878 60.292 3.36107L60.6154 3.53895L60.2596 3.58746C53.9059 4.46309 47.7563 6.45235 42.0935 9.46388C37.1906 17.1546 34.3316 29.9489 34.2863 45.3628V45.4695H34.1828C23.5781 46.8957 14.9882 49.1435 9.24441 51.8666C7.97156 56.8853 7.31985 62.0414 7.30394 67.219V67.4454ZM8.95981 52.0218C4.51935 54.1725 1.84472 56.6143 1.3499 59.1757C0.829201 61.8536 2.80526 64.567 7.06138 67.0282C7.09297 61.9682 7.73032 56.9303 8.95981 52.0218ZM41.6731 9.68057C26.0619 18.0893 13.9242 33.6681 9.31557 51.6014C15.0756 48.9009 23.5846 46.6758 34.0437 45.2625C34.0858 30.0847 36.8865 17.4425 41.6731 9.68057ZM53.704 1.68256C51.7672 1.68943 49.868 2.21785 48.206 3.2123C46.0359 4.47361 44.0728 6.44644 42.3522 9.03374C47.8254 6.18282 53.7408 4.27697 59.8489 3.39665C57.7445 2.25608 55.6963 1.68471 53.704 1.68256Z" fill="#FF01E6"/>
<path d="M14.4129 37.8175C10.5319 35.6151 8.74346 33.1571 9.21888 30.7024C10.2182 25.5278 21.1528 20.9386 37.7536 18.707L37.786 18.9496C21.2919 21.165 10.4381 25.6895 9.45497 30.7509C9.00219 33.0892 10.7486 35.4566 14.5326 37.6008L14.4129 37.8175Z" fill="#FF01E6"/>
<path d="M33.455 14.91C31.1717 13.6163 30.1142 12.1577 30.3956 10.7056C30.9842 7.66554 37.391 4.96504 47.1095 3.65845L47.1419 3.89777C37.5268 5.19143 31.2041 7.81754 30.6478 10.7509C30.3859 12.0931 31.4046 13.4611 33.5876 14.703L33.455 14.91Z" fill="#FF01E6"/>
<path d="M11.1107 50.9772H10.8682C10.8973 34.7128 17.013 20.3241 27.6565 11.5014C36.683 4.01117 48.2612 1.11662 60.2534 3.34818L60.2113 3.5875C48.2871 1.36889 36.78 4.23433 27.8085 11.6728C17.2265 20.4664 11.1398 34.7872 11.1107 50.9772Z" fill="#FF01E6"/>
<path d="M1.42737 58.8396H1.18481C1.21392 44.1049 7.09681 30.2564 17.7565 19.8489C29.0081 8.85289 44.0921 3.00881 60.2336 3.35486V3.59742C44.1535 3.24167 29.1342 9.07281 17.9312 20.0139C7.31349 30.3793 1.45648 44.1502 1.42737 58.8396Z" fill="#FF01E6"/>
<path d="M60.5927 76.6274C38.6297 76.6274 17.4267 73.1992 7.13249 67.3454L7.07104 67.3098V67.2484C7.13249 35.942 30.9648 7.28109 60.2176 3.34839H60.2564L60.2919 3.3678C74.6418 11.521 86.2685 43.6004 86.2103 74.8745V74.9812H86.1035C77.6456 76.0922 69.1233 76.6421 60.5927 76.6274ZM7.3039 67.1675C21.6214 75.2529 56.8573 78.6584 85.9677 74.7613C86.0001 43.6263 74.4574 11.7313 60.2078 3.61036C31.1136 7.53012 7.39446 36.0293 7.3039 67.1675Z" fill="#FF01E6"/>
<path d="M60.5831 45.8058C41.6214 45.8058 23.3129 42.8563 14.4126 37.8013L14.5323 37.5879C26.8608 44.6092 57.3942 47.549 82.5752 44.1596L82.6075 44.4022C75.305 45.3551 67.9475 45.824 60.5831 45.8058Z" fill="#FF01E6"/>
<path d="M60.4569 19.5932C49.3702 19.5932 38.662 17.8662 33.4551 14.9102L33.5747 14.7C40.7772 18.7879 58.594 20.5214 73.2963 18.5324L73.3287 18.7717C69.061 19.3298 64.7609 19.6042 60.4569 19.5932Z" fill="#FF01E6"/>
<path d="M27.6337 73.7164H27.3911C27.4493 42.4359 42.1614 10.874 60.1852 3.36108L60.279 3.58747C42.336 11.0583 27.6919 42.5167 27.6337 73.7164Z" fill="#FF01E6"/>
<path d="M55.9418 76.449H55.6992C55.7574 45.2041 57.74 12.452 60.1138 3.43848L60.3499 3.49993C57.976 12.494 56 45.2202 55.9418 76.449Z" fill="#FF01E6"/>
<path d="M85.968 75.0101V74.8711C86.0262 43.6714 74.4545 11.6891 60.1725 3.57785L59.8491 3.39998L60.2081 3.35147C73.7915 1.52742 86.6924 5.29195 96.5727 13.9433C101.827 18.5744 105.981 24.3199 108.733 30.7607C111.692 37.5524 113.19 45.0265 113.186 52.9437C117.624 55.4792 119.681 58.3091 119.134 61.1228C117.973 67.1027 105.315 72.4196 86.0941 75.0037L85.968 75.0101ZM60.6027 3.53581C74.7876 11.9446 86.2332 43.7167 86.2105 74.7223C105.247 72.135 117.769 66.9119 118.904 61.0549C119.432 58.3382 117.394 55.5859 113.012 53.0989L112.954 53.0633V52.9922C112.954 45.0815 111.476 37.6268 108.523 30.8351C105.782 24.4312 101.648 18.7191 96.4207 14.1147C86.6924 5.58949 73.9758 1.83789 60.6027 3.53581Z" fill="#FF01E6"/>
<path d="M82.608 44.4024L82.5757 44.1599C99.0698 41.9445 109.924 37.4199 110.907 32.3585C111.359 30.0235 109.613 27.6528 105.829 25.5086L105.949 25.2952C109.83 27.4976 111.618 29.9556 111.143 32.4103C110.143 37.5719 99.2088 42.1709 82.608 44.4024Z" fill="#FF01E6"/>
<path d="M73.3287 18.7716L73.2964 18.5323C82.9082 17.2386 89.2342 14.6125 89.7905 11.6759C90.0492 10.3338 89.0337 8.96897 86.8474 7.72706L86.9671 7.51685C89.2504 8.8105 90.3112 10.2691 90.0266 11.7212C89.4509 14.7645 83.0473 17.465 73.3287 18.7716Z" fill="#FF01E6"/>
<path d="M109.39 69.26H109.147C109.205 38.0797 87.252 8.61679 60.2114 3.58772L60.2535 3.34839C87.404 8.38717 109.448 37.9665 109.39 69.26Z" fill="#FF01E6"/>
<path d="M119.069 61.4265H118.826C118.885 30.2559 92.5977 4.31497 60.2305 3.60023V3.35767C92.7335 4.06271 119.127 30.1136 119.069 61.4265Z" fill="#FF01E6"/>
<path d="M60.137 119.218C57.2633 119.217 54.3934 119.006 51.5504 118.587C49.031 118.218 47.0549 117.749 46.2108 117.549C43.8725 116.996 41.6183 116.236 41.5989 116.226C39.5559 115.551 37.552 114.763 35.5964 113.865C34.2154 113.251 32.3623 112.306 31.0136 111.52C29.8784 110.874 28.588 110.104 27.6469 109.454C25.9425 108.28 23.96 106.818 22.5952 105.725C20.5609 104.108 18.0674 101.563 16.3695 99.8C15.0666 98.4318 13.8626 96.9728 12.7667 95.4339L12.2104 94.6415C11.4051 93.4902 10.4931 92.1836 9.82036 91.1131C8.95684 89.7386 7.97367 87.9048 7.58881 87.1804C6.83526 85.7509 5.97174 83.8428 5.43487 82.5297C5.07589 81.6629 4.70073 80.5892 4.3385 79.5672C4.17033 79.0886 4.01509 78.6261 3.85338 78.2089C3.28762 76.594 2.83482 74.9417 2.49828 73.2639C1.87097 70.1655 1.41856 67.0342 1.14318 63.8849C0.971773 61.4302 0.903855 57.8565 1.2305 55.1851C1.28548 54.7291 1.33723 54.2149 1.38898 53.7071C1.51511 52.4943 1.65418 51.1198 1.8838 50.0461C1.97759 49.6127 2.07461 49.1308 2.17487 48.6328C2.39479 47.5332 2.62118 46.398 2.86374 45.4665C3.26802 43.8143 3.76141 42.1852 4.34174 40.5862C4.49374 40.2014 4.66515 39.7745 4.82362 39.3314C5.22142 38.2868 5.63539 37.2066 6.02672 36.3269C6.67355 34.8748 7.5791 33.041 8.29061 31.77C9.00212 30.499 9.90768 28.9854 10.5998 27.9214C11.5312 26.4696 12.5362 25.0663 13.6108 23.717C15.4324 21.4764 17.3758 19.3375 19.4322 17.3102C20.4995 16.3044 22.0357 14.9654 23.3423 13.9047C24.3384 13.0929 25.6417 12.1259 26.5764 11.492C27.87 10.6155 29.7297 9.46095 31.1656 8.61685C32.0582 8.09615 33.284 7.44932 34.2187 6.99978C35.2309 6.52436 36.3888 5.9875 37.2781 5.60587C37.967 5.3148 38.8952 4.95904 39.6164 4.68738L39.8654 4.59359C41.5084 3.9694 43.617 3.36461 44.2251 3.19644C45.1662 2.93448 45.868 2.75013 46.3725 2.63694C47.4365 2.40085 49.1506 2.03539 50.4831 1.79606C51.3757 1.63436 53.52 1.33358 55.2923 1.19775C59.27 0.871216 63.2707 0.949236 67.2327 1.43061C70.0108 1.77019 72.0839 2.22297 72.0839 2.2262C73.4196 2.52697 74.9752 2.90537 76.0457 3.19644C76.9254 3.43577 78.0508 3.79799 78.633 3.99204C79.5321 4.28958 80.7352 4.72619 81.6213 5.07547C82.6239 5.47004 83.9402 6.04571 84.6355 6.36913C85.5282 6.76692 86.576 7.30056 87.5463 7.81478C88.1058 8.10262 88.662 8.40339 89.2086 8.71387L89.3865 8.82383C91.4757 10.1175 94.0727 11.699 95.9162 13.1511C97.3618 14.2895 99.0339 15.6931 100.179 16.728C101.181 17.6368 102.42 18.8658 103.264 19.794C104.47 21.12 105.851 22.7306 106.773 23.9014C107.523 24.8522 108.549 26.2752 109.383 27.5268C110.218 28.7784 111.24 30.4828 112.058 31.964C112.62 32.986 113.251 34.312 113.807 35.4795L114.073 36.0391C114.742 37.4362 115.47 39.3961 115.958 40.7932C116.282 41.6858 116.605 42.7822 116.896 43.843C117.038 44.3314 117.174 44.8133 117.304 45.2272C117.787 46.8767 118.147 48.5598 118.38 50.2628C118.435 50.6994 118.503 51.178 118.575 51.6761C118.733 52.8145 118.898 53.9885 118.979 54.9684C119.108 56.5434 119.199 58.6521 119.202 60.2142C119.149 63.4062 118.885 66.5911 118.413 69.7484C118.137 71.6508 117.732 73.532 117.2 75.379C117.097 75.7219 116.983 76.097 116.877 76.4851C116.553 77.5847 116.181 78.8298 115.835 79.8001C115.29 81.3907 114.66 82.9507 113.946 84.4734L113.536 85.3887C113.028 86.4333 112.452 87.617 111.948 88.529C111.185 89.9003 110.133 91.6273 109.335 92.8239C107.572 95.4673 105.599 97.9646 103.436 100.292C103.025 100.728 101.589 102.232 100.392 103.338C99.1212 104.502 97.5721 105.825 96.4434 106.708C95.5604 107.394 94.2441 108.377 93.1931 109.069C91.7797 110 89.8684 111.149 88.5521 111.909C86.3806 113.096 84.1396 114.151 81.8412 115.068C80.6511 115.521 78.895 116.158 77.5496 116.575C76.3335 116.951 74.6227 117.41 73.2934 117.717C68.9788 118.713 64.5651 119.217 60.137 119.218ZM31.1365 111.31C32.4884 112.093 34.3189 113.031 35.6967 113.642C37.6453 114.537 39.6416 115.324 41.6766 116C41.6992 116 43.9405 116.763 46.2626 117.313C47.1067 117.513 49.0763 117.979 51.5859 118.348C58.7997 119.416 66.1497 119.121 73.2546 117.478C74.5774 117.174 76.2785 116.718 77.4881 116.343C78.8303 115.925 80.5799 115.295 81.7701 114.842C84.0499 113.928 86.2735 112.879 88.4292 111.702C89.7455 110.938 91.6633 109.797 93.0604 108.868C94.1051 108.18 95.4149 107.2 96.2946 106.514C97.4201 105.638 98.966 104.318 100.234 103.157C101.036 102.423 102.174 101.288 103.261 100.127C105.416 97.8083 107.381 95.3208 109.137 92.6881C109.933 91.4915 110.978 89.7774 111.725 88.4061C112.229 87.5006 112.802 86.3201 113.306 85.2787L113.752 84.3634C114.46 82.8475 115.086 81.2951 115.628 79.7128C115.974 78.7425 116.343 77.5071 116.666 76.414C116.783 76.0259 116.893 75.6507 116.99 75.3046C117.518 73.4702 117.921 71.6019 118.196 69.7128C118.667 66.5674 118.929 63.3942 118.982 60.2142C118.982 58.6521 118.891 56.5532 118.762 54.9846C118.681 54.0144 118.516 52.8404 118.358 51.7084C118.287 51.2071 118.219 50.7382 118.164 50.2886C117.931 48.601 117.573 46.9331 117.093 45.2984C116.964 44.8715 116.828 44.3993 116.686 43.9109C116.382 42.8534 116.065 41.7602 115.754 40.8741C115.263 39.4834 114.542 37.5332 113.879 36.1458L113.61 35.583C113.057 34.4188 112.426 33.0992 111.867 32.0805C111.052 30.6025 110.007 28.869 109.202 27.6627C108.397 26.4563 107.355 24.9977 106.615 24.0534C105.693 22.8858 104.318 21.2785 103.115 19.9557C102.278 19.0372 101.046 17.8115 100.049 16.9092C98.9045 15.8775 97.239 14.4771 95.7998 13.3516C93.9628 11.8995 91.3722 10.3083 89.2797 9.03405L89.1083 8.92732C88.6232 8.66212 88.054 8.35165 87.4557 8.0347C79.2701 3.83033 69.9267 2.30059 60.289 3.58454H60.2696H60.2275L60.1952 3.34521C67.1278 2.36434 74.192 2.94556 80.871 5.04636C80.1142 4.76176 79.2701 4.46099 78.6071 4.23783C78.0153 4.04055 76.8963 3.68156 76.0198 3.44547C74.9525 3.15763 73.4034 2.79864 72.0709 2.47523C72.0515 2.47523 70.0205 2.02569 67.2359 1.68287C63.2823 1.20432 59.2902 1.12955 55.3214 1.45971C53.5555 1.59555 51.421 1.89309 50.5381 2.05479C49.2089 2.29412 47.498 2.65634 46.4372 2.89243C45.9327 3.00563 45.2373 3.18674 44.2994 3.4487C43.6947 3.61688 41.5925 4.21843 39.9625 4.83938L39.7102 4.93317C38.9793 5.21131 38.0673 5.55736 37.3816 5.84843C36.4955 6.22682 35.3441 6.76369 34.3318 7.23911C33.4037 7.67571 32.1844 8.31607 31.2982 8.83677C29.8655 9.67764 28.0253 10.829 26.7187 11.7022C25.7808 12.349 24.4839 13.2966 23.4846 14.1019C22.1909 15.1627 20.6547 16.492 19.6036 17.4945C17.548 19.5158 15.6046 21.6481 13.7822 23.882C12.7134 25.2259 11.7128 26.6227 10.7841 28.0669C10.0953 29.1083 9.16706 30.6542 8.4879 31.8994C7.80873 33.1445 6.89023 34.9912 6.24341 36.4271C5.85531 37.2971 5.44458 38.3676 5.04678 39.4187C4.8786 39.8618 4.72336 40.2887 4.56489 40.6768C3.98647 42.2656 3.49629 43.8851 3.0966 45.528C2.85404 46.453 2.62765 47.5849 2.40773 48.6813C2.30747 49.1793 2.21044 49.6515 2.11989 50.0978C1.8935 51.1586 1.7512 52.5267 1.6283 53.733C1.57332 54.2537 1.52157 54.7582 1.46659 55.2142C1.14318 57.8694 1.2111 61.4238 1.38251 63.8688C1.6567 67.0039 2.10695 70.1211 2.73114 73.2057C3.06783 74.8711 3.51843 76.5114 4.07977 78.1151C4.23178 78.5291 4.40319 78.9948 4.56166 79.4734C4.92388 80.5019 5.29904 81.5627 5.65803 82.4262C6.20136 83.7199 7.04871 85.6312 7.80226 87.051C8.18389 87.7755 9.16383 89.6027 10.0241 90.9708C10.6903 92.038 11.6024 93.3414 12.4077 94.4895L12.9639 95.2851C14.0521 96.8126 15.2474 98.2608 16.5409 99.6188C18.2323 101.378 20.7194 103.904 22.7439 105.524C24.1023 106.611 26.0816 108.073 27.7795 109.24C28.7174 109.887 30.0013 110.641 31.1333 111.297L31.1365 111.31Z" fill="#FF01E6"/>
<path d="M59.9977 116.892L59.9621 116.872C45.6187 108.719 33.9758 76.643 34.0438 45.3689V45.2557H34.1505C63.3676 41.3262 98.7975 44.7544 113.134 52.898L113.196 52.9335V53.0047C113.138 84.2917 89.2795 112.953 60.0397 116.885L59.9977 116.892ZM34.2992 45.4756C34.2701 76.6106 45.8128 108.502 60.0591 116.627C89.1663 112.691 112.872 84.1914 112.963 53.0564C98.6358 44.9808 63.4064 41.5785 34.2992 45.4756Z" fill="#FF01E6"/>
<path d="M86.6921 105.537C79.493 101.445 61.6729 99.7151 46.9737 101.701L46.9414 101.462C61.6858 99.4791 79.5738 101.213 86.8118 105.323L86.6921 105.537Z" fill="#FF01E6"/>
<path d="M105.722 82.6456C93.3835 75.6372 62.8598 72.6877 37.6788 76.0738L37.6465 75.8345C62.8727 72.4419 93.4644 75.4044 105.841 82.4354L105.722 82.6456Z" fill="#FF01E6"/>
<path d="M60.0689 116.879L59.9751 116.656C77.9181 109.175 92.5622 77.7168 92.6204 46.5269H92.863C92.8048 77.8074 78.0927 109.366 60.0689 116.879Z" fill="#FF01E6"/>
<path d="M60.1399 116.798L59.9038 116.736C62.2777 107.739 64.2537 75.0159 64.3119 43.7871H64.5545C64.4963 75.0321 62.517 107.784 60.1399 116.798Z" fill="#FF01E6"/>
<path d="M53.3806 117.338C42.2811 117.338 31.9189 113.522 23.6687 106.294C18.4134 101.664 14.2587 95.9178 11.5083 89.4763C8.54911 82.6846 7.05171 75.2105 7.05818 67.2934C2.62095 64.7546 0.56404 61.9279 1.10737 59.1142C2.28136 53.1505 14.93 47.8433 34.1505 45.256L34.2863 45.2366V45.3756C34.2281 76.5721 45.7998 108.554 60.0818 116.669L60.4052 116.847L60.0494 116.892C57.8389 117.189 55.611 117.338 53.3806 117.338ZM34.0405 45.5082C15.0044 48.0955 2.48188 53.3187 1.3467 59.1757C0.819536 61.8923 2.85704 64.6446 7.23929 67.1317L7.30074 67.1672V67.2481C7.28457 75.1588 8.7755 82.6134 11.7283 89.4051C14.4691 95.8081 18.6035 101.519 23.8304 106.122C33.5684 114.654 46.2785 118.412 59.6516 116.701C45.4667 108.27 34.0211 76.5139 34.0438 45.5082H34.0405Z" fill="#FF01E6"/>
<path d="M33.2744 112.717C30.9911 111.423 29.9335 109.964 30.2149 108.512C30.8035 105.472 37.2071 102.772 46.9289 101.465L46.9612 101.704C37.3462 102.998 31.0234 105.624 30.4672 108.561C30.2052 109.903 31.2239 111.268 33.407 112.51L33.2744 112.717Z" fill="#FF01E6"/>
<path d="M14.3089 94.9386C10.4279 92.7394 8.63618 90.2815 9.1116 87.8235C10.1142 82.6489 21.0456 78.0597 37.6464 75.8281L37.6787 76.0674C21.1846 78.2861 10.3309 82.8074 9.34769 87.8688C8.89492 90.2071 10.6413 92.5777 14.4285 94.7219L14.3089 94.9386Z" fill="#FF01E6"/>
<path d="M60.001 116.885C32.8343 111.834 10.8098 82.2802 10.868 50.9771H11.1106C11.0524 82.1573 33.0024 111.617 60.043 116.646L60.001 116.885Z" fill="#FF01E6"/>
<path d="M60.0202 116.888C27.5075 116.17 1.1267 90.1227 1.18491 58.8196H1.42747C1.36926 89.9869 27.6563 115.928 60.0235 116.643L60.0202 116.888Z" fill="#FF01E6"/>
<path d="M66.5694 118.774C64.2526 118.728 61.9876 118.079 59.9977 116.892C46.4402 118.706 33.5425 114.951 23.6719 106.293C18.4166 101.663 14.262 95.9174 11.5116 89.4759C8.54264 82.6552 7.04524 75.1649 7.06141 67.2219V67.0149L7.24252 67.1151C21.5374 75.2393 56.9026 78.6545 86.0713 74.7315L86.2103 74.7121V74.8512C86.1715 95.9701 80.7867 112.202 72.1613 117.218C70.4703 118.228 68.5391 118.766 66.5694 118.774ZM60.0462 116.639L60.0818 116.662C64.2861 119.055 68.3223 119.178 72.0481 117.018C80.5829 112.063 85.916 95.9701 85.9775 75.0064C56.9091 78.8874 21.7411 75.5013 7.31367 67.445C7.31367 75.2781 8.81431 82.6616 11.7412 89.3951C14.482 95.7981 18.6164 101.509 23.8433 106.112C33.6686 114.722 46.5146 118.463 60.0171 116.646L60.0462 116.639Z" fill="#FF01E6"/>
<path d="M60.2757 117.4C49.1891 117.4 38.4809 115.676 33.2739 112.717L33.3936 112.506C40.5928 116.598 58.4128 118.328 73.112 116.339L73.1443 116.581C68.8774 117.137 64.5786 117.41 60.2757 117.4Z" fill="#FF01E6"/>
<path d="M60.4768 102.946C41.5151 102.946 23.2067 99.9934 14.3096 94.9385L14.4292 94.7283C26.7674 101.74 57.288 104.686 82.4721 101.3L82.5013 101.539C75.1988 102.493 67.8413 102.963 60.4768 102.946Z" fill="#FF01E6"/>
<path d="M52.4106 118.499C48.963 118.49 45.5981 117.443 42.7535 115.495C33.0932 109.043 27.3494 93.4218 27.3849 73.7097H27.6275C27.5919 93.3409 33.2969 108.884 42.8894 115.291C48.0025 118.709 53.9113 119.172 59.9688 116.656L60.0626 116.879C57.6445 117.921 55.0435 118.471 52.4106 118.499Z" fill="#FF01E6"/>
<path d="M58.8365 119.201H58.7815C56.5985 118.916 55.6606 97.532 55.6994 76.4487H55.942C55.8902 104.101 57.3488 118.764 58.8139 118.955C58.9691 118.984 59.3637 118.793 59.9038 116.736L60.1399 116.798C59.7097 118.431 59.2925 119.201 58.8365 119.201Z" fill="#FF01E6"/>
<path d="M66.5694 118.774C64.4155 118.774 62.1904 118.127 59.9621 116.872L59.6387 116.694L59.9977 116.646C66.3469 115.769 72.492 113.78 78.1508 110.769C83.0538 103.079 85.9289 90.2845 85.958 74.8706V74.7639H86.0615C96.6662 73.3376 105.259 71.0899 111.003 68.3668C112.276 63.348 112.928 58.192 112.944 53.0144V52.8074L113.125 52.9076C117.604 55.4529 119.68 58.2957 119.134 61.1223C118.62 63.7775 115.835 66.2969 111.213 68.5188C106.589 86.7366 94.218 102.574 78.3158 110.973C76.5176 113.78 74.4348 115.909 72.1515 117.244C70.4608 118.243 68.5333 118.772 66.5694 118.774ZM60.3987 116.833C64.4996 119.059 68.4161 119.12 72.0416 117.015C74.2117 115.757 76.1748 113.78 77.8953 111.177C72.4246 114.038 66.5087 115.952 60.3987 116.837V116.833ZM86.2103 74.9709C86.1683 90.1454 83.3675 102.784 78.5842 110.546C94.1921 102.16 106.33 86.5652 110.926 68.6352C105.178 71.3357 96.6695 73.5608 86.2103 74.9741V74.9709ZM113.193 53.2052C113.161 58.2651 112.524 63.3031 111.294 68.2115C115.738 66.0608 118.409 63.6191 118.904 61.0576C119.425 58.383 117.449 55.6696 113.193 53.2084V53.2052Z" fill="#FF01E6"/>
<path d="M73.1441 116.581L73.1118 116.339C82.7269 115.045 89.0529 112.422 89.6221 109.486C89.8808 108.143 88.862 106.779 86.679 105.537L86.7987 105.323C89.082 106.617 90.1395 108.075 89.8582 109.528C89.2792 112.571 82.866 115.271 73.1441 116.581Z" fill="#FF01E6"/>
<path d="M82.4881 101.53L82.459 101.29C98.9531 99.0719 109.804 94.5505 110.787 89.4891C111.24 87.1508 109.493 84.7802 105.709 82.636L105.829 82.4258C109.71 84.6282 111.498 87.0862 111.026 89.5409C110.036 94.7122 99.1018 99.308 82.4881 101.53Z" fill="#FF01E6"/>
<path d="M67.84 117.619C65.2098 117.616 62.5856 117.37 60.0005 116.885L60.0425 116.646C71.9668 118.864 83.4738 115.999 92.4453 108.56C103.027 99.7798 109.114 85.4623 109.146 69.2722H109.389C109.357 85.5334 103.244 99.9221 92.6005 108.729C85.6538 114.519 76.8837 117.668 67.84 117.619Z" fill="#FF01E6"/>
<path d="M61.4075 116.901C60.945 116.901 60.4825 116.901 60.02 116.901V116.659C76.1098 117.011 91.1227 111.184 102.326 100.242C112.937 89.8932 118.797 76.0996 118.82 61.4329H119.062C119.036 76.1676 113.15 90.0129 102.494 100.42C91.5722 111.074 77.0251 116.901 61.4075 116.901Z" fill="#FF01E6"/>
<path d="M113.193 53.205L113.012 53.1048C98.7169 44.9806 63.3549 41.5654 34.183 45.4884L34.0439 45.5078V45.3687C34.0828 24.2466 39.4676 8.01451 48.0962 3.0016C51.8284 0.834732 56.0328 0.951161 60.2566 3.32501C73.8108 1.5139 86.7118 5.26549 96.5824 13.9233C101.837 18.5544 105.991 24.2999 108.743 30.7407C111.712 37.5615 113.209 45.0485 113.196 52.9948L113.193 53.205ZM59.6615 43.6191C81.4984 43.6191 102.582 46.9987 112.954 52.7911C112.954 44.9548 111.45 37.5712 108.523 30.841C105.782 24.4371 101.648 18.725 96.4206 14.1205C86.5954 5.51129 73.7558 1.77263 60.2501 3.58698H60.2081L60.1725 3.56757C55.9681 1.17108 51.9319 1.05142 48.2062 3.20859C39.6843 8.16974 34.3512 24.2628 34.2994 45.2297C42.7091 44.1379 51.1813 43.5998 59.6615 43.6191Z" fill="#FF01E6"/>
<path d="M105.828 25.5082C93.4835 18.4966 62.963 15.5503 37.7853 18.9364L37.7529 18.6939C62.9792 15.3013 93.5676 18.2637 105.948 25.2947L105.828 25.5082Z" fill="#FF01E6"/>
<path d="M86.8601 7.73972C79.6609 3.64854 61.8441 1.91828 47.1417 3.90727L47.1094 3.66794C61.8538 1.68542 79.7418 3.41568 86.9798 7.5295L86.8601 7.73972Z" fill="#FF01E6"/>
<path d="M92.8627 46.5267H92.6202C92.6557 26.8955 86.9507 11.349 77.3583 4.94219C72.2451 1.52372 66.3396 1.06124 60.2788 3.58062L60.1851 3.35424C66.3299 0.796038 72.3066 1.27792 77.4941 4.73844C87.1545 11.1938 92.8983 26.8211 92.8627 46.5267Z" fill="#FF01E6"/>
<path d="M64.5542 43.7874H64.3117C64.3763 16.1486 62.9048 1.46882 61.4398 1.27154C61.2942 1.2489 60.8932 1.43001 60.3499 3.49015L60.1138 3.42871C60.5633 1.73079 60.9999 0.970765 61.4721 1.02898C63.6551 1.32005 64.593 22.7138 64.5542 43.7874Z" fill="#FF01E6"/>
<path d="M7.30394 67.4452L7.12282 67.3449C2.64032 64.7996 0.564003 61.9568 1.11057 59.1302C1.62803 56.475 4.40939 53.9556 9.03096 51.7337C13.6558 33.5126 26.0263 17.6751 41.9318 9.27606C43.73 6.46883 45.8127 4.34077 48.096 3.00507C51.8379 0.831738 56.0552 0.954634 60.292 3.36083L60.6154 3.53871L60.2596 3.58722C53.9059 4.46284 47.7563 6.45211 42.0935 9.46364C37.1906 17.1544 34.3316 29.9486 34.2863 45.3625V45.4692H34.1828C23.5781 46.8955 14.9882 49.1432 9.24441 51.8664C7.97156 56.8851 7.31985 62.0412 7.30394 67.2188V67.4452ZM8.95981 52.0216C4.51935 54.1723 1.84472 56.6141 1.3499 59.1755C0.829201 61.8533 2.80526 64.5668 7.06138 67.028C7.09297 61.968 7.73032 56.93 8.95981 52.0216ZM41.6731 9.68032C26.0619 18.0891 13.9242 33.6679 9.31557 51.6012C15.0756 48.9007 23.5846 46.6756 34.0437 45.2623C34.0858 30.0845 36.8865 17.4422 41.6731 9.68032ZM53.704 1.68231C51.7672 1.68919 49.868 2.21761 48.206 3.21206C46.0359 4.47337 44.0728 6.44619 42.3522 9.0335C47.8254 6.18257 53.7408 4.27673 59.8489 3.3964C57.7445 2.25583 55.6963 1.68447 53.704 1.68231Z" fill="#FF01E6"/>
<path d="M14.4124 37.8173C10.5314 35.6148 8.74297 33.1569 9.21839 30.7022C10.2177 25.5276 21.1523 20.9383 37.7531 18.7068L37.7855 18.9493C21.2914 21.1647 10.4377 25.6893 9.45448 30.7507C9.0017 33.089 10.7481 35.4564 14.5321 37.6006L14.4124 37.8173Z" fill="#FF01E6"/>
<path d="M33.455 14.9097C31.1717 13.6161 30.1142 12.1575 30.3956 10.7054C30.9842 7.66529 37.391 4.96479 47.1095 3.6582L47.1419 3.89753C37.5268 5.19118 31.2041 7.8173 30.6478 10.7507C30.3859 12.0928 31.4046 13.4609 33.5876 14.7028L33.455 14.9097Z" fill="#FF01E6"/>
<path d="M11.1107 50.9768H10.8682C10.8973 34.7123 17.013 20.3236 27.6565 11.5009C36.683 4.01068 48.2612 1.11614 60.2534 3.34769L60.2113 3.58702C48.2871 1.3684 36.78 4.23384 27.8085 11.6723C17.2265 20.466 11.1398 34.7867 11.1107 50.9768Z" fill="#FF01E6"/>
<path d="M1.42737 58.8389H1.18481C1.21392 44.1042 7.09681 30.2556 17.7565 19.8482C29.0081 8.85216 44.0921 3.00808 60.2336 3.35413V3.59669C44.1535 3.24094 29.1342 9.07207 17.9312 20.0131C7.31349 30.3785 1.45648 44.1495 1.42737 58.8389Z" fill="#FF01E6"/>
<path d="M60.5927 76.6271C38.6297 76.6271 17.4267 73.1989 7.13249 67.3451L7.07104 67.3096V67.2481C7.13249 35.9417 30.9648 7.28085 60.2176 3.34814H60.2564L60.2919 3.36755C74.6418 11.5208 86.2685 43.6002 86.2103 74.8742V74.9809H86.1035C77.6456 76.092 69.1233 76.6419 60.5927 76.6271ZM7.3039 67.1673C21.6214 75.2526 56.8573 78.6581 85.9677 74.761C86.0001 43.626 74.4574 11.731 60.2078 3.61011C31.1136 7.52988 7.39446 36.0291 7.3039 67.1673Z" fill="#FF01E6"/>
<path d="M60.5831 45.8056C41.6214 45.8056 23.3129 42.856 14.4126 37.8011L14.5323 37.5876C26.8608 44.6089 57.3942 47.5488 82.5752 44.1594L82.6075 44.402C75.305 45.3548 67.9475 45.8237 60.5831 45.8056Z" fill="#FF01E6"/>
<path d="M60.4569 19.593C49.3702 19.593 38.662 17.8659 33.4551 14.9099L33.5747 14.6997C40.7772 18.7877 58.594 20.5211 73.2963 18.5322L73.3287 18.7715C69.061 19.3296 64.7609 19.604 60.4569 19.593Z" fill="#FF01E6"/>
<path d="M27.6337 73.7162H27.3911C27.4493 42.4356 42.1614 10.8737 60.1852 3.36084L60.279 3.58723C42.336 11.0581 27.6919 42.5165 27.6337 73.7162Z" fill="#FF01E6"/>
<path d="M55.9423 76.4488H55.6997C55.7579 45.2038 57.7404 12.4518 60.1143 3.43823L60.3504 3.49968C57.9765 12.4938 56.0005 45.22 55.9423 76.4488Z" fill="#FF01E6"/>
<path d="M85.968 75.0097V74.8706C86.0262 43.6709 74.4545 11.6886 60.1725 3.57737L59.8491 3.39949L60.2081 3.35098C73.7915 1.52693 86.6924 5.29146 96.5727 13.9428C101.827 18.5739 105.981 24.3194 108.733 30.7602C111.692 37.5519 113.19 45.026 113.186 52.9432C117.624 55.4787 119.681 58.3086 119.134 61.1223C117.973 67.1022 105.315 72.4191 86.0941 75.0032L85.968 75.0097ZM60.6027 3.53532C74.7876 11.9441 86.2332 43.7162 86.2105 74.7218C105.247 72.1345 117.769 66.9114 118.904 61.0544C119.432 58.3377 117.394 55.5855 113.012 53.0984L112.954 53.0628V52.9917C112.954 45.081 111.476 37.6263 108.523 30.8346C105.782 24.4307 101.648 18.7186 96.4207 14.1142C86.6924 5.589 73.9758 1.8374 60.6027 3.53532Z" fill="#FF01E6"/>
<path d="M82.6075 44.4022L82.5752 44.1596C99.0693 41.9442 109.923 37.4197 110.906 32.3583C111.359 30.0232 109.613 27.6526 105.829 25.5084L105.948 25.2949C109.829 27.4974 111.618 29.9553 111.142 32.41C110.143 37.5717 99.2083 42.1706 82.6075 44.4022Z" fill="#FF01E6"/>
<path d="M73.3282 18.7714L73.2959 18.5321C82.9077 17.2384 89.2337 14.6123 89.79 11.6757C90.0487 10.3335 89.0332 8.96873 86.8469 7.72682L86.9666 7.5166C89.2499 8.81025 90.3107 10.2688 90.0261 11.721C89.4504 14.7643 83.0468 17.4648 73.3282 18.7714Z" fill="#FF01E6"/>
<path d="M109.389 69.2598H109.147C109.205 38.0795 87.2515 8.61655 60.2109 3.58747L60.253 3.34814C87.4035 8.38692 109.447 37.9663 109.389 69.2598Z" fill="#FF01E6"/>
<path d="M119.069 61.4268H118.826C118.885 30.2562 92.5977 4.31521 60.2305 3.60047V3.35791C92.7335 4.06295 119.127 30.1139 119.069 61.4268Z" fill="#FF01E6"/>
<path d="M59.9235 119.214H59.6745L58.7915 119.198H58.397C58.038 119.198 57.5335 119.172 57.1033 119.146C54.6653 119.021 52.2372 118.746 49.833 118.322C45.4441 117.546 41.1581 116.272 37.0582 114.525C34.9925 113.63 32.9739 112.631 31.0104 111.53C29.2022 110.523 27.4569 109.408 25.784 108.189C25.4994 107.973 25.1922 107.743 24.872 107.507C23.7885 106.698 22.5596 105.783 21.6669 104.962C21.3694 104.69 21.0428 104.392 20.6967 104.085C19.9302 103.396 19.1346 102.682 18.5072 102.051C17.4076 100.945 16.0169 99.4442 15.0499 98.3187C13.6819 96.7275 11.971 94.373 9.81385 91.126C8.91015 89.6894 8.07902 88.2085 7.32357 86.6887C6.5475 85.2022 5.85538 83.6733 5.25049 82.1092C4.18271 79.2142 3.2609 76.2674 2.48854 73.28C1.90317 70.8059 1.49243 67.478 1.19489 64.8551C1.05906 63.6261 1.03642 62.0705 1.02025 60.6992L1.02025 60.033C0.98752 58.2767 1.06854 56.5201 1.26281 54.7743C1.32102 54.3312 1.37923 53.8397 1.44068 53.3287C1.57328 52.1999 1.71235 51.0324 1.88052 50.0719C2.15543 48.5066 2.59527 46.4852 2.9769 45.0428C3.34559 43.6489 3.89216 41.8669 4.33847 40.612C4.71686 39.5415 5.26666 38.2188 5.75178 37.0545L6.24337 35.8579C6.93614 34.2376 7.73453 32.6646 8.63339 31.149C9.88824 29.0306 11.8352 26.1231 13.5913 23.7396C14.6818 22.2805 15.8704 20.8974 17.1489 19.5999L18.0285 18.7137C18.7336 17.999 19.5357 17.184 20.2148 16.5792C21.4794 15.4537 23.3034 13.9466 24.8623 12.7371C25.9748 11.8735 27.5401 10.8483 28.1611 10.4473C29.0731 9.85868 30.2988 9.15364 31.2853 8.5715L31.5763 8.40332C33.5453 7.28164 35.5899 6.29825 37.6953 5.46026C39.5 4.75845 40.868 4.25716 41.8706 3.93052C43.1836 3.50684 44.9656 3.02172 46.1946 2.70801C47.7405 2.31668 49.7522 1.95446 50.3214 1.85097C51.615 1.62458 52.6823 1.49845 53.8078 1.36908C54.2185 1.32057 55.8064 1.1718 56.6635 1.12976C57.8342 1.07154 58.8433 1.0198 60.5671 1.0295C63.2932 1.05793 66.0142 1.27405 68.7106 1.67632C70.0205 1.8639 71.5405 2.15498 72.2423 2.30375C73.2481 2.52043 74.7294 2.88589 76.2138 3.27399C77.0547 3.50038 78.2319 3.86907 79.1407 4.18924C80.4893 4.6679 82.0708 5.27268 83.1769 5.73516C85.1174 6.54369 87.5818 7.85998 89.2215 8.72997C89.5967 8.94342 89.9686 9.16334 90.3373 9.37679C91.4886 10.0592 92.8243 10.8807 93.8172 11.618C94.1083 11.8347 94.4317 12.0708 94.768 12.3134C95.5378 12.8761 96.411 13.5132 97.0772 14.0566C98.4187 15.1148 99.7054 16.2406 100.932 17.4298C101.22 17.7273 101.54 18.0507 101.877 18.4C102.611 19.1374 103.371 19.8974 103.966 20.5637C105.078 21.8088 106.346 23.3385 107.2 24.4446C108.054 25.5507 109.089 27.0319 109.771 28.1057C110.146 28.691 111.443 30.7415 112.316 32.4297C113.823 35.249 115.096 38.1868 116.123 41.2136C117.197 44.3669 118.063 48.5874 118.387 50.253C118.688 51.8021 118.898 53.9043 119.034 55.3953C119.121 56.4625 119.157 57.8079 119.186 58.9981C119.186 59.425 119.208 59.8357 119.221 60.2109C119.255 62.1851 119.154 64.1594 118.917 66.1197C118.717 67.7788 118.497 69.4929 118.248 70.8091C117.957 72.3648 117.494 74.3829 117.096 75.8253C116.718 77.2095 116.152 78.9786 115.693 80.2334C115.289 81.3265 114.723 82.6752 114.202 83.8653L113.733 84.9682C113.115 86.3509 112.423 87.6993 111.66 89.0076C111.045 90.0846 110.201 91.4041 109.457 92.5651L108.911 93.4448C107.874 94.9968 106.747 96.486 105.534 97.9047C103.685 100.107 101.684 102.179 99.5481 104.105C98.2544 105.23 96.4045 106.731 94.8133 107.934C93.9304 108.6 92.7176 109.386 91.7441 110.017L91.5145 110.165C89.3739 111.504 87.1533 112.711 84.8651 113.778C84.0598 114.134 82.0094 115.029 80.415 115.618C79.2216 116.058 77.5042 116.614 76.1136 117.002C74.0704 117.576 71.9988 118.043 69.9073 118.403C68.3419 118.668 67.459 118.768 66.4338 118.885C65.8355 118.952 64.3704 119.082 63.5781 119.121C62.4526 119.179 61.7249 119.214 60.9487 119.218H59.9235V119.214ZM60.1725 1.27206C58.6978 1.27206 57.7631 1.31734 56.6926 1.37232C55.8388 1.41436 54.2605 1.5599 53.853 1.60841C52.7275 1.74101 51.6668 1.8639 50.3796 2.09029C48.8434 2.36196 47.3071 2.6789 46.2722 2.9441C45.0465 3.26752 43.271 3.7397 41.9611 4.16337C40.9618 4.48679 39.6002 4.98484 37.7988 5.68665C35.7054 6.51337 33.6726 7.486 31.7154 8.59737L31.4243 8.76554C30.4541 9.33798 29.2154 10.0592 28.3066 10.6349C27.6889 11.0327 26.1333 12.0547 25.0272 12.8988C23.4716 14.1051 21.654 15.609 20.3927 16.7312C19.72 17.3295 18.9212 18.1413 18.2161 18.856L17.3364 19.7422C16.0623 21.0299 14.879 22.4045 13.7951 23.856C12.0389 26.2331 10.0985 29.1309 8.84685 31.246C7.95769 32.7567 7.16901 34.3243 6.48593 35.9387C6.33393 36.3106 6.16252 36.7149 5.99111 37.1354C5.50922 38.2996 4.95942 39.6192 4.58103 40.6929C4.13795 41.9445 3.61079 43.7136 3.22592 45.1043C2.84106 46.4949 2.41093 48.5551 2.13602 50.1139C1.96785 51.068 1.82878 52.2323 1.69618 53.3481C1.63797 53.8591 1.57975 54.3506 1.52154 54.797C1.32715 56.5309 1.24612 58.2756 1.27898 60.0201L1.27898 60.6863C1.29838 62.0511 1.32102 63.597 1.45685 64.8163C1.74793 67.4359 2.15543 70.7542 2.75051 73.225C3.51962 76.2042 4.4393 79.1424 5.50599 82.0284C6.10716 83.5835 6.79495 85.1038 7.56613 86.582C8.31605 88.0932 9.1418 89.5655 10.0402 90.9934C11.6394 93.4828 13.3823 95.8769 15.2601 98.1634C16.2304 99.2857 17.6081 100.783 18.7045 101.886C19.3287 102.51 20.1178 103.222 20.8843 103.91C21.2271 104.218 21.557 104.512 21.8545 104.784C22.7407 105.599 23.9664 106.511 25.0434 107.316C25.3668 107.552 25.6708 107.782 25.9554 107.998C27.6193 109.209 29.3549 110.318 31.1527 111.32C33.109 112.417 35.12 113.413 37.1778 114.305C43.5113 117.001 50.2707 118.559 57.1454 118.907C57.5626 118.933 58.0639 118.952 58.4229 118.959H58.8142L59.6939 118.975C59.9591 118.975 60.2825 118.975 60.5833 118.975H60.9681C61.7378 118.975 62.4655 118.936 63.5554 118.881C64.364 118.839 65.8193 118.71 66.4176 118.642C67.4364 118.526 68.3193 118.425 69.8749 118.163C71.9591 117.807 74.0231 117.342 76.0586 116.769C77.4331 116.385 79.1536 115.828 80.3406 115.392C81.9318 114.806 83.9725 113.914 84.7778 113.555C87.0531 112.493 89.2617 111.294 91.3916 109.965L91.6212 109.813C92.5915 109.185 93.801 108.399 94.6775 107.74C96.2654 106.54 98.1186 105.042 99.3993 103.923C101.526 102.004 103.518 99.9402 105.36 97.7462C106.566 96.3363 107.687 94.8557 108.717 93.3122L109.273 92.439C110.014 91.2812 110.855 89.9681 111.469 88.8815C112.228 87.5833 112.918 86.2458 113.536 84.8744L114.005 83.7683C114.512 82.5814 115.088 81.236 115.489 80.1493C115.948 78.9009 116.511 77.1383 116.889 75.7606C117.284 74.3214 117.747 72.3163 118.038 70.7671C118.28 69.454 118.5 67.7432 118.701 66.0905C118.937 64.1432 119.039 62.1819 119.005 60.2206C119.005 59.8422 118.982 59.4315 118.969 59.0013C118.94 57.8176 118.908 56.4755 118.82 55.4147C118.697 53.9302 118.497 51.8377 118.173 50.3015C117.85 48.6359 116.974 44.4316 115.91 41.2912C114.888 38.2726 113.621 35.3424 112.122 32.5299C111.252 30.8514 109.962 28.8107 109.587 28.2253C108.908 27.1645 107.902 25.735 107.025 24.5837C106.149 23.4323 104.917 21.9446 103.791 20.7027C103.199 20.0559 102.443 19.2829 101.712 18.5488C101.388 18.2254 101.065 17.902 100.764 17.5786C99.5443 16.3941 98.264 15.2736 96.9284 14.2215L96.8476 14.1536C107.038 23.2092 112.983 36.7731 113.18 52.0868C113.18 52.3455 113.18 52.6074 113.18 52.8694V52.9826C113.138 84.2922 89.2797 112.953 60.0399 116.886L60.0076 116.646C89.1439 112.727 112.889 84.1758 112.954 52.9988V52.8856C112.954 34.312 104.49 18.2318 90.2273 9.57731L89.118 8.93048C87.4848 8.06374 85.0107 6.75068 83.096 5.94538C81.9964 5.48613 80.4182 4.88135 79.0728 4.40593C78.1705 4.08252 76.9997 3.7203 76.1621 3.49714C74.6841 3.09934 73.2061 2.73388 72.2035 2.5269C71.5049 2.3749 69.9946 2.08706 68.6912 1.89948C66.0049 1.50626 63.2949 1.29664 60.58 1.27206H60.1725Z" fill="#FF01E6"/>
</g>
<defs>
<filter id="filter0_b_1338_11259" x="-21.1014" y="-21.1065" width="162.43" height="162.43" filterUnits="userSpaceOnUse" color-interpolation-filters="sRGB">
<feFlood flood-opacity="0" result="BackgroundImageFix"/>
<feGaussianBlur in="BackgroundImageFix" stdDeviation="11.0424"/>
<feComposite in2="SourceAlpha" operator="in" result="effect1_backgroundBlur_1338_11259"/>
<feBlend mode="normal" in="SourceGraphic" in2="effect1_backgroundBlur_1338_11259" result="shape"/>
</filter>
</defs>
</svg>
