<svg width="62" height="62" viewBox="0 0 62 62" fill="none" xmlns="http://www.w3.org/2000/svg">
<path d="M30.5542 19.2366L13.6362 29.9997C13.366 30.1692 13.0553 30.2633 12.7364 30.2726C12.4175 30.2816 12.102 30.2051 11.8226 30.0514C11.5431 29.8975 11.3098 29.6719 11.1469 29.3976C10.984 29.1233 10.8974 28.8105 10.896 28.4914V17.6234C10.8975 17.0211 11.0513 16.429 11.3429 15.9021C11.6345 15.3751 12.0545 14.9304 12.564 14.6092L28.636 4.37496C29.2093 4.01032 29.8749 3.81665 30.5542 3.81665C31.2335 3.81665 31.8991 4.01032 32.4724 4.37496L48.5563 14.6211C49.062 14.9426 49.4785 15.386 49.768 15.9107C50.0573 16.4353 50.21 17.0243 50.2124 17.6234V28.4914C50.2119 28.8114 50.1254 29.1257 49.9622 29.4009C49.7987 29.6764 49.5648 29.9028 49.2841 30.0569C49.0036 30.2109 48.6867 30.2869 48.3667 30.2769C48.0469 30.2669 47.7355 30.1711 47.465 29.9997L30.5542 19.2366Z" stroke="#30E29D" stroke-width="2" stroke-linecap="round" stroke-linejoin="round"/>
<path d="M30.5542 46.3862L13.6362 57.1494C13.366 57.3188 13.0553 57.4129 12.7364 57.4222C12.4175 57.4313 12.102 57.3548 11.8226 57.2011C11.5431 57.0471 11.3098 56.8215 11.1469 56.5472C10.984 56.273 10.8974 55.9601 10.896 55.641V44.7754C10.8971 44.1728 11.0507 43.5802 11.3423 43.0526C11.6339 42.5253 12.0542 42.0802 12.564 41.7588L28.6479 31.5246C29.2213 31.16 29.8868 30.9663 30.5661 30.9663C31.2455 30.9663 31.911 31.16 32.4843 31.5246L48.5683 41.7707C49.072 42.0938 49.4864 42.5382 49.7737 43.0634C50.0609 43.5883 50.2117 44.1769 50.2124 44.7754V55.641C50.2119 55.9611 50.1254 56.2754 49.9622 56.5506C49.7987 56.826 49.5648 57.0524 49.2841 57.2066C49.0036 57.3605 48.6867 57.4365 48.3667 57.4265C48.0469 57.4165 47.7355 57.3207 47.465 57.1494L30.5542 46.3862Z" stroke="#30E29D" stroke-width="2" stroke-linecap="round" stroke-linejoin="round"/>
</svg>
