<svg width="28" height="29" viewBox="0 0 28 29" fill="none" xmlns="http://www.w3.org/2000/svg">
<path d="M23.78 9.97005C23.6393 9.8296 23.4487 9.75071 23.25 9.75071C23.0512 9.75071 22.8606 9.8296 22.72 9.97005L14 18.69L5.27997 9.97005C5.13779 9.83757 4.94975 9.76545 4.75545 9.76888C4.56114 9.7723 4.37576 9.85102 4.23835 9.98843C4.10093 10.1258 4.02222 10.3112 4.01879 10.5055C4.01537 10.6998 4.08749 10.8879 4.21997 11.0301L13.47 20.28C13.6106 20.4205 13.8012 20.4994 14 20.4994C14.1987 20.4994 14.3893 20.4205 14.53 20.28L23.78 11.0301C23.9204 10.8894 23.9993 10.6988 23.9993 10.5C23.9993 10.3013 23.9204 10.1107 23.78 9.97005Z" fill="white"/>
</svg>
