<svg width="66" height="66" viewBox="0 0 66 66" fill="none" xmlns="http://www.w3.org/2000/svg">
<path d="M23.8498 14.6151H42.3112C44.7593 14.6151 47.107 15.5876 48.8382 17.3188C50.5694 19.0498 51.5419 21.3977 51.5419 23.8459V63.0765H14.6191V23.8459C14.6191 21.3977 15.5916 19.0498 17.3228 17.3188C19.0538 15.5876 21.4017 14.6151 23.8498 14.6151Z" stroke="white" stroke-width="2" stroke-linecap="round" stroke-linejoin="round"/>
<path d="M14.6204 63.0766H3.08203V44.6151C3.08203 43.391 3.56829 42.2171 4.43383 41.3516C5.29938 40.486 6.47329 39.9998 7.69737 39.9998H14.6204" stroke="white" stroke-width="2" stroke-linecap="round" stroke-linejoin="round"/>
<path d="M51.543 39.9999H58.466C59.69 39.9999 60.8641 40.4862 61.7295 41.3517C62.5949 42.2172 63.0813 43.3912 63.0813 44.6153V63.0768H51.543" stroke="white" stroke-width="2" stroke-linecap="round" stroke-linejoin="round"/>
<path d="M14.6191 35.3844H51.5419" stroke="white" stroke-width="2" stroke-linecap="round" stroke-linejoin="round"/>
<path d="M33.082 30.7688V39.9995" stroke="white" stroke-width="2" stroke-linecap="round" stroke-linejoin="round"/>
<path d="M23.8516 14.6152V12.3075C23.8516 9.8594 24.8241 7.51151 26.5552 5.78042C28.2863 4.04931 30.6341 3.07678 33.0822 3.07678C35.5304 3.07678 37.8782 4.04931 39.6093 5.78042C41.3404 7.51151 42.3129 9.8594 42.3129 12.3075V14.6152" stroke="white" stroke-width="2" stroke-linecap="round" stroke-linejoin="round"/>
</svg>
