<svg width="55" height="55" viewBox="0 0 55 55" fill="none" xmlns="http://www.w3.org/2000/svg">
<path d="M49.3878 13.6385H5.61228C3.41441 13.6385 1.63269 15.4203 1.63269 17.6181V49.4549C1.63269 51.6528 3.41441 53.4345 5.61228 53.4345H49.3878C51.5857 53.4345 53.3674 51.6528 53.3674 49.4549V17.6181C53.3674 15.4203 51.5857 13.6385 49.3878 13.6385Z" stroke="white" stroke-width="2" stroke-linecap="round" stroke-linejoin="round"/>
<path d="M9.48669 27.4049H45.5135" stroke="white" stroke-width="2" stroke-linecap="round"/>
<path d="M39.4388 13.6386V5.67942C39.4388 4.62395 39.0195 3.61174 38.2732 2.86542C37.5269 2.11911 36.5147 1.69983 35.4592 1.69983H19.5409C18.4854 1.69983 17.4732 2.11911 16.7269 2.86542C15.9806 3.61174 15.5613 4.62395 15.5613 5.67942V13.6386" stroke="white" stroke-width="2" stroke-linecap="round" stroke-linejoin="round"/>
</svg>
