<svg width="51" height="55" viewBox="0 0 51 55" fill="none" xmlns="http://www.w3.org/2000/svg">
<path d="M17.3433 23.572H33.6561" stroke="white" stroke-width="2" stroke-linecap="round" stroke-linejoin="round"/>
<path d="M17.3433 29.9801H33.6561" stroke="white" stroke-width="2" stroke-linecap="round" stroke-linejoin="round"/>
<path d="M24.3332 23.572C25.8868 23.9604 28.9939 25.3198 28.9939 29.398C28.9939 36.3892 19.6724 36.3892 19.6724 36.3892C19.6724 36.3892 24.3332 40.4675 31.3244 42.2153" stroke="white" stroke-width="2" stroke-linecap="round" stroke-linejoin="round"/>
<path d="M25.5 53.5344C39.4824 53.5344 49.4697 48.5882 49.4697 37.5791C49.4697 25.6127 43.4773 17.635 31.4924 11.6518L36.2065 5.58878C36.446 5.191 36.5759 4.73705 36.583 4.27296C36.5902 3.80887 36.4743 3.35116 36.2472 2.94619C36.02 2.54123 35.6897 2.20342 35.2897 1.967C34.8897 1.73058 34.4342 1.60396 33.9693 1.59998H17.0307C16.5658 1.60396 16.1103 1.73058 15.7103 1.967C15.3103 2.20342 14.98 2.54123 14.7529 2.94619C14.5257 3.35116 14.4099 3.80887 14.417 4.27296C14.4242 4.73705 14.554 5.191 14.7935 5.58878L19.5076 11.6917C7.52271 17.7148 1.53027 25.6924 1.53027 37.6589C1.53027 48.5882 11.5177 53.5344 25.5 53.5344Z" stroke="white" stroke-width="2" stroke-linecap="round" stroke-linejoin="round"/>
</svg>
