<svg width="55" height="55" viewBox="0 0 55 55" fill="none" xmlns="http://www.w3.org/2000/svg">
<path d="M27.2524 53.56V32.6671C27.2524 31.3478 27.7766 30.0825 28.7094 29.1496C29.6423 28.2167 30.9076 27.6926 32.2269 27.6926C33.5462 27.6926 34.8115 28.2167 35.7444 29.1496C36.6773 30.0825 37.2014 31.3478 37.2014 32.6671V43.611H45.1606C47.2714 43.611 49.2958 44.4495 50.7885 45.9422C52.2813 47.435 53.1198 49.4594 53.1198 51.5702V53.56" stroke="white" stroke-width="2" stroke-linecap="round" stroke-linejoin="round"/>
<path d="M24.2972 12.1528C19.3366 6.69403 12.6801 3.06768 5.40358 1.86002C4.90847 1.7899 4.4041 1.82593 3.924 1.96571C3.44386 2.10549 2.99899 2.34583 2.61889 2.67075C2.23198 3.00169 1.92134 3.41253 1.70837 3.875C1.4954 4.33743 1.38513 4.84057 1.38517 5.34968V33.7253C1.37988 34.5967 1.69757 35.4393 2.27692 36.0902C2.85627 36.7411 3.65622 37.1544 4.52233 37.2502C10.2056 38.0211 15.55 40.27 20.0426 43.7275" stroke="white" stroke-width="2" stroke-linecap="round" stroke-linejoin="round"/>
<path d="M24.2988 23.1494V12.1531" stroke="white" stroke-width="2" stroke-linecap="round" stroke-linejoin="round"/>
<path d="M44.0718 37.2502C44.9377 37.1544 45.7376 36.7411 46.3171 36.0902C46.8965 35.4393 47.2141 34.5967 47.2089 33.7253V5.34968C47.2089 4.84057 47.0987 4.33743 46.8858 3.875C46.6728 3.41253 46.362 3.00169 45.9752 2.67075C45.5952 2.34583 45.1503 2.10549 44.6699 1.96571C44.19 1.82593 43.6858 1.7899 43.1903 1.86002C35.914 3.06768 29.2575 6.69403 24.2969 12.1528" stroke="white" stroke-width="2" stroke-linecap="round" stroke-linejoin="round"/>
</svg>
