<svg width="60" height="60" viewBox="0 0 60 60" fill="none" xmlns="http://www.w3.org/2000/svg">
<path d="M39.949 55.8673V45.9183H47.9082C48.9636 45.9183 49.976 45.4989 50.7222 44.7527C51.4684 44.0061 51.8878 42.9941 51.8878 41.9386V26.0202C51.887 22.1302 50.8495 18.3108 48.8824 14.9549C46.9153 11.5991 44.089 8.82819 40.6952 6.92742C37.3013 5.02666 33.4621 4.06473 29.5729 4.14064C25.6837 4.21656 21.885 5.32759 18.5678 7.35936C15.2507 9.3911 12.5349 12.2702 10.7001 15.7002C8.86528 19.1303 7.97775 22.9873 8.12882 26.8743C8.27992 30.7614 9.46417 34.5379 11.5597 37.8151C13.6552 41.0924 16.5862 43.7518 20.0511 45.5203V55.8673" stroke="white" stroke-width="2" stroke-linecap="round" stroke-linejoin="round"/>
<path d="M24.0312 15.3212C18.5413 18.4908 16.2573 25.0805 18.3165 30.845C18.792 32.176 20.2286 32.8453 21.5948 32.4834C28.5075 30.6522 35.5457 25.6985 39.8216 21.8363C40.9545 20.813 41.189 19.103 40.1799 17.9576C36.1958 13.4356 29.4512 12.1919 24.0312 15.3212Z" stroke="white" stroke-width="2" stroke-linecap="round" stroke-linejoin="round"/>
</svg>
