<svg width="119" height="20" viewBox="0 0 119 20" fill="none" xmlns="http://www.w3.org/2000/svg">
<g opacity="0.8" clip-path="url(#clip0_769_5253)">
<path d="M0.853156 10.0211C0.853156 6.58951 3.50121 4.1521 7.21002 4.1521C9.59564 4.1521 11.4842 5.09826 12.314 6.94988C12.3158 6.9554 9.26489 7.75923 9.26489 7.75923C8.6957 7.14572 7.97872 6.86302 7.18781 6.86302C5.51359 6.86302 4.19975 8.02907 4.19975 10.0192C4.19975 12.0095 5.51359 13.1755 7.18781 13.1755C7.97689 13.1755 8.69018 12.9076 9.25748 12.294L12.3066 13.0221C11.475 14.8312 9.59381 15.8864 7.20813 15.8864C3.50121 15.8864 0.851318 13.4509 0.851318 10.0174L0.853156 10.0211Z" fill="white"/>
<path d="M25.7119 9.19524V15.7202H22.4078V9.70341C22.4078 7.86103 21.5597 7.01287 20.0979 7.01287C18.5087 7.01287 17.3648 7.98854 17.3648 10.0859V15.7221H14.0608V0.802L17.3648 0V5.50865C18.2555 4.61795 19.527 4.15227 20.9886 4.15227C23.6792 4.15227 25.7138 5.7193 25.7138 9.19524H25.7119Z" fill="white"/>
<path d="M40.1384 3.78992V15.7201H36.9822V14.4062C36.1563 15.4022 34.9476 15.8901 33.4233 15.8901C30.2022 15.8901 27.7244 13.6024 27.7244 10.0211C27.7244 6.43987 30.2022 4.15214 33.4233 4.15214C34.8222 4.15214 36.0087 4.59749 36.8346 5.52884V4.60117L40.1384 3.78809V3.78992ZM36.8973 10.0211C36.8973 8.05122 35.626 6.8649 33.9941 6.8649C32.3627 6.8649 31.0709 8.05122 31.0709 10.0211C31.0709 11.991 32.3422 13.1773 33.9941 13.1773C35.6465 13.1773 36.8973 11.991 36.8973 10.0211Z" fill="white"/>
<path d="M50.0361 4.15226V7.20317C49.761 7.18285 49.5486 7.16063 49.295 7.16063C47.4734 7.16063 46.2648 8.15669 46.2648 10.3391V15.7202H42.9604V4.55323L46.1167 3.79004V5.82647C46.9226 4.72512 48.2772 4.15226 50.0361 4.15226Z" fill="white"/>
<path d="M63.5914 3.79004V13.8131C63.5914 18.0504 61.3033 20 57.1936 20C55.0336 20 52.9341 19.4696 51.6001 18.433L52.9141 16.0602C53.8877 16.8437 55.4768 17.3519 56.9385 17.3519C59.2687 17.3519 60.2871 16.2931 60.2871 14.2381V13.7503C59.4185 14.7038 58.1677 15.1695 56.6855 15.1695C53.5293 15.1695 50.9866 12.9871 50.9866 9.66091C50.9866 6.33464 53.5293 4.15226 56.6855 4.15226C58.2747 4.15226 59.5887 4.68258 60.4574 5.78393V4.56247L63.5931 3.79188L63.5914 3.79004ZM60.3277 9.66091C60.3277 7.98669 59.0785 6.86496 57.3395 6.86496C55.6006 6.86496 54.3314 7.98853 54.3314 9.66091C54.3314 11.3332 55.6028 12.4568 57.3395 12.4568C59.0768 12.4568 60.3277 11.3332 60.3277 9.66091Z" fill="white"/>
<path d="M69.3762 11.8989C69.9211 12.7896 70.9043 13.2423 72.2238 13.2423C73.4324 13.2423 74.3011 12.882 75.0843 12.141L76.8438 14.0481C75.7849 15.2566 74.1957 15.8923 72.1405 15.8923C68.1989 15.8923 65.6362 13.4142 65.6362 10.0233C65.6362 6.6324 68.2211 4.1543 71.7378 4.1543C74.8887 4.1543 77.4924 6.25727 77.6233 9.75905L69.3779 11.9008M68.8789 9.94386L74.4487 8.61522C74.1308 7.44916 73.1146 6.6564 71.7378 6.6564C70.086 6.6564 68.8789 7.70603 68.8789 9.94386Z" fill="white"/>
<path d="M97.0935 11.8989C97.6389 12.7896 98.6216 13.2423 99.9411 13.2423C101.15 13.2423 102.018 12.882 102.802 12.141L104.561 14.0481C103.502 15.2566 101.913 15.8923 99.8584 15.8923C95.9168 15.8923 93.3535 13.4142 93.3535 10.0233C93.3535 6.6324 95.9389 4.1543 99.4551 4.1543C102.606 4.1543 105.21 6.25727 105.341 9.75905L97.0957 11.9008M96.5968 9.94386L102.166 8.61522C101.848 7.44916 100.832 6.6564 99.4551 6.6564C97.8033 6.6564 96.5968 7.70603 96.5968 9.94386Z" fill="white"/>
<path d="M110.345 11.8989C110.89 12.7896 111.874 13.2423 113.193 13.2423C114.402 13.2423 115.27 12.882 116.054 12.141L117.813 14.0481C116.754 15.2566 115.165 15.8923 113.11 15.8923C109.168 15.8923 106.605 13.4142 106.605 10.0233C106.605 6.6324 109.19 4.1543 112.707 4.1543C115.858 4.1543 118.462 6.25727 118.593 9.75905L110.347 11.9008M109.848 9.94386L115.418 8.61522C115.1 7.44916 114.084 6.6564 112.707 6.6564C111.055 6.6564 109.848 7.70603 109.848 9.94386Z" fill="white"/>
<path d="M92.0637 10.0212C92.0637 13.6025 89.5858 15.8902 86.3853 15.8902C84.8588 15.8902 83.6318 15.4024 82.8037 14.4064V15.7202H79.6475V0.807514L82.9518 0V5.52897C83.7999 4.59578 84.9642 4.15227 86.3831 4.15227C89.5821 4.15227 92.0621 6.44 92.0621 10.0212H92.0637ZM88.7156 10.0212C88.7156 8.05135 87.4664 6.86503 85.8123 6.86503C84.1583 6.86503 82.9091 8.05135 82.9091 10.0212C82.9091 11.9911 84.1604 13.1775 85.8123 13.1775C87.4642 13.1775 88.7156 11.9911 88.7156 10.0212Z" fill="white"/>
</g>
<defs>
<clipPath id="clip0_769_5253">
<rect width="118.378" height="20" fill="white" transform="translate(0.310791)"/>
</clipPath>
</defs>
</svg>
