<svg width="62" height="62" viewBox="0 0 62 62" fill="none" xmlns="http://www.w3.org/2000/svg">
<path d="M4.60938 15.2153L13.5343 20.0185L21.5007 18.6392C24.19 18.1736 26.9459 18.9434 29.0046 20.7352" stroke="#30E29D" stroke-width="2" stroke-linecap="round" stroke-linejoin="round"/>
<path d="M48.2662 40.4218L35.6476 49.3834C32.8739 51.3535 29.1671 51.3889 26.356 49.4725L4.60938 34.6482" stroke="#30E29D" stroke-width="2" stroke-linecap="round" stroke-linejoin="round"/>
<path d="M56.8887 34.553L47.9602 40.6541L34.107 29.4683L29.0113 33.177C26.9393 34.6851 24.0448 34.2787 22.4681 32.2585C20.8949 30.243 21.1984 27.344 23.1549 25.6979L28.4607 21.2337C31.0038 19.094 34.3096 18.0843 37.6141 18.4378L45.8836 19.3226L56.8887 13.374" stroke="#30E29D" stroke-width="2" stroke-linecap="round" stroke-linejoin="round"/>
<path d="M34.1089 29.4982C37.4423 32.4681 42.1697 30.953 43.9274 28.5286" stroke="#30E29D" stroke-width="2" stroke-linecap="round" stroke-linejoin="round"/>
</svg>
