<svg width="61" height="61" viewBox="0 0 61 61" fill="none" xmlns="http://www.w3.org/2000/svg">
<path d="M53.8057 11.5354H8.10254C6.16091 11.5354 4.58691 13.1094 4.58691 15.051V53.7229C4.58691 55.6645 6.16091 57.2385 8.10254 57.2385H53.8057C55.7472 57.2385 57.3213 55.6645 57.3213 53.7229V15.051C57.3213 13.1094 55.7472 11.5354 53.8057 11.5354Z" stroke="white" stroke-width="2" stroke-linecap="round" stroke-linejoin="round"/>
<path d="M4.58691 25.5979H57.3213" stroke="white" stroke-width="2" stroke-linecap="round" stroke-linejoin="round"/>
<path d="M18.6494 16.8088V4.50415" stroke="white" stroke-width="2" stroke-linecap="round" stroke-linejoin="round"/>
<path d="M43.2588 16.8088V4.50415" stroke="white" stroke-width="2" stroke-linecap="round" stroke-linejoin="round"/>
<path d="M16.0127 36.1448C15.5273 36.1448 15.1338 35.7513 15.1338 35.2659C15.1338 34.7805 15.5273 34.387 16.0127 34.387" stroke="white" stroke-width="2"/>
<path d="M16.0127 36.1448C16.4981 36.1448 16.8916 35.7513 16.8916 35.2659C16.8916 34.7805 16.4981 34.387 16.0127 34.387" stroke="white" stroke-width="2"/>
<path d="M16.0127 48.4495C15.5273 48.4495 15.1338 48.0559 15.1338 47.5706C15.1338 47.0852 15.5273 46.6917 16.0127 46.6917" stroke="white" stroke-width="2"/>
<path d="M16.0127 48.4495C16.4981 48.4495 16.8916 48.0559 16.8916 47.5706C16.8916 47.0852 16.4981 46.6917 16.0127 46.6917" stroke="white" stroke-width="2"/>
<path d="M30.9541 36.1448C30.4687 36.1448 30.0752 35.7513 30.0752 35.2659C30.0752 34.7805 30.4687 34.387 30.9541 34.387" stroke="white" stroke-width="2"/>
<path d="M30.9541 36.1448C31.4395 36.1448 31.833 35.7513 31.833 35.2659C31.833 34.7805 31.4395 34.387 30.9541 34.387" stroke="white" stroke-width="2"/>
<path d="M30.9541 48.4495C30.4687 48.4495 30.0752 48.0559 30.0752 47.5706C30.0752 47.0852 30.4687 46.6917 30.9541 46.6917" stroke="white" stroke-width="2"/>
<path d="M30.9541 48.4495C31.4395 48.4495 31.833 48.0559 31.833 47.5706C31.833 47.0852 31.4395 46.6917 30.9541 46.6917" stroke="white" stroke-width="2"/>
<path d="M45.8955 36.1448C45.4101 36.1448 45.0166 35.7513 45.0166 35.2659C45.0166 34.7805 45.4101 34.387 45.8955 34.387" stroke="white" stroke-width="2"/>
<path d="M45.8955 36.1448C46.3809 36.1448 46.7744 35.7513 46.7744 35.2659C46.7744 34.7805 46.3809 34.387 45.8955 34.387" stroke="white" stroke-width="2"/>
<path d="M45.8955 48.4495C45.4101 48.4495 45.0166 48.0559 45.0166 47.5706C45.0166 47.0852 45.4101 46.6917 45.8955 46.6917" stroke="white" stroke-width="2"/>
<path d="M45.8955 48.4495C46.3809 48.4495 46.7744 48.0559 46.7744 47.5706C46.7744 47.0852 46.3809 46.6917 45.8955 46.6917" stroke="white" stroke-width="2"/>
</svg>
