<svg width="59" height="26" viewBox="0 0 59 26" fill="none" xmlns="http://www.w3.org/2000/svg">
<g opacity="0.8" clip-path="url(#clip0_769_5264)">
<path fill-rule="evenodd" clip-rule="evenodd" d="M55.0837 0.0561523H3.74885C2.1348 0.0561523 0.824707 1.2824 0.824707 2.80212V23.0719C0.824707 24.5917 2.1348 25.8389 3.74885 25.8389H55.0837C56.6977 25.8389 58.0183 24.6126 58.0183 23.1244V2.865C58.0288 1.29288 56.7292 0.0561523 55.0837 0.0561523ZM40.3582 24.686H3.74885C2.82654 24.686 2.07192 23.9628 2.07192 23.0824V2.80212C2.07192 1.93221 2.82654 1.23 3.74885 1.23H40.3582V24.686ZM56.7816 22.0029L53.9832 24.6755H50.1158L56.7816 18.3661V22.0029ZM56.7816 16.3538H55.0942L46.2694 24.686H42.4125L51.2373 16.3538H47.3908L41.6159 21.8143V18.2403L43.5863 16.3642H41.6159V1.23H55.0942C56.0375 1.23 56.7816 1.94269 56.7816 2.865V16.3538Z" fill="white"/>
<path fill-rule="evenodd" clip-rule="evenodd" d="M8.52804 22.2859C11.1482 22.2859 12.1858 20.9653 12.1858 18.7644V17.0874H9.75429V19.2465C9.75429 19.8648 9.45035 20.2002 8.53852 20.2002C7.65813 20.2002 7.32275 19.8648 7.32275 19.2465V6.64857C7.32275 6.03021 7.65813 5.69482 8.53852 5.69482C9.45035 5.69482 9.75429 6.03021 9.75429 6.64857V8.8181H12.1858V7.14117C12.1858 4.94021 11.1482 3.61963 8.52804 3.61963C5.93929 3.61963 4.90169 4.94021 4.90169 7.14117V18.7539C4.89121 20.9653 5.92881 22.2859 8.52804 22.2859Z" fill="white"/>
<path fill-rule="evenodd" clip-rule="evenodd" d="M15.697 18.4501H18.2333L18.705 22.0241H21.0736L18.3696 3.88184H15.5607L12.8567 22.0241H15.2253L15.697 18.4501ZM16.9652 8.05319L17.9818 16.3435H15.938L16.9652 8.05319Z" fill="white"/>
<path fill-rule="evenodd" clip-rule="evenodd" d="M24.4692 14.1318H25.3076C26.2194 14.1318 26.8273 14.5091 26.8273 15.5677V18.8062C26.8273 20.3888 26.8797 21.2273 27.5715 22.0238H29.7829C29.4266 21.3426 29.2694 20.5985 29.2694 19.8124V15.7249C29.2694 14.5301 29.0597 13.7545 27.6239 13.3667C28.7872 13.1361 29.0702 12.3291 29.0702 11.323V6.16642C29.0702 4.79344 28.0745 3.89209 26.5863 3.89209H22.0481V22.0343H24.4692V14.1318ZM24.4692 5.98825H26.0832C26.4919 5.98825 26.6387 6.08257 26.6387 6.47036V11.5745C26.6387 11.9623 26.5024 12.0881 26.0832 12.0881H24.4692V5.98825Z" fill="white"/>
<path fill-rule="evenodd" clip-rule="evenodd" d="M33.9857 22.2859C36.302 22.2859 37.4653 20.9339 37.4653 19.1207V16.5844C37.4653 15.5258 37.1614 14.7188 36.4697 13.9432L33.6294 10.5893C33.1577 10.0443 32.9376 9.58319 32.9376 8.79713V6.64857C32.9376 6.03021 33.273 5.69482 34.0171 5.69482C34.7613 5.69482 35.0967 6.03021 35.0967 6.64857V9.06964H37.5282V6.78482C37.5282 4.97165 36.3439 3.61963 34.0276 3.61963C31.7114 3.61963 30.4956 4.97165 30.4956 6.78482V9.32117C30.4956 10.3797 30.7995 11.1868 31.4703 11.9623L34.3735 15.3057C34.8451 15.8507 35.0967 16.3119 35.0967 17.0979V19.2465C35.0967 19.8648 34.7194 20.2002 33.9752 20.2002C33.2311 20.2002 32.8643 19.8648 32.8643 19.2465V16.8359H30.4956V19.1102C30.5061 20.9339 31.6695 22.2859 33.9857 22.2859Z" fill="white"/>
<path fill-rule="evenodd" clip-rule="evenodd" d="M48.3234 8.95453C48.8789 7.87501 49.1933 7.10992 49.1933 6.24001C49.1933 4.55261 48.4177 3.88184 47.2125 3.88184C46.2482 3.88184 45.2316 4.5002 45.2316 6.29242H46.5102C46.5102 5.43299 46.7303 4.97184 47.2334 4.97184C47.747 4.97184 47.9251 5.41203 47.9251 6.29242C47.9251 6.9003 47.8413 7.43482 47.2334 8.59819L45.1687 12.6123V13.7023H49.2457V12.5809H46.4788L48.3234 8.95453Z" fill="white"/>
<path fill-rule="evenodd" clip-rule="evenodd" d="M52.5787 4.00732H51.3734L48.8999 10.2958V11.3544H51.3314V13.702H52.5787V11.3544H53.2389V10.2434H52.5787V4.00732ZM51.321 10.2434H50.0633L51.321 7.01531V10.2434Z" fill="white"/>
</g>
<defs>
<clipPath id="clip0_769_5264">
<rect width="57.2251" height="25.9923" fill="white" transform="translate(0.887451 0.00390625)"/>
</clipPath>
</defs>
</svg>
