<svg width="1064" height="632" viewBox="0 0 1064 632" fill="none" xmlns="http://www.w3.org/2000/svg">
<g clip-path="url(#clip0_1300_7679)">
<rect x="0.5" width="1063" height="632" rx="13" fill="#0F0F0F"/>
<g opacity="0.6" filter="url(#filter0_f_1300_7679)">
<circle cx="942.194" cy="223.971" r="479.5" fill="url(#paint0_radial_1300_7679)"/>
</g>
<g clip-path="url(#clip1_1300_7679)">
<path fill-rule="evenodd" clip-rule="evenodd" d="M55.8196 68.3193H46.4644L55.8196 58.9641H46.4644L55.8196 49.6088H65.1749L55.8196 58.9641H65.1749L55.8196 68.3193Z" fill="url(#paint1_linear_1300_7679)"/>
</g>
<path d="M72.5272 65.9644H68.5504V51.7915H76.3983C79.7618 51.7915 81.8771 53.7164 81.8771 57.0799C81.8771 60.4433 79.7618 62.3894 76.3983 62.3894H72.5272V65.9644ZM75.9541 55.3664H72.5272V58.8145H75.9541C77.3503 58.8145 77.9214 58.5395 77.9214 57.0799C77.9214 55.6414 77.3503 55.3664 75.9541 55.3664ZM86.3389 65.9644H81.8755L87.9888 51.7915H93.6791L99.8137 65.9644H95.2445L94.1657 63.3413H87.4388L86.3389 65.9644ZM89.7657 57.7779L88.9407 59.7664H92.7061L91.8811 57.7779L90.9503 55.3876H90.6753L89.7657 57.7779ZM104.216 65.9644H100.239V51.7915H108.51C112.255 51.7915 114.222 53.3568 114.222 56.128C114.222 58.3702 113.101 59.7029 110.393 60.0414V60.2529C111.853 60.6337 112.318 61.3317 112.847 62.4106L114.603 65.9644H110.012L108.32 62.4952C107.812 61.4375 107.389 61.1413 105.845 61.1413H104.216V65.9644ZM104.216 55.3664V58.1798H108.468C109.632 58.1798 110.055 57.9683 110.055 56.7626C110.055 55.6414 109.632 55.3664 108.468 55.3664H104.216ZM118.854 65.9644H114.391L120.504 51.7915H126.194L132.329 65.9644H127.76L126.681 63.3413H119.954L118.854 65.9644ZM122.281 57.7779L121.456 59.7664H125.221L124.396 57.7779L123.466 55.3876H123.191L122.281 57.7779ZM144.918 65.9644H132.755V51.7915H136.732V62.3894H144.918V65.9644ZM158.139 65.9644H145.976V51.7915H149.953V62.3894H158.139V65.9644ZM171.783 65.9644H159.197V51.7915H171.783V55.3664H163.174V57.0587H171.466V60.6125H163.174V62.3894H171.783V65.9644ZM185.077 65.9644H172.913V51.7915H176.89V62.3894H185.077V65.9644Z" fill="#F7F7F7"/>
<path d="M71.1044 178.426C58.0484 178.426 49.8564 169.146 49.8564 155.322V154.81C49.8564 141.306 59.1364 131.578 71.1044 131.578C80.5764 131.578 88.1924 136.506 89.6004 145.914H86.0164C84.6084 138.554 79.6164 134.458 71.1684 134.458C60.9284 134.458 53.5044 142.65 53.5044 154.746V155.258C53.5044 167.61 60.2884 175.418 71.1684 175.418C79.4244 175.418 85.3124 171.066 86.7844 163.194H90.1124C88.4484 173.05 80.9604 178.426 71.1044 178.426ZM108.903 178.426C99.2394 178.426 93.0314 171.578 93.0314 161.53V161.018C93.0314 150.906 99.4314 143.93 108.391 143.93C116.455 143.93 123.047 149.178 123.047 160.25V161.466H96.5514C96.6794 170.426 100.967 175.546 108.903 175.546C114.471 175.546 118.247 173.242 119.399 168.57H122.791C121.383 174.97 116.071 178.426 108.903 178.426ZM96.6794 158.714H119.527C119.207 150.586 114.919 146.81 108.391 146.81C101.927 146.81 97.3194 151.418 96.6794 158.714ZM128.405 177.914V144.442H131.797V151.482C133.653 147.386 136.981 144.186 143.125 143.994V147.194C136.661 147.45 131.797 150.458 131.797 159.354V177.914H128.405ZM157.879 178.362C152.567 178.362 149.687 175.226 149.687 169.85V147.322H144.759V144.442H149.687V136.826H153.079V144.442H161.847V147.322H153.079V169.594C153.079 173.626 154.999 175.482 158.071 175.482C159.799 175.482 161.143 175.162 162.295 174.778V177.658C161.207 178.042 159.927 178.362 157.879 178.362ZM167.6 177.914V144.442H170.992V177.914H167.6ZM169.264 137.274C167.92 137.274 166.832 136.186 166.832 134.842C166.832 133.562 167.92 132.474 169.264 132.474C170.608 132.474 171.632 133.562 171.632 134.842C171.632 136.186 170.608 137.274 169.264 137.274ZM180.509 177.914V147.322H175.453V144.442H180.509V138.426C180.509 131.386 184.285 128.25 189.725 128.25C191.261 128.25 192.285 128.378 193.245 128.762V131.642C192.349 131.322 191.197 131.13 189.789 131.13C186.269 131.13 183.901 133.178 183.901 138.106V144.442H193.245V147.322H183.901V177.914H180.509ZM197.105 177.914V144.442H200.497V177.914H197.105ZM198.769 137.274C197.425 137.274 196.337 136.186 196.337 134.842C196.337 133.562 197.425 132.474 198.769 132.474C200.113 132.474 201.137 133.562 201.137 134.842C201.137 136.186 200.113 137.274 198.769 137.274ZM222.046 178.426C213.022 178.426 206.046 171.706 206.046 161.53V161.018C206.046 150.778 213.214 143.93 222.046 143.93C228.83 143.93 235.102 147.514 235.998 155.066H232.67C231.838 149.434 227.294 146.81 222.046 146.81C215.07 146.81 209.566 152.186 209.566 161.018V161.53C209.566 170.362 215.006 175.546 222.046 175.546C227.614 175.546 232.35 172.346 233.182 166.33H236.318C235.422 173.498 229.662 178.426 222.046 178.426ZM250.441 178.426C243.849 178.426 239.113 175.226 239.113 168.89C239.113 161.146 246.537 158.778 254.793 158.778H261.769V155.77C261.769 149.498 259.209 146.81 253.321 146.81C248.265 146.81 244.681 148.986 243.913 153.914H240.585C241.353 146.874 247.113 143.93 253.449 143.93C260.425 143.93 265.161 147.258 265.161 155.77V177.914H261.769V172.794C259.657 176.058 256.073 178.426 250.441 178.426ZM250.697 175.674C256.841 175.674 261.769 172.09 261.769 167.098V161.402H254.921C247.945 161.402 242.505 162.874 242.505 168.89C242.505 173.178 245.193 175.674 250.697 175.674ZM282.332 178.362C277.02 178.362 274.14 175.226 274.14 169.85V147.322H269.212V144.442H274.14V136.826H277.532V144.442H286.3V147.322H277.532V169.594C277.532 173.626 279.452 175.482 282.524 175.482C284.252 175.482 285.596 175.162 286.748 174.778V177.658C285.66 178.042 284.38 178.362 282.332 178.362ZM304.988 178.426C295.324 178.426 289.116 171.578 289.116 161.53V161.018C289.116 150.906 295.516 143.93 304.476 143.93C312.54 143.93 319.132 149.178 319.132 160.25V161.466H292.636C292.764 170.426 297.052 175.546 304.988 175.546C310.556 175.546 314.332 173.242 315.484 168.57H318.876C317.468 174.97 312.156 178.426 304.988 178.426ZM292.764 158.714H315.612C315.292 150.586 311.004 146.81 304.476 146.81C298.012 146.81 293.404 151.418 292.764 158.714ZM351.438 175.546C358.606 175.546 364.046 170.106 364.046 161.466V160.954C364.046 152.122 358.542 146.81 351.438 146.81C344.27 146.81 338.766 152.25 338.766 160.954V161.466C338.766 170.042 344.142 175.546 351.438 175.546ZM351.374 178.426C342.286 178.426 335.246 171.322 335.246 161.466V160.954C335.246 150.906 342.478 143.93 351.438 143.93C360.462 143.93 367.566 150.714 367.566 160.89V161.402C367.566 171.514 360.398 178.426 351.374 178.426ZM374.467 177.914V147.322H369.411V144.442H374.467V138.426C374.467 131.45 378.371 128.25 383.939 128.25C385.539 128.25 386.435 128.442 387.651 128.826V131.706C386.691 131.386 385.475 131.13 384.067 131.13C380.355 131.13 377.859 133.242 377.859 138.106V144.442H387.203V147.322H377.859V177.914H374.467ZM424.392 178.426C411.336 178.426 403.144 169.146 403.144 155.322V154.81C403.144 141.306 412.424 131.578 424.392 131.578C433.864 131.578 441.48 136.506 442.888 145.914H439.304C437.896 138.554 432.904 134.458 424.456 134.458C414.216 134.458 406.792 142.65 406.792 154.746V155.258C406.792 167.61 413.576 175.418 424.456 175.418C432.712 175.418 438.6 171.066 440.072 163.194H443.4C441.736 173.05 434.248 178.426 424.392 178.426ZM462.511 175.546C469.679 175.546 475.119 170.106 475.119 161.466V160.954C475.119 152.122 469.615 146.81 462.511 146.81C455.343 146.81 449.839 152.25 449.839 160.954V161.466C449.839 170.042 455.215 175.546 462.511 175.546ZM462.447 178.426C453.359 178.426 446.319 171.322 446.319 161.466V160.954C446.319 150.906 453.551 143.93 462.511 143.93C471.535 143.93 478.639 150.714 478.639 160.89V161.402C478.639 171.514 471.471 178.426 462.447 178.426ZM484.067 177.914V144.442H487.459V150.778C488.995 147.13 492.963 143.93 498.403 143.93C503.395 143.93 507.235 146.042 508.643 151.418C510.755 146.682 515.491 143.93 520.547 143.93C527.011 143.93 531.747 147.45 531.747 156.986V177.914H528.355V156.794C528.355 149.69 525.347 146.874 519.971 146.874C514.851 146.874 509.603 150.522 509.603 157.498V177.914H506.211V156.794C506.211 149.69 503.203 146.874 497.827 146.874C492.707 146.874 487.459 150.522 487.459 157.498V177.914H484.067ZM539.382 189.562V144.442H542.774V152.25C544.694 147.898 549.622 143.93 555.51 143.93C563.958 143.93 570.55 150.394 570.55 160.826V161.338C570.55 171.834 564.15 178.426 555.51 178.426C548.854 178.426 544.566 174.394 542.774 170.298V189.562H539.382ZM555.254 175.546C562.294 175.546 567.03 170.426 567.03 161.466V160.954C567.03 151.738 561.59 146.81 555.19 146.81C548.662 146.81 542.71 151.738 542.71 160.954V161.466C542.71 170.618 548.278 175.546 555.254 175.546ZM576.138 177.914V128.442H579.594V177.914H576.138ZM601.013 178.426C591.349 178.426 585.141 171.578 585.141 161.53V161.018C585.141 150.906 591.541 143.93 600.501 143.93C608.565 143.93 615.157 149.178 615.157 160.25V161.466H588.661C588.789 170.426 593.077 175.546 601.013 175.546C606.581 175.546 610.357 173.242 611.509 168.57H614.901C613.493 174.97 608.181 178.426 601.013 178.426ZM588.789 158.714H611.637C611.317 150.586 607.029 146.81 600.501 146.81C594.037 146.81 589.429 151.418 588.789 158.714ZM629.987 178.362C624.675 178.362 621.795 175.226 621.795 169.85V147.322H616.867V144.442H621.795V136.826H625.187V144.442H633.955V147.322H625.187V169.594C625.187 173.626 627.107 175.482 630.179 175.482C631.907 175.482 633.251 175.162 634.403 174.778V177.658C633.315 178.042 632.035 178.362 629.987 178.362ZM639.708 177.914V144.442H643.1V177.914H639.708ZM641.372 137.274C640.028 137.274 638.94 136.186 638.94 134.842C638.94 133.562 640.028 132.474 641.372 132.474C642.716 132.474 643.74 133.562 643.74 134.842C643.74 136.186 642.716 137.274 641.372 137.274ZM664.841 175.546C672.009 175.546 677.449 170.106 677.449 161.466V160.954C677.449 152.122 671.945 146.81 664.841 146.81C657.673 146.81 652.169 152.25 652.169 160.954V161.466C652.169 170.042 657.545 175.546 664.841 175.546ZM664.777 178.426C655.689 178.426 648.649 171.322 648.649 161.466V160.954C648.649 150.906 655.881 143.93 664.841 143.93C673.865 143.93 680.969 150.714 680.969 160.89V161.402C680.969 171.514 673.801 178.426 664.777 178.426ZM686.397 177.914V144.442H689.789V150.97C691.325 147.322 695.677 143.93 701.629 143.93C708.733 143.93 713.533 147.77 713.533 157.306V177.914H710.141V157.114C710.141 150.01 706.813 146.874 700.861 146.874C695.293 146.874 689.789 150.586 689.789 157.626V177.914H686.397Z" fill="#E5E5E5"/>
<path d="M48.2644 259.863V245.563H52.3244C55.0644 245.563 57.3244 246.763 57.3244 249.743V249.823C57.3244 252.863 55.0444 254.043 52.3244 254.043H50.0044V259.863H48.2644ZM50.0044 252.663H52.4444C54.4844 252.663 55.5844 251.663 55.5844 249.823V249.743C55.5844 247.723 54.3844 246.963 52.4444 246.963H50.0044V252.663ZM59.7654 259.863V249.403H61.4254V251.283C62.0854 250.103 62.9854 249.283 64.8654 249.223V250.783C62.7654 250.883 61.4254 251.543 61.4254 254.123V259.863H59.7654ZM71.352 258.663C73.452 258.663 74.772 257.083 74.772 254.723V254.583C74.772 252.163 73.432 250.603 71.352 250.603C69.252 250.603 67.932 252.163 67.932 254.563V254.723C67.932 257.103 69.232 258.663 71.352 258.663ZM71.332 260.043C68.352 260.043 66.212 257.783 66.212 254.723V254.563C66.212 251.423 68.392 249.223 71.352 249.223C74.312 249.223 76.492 251.403 76.492 254.543V254.703C76.492 257.863 74.312 260.043 71.332 260.043ZM82.6023 260.043C80.5223 260.043 78.9623 258.903 78.9623 256.023V249.403H80.6223V255.943C80.6223 257.783 81.4023 258.603 83.0423 258.603C84.5223 258.603 85.9223 257.623 85.9223 255.743V249.403H87.5823V259.863H85.9223V258.203C85.4423 259.183 84.2823 260.043 82.6023 260.043ZM94.8773 260.043C92.1373 260.043 90.1573 258.103 90.1573 254.843V254.683C90.1573 251.483 92.1573 249.223 95.0373 249.223C96.7773 249.223 97.8573 250.063 98.4573 251.083V244.403H100.117V259.863H98.4573V258.063C97.8573 259.083 96.3973 260.043 94.8773 260.043ZM95.0573 258.663C96.9973 258.663 98.5173 257.383 98.5173 254.703V254.543C98.5173 251.863 97.2373 250.603 95.1973 250.603C93.1173 250.603 91.8773 252.063 91.8773 254.603V254.763C91.8773 257.403 93.2973 258.663 95.0573 258.663ZM103.516 259.863V244.403H105.196V259.863H103.516ZM109.534 263.503L111.514 258.783L107.414 249.403H109.194L112.394 256.903L115.294 249.403H116.994L111.214 263.503H109.534ZM124.472 263.503V249.403H126.132V251.163C126.732 250.143 128.152 249.223 129.672 249.223C132.412 249.223 134.432 251.223 134.432 254.483V254.643C134.432 257.843 132.552 260.043 129.672 260.043C127.952 260.043 126.732 259.183 126.132 258.143V263.503H124.472ZM129.512 258.663C131.592 258.663 132.712 257.263 132.712 254.723V254.563C132.712 251.923 131.252 250.603 129.492 250.603C127.552 250.603 126.072 251.883 126.072 254.563V254.723C126.072 257.403 127.472 258.663 129.512 258.663ZM137.012 259.863V249.403H138.672V251.283C139.332 250.103 140.232 249.283 142.112 249.223V250.783C140.012 250.883 138.672 251.543 138.672 254.123V259.863H137.012ZM148.518 260.043C145.558 260.043 143.458 257.963 143.458 254.743V254.583C143.458 251.423 145.478 249.223 148.358 249.223C150.778 249.223 153.058 250.683 153.058 254.423V254.963H145.178C145.258 257.343 146.398 258.663 148.538 258.663C150.158 258.663 151.098 258.063 151.318 256.843H152.978C152.618 258.943 150.878 260.043 148.518 260.043ZM145.238 253.623H151.358C151.198 251.463 150.078 250.603 148.358 250.603C146.658 250.603 145.518 251.763 145.238 253.623ZM158.943 260.043C156.443 260.043 154.943 258.783 154.843 256.643H156.463C156.583 257.883 157.243 258.663 158.923 258.663C160.503 258.663 161.203 258.123 161.203 257.003C161.203 255.903 160.383 255.543 158.763 255.243C156.043 254.743 155.123 253.983 155.123 252.163C155.123 250.223 157.023 249.223 158.663 249.223C160.543 249.223 162.163 249.983 162.443 252.243H160.843C160.603 251.103 159.963 250.603 158.643 250.603C157.443 250.603 156.663 251.203 156.663 252.103C156.663 253.043 157.183 253.423 159.103 253.763C161.263 254.163 162.783 254.643 162.783 256.863C162.783 258.763 161.483 260.043 158.943 260.043ZM169.592 260.043C166.632 260.043 164.532 257.963 164.532 254.743V254.583C164.532 251.423 166.552 249.223 169.432 249.223C171.852 249.223 174.132 250.683 174.132 254.423V254.963H166.252C166.332 257.343 167.472 258.663 169.612 258.663C171.232 258.663 172.172 258.063 172.392 256.843H174.052C173.692 258.943 171.952 260.043 169.592 260.043ZM166.312 253.623H172.432C172.272 251.463 171.152 250.603 169.432 250.603C167.732 250.603 166.592 251.763 166.312 253.623ZM176.68 259.863V249.403H178.34V251.063C178.82 250.083 179.98 249.223 181.7 249.223C183.86 249.223 185.38 250.403 185.38 253.443V259.863H183.72V253.323C183.72 251.483 182.94 250.663 181.26 250.663C179.72 250.663 178.34 251.643 178.34 253.523V259.863H176.68ZM191.813 260.003C189.913 260.003 188.993 258.883 188.993 257.243V250.803H187.493V249.403H188.993V247.023H190.653V249.403H193.093V250.803H190.653V257.083C190.653 258.103 191.113 258.603 191.953 258.603C192.473 258.603 192.873 258.523 193.233 258.383V259.783C192.893 259.903 192.493 260.003 191.813 260.003ZM200.022 260.043C197.062 260.043 194.962 257.963 194.962 254.743V254.583C194.962 251.423 196.982 249.223 199.862 249.223C202.282 249.223 204.562 250.683 204.562 254.423V254.963H196.682C196.762 257.343 197.902 258.663 200.042 258.663C201.662 258.663 202.602 258.063 202.822 256.843H204.482C204.122 258.943 202.382 260.043 200.022 260.043ZM196.742 253.623H202.862C202.702 251.463 201.582 250.603 199.862 250.603C198.162 250.603 197.022 251.763 196.742 253.623ZM211.049 260.043C208.309 260.043 206.329 258.103 206.329 254.843V254.683C206.329 251.483 208.329 249.223 211.209 249.223C212.949 249.223 214.029 250.063 214.629 251.083V244.403H216.289V259.863H214.629V258.063C214.029 259.083 212.569 260.043 211.049 260.043ZM211.229 258.663C213.169 258.663 214.689 257.383 214.689 254.703V254.543C214.689 251.863 213.409 250.603 211.369 250.603C209.289 250.603 208.049 252.063 208.049 254.603V254.763C208.049 257.403 209.469 258.663 211.229 258.663ZM228.121 260.003C226.221 260.003 225.301 258.883 225.301 257.243V250.803H223.801V249.403H225.301V247.023H226.961V249.403H229.401V250.803H226.961V257.083C226.961 258.103 227.421 258.603 228.261 258.603C228.781 258.603 229.181 258.523 229.541 258.383V259.783C229.201 259.903 228.801 260.003 228.121 260.003ZM236.411 258.663C238.511 258.663 239.831 257.083 239.831 254.723V254.583C239.831 252.163 238.491 250.603 236.411 250.603C234.311 250.603 232.991 252.163 232.991 254.563V254.723C232.991 257.103 234.291 258.663 236.411 258.663ZM236.391 260.043C233.411 260.043 231.271 257.783 231.271 254.723V254.563C231.271 251.423 233.451 249.223 236.411 249.223C239.371 249.223 241.551 251.403 241.551 254.543V254.703C241.551 257.863 239.371 260.043 236.391 260.043Z" fill="#E5E5E5"/>
<path d="M51.6004 531.18C48.5444 531.18 47.4404 529.5 47.2324 527.548H48.5764C48.7524 528.908 49.2964 530.06 51.6004 530.06C53.0724 530.06 54.2084 529.196 54.2084 527.9C54.2084 526.604 53.6164 526.06 51.4404 525.708C49.0404 525.34 47.6164 524.588 47.6164 522.556C47.6164 520.796 49.1364 519.452 51.2964 519.452C53.5844 519.452 55.0084 520.572 55.2324 522.604H53.9844C53.7124 521.164 52.8804 520.572 51.2964 520.572C49.7284 520.572 48.9124 521.356 48.9124 522.428C48.9124 523.548 49.3284 524.124 51.6644 524.476C54.2084 524.876 55.5524 525.644 55.5524 527.804C55.5524 529.724 53.8724 531.18 51.6004 531.18ZM58.4354 533.948L60.0194 530.172L56.7394 522.668H58.1634L60.7234 528.668L63.0434 522.668H64.4034L59.7794 533.948H58.4354ZM69.3417 531.18C66.9737 531.18 65.2937 529.516 65.2937 526.94V526.812C65.2937 524.284 66.9097 522.524 69.2137 522.524C71.1497 522.524 72.9737 523.692 72.9737 526.684V527.116H66.6697C66.7337 529.02 67.6457 530.076 69.3577 530.076C70.6537 530.076 71.4057 529.596 71.5817 528.62H72.9097C72.6217 530.3 71.2297 531.18 69.3417 531.18ZM66.7177 526.044H71.6137C71.4857 524.316 70.5897 523.628 69.2137 523.628C67.8537 523.628 66.9417 524.556 66.7177 526.044ZM78.1635 531.18C75.9715 531.18 74.3875 529.628 74.3875 527.02V526.892C74.3875 524.332 75.9875 522.524 78.2915 522.524C79.6835 522.524 80.5475 523.196 81.0275 524.012V518.668H82.3555V531.036H81.0275V529.596C80.5475 530.412 79.3795 531.18 78.1635 531.18ZM78.3075 530.076C79.8595 530.076 81.0755 529.052 81.0755 526.908V526.78C81.0755 524.636 80.0515 523.628 78.4195 523.628C76.7555 523.628 75.7635 524.796 75.7635 526.828V526.956C75.7635 529.068 76.8995 530.076 78.3075 530.076ZM93.0691 531.18C90.0131 531.18 88.9091 529.5 88.7011 527.548H90.0451C90.2211 528.908 90.7651 530.06 93.0691 530.06C94.5411 530.06 95.6771 529.196 95.6771 527.9C95.6771 526.604 95.0851 526.06 92.9091 525.708C90.5091 525.34 89.0851 524.588 89.0851 522.556C89.0851 520.796 90.6051 519.452 92.7651 519.452C95.0531 519.452 96.4771 520.572 96.7011 522.604H95.4531C95.1811 521.164 94.3491 520.572 92.7651 520.572C91.1971 520.572 90.3811 521.356 90.3811 522.428C90.3811 523.548 90.7971 524.124 93.1331 524.476C95.6771 524.876 97.0211 525.644 97.0211 527.804C97.0211 529.724 95.3411 531.18 93.0691 531.18ZM101.404 531.18C99.8524 531.18 98.6204 530.428 98.6204 528.716C98.6204 526.78 100.668 526.124 102.812 526.124H104.012V525.516C104.012 524.188 103.5 523.628 102.22 523.628C101.068 523.628 100.428 524.108 100.3 525.132H98.9724C99.1484 523.228 100.668 522.524 102.284 522.524C103.884 522.524 105.34 523.18 105.34 525.516V531.036H104.012V529.98C103.388 530.764 102.636 531.18 101.404 531.18ZM101.532 530.124C102.94 530.124 104.012 529.404 104.012 528.108V527.068H102.86C101.18 527.068 99.9484 527.484 99.9484 528.716C99.9484 529.58 100.364 530.124 101.532 530.124ZM107.981 531.036V522.668H109.309V531.036H107.981ZM108.621 520.924C108.141 520.924 107.741 520.524 107.741 520.044C107.741 519.564 108.141 519.164 108.621 519.164C109.101 519.164 109.501 519.564 109.501 520.044C109.501 520.524 109.101 520.924 108.621 520.924ZM112.315 531.036V523.788H111.115V522.668H112.315V521.308C112.315 519.612 113.147 518.62 114.811 518.62C115.243 518.62 115.467 518.668 115.803 518.78V519.9C115.563 519.804 115.227 519.724 114.859 519.724C113.995 519.724 113.643 520.316 113.643 521.164V522.668H115.691V523.788H113.643V531.036H112.315ZM47.9044 555.036V543.596H54.5924V544.732H49.2964V548.78H53.4244V549.916H49.2964V555.036H47.9044ZM59.5464 554.076C61.2264 554.076 62.2824 552.812 62.2824 550.924V550.812C62.2824 548.876 61.2104 547.628 59.5464 547.628C57.8664 547.628 56.8104 548.876 56.8104 550.796V550.924C56.8104 552.828 57.8504 554.076 59.5464 554.076ZM59.5304 555.18C57.1464 555.18 55.4344 553.372 55.4344 550.924V550.796C55.4344 548.284 57.1784 546.524 59.5464 546.524C61.9144 546.524 63.6584 548.268 63.6584 550.78V550.908C63.6584 553.436 61.9144 555.18 59.5304 555.18ZM68.5466 555.18C66.8826 555.18 65.6346 554.268 65.6346 551.964V546.668H66.9626V551.9C66.9626 553.372 67.5866 554.028 68.8986 554.028C70.0826 554.028 71.2026 553.244 71.2026 551.74V546.668H72.5306V555.036H71.2026V553.708C70.8186 554.492 69.8906 555.18 68.5466 555.18ZM75.2146 555.036V546.668H76.5426V547.996C76.9266 547.212 77.8546 546.524 79.2306 546.524C80.9586 546.524 82.1746 547.468 82.1746 549.9V555.036H80.8466V549.804C80.8466 548.332 80.2226 547.676 78.8786 547.676C77.6466 547.676 76.5426 548.46 76.5426 549.964V555.036H75.2146ZM87.9291 555.18C85.7371 555.18 84.1531 553.628 84.1531 551.02V550.892C84.1531 548.332 85.7531 546.524 88.0571 546.524C89.4491 546.524 90.3131 547.196 90.7931 548.012V542.668H92.1211V555.036H90.7931V553.596C90.3131 554.412 89.1451 555.18 87.9291 555.18ZM88.0731 554.076C89.6251 554.076 90.8411 553.052 90.8411 550.908V550.78C90.8411 548.636 89.8171 547.628 88.1851 547.628C86.5211 547.628 85.5291 548.796 85.5291 550.828V550.956C85.5291 553.068 86.6651 554.076 88.0731 554.076ZM98.2324 555.18C95.8644 555.18 94.1844 553.516 94.1844 550.94V550.812C94.1844 548.284 95.8004 546.524 98.1044 546.524C100.04 546.524 101.864 547.692 101.864 550.684V551.116H95.5604C95.6244 553.02 96.5364 554.076 98.2484 554.076C99.5444 554.076 100.296 553.596 100.472 552.62H101.8C101.512 554.3 100.12 555.18 98.2324 555.18ZM95.6084 550.044H100.504C100.376 548.316 99.4804 547.628 98.1044 547.628C96.7444 547.628 95.8324 548.556 95.6084 550.044ZM103.902 555.036V546.668H105.23V548.172C105.758 547.228 106.478 546.572 107.982 546.524V547.772C106.302 547.852 105.23 548.38 105.23 550.444V555.036H103.902ZM123.112 549.132L121.24 552.7L123.16 555.036H121.544L120.408 553.66C119.688 554.492 118.68 555.148 117.24 555.148C115.144 555.148 113.624 553.9 113.624 552.012C113.624 550.204 114.776 549.292 116.248 548.572C115.576 547.708 115.24 546.924 115.24 546.156C115.24 544.428 116.6 543.532 118.04 543.532C119.448 543.532 120.536 544.508 120.536 545.884C120.536 547.276 119.544 548.22 118.088 548.844L120.488 551.772L121.88 549.132H123.112ZM117.288 554.06C118.2 554.06 119.032 553.644 119.72 552.812L116.872 549.34C115.752 549.884 114.968 550.54 114.968 551.884C114.968 553.26 115.848 554.06 117.288 554.06ZM116.52 546.172C116.52 546.748 116.888 547.324 117.512 548.108C118.792 547.532 119.288 546.956 119.288 545.852C119.288 545.116 118.76 544.572 117.992 544.572C117.192 544.572 116.52 545.052 116.52 546.172ZM134.235 555.18C130.923 555.18 128.891 552.908 128.891 549.388V549.26C128.891 545.868 131.163 543.42 134.267 543.42C136.651 543.42 138.667 544.684 138.907 547.164H137.531C137.243 545.42 136.235 544.524 134.283 544.524C131.915 544.524 130.331 546.364 130.331 549.244V549.372C130.331 552.284 131.803 554.044 134.267 554.044C136.139 554.044 137.435 553.1 137.723 551.244H139.019C138.619 553.884 136.795 555.18 134.235 555.18ZM141.139 555.036V543.596H147.811V544.732H142.531V548.62H146.787V549.756H142.531V553.9H148.099V555.036H141.139ZM155.149 554.028C157.693 554.028 159.261 552.108 159.261 549.34V549.212C159.261 546.652 157.757 544.572 155.117 544.572C152.461 544.572 150.925 546.524 150.925 549.244V549.372C150.925 552.14 152.765 554.028 155.149 554.028ZM155.149 555.18C151.773 555.18 149.485 552.588 149.485 549.388V549.26C149.485 546.012 151.757 543.452 155.117 543.452C158.477 543.452 160.701 546.012 160.701 549.228V549.356C160.701 552.588 158.477 555.18 155.149 555.18ZM162.061 557.004L161.197 556.556L162.733 553.052L164.029 553.66L162.061 557.004ZM170.811 555.036V543.596H174.059C176.251 543.596 178.059 544.556 178.059 546.94V547.004C178.059 549.436 176.235 550.38 174.059 550.38H172.203V555.036H170.811ZM172.203 549.276H174.155C175.787 549.276 176.667 548.476 176.667 547.004V546.94C176.667 545.324 175.707 544.716 174.155 544.716H172.203V549.276ZM182.029 555.18C180.477 555.18 179.245 554.428 179.245 552.716C179.245 550.78 181.293 550.124 183.437 550.124H184.637V549.516C184.637 548.188 184.125 547.628 182.845 547.628C181.693 547.628 181.053 548.108 180.925 549.132H179.597C179.773 547.228 181.293 546.524 182.909 546.524C184.509 546.524 185.965 547.18 185.965 549.516V555.036H184.637V553.98C184.013 554.764 183.261 555.18 182.029 555.18ZM182.157 554.124C183.565 554.124 184.637 553.404 184.637 552.108V551.068H183.485C181.805 551.068 180.573 551.484 180.573 552.716C180.573 553.58 180.989 554.124 182.157 554.124ZM188.574 555.036V546.668H189.902V548.172C190.43 547.228 191.15 546.572 192.654 546.524V547.772C190.974 547.852 189.902 548.38 189.902 550.444V555.036H188.574ZM196.607 555.18C195.055 555.18 193.823 554.428 193.823 552.716C193.823 550.78 195.871 550.124 198.015 550.124H199.215V549.516C199.215 548.188 198.703 547.628 197.423 547.628C196.271 547.628 195.631 548.108 195.503 549.132H194.175C194.351 547.228 195.871 546.524 197.487 546.524C199.087 546.524 200.543 547.18 200.543 549.516V555.036H199.215V553.98C198.591 554.764 197.839 555.18 196.607 555.18ZM196.735 554.124C198.143 554.124 199.215 553.404 199.215 552.108V551.068H198.063C196.383 551.068 195.151 551.484 195.151 552.716C195.151 553.58 195.567 554.124 196.735 554.124ZM203.184 555.036V542.668H204.528V555.036H203.184ZM207.278 555.036V542.668H208.622V555.036H207.278ZM214.764 555.18C212.396 555.18 210.716 553.516 210.716 550.94V550.812C210.716 548.284 212.332 546.524 214.636 546.524C216.572 546.524 218.396 547.692 218.396 550.684V551.116H212.092C212.156 553.02 213.068 554.076 214.78 554.076C216.076 554.076 216.828 553.596 217.004 552.62H218.332C218.044 554.3 216.652 555.18 214.764 555.18ZM212.14 550.044H217.036C216.908 548.316 216.012 547.628 214.636 547.628C213.276 547.628 212.364 548.556 212.14 550.044ZM220.465 555.036V542.668H221.809V555.036H220.465ZM228.857 555.036V543.596H235.529V544.732H230.249V548.62H234.505V549.756H230.249V553.9H235.817V555.036H228.857ZM240.976 555.18C238.784 555.18 237.2 553.628 237.2 551.02V550.892C237.2 548.332 238.8 546.524 241.104 546.524C242.496 546.524 243.36 547.196 243.84 548.012V542.668H245.168V555.036H243.84V553.596C243.36 554.412 242.192 555.18 240.976 555.18ZM241.12 554.076C242.672 554.076 243.888 553.052 243.888 550.908V550.78C243.888 548.636 242.864 547.628 241.232 547.628C239.568 547.628 238.576 548.796 238.576 550.828V550.956C238.576 553.068 239.712 554.076 241.12 554.076ZM250.687 555.18C249.023 555.18 247.775 554.268 247.775 551.964V546.668H249.103V551.9C249.103 553.372 249.727 554.028 251.039 554.028C252.223 554.028 253.343 553.244 253.343 551.74V546.668H254.671V555.036H253.343V553.708C252.959 554.492 252.031 555.18 250.687 555.18ZM260.827 555.18C258.491 555.18 256.731 553.532 256.731 550.94V550.812C256.731 548.252 258.555 546.524 260.795 546.524C262.539 546.524 264.171 547.324 264.427 549.452H263.115C262.907 548.124 261.947 547.628 260.795 547.628C259.275 547.628 258.107 548.844 258.107 550.812V550.94C258.107 552.988 259.227 554.076 260.843 554.076C262.027 554.076 263.099 553.388 263.243 552.028H264.475C264.299 553.836 262.843 555.18 260.827 555.18ZM268.576 555.18C267.024 555.18 265.792 554.428 265.792 552.716C265.792 550.78 267.84 550.124 269.984 550.124H271.184V549.516C271.184 548.188 270.672 547.628 269.392 547.628C268.24 547.628 267.6 548.108 267.472 549.132H266.144C266.32 547.228 267.84 546.524 269.456 546.524C271.056 546.524 272.512 547.18 272.512 549.516V555.036H271.184V553.98C270.56 554.764 269.808 555.18 268.576 555.18ZM268.704 554.124C270.112 554.124 271.184 553.404 271.184 552.108V551.068H270.032C268.352 551.068 267.12 551.484 267.12 552.716C267.12 553.58 267.536 554.124 268.704 554.124ZM277.665 555.148C276.145 555.148 275.409 554.252 275.409 552.94V547.788H274.209V546.668H275.409V544.764H276.737V546.668H278.689V547.788H276.737V552.812C276.737 553.628 277.105 554.028 277.777 554.028C278.193 554.028 278.513 553.964 278.801 553.852V554.972C278.529 555.068 278.209 555.148 277.665 555.148ZM280.84 555.036V546.668H282.168V555.036H280.84ZM281.48 544.924C281 544.924 280.6 544.524 280.6 544.044C280.6 543.564 281 543.164 281.48 543.164C281.96 543.164 282.36 543.564 282.36 544.044C282.36 544.524 281.96 544.924 281.48 544.924ZM288.374 554.076C290.054 554.076 291.11 552.812 291.11 550.924V550.812C291.11 548.876 290.038 547.628 288.374 547.628C286.694 547.628 285.638 548.876 285.638 550.796V550.924C285.638 552.828 286.678 554.076 288.374 554.076ZM288.358 555.18C285.974 555.18 284.262 553.372 284.262 550.924V550.796C284.262 548.284 286.006 546.524 288.374 546.524C290.742 546.524 292.486 548.268 292.486 550.78V550.908C292.486 553.436 290.742 555.18 288.358 555.18ZM294.543 555.036V546.668H295.871V547.996C296.255 547.212 297.183 546.524 298.559 546.524C300.287 546.524 301.503 547.468 301.503 549.9V555.036H300.175V549.804C300.175 548.332 299.551 547.676 298.207 547.676C296.975 547.676 295.871 548.46 295.871 549.964V555.036H294.543Z" fill="#E5E5E5"/>
<path d="M809.694 531.036V519.596H811.502L817.07 529.052V519.596H818.398V531.036H816.798L811.022 521.228V531.036H809.694ZM823.272 531.18C821.72 531.18 820.488 530.428 820.488 528.716C820.488 526.78 822.536 526.124 824.68 526.124H825.88V525.516C825.88 524.188 825.368 523.628 824.088 523.628C822.936 523.628 822.296 524.108 822.168 525.132H820.84C821.016 523.228 822.536 522.524 824.152 522.524C825.752 522.524 827.208 523.18 827.208 525.516V531.036H825.88V529.98C825.256 530.764 824.504 531.18 823.272 531.18ZM823.4 530.124C824.808 530.124 825.88 529.404 825.88 528.108V527.068H824.728C823.048 527.068 821.816 527.484 821.816 528.716C821.816 529.58 822.232 530.124 823.4 530.124ZM829.817 531.036V522.668H831.145V523.948C831.529 523.164 832.441 522.524 833.641 522.524C834.713 522.524 835.657 522.972 836.089 524.092C836.665 523.004 837.913 522.524 838.953 522.524C840.457 522.524 841.769 523.42 841.769 525.852V531.036H840.441V525.756C840.441 524.284 839.817 523.676 838.665 523.676C837.577 523.676 836.457 524.412 836.457 525.916V531.036H835.129V525.756C835.129 524.284 834.505 523.676 833.353 523.676C832.265 523.676 831.145 524.412 831.145 525.916V531.036H829.817ZM847.803 531.18C845.435 531.18 843.755 529.516 843.755 526.94V526.812C843.755 524.284 845.371 522.524 847.675 522.524C849.611 522.524 851.435 523.692 851.435 526.684V527.116H845.131C845.195 529.02 846.107 530.076 847.819 530.076C849.115 530.076 849.867 529.596 850.043 528.62H851.371C851.083 530.3 849.691 531.18 847.803 531.18ZM845.179 526.044H850.075C849.947 524.316 849.051 523.628 847.675 523.628C846.315 523.628 845.403 524.556 845.179 526.044ZM809.694 555.036V543.596H812.942C815.134 543.596 816.942 544.556 816.942 546.94V547.004C816.942 549.436 815.118 550.38 812.942 550.38H811.086V555.036H809.694ZM811.086 549.276H813.038C814.67 549.276 815.55 548.476 815.55 547.004V546.94C815.55 545.324 814.59 544.716 813.038 544.716H811.086V549.276ZM818.895 555.036V546.668H820.223V548.172C820.751 547.228 821.471 546.572 822.975 546.524V547.772C821.295 547.852 820.223 548.38 820.223 550.444V555.036H818.895ZM824.942 555.036V546.668H826.27V555.036H824.942ZM825.582 544.924C825.102 544.924 824.702 544.524 824.702 544.044C824.702 543.564 825.102 543.164 825.582 543.164C826.062 543.164 826.462 543.564 826.462 544.044C826.462 544.524 826.062 544.924 825.582 544.924ZM828.989 555.036V546.668H830.317V547.996C830.701 547.212 831.629 546.524 833.005 546.524C834.733 546.524 835.949 547.468 835.949 549.9V555.036H834.621V549.804C834.621 548.332 833.997 547.676 832.653 547.676C831.421 547.676 830.317 548.46 830.317 549.964V555.036H828.989ZM842.023 555.18C839.687 555.18 837.927 553.532 837.927 550.94V550.812C837.927 548.252 839.751 546.524 841.991 546.524C843.735 546.524 845.367 547.324 845.623 549.452H844.311C844.103 548.124 843.143 547.628 841.991 547.628C840.471 547.628 839.303 548.844 839.303 550.812V550.94C839.303 552.988 840.423 554.076 842.039 554.076C843.223 554.076 844.295 553.388 844.439 552.028H845.671C845.495 553.836 844.039 555.18 842.023 555.18ZM847.708 555.036V546.668H849.036V555.036H847.708ZM848.348 544.924C847.868 544.924 847.468 544.524 847.468 544.044C847.468 543.564 847.868 543.164 848.348 543.164C848.828 543.164 849.228 543.564 849.228 544.044C849.228 544.524 848.828 544.924 848.348 544.924ZM851.754 557.948V546.668H853.082V548.076C853.562 547.26 854.698 546.524 855.914 546.524C858.106 546.524 859.722 548.124 859.722 550.732V550.86C859.722 553.42 858.218 555.18 855.914 555.18C854.538 555.18 853.562 554.492 853.082 553.66V557.948H851.754ZM855.786 554.076C857.45 554.076 858.346 552.956 858.346 550.924V550.796C858.346 548.684 857.178 547.628 855.77 547.628C854.218 547.628 853.034 548.652 853.034 550.796V550.924C853.034 553.068 854.154 554.076 855.786 554.076ZM863.881 555.18C862.329 555.18 861.097 554.428 861.097 552.716C861.097 550.78 863.145 550.124 865.289 550.124H866.489V549.516C866.489 548.188 865.977 547.628 864.697 547.628C863.545 547.628 862.905 548.108 862.777 549.132H861.449C861.625 547.228 863.145 546.524 864.761 546.524C866.361 546.524 867.817 547.18 867.817 549.516V555.036H866.489V553.98C865.865 554.764 865.113 555.18 863.881 555.18ZM864.009 554.124C865.417 554.124 866.489 553.404 866.489 552.108V551.068H865.337C863.657 551.068 862.425 551.484 862.425 552.716C862.425 553.58 862.841 554.124 864.009 554.124ZM870.458 555.036V542.668H871.802V555.036H870.458ZM874.616 557.004L873.752 556.556L875.288 553.052L876.584 553.66L874.616 557.004ZM888.15 555.18C884.838 555.18 882.806 552.908 882.806 549.388V549.26C882.806 545.868 885.078 543.42 888.182 543.42C890.566 543.42 892.582 544.684 892.822 547.164H891.446C891.158 545.42 890.15 544.524 888.198 544.524C885.83 544.524 884.246 546.364 884.246 549.244V549.372C884.246 552.284 885.718 554.044 888.182 554.044C890.054 554.044 891.35 553.1 891.638 551.244H892.934C892.534 553.884 890.71 555.18 888.15 555.18ZM898.445 554.076C900.125 554.076 901.181 552.812 901.181 550.924V550.812C901.181 548.876 900.109 547.628 898.445 547.628C896.765 547.628 895.709 548.876 895.709 550.796V550.924C895.709 552.828 896.749 554.076 898.445 554.076ZM898.429 555.18C896.045 555.18 894.333 553.372 894.333 550.924V550.796C894.333 548.284 896.077 546.524 898.445 546.524C900.813 546.524 902.557 548.268 902.557 550.78V550.908C902.557 553.436 900.813 555.18 898.429 555.18ZM904.646 555.036V542.668H905.99V555.036H904.646ZM908.739 555.036V542.668H910.083V555.036H908.739ZM916.225 555.18C913.857 555.18 912.177 553.516 912.177 550.94V550.812C912.177 548.284 913.793 546.524 916.097 546.524C918.033 546.524 919.857 547.692 919.857 550.684V551.116H913.553C913.617 553.02 914.529 554.076 916.241 554.076C917.537 554.076 918.289 553.596 918.465 552.62H919.793C919.505 554.3 918.113 555.18 916.225 555.18ZM913.601 550.044H918.497C918.369 548.316 917.473 547.628 916.097 547.628C914.737 547.628 913.825 548.556 913.601 550.044ZM925.239 558.092C922.759 558.092 921.671 556.924 921.447 555.516H922.807C922.999 556.476 923.799 556.972 925.223 556.972C926.871 556.972 927.911 556.188 927.911 554.396V553.18C927.431 553.996 926.295 554.764 925.079 554.764C922.887 554.764 921.271 553.1 921.271 550.796V550.684C921.271 548.412 922.871 546.524 925.175 546.524C926.567 546.524 927.431 547.196 927.911 548.012V546.668H929.239V554.476C929.223 556.908 927.575 558.092 925.239 558.092ZM925.223 553.66C926.775 553.66 927.959 552.572 927.959 550.7V550.588C927.959 548.716 926.935 547.628 925.303 547.628C923.639 547.628 922.647 548.86 922.647 550.62V550.748C922.647 552.572 923.815 553.66 925.223 553.66ZM935.35 555.18C932.982 555.18 931.302 553.516 931.302 550.94V550.812C931.302 548.284 932.918 546.524 935.222 546.524C937.158 546.524 938.982 547.692 938.982 550.684V551.116H932.678C932.742 553.02 933.654 554.076 935.366 554.076C936.662 554.076 937.414 553.596 937.59 552.62H938.918C938.63 554.3 937.238 555.18 935.35 555.18ZM932.726 550.044H937.622C937.494 548.316 936.598 547.628 935.222 547.628C933.862 547.628 932.95 548.556 932.726 550.044ZM945.254 555.036V546.668H946.582V547.996C946.966 547.212 947.894 546.524 949.27 546.524C950.998 546.524 952.214 547.468 952.214 549.9V555.036H950.886V549.804C950.886 548.332 950.262 547.676 948.918 547.676C947.686 547.676 946.582 548.46 946.582 549.964V555.036H945.254ZM956.913 555.18C955.361 555.18 954.129 554.428 954.129 552.716C954.129 550.78 956.177 550.124 958.321 550.124H959.521V549.516C959.521 548.188 959.009 547.628 957.729 547.628C956.577 547.628 955.937 548.108 955.809 549.132H954.481C954.657 547.228 956.177 546.524 957.793 546.524C959.393 546.524 960.849 547.18 960.849 549.516V555.036H959.521V553.98C958.897 554.764 958.145 555.18 956.913 555.18ZM957.041 554.124C958.449 554.124 959.521 553.404 959.521 552.108V551.068H958.369C956.689 551.068 955.457 551.484 955.457 552.716C955.457 553.58 955.873 554.124 957.041 554.124ZM963.457 555.036V546.668H964.785V547.948C965.169 547.164 966.081 546.524 967.281 546.524C968.353 546.524 969.297 546.972 969.729 548.092C970.305 547.004 971.553 546.524 972.593 546.524C974.097 546.524 975.409 547.42 975.409 549.852V555.036H974.081V549.756C974.081 548.284 973.457 547.676 972.305 547.676C971.217 547.676 970.097 548.412 970.097 549.916V555.036H968.769V549.756C968.769 548.284 968.145 547.676 966.993 547.676C965.905 547.676 964.785 548.412 964.785 549.916V555.036H963.457ZM981.444 555.18C979.076 555.18 977.396 553.516 977.396 550.94V550.812C977.396 548.284 979.012 546.524 981.316 546.524C983.252 546.524 985.076 547.692 985.076 550.684V551.116H978.772C978.836 553.02 979.748 554.076 981.46 554.076C982.756 554.076 983.508 553.596 983.684 552.62H985.012C984.724 554.3 983.332 555.18 981.444 555.18ZM978.82 550.044H983.716C983.588 548.316 982.692 547.628 981.316 547.628C979.956 547.628 979.044 548.556 978.82 550.044Z" fill="#E5E5E5"/>
<path d="M48.5044 397.174V388.114H47.0044V386.714H48.5044V385.014C48.5044 382.894 49.5444 381.654 51.6244 381.654C52.1644 381.654 52.4444 381.714 52.8644 381.854V383.254C52.5644 383.134 52.1444 383.034 51.6844 383.034C50.6044 383.034 50.1644 383.774 50.1644 384.834V386.714H52.7244V388.114H50.1644V397.174H48.5044ZM58.9106 395.974C61.0106 395.974 62.3306 394.394 62.3306 392.034V391.894C62.3306 389.474 60.9906 387.914 58.9106 387.914C56.8106 387.914 55.4906 389.474 55.4906 391.874V392.034C55.4906 394.414 56.7906 395.974 58.9106 395.974ZM58.8906 397.354C55.9106 397.354 53.7706 395.094 53.7706 392.034V391.874C53.7706 388.734 55.9506 386.534 58.9106 386.534C61.8706 386.534 64.0506 388.714 64.0506 391.854V392.014C64.0506 395.174 61.8706 397.354 58.8906 397.354ZM66.6209 397.174V386.714H68.2809V388.594C68.9409 387.414 69.8409 386.594 71.7209 386.534V388.094C69.6209 388.194 68.2809 388.854 68.2809 391.434V397.174H66.6209ZM82.6734 397.354C80.1734 397.354 78.6734 396.094 78.5734 393.954H80.1934C80.3134 395.194 80.9734 395.974 82.6534 395.974C84.2334 395.974 84.9334 395.434 84.9334 394.314C84.9334 393.214 84.1134 392.854 82.4934 392.554C79.7734 392.054 78.8534 391.294 78.8534 389.474C78.8534 387.534 80.7534 386.534 82.3934 386.534C84.2734 386.534 85.8934 387.294 86.1734 389.554H84.5734C84.3334 388.414 83.6934 387.914 82.3734 387.914C81.1734 387.914 80.3934 388.514 80.3934 389.414C80.3934 390.354 80.9134 390.734 82.8334 391.074C84.9934 391.474 86.5134 391.954 86.5134 394.174C86.5134 396.074 85.2134 397.354 82.6734 397.354ZM92.5828 397.354C90.5028 397.354 88.9428 396.214 88.9428 393.334V386.714H90.6028V393.254C90.6028 395.094 91.3828 395.914 93.0228 395.914C94.5028 395.914 95.9028 394.934 95.9028 393.054V386.714H97.5628V397.174H95.9028V395.514C95.4228 396.494 94.2628 397.354 92.5828 397.354ZM105.258 397.354C102.338 397.354 100.138 395.294 100.138 392.054V391.894C100.138 388.694 102.418 386.534 105.218 386.534C107.398 386.534 109.438 387.534 109.758 390.194H108.118C107.858 388.534 106.658 387.914 105.218 387.914C103.318 387.914 101.858 389.434 101.858 391.894V392.054C101.858 394.614 103.258 395.974 105.278 395.974C106.758 395.974 108.098 395.114 108.278 393.414H109.818C109.598 395.674 107.778 397.354 105.258 397.354ZM116.664 397.354C113.744 397.354 111.544 395.294 111.544 392.054V391.894C111.544 388.694 113.824 386.534 116.624 386.534C118.804 386.534 120.844 387.534 121.164 390.194H119.524C119.264 388.534 118.064 387.914 116.624 387.914C114.724 387.914 113.264 389.434 113.264 391.894V392.054C113.264 394.614 114.664 395.974 116.684 395.974C118.164 395.974 119.504 395.114 119.684 393.414H121.224C121.004 395.674 119.184 397.354 116.664 397.354ZM128.01 397.354C125.05 397.354 122.95 395.274 122.95 392.054V391.894C122.95 388.734 124.97 386.534 127.85 386.534C130.27 386.534 132.55 387.994 132.55 391.734V392.274H124.67C124.75 394.654 125.89 395.974 128.03 395.974C129.65 395.974 130.59 395.374 130.81 394.154H132.47C132.11 396.254 130.37 397.354 128.01 397.354ZM124.73 390.934H130.85C130.69 388.774 129.57 387.914 127.85 387.914C126.15 387.914 125.01 389.074 124.73 390.934ZM138.435 397.354C135.935 397.354 134.435 396.094 134.335 393.954H135.955C136.075 395.194 136.735 395.974 138.415 395.974C139.995 395.974 140.695 395.434 140.695 394.314C140.695 393.214 139.875 392.854 138.255 392.554C135.535 392.054 134.615 391.294 134.615 389.474C134.615 387.534 136.515 386.534 138.155 386.534C140.035 386.534 141.655 387.294 141.935 389.554H140.335C140.095 388.414 139.455 387.914 138.135 387.914C136.935 387.914 136.155 388.514 136.155 389.414C136.155 390.354 136.675 390.734 138.595 391.074C140.755 391.474 142.275 391.954 142.275 394.174C142.275 396.074 140.975 397.354 138.435 397.354ZM148.045 397.354C145.545 397.354 144.045 396.094 143.945 393.954H145.565C145.685 395.194 146.345 395.974 148.025 395.974C149.605 395.974 150.305 395.434 150.305 394.314C150.305 393.214 149.485 392.854 147.865 392.554C145.145 392.054 144.225 391.294 144.225 389.474C144.225 387.534 146.125 386.534 147.765 386.534C149.645 386.534 151.265 387.294 151.545 389.554H149.945C149.705 388.414 149.065 387.914 147.745 387.914C146.545 387.914 145.765 388.514 145.765 389.414C145.765 390.354 146.285 390.734 148.205 391.074C150.365 391.474 151.885 391.954 151.885 394.174C151.885 396.074 150.585 397.354 148.045 397.354ZM154.774 397.174V388.114H153.274V386.714H154.774V385.014C154.774 382.894 155.814 381.654 157.894 381.654C158.434 381.654 158.714 381.714 159.134 381.854V383.254C158.834 383.134 158.414 383.034 157.954 383.034C156.874 383.034 156.434 383.774 156.434 384.834V386.714H158.994V388.114H156.434V397.174H154.774ZM164.868 397.354C162.788 397.354 161.228 396.214 161.228 393.334V386.714H162.888V393.254C162.888 395.094 163.668 395.914 165.308 395.914C166.788 395.914 168.188 394.934 168.188 393.054V386.714H169.848V397.174H168.188V395.514C167.708 396.494 166.548 397.354 164.868 397.354ZM173.243 397.174V381.714H174.923V397.174H173.243ZM178.36 397.174V381.714H180.04V397.174H178.36ZM184.377 400.814L186.357 396.094L182.257 386.714H184.037L187.237 394.214L190.137 386.714H191.837L186.057 400.814H184.377ZM203.656 397.354C200.736 397.354 198.536 395.294 198.536 392.054V391.894C198.536 388.694 200.816 386.534 203.616 386.534C205.796 386.534 207.836 387.534 208.156 390.194H206.516C206.256 388.534 205.056 387.914 203.616 387.914C201.716 387.914 200.256 389.434 200.256 391.894V392.054C200.256 394.614 201.656 395.974 203.676 395.974C205.156 395.974 206.496 395.114 206.676 393.414H208.216C207.996 395.674 206.176 397.354 203.656 397.354ZM215.082 395.974C217.182 395.974 218.502 394.394 218.502 392.034V391.894C218.502 389.474 217.162 387.914 215.082 387.914C212.982 387.914 211.662 389.474 211.662 391.874V392.034C211.662 394.414 212.962 395.974 215.082 395.974ZM215.062 397.354C212.082 397.354 209.942 395.094 209.942 392.034V391.874C209.942 388.734 212.122 386.534 215.082 386.534C218.042 386.534 220.222 388.714 220.222 391.854V392.014C220.222 395.174 218.042 397.354 215.062 397.354ZM222.793 397.174V386.714H224.453V388.314C224.933 387.334 226.073 386.534 227.573 386.534C228.913 386.534 230.093 387.094 230.633 388.494C231.353 387.134 232.913 386.534 234.213 386.534C236.093 386.534 237.733 387.654 237.733 390.694V397.174H236.073V390.574C236.073 388.734 235.293 387.974 233.853 387.974C232.493 387.974 231.093 388.894 231.093 390.774V397.174H229.433V390.574C229.433 388.734 228.653 387.974 227.213 387.974C225.853 387.974 224.453 388.894 224.453 390.774V397.174H222.793ZM240.996 400.814V386.714H242.656V388.474C243.256 387.454 244.676 386.534 246.196 386.534C248.936 386.534 250.956 388.534 250.956 391.794V391.954C250.956 395.154 249.076 397.354 246.196 397.354C244.476 397.354 243.256 396.494 242.656 395.454V400.814H240.996ZM246.036 395.974C248.116 395.974 249.236 394.574 249.236 392.034V391.874C249.236 389.234 247.776 387.914 246.016 387.914C244.076 387.914 242.596 389.194 242.596 391.874V392.034C242.596 394.714 243.996 395.974 246.036 395.974ZM253.575 397.174V381.714H255.255V397.174H253.575ZM262.932 397.354C259.972 397.354 257.872 395.274 257.872 392.054V391.894C257.872 388.734 259.892 386.534 262.772 386.534C265.192 386.534 267.472 387.994 267.472 391.734V392.274H259.592C259.672 394.654 260.812 395.974 262.952 395.974C264.572 395.974 265.512 395.374 265.732 394.154H267.392C267.032 396.254 265.292 397.354 262.932 397.354ZM259.652 390.934H265.772C265.612 388.774 264.492 387.914 262.772 387.914C261.072 387.914 259.932 389.074 259.652 390.934ZM273.199 397.314C271.299 397.314 270.379 396.194 270.379 394.554V388.114H268.879V386.714H270.379V384.334H272.039V386.714H274.479V388.114H272.039V394.394C272.039 395.414 272.499 395.914 273.339 395.914C273.859 395.914 274.259 395.834 274.619 395.694V397.094C274.279 397.214 273.879 397.314 273.199 397.314ZM277.169 397.174V386.714H278.829V397.174H277.169ZM277.969 384.534C277.369 384.534 276.869 384.034 276.869 383.434C276.869 382.834 277.369 382.334 277.969 382.334C278.569 382.334 279.069 382.834 279.069 383.434C279.069 384.034 278.569 384.534 277.969 384.534ZM282.226 397.174V386.714H283.886V388.374C284.366 387.394 285.526 386.534 287.246 386.534C289.406 386.534 290.926 387.714 290.926 390.754V397.174H289.266V390.634C289.266 388.794 288.486 387.974 286.806 387.974C285.266 387.974 283.886 388.954 283.886 390.834V397.174H282.226ZM298.36 400.994C295.26 400.994 293.9 399.534 293.62 397.774H295.32C295.56 398.974 296.56 399.594 298.34 399.594C300.4 399.594 301.7 398.614 301.7 396.374V394.854C301.1 395.874 299.68 396.834 298.16 396.834C295.42 396.834 293.4 394.754 293.4 391.874V391.734C293.4 388.894 295.4 386.534 298.28 386.534C300.02 386.534 301.1 387.374 301.7 388.394V386.714H303.36V396.474C303.34 399.514 301.28 400.994 298.36 400.994ZM298.34 395.454C300.28 395.454 301.76 394.094 301.76 391.754V391.614C301.76 389.274 300.48 387.914 298.44 387.914C296.36 387.914 295.12 389.454 295.12 391.654V391.814C295.12 394.094 296.58 395.454 298.34 395.454ZM315.192 397.314C313.292 397.314 312.372 396.194 312.372 394.554V388.114H310.872V386.714H312.372V384.334H314.032V386.714H316.472V388.114H314.032V394.394C314.032 395.414 314.492 395.914 315.332 395.914C315.852 395.914 316.252 395.834 316.612 395.694V397.094C316.272 397.214 315.872 397.314 315.192 397.314ZM319.121 397.174V381.714H320.781V388.374C321.261 387.394 322.421 386.534 324.141 386.534C326.301 386.534 327.821 387.714 327.821 390.754V397.174H326.161V390.634C326.161 388.794 325.381 387.974 323.701 387.974C322.161 387.974 320.781 388.954 320.781 390.834V397.174H319.121ZM335.354 397.354C332.394 397.354 330.294 395.274 330.294 392.054V391.894C330.294 388.734 332.314 386.534 335.194 386.534C337.614 386.534 339.894 387.994 339.894 391.734V392.274H332.014C332.094 394.654 333.234 395.974 335.374 395.974C336.994 395.974 337.934 395.374 338.154 394.154H339.814C339.454 396.254 337.714 397.354 335.354 397.354ZM332.074 390.934H338.194C338.034 388.774 336.914 387.914 335.194 387.914C333.494 387.914 332.354 389.074 332.074 390.934ZM353.834 397.354C349.694 397.354 347.154 394.514 347.154 390.114V389.954C347.154 385.714 349.994 382.654 353.874 382.654C356.854 382.654 359.374 384.234 359.674 387.334H357.954C357.594 385.154 356.334 384.034 353.894 384.034C350.934 384.034 348.954 386.334 348.954 389.934V390.094C348.954 393.734 350.794 395.934 353.874 395.934C356.214 395.934 357.834 394.754 358.194 392.434H359.814C359.314 395.734 357.034 397.354 353.834 397.354ZM365.159 397.354C363.219 397.354 361.679 396.414 361.679 394.274C361.679 391.854 364.239 391.034 366.919 391.034H368.419V390.274C368.419 388.614 367.779 387.914 366.179 387.914C364.739 387.914 363.939 388.514 363.779 389.794H362.119C362.339 387.414 364.239 386.534 366.259 386.534C368.259 386.534 370.079 387.354 370.079 390.274V397.174H368.419V395.854C367.639 396.834 366.699 397.354 365.159 397.354ZM365.319 396.034C367.079 396.034 368.419 395.134 368.419 393.514V392.214H366.979C364.879 392.214 363.339 392.734 363.339 394.274C363.339 395.354 363.859 396.034 365.319 396.034ZM373.34 397.174V386.714H375V388.594C375.66 387.414 376.56 386.594 378.44 386.534V388.094C376.34 388.194 375 388.854 375 391.434V397.174H373.34ZM384.846 397.354C381.886 397.354 379.786 395.274 379.786 392.054V391.894C379.786 388.734 381.806 386.534 384.686 386.534C387.106 386.534 389.386 387.994 389.386 391.734V392.274H381.506C381.586 394.654 382.726 395.974 384.866 395.974C386.486 395.974 387.426 395.374 387.646 394.154H389.306C388.946 396.254 387.206 397.354 384.846 397.354ZM381.566 390.934H387.686C387.526 388.774 386.406 387.914 384.686 387.914C382.986 387.914 381.846 389.074 381.566 390.934ZM396.213 397.354C393.253 397.354 391.153 395.274 391.153 392.054V391.894C391.153 388.734 393.173 386.534 396.053 386.534C398.473 386.534 400.753 387.994 400.753 391.734V392.274H392.873C392.953 394.654 394.093 395.974 396.233 395.974C397.853 395.974 398.793 395.374 399.013 394.154H400.673C400.313 396.254 398.573 397.354 396.213 397.354ZM392.933 390.934H399.053C398.893 388.774 397.773 387.914 396.053 387.914C394.353 387.914 393.213 389.074 392.933 390.934ZM403.301 397.174V386.714H404.961V388.594C405.621 387.414 406.521 386.594 408.401 386.534V388.094C406.301 388.194 404.961 388.854 404.961 391.434V397.174H403.301ZM417.973 395.754H419.933C423.613 395.754 425.453 393.554 425.453 390.054V389.894C425.453 386.594 423.853 384.274 419.913 384.274H417.973V395.754ZM416.233 397.174V382.874H420.013C424.933 382.874 427.253 385.914 427.253 389.894V390.074C427.253 394.034 424.973 397.174 419.973 397.174H416.233ZM434.319 397.354C431.359 397.354 429.259 395.274 429.259 392.054V391.894C429.259 388.734 431.279 386.534 434.159 386.534C436.579 386.534 438.859 387.994 438.859 391.734V392.274H430.979C431.059 394.654 432.199 395.974 434.339 395.974C435.959 395.974 436.899 395.374 437.119 394.154H438.779C438.419 396.254 436.679 397.354 434.319 397.354ZM431.039 390.934H437.159C436.999 388.774 435.879 387.914 434.159 387.914C432.459 387.914 431.319 389.074 431.039 390.934ZM443.928 397.174L440.128 386.714H441.928L445.028 395.494L448.088 386.714H449.808L446.048 397.174H443.928ZM455.979 397.354C453.019 397.354 450.919 395.274 450.919 392.054V391.894C450.919 388.734 452.939 386.534 455.819 386.534C458.239 386.534 460.519 387.994 460.519 391.734V392.274H452.639C452.719 394.654 453.859 395.974 455.999 395.974C457.619 395.974 458.559 395.374 458.779 394.154H460.439C460.079 396.254 458.339 397.354 455.979 397.354ZM452.699 390.934H458.819C458.659 388.774 457.539 387.914 455.819 387.914C454.119 387.914 452.979 389.074 452.699 390.934ZM463.106 397.174V381.714H464.786V397.174H463.106ZM472.543 395.974C474.643 395.974 475.963 394.394 475.963 392.034V391.894C475.963 389.474 474.623 387.914 472.543 387.914C470.443 387.914 469.123 389.474 469.123 391.874V392.034C469.123 394.414 470.423 395.974 472.543 395.974ZM472.523 397.354C469.543 397.354 467.403 395.094 467.403 392.034V391.874C467.403 388.734 469.583 386.534 472.543 386.534C475.503 386.534 477.683 388.714 477.683 391.854V392.014C477.683 395.174 475.503 397.354 472.523 397.354ZM480.254 400.814V386.714H481.914V388.474C482.514 387.454 483.934 386.534 485.454 386.534C488.194 386.534 490.214 388.534 490.214 391.794V391.954C490.214 395.154 488.334 397.354 485.454 397.354C483.734 397.354 482.514 396.494 481.914 395.454V400.814H480.254ZM485.294 395.974C487.374 395.974 488.494 394.574 488.494 392.034V391.874C488.494 389.234 487.034 387.914 485.274 387.914C483.334 387.914 481.854 389.194 481.854 391.874V392.034C481.854 394.714 483.254 395.974 485.294 395.974ZM492.793 397.174V386.714H494.453V388.314C494.933 387.334 496.073 386.534 497.573 386.534C498.913 386.534 500.093 387.094 500.633 388.494C501.353 387.134 502.913 386.534 504.213 386.534C506.093 386.534 507.733 387.654 507.733 390.694V397.174H506.073V390.574C506.073 388.734 505.293 387.974 503.853 387.974C502.493 387.974 501.093 388.894 501.093 390.774V397.174H499.433V390.574C499.433 388.734 498.653 387.974 497.213 387.974C495.853 387.974 494.453 388.894 494.453 390.774V397.174H492.793ZM515.276 397.354C512.316 397.354 510.216 395.274 510.216 392.054V391.894C510.216 388.734 512.236 386.534 515.116 386.534C517.536 386.534 519.816 387.994 519.816 391.734V392.274H511.936C512.016 394.654 513.156 395.974 515.296 395.974C516.916 395.974 517.856 395.374 518.076 394.154H519.736C519.376 396.254 517.636 397.354 515.276 397.354ZM511.996 390.934H518.116C517.956 388.774 516.836 387.914 515.116 387.914C513.416 387.914 512.276 389.074 511.996 390.934ZM522.363 397.174V386.714H524.023V388.374C524.503 387.394 525.663 386.534 527.383 386.534C529.543 386.534 531.063 387.714 531.063 390.754V397.174H529.403V390.634C529.403 388.794 528.623 387.974 526.943 387.974C525.403 387.974 524.023 388.954 524.023 390.834V397.174H522.363ZM537.496 397.314C535.596 397.314 534.676 396.194 534.676 394.554V388.114H533.176V386.714H534.676V384.334H536.336V386.714H538.776V388.114H536.336V394.394C536.336 395.414 536.796 395.914 537.636 395.914C538.156 395.914 538.556 395.834 538.916 395.694V397.094C538.576 397.214 538.176 397.314 537.496 397.314ZM549.339 397.354C547.399 397.354 545.859 396.414 545.859 394.274C545.859 391.854 548.419 391.034 551.099 391.034H552.599V390.274C552.599 388.614 551.959 387.914 550.359 387.914C548.919 387.914 548.119 388.514 547.959 389.794H546.299C546.519 387.414 548.419 386.534 550.439 386.534C552.439 386.534 554.259 387.354 554.259 390.274V397.174H552.599V395.854C551.819 396.834 550.879 397.354 549.339 397.354ZM549.499 396.034C551.259 396.034 552.599 395.134 552.599 393.514V392.214H551.159C549.059 392.214 547.519 392.734 547.519 394.274C547.519 395.354 548.039 396.034 549.499 396.034ZM557.519 397.174V386.714H559.179V388.374C559.659 387.394 560.819 386.534 562.539 386.534C564.699 386.534 566.219 387.714 566.219 390.754V397.174H564.559V390.634C564.559 388.794 563.779 387.974 562.099 387.974C560.559 387.974 559.179 388.954 559.179 390.834V397.174H557.519ZM573.412 397.354C570.672 397.354 568.692 395.414 568.692 392.154V391.994C568.692 388.794 570.692 386.534 573.572 386.534C575.312 386.534 576.392 387.374 576.992 388.394V381.714H578.652V397.174H576.992V395.374C576.392 396.394 574.932 397.354 573.412 397.354ZM573.592 395.974C575.532 395.974 577.052 394.694 577.052 392.014V391.854C577.052 389.174 575.772 387.914 573.732 387.914C571.652 387.914 570.412 389.374 570.412 391.914V392.074C570.412 394.714 571.832 395.974 573.592 395.974ZM586.345 397.174L591.265 382.874H593.545L598.385 397.174H596.665L595.265 393.054H589.365L587.985 397.174H586.345ZM592.325 384.314L589.845 391.674H594.805L592.325 384.314ZM601.001 397.174V382.874H602.741V397.174H601.001ZM613.721 397.174L610.501 386.714H612.301L614.741 395.134L617.281 386.714H618.721L621.101 395.134L623.561 386.714H625.261L622.001 397.174H620.161L617.981 389.334L615.541 397.174H613.721ZM631.665 395.974C633.765 395.974 635.085 394.394 635.085 392.034V391.894C635.085 389.474 633.745 387.914 631.665 387.914C629.565 387.914 628.245 389.474 628.245 391.874V392.034C628.245 394.414 629.545 395.974 631.665 395.974ZM631.645 397.354C628.665 397.354 626.525 395.094 626.525 392.034V391.874C626.525 388.734 628.705 386.534 631.665 386.534C634.625 386.534 636.805 388.714 636.805 391.854V392.014C636.805 395.174 634.625 397.354 631.645 397.354ZM639.375 397.174V386.714H641.035V388.594C641.695 387.414 642.595 386.594 644.475 386.534V388.094C642.375 388.194 641.035 388.854 641.035 391.434V397.174H639.375ZM646.894 397.174V381.714H648.554V391.534L652.894 386.714H654.834L650.354 391.574L655.214 397.174H653.194L648.554 391.754V397.174H646.894ZM660.252 397.354C657.752 397.354 656.252 396.094 656.152 393.954H657.772C657.892 395.194 658.552 395.974 660.232 395.974C661.812 395.974 662.512 395.434 662.512 394.314C662.512 393.214 661.692 392.854 660.072 392.554C657.352 392.054 656.432 391.294 656.432 389.474C656.432 387.534 658.332 386.534 659.972 386.534C661.852 386.534 663.472 387.294 663.752 389.554H662.152C661.912 388.414 661.272 387.914 659.952 387.914C658.752 387.914 657.972 388.514 657.972 389.414C657.972 390.354 658.492 390.734 660.412 391.074C662.572 391.474 664.092 391.954 664.092 394.174C664.092 396.074 662.792 397.354 660.252 397.354ZM666.621 397.174V381.714H668.281V388.374C668.761 387.394 669.921 386.534 671.641 386.534C673.801 386.534 675.321 387.714 675.321 390.754V397.174H673.661V390.634C673.661 388.794 672.881 387.974 671.201 387.974C669.661 387.974 668.281 388.954 668.281 390.834V397.174H666.621ZM682.934 395.974C685.034 395.974 686.354 394.394 686.354 392.034V391.894C686.354 389.474 685.014 387.914 682.934 387.914C680.834 387.914 679.514 389.474 679.514 391.874V392.034C679.514 394.414 680.814 395.974 682.934 395.974ZM682.914 397.354C679.934 397.354 677.794 395.094 677.794 392.034V391.874C677.794 388.734 679.974 386.534 682.934 386.534C685.894 386.534 688.074 388.714 688.074 391.854V392.014C688.074 395.174 685.894 397.354 682.914 397.354ZM690.644 400.814V386.714H692.304V388.474C692.904 387.454 694.324 386.534 695.844 386.534C698.584 386.534 700.604 388.534 700.604 391.794V391.954C700.604 395.154 698.724 397.354 695.844 397.354C694.124 397.354 692.904 396.494 692.304 395.454V400.814H690.644ZM695.684 395.974C697.764 395.974 698.884 394.574 698.884 392.034V391.874C698.884 389.234 697.424 387.914 695.664 387.914C693.724 387.914 692.244 389.194 692.244 391.874V392.034C692.244 394.714 693.644 395.974 695.684 395.974ZM703.933 397.274C703.233 397.274 702.653 396.714 702.653 395.994C702.653 395.274 703.233 394.714 703.933 394.714C704.633 394.714 705.213 395.274 705.213 395.994C705.213 396.714 704.633 397.274 703.933 397.274Z" fill="#E5E5E5"/>
<line x1="46.4644" y1="356.39" x2="693.908" y2="356.39" stroke="white" stroke-opacity="0.5"/>
<path d="M62.9238 339.5L64.5238 329.324L58.6358 316.62H60.5238L65.6758 327.852L73.8358 316.62H75.6918L66.2838 329.452L64.7158 339.5H62.9238ZM80.5438 339.756C76.0638 339.756 73.2158 336.46 73.2158 332.236C73.2158 326.924 76.7678 322.54 81.9838 322.54C86.5598 322.54 89.3118 325.836 89.3118 329.996C89.3118 335.532 85.8238 339.756 80.5438 339.756ZM80.6078 338.316C84.9278 338.316 87.5518 334.732 87.5518 330.028C87.5518 326.604 85.5678 323.948 81.9198 323.948C77.5998 323.948 74.9438 327.66 74.9438 332.236C74.9438 335.692 76.9918 338.316 80.6078 338.316ZM107.171 322.764L105.283 334.828C104.963 336.94 104.867 338.38 104.899 339.5H103.267C103.235 338.54 103.331 337.164 103.523 335.916C102.371 338.028 100.259 339.756 97.3151 339.756C93.7311 339.756 91.6191 337.484 92.3551 332.748L93.9551 322.764H95.6511L94.0191 333.068C93.4751 336.524 94.8511 338.284 97.6351 338.284C100.579 338.284 103.331 336.268 103.907 332.684L105.475 322.764H107.171ZM109.515 339.5L111.435 327.436C111.787 325.196 111.851 323.948 111.883 322.764H113.483C113.483 323.66 113.387 325.036 113.195 326.508C114.411 324.268 116.139 322.636 119.531 322.54L119.275 324.14C115.947 324.268 113.355 325.964 112.651 330.476L111.211 339.5H109.515ZM127.875 339.5L129.795 327.436C130.147 325.196 130.211 323.948 130.243 322.764H131.843C131.843 323.66 131.747 325.036 131.555 326.38C132.707 324.268 134.851 322.508 137.795 322.508C141.379 322.508 143.587 324.652 142.819 329.516L141.219 339.5H139.523L141.155 329.196C141.731 325.676 140.259 323.98 137.475 323.98C134.531 323.98 131.715 325.996 131.139 329.58L129.571 339.5H127.875ZM151.176 339.756C147.56 339.756 145.704 337.804 145.704 335.116C145.704 331.116 149.256 329.9 153.32 329.9H157.64L157.832 328.556C158.312 325.548 157.224 323.948 153.96 323.948C151.56 323.948 149.8 324.94 149.128 327.5H147.432C148.264 323.82 151.272 322.508 154.024 322.508C158.024 322.508 160.168 324.588 159.528 328.684L158.568 334.7C158.216 336.94 158.152 338.316 158.216 339.5H156.584C156.552 338.7 156.584 337.612 156.68 336.748C155.624 338.476 153.64 339.756 151.176 339.756ZM151.368 338.38C154.184 338.38 156.552 336.748 156.968 333.964L157.416 331.212H153.352C149.832 331.212 147.4 331.98 147.4 335.116C147.4 336.94 148.616 338.38 151.368 338.38ZM162.579 339.5L164.499 327.436C164.851 325.196 164.915 323.948 164.947 322.764H166.547C166.547 323.66 166.483 324.94 166.291 326.252C167.443 324.14 169.363 322.508 171.955 322.508C174.579 322.508 176.371 323.82 176.691 326.636C177.939 323.98 180.371 322.508 182.771 322.508C186.163 322.508 188.371 324.556 187.571 329.548L186.003 339.5H184.307L185.907 329.324C186.483 325.612 185.203 323.98 182.451 323.98C179.891 323.98 177.299 325.868 176.723 329.484L175.155 339.5H173.459L175.059 329.228C175.635 325.708 174.323 323.98 171.603 323.98C168.979 323.98 166.419 325.964 165.875 329.484L164.275 339.5H162.579ZM192.455 332.62C192.455 336.236 194.215 338.316 197.831 338.316C200.487 338.316 202.375 337.132 203.239 334.828H204.935C203.879 338.124 201.127 339.756 197.767 339.756C193.191 339.756 190.695 336.876 190.695 332.556C190.695 326.988 194.151 322.508 199.239 322.508C203.943 322.508 206.375 325.676 205.575 330.764L205.511 331.276H192.519C192.455 331.724 192.455 332.172 192.455 332.62ZM199.175 323.948C195.911 323.948 193.479 326.156 192.711 329.9H204.007C204.423 326.188 202.887 323.948 199.175 323.948Z" fill="#E0E0E0"/>
<g opacity="0.6">
<g opacity="0.2">
<g style="mix-blend-mode:color-dodge">
<path d="M787.706 44.4744L743.548 44.4744L699.05 88.9731H743.207L787.706 44.4744ZM787.706 -0.848694H743.548L699.05 43.65H743.207L787.706 -0.848694Z" stroke="#2E2E2E" stroke-width="0.824392"/>
</g>
<g style="mix-blend-mode:color-dodge">
<path d="M787.706 135.12H743.548L699.05 179.619H743.207L787.706 135.12ZM787.706 89.7968H743.548L699.05 134.295H743.207L787.706 89.7968Z" stroke="#777777" stroke-width="0.824392"/>
</g>
<g style="mix-blend-mode:color-dodge">
<path d="M787.706 225.766H743.548L699.05 270.265H743.207L787.706 225.766ZM787.706 180.443H743.548L699.05 224.942H743.207L787.706 180.443Z" stroke="#2E2E2E" stroke-width="0.824392"/>
</g>
<g style="mix-blend-mode:color-dodge">
<path d="M787.706 316.412H743.548L699.05 360.911H743.207L787.706 316.412ZM787.706 271.089H743.548L699.05 315.588H743.207L787.706 271.089Z" stroke="#777777" stroke-width="0.824392"/>
</g>
<g style="mix-blend-mode:color-dodge">
<path d="M787.706 407.059H743.548L699.05 451.558H743.207L787.706 407.059ZM787.706 361.736H743.548L699.05 406.234H743.207L787.706 361.736Z" stroke="#2E2E2E" stroke-width="0.824392"/>
</g>
<g style="mix-blend-mode:color-dodge">
<path d="M787.706 497.704H743.548L699.05 542.203H743.207L787.706 497.704ZM787.706 452.381H743.548L699.05 496.88H743.207L787.706 452.381Z" stroke="#777777" stroke-width="0.824392"/>
</g>
<g style="mix-blend-mode:color-dodge">
<path d="M787.706 588.351H743.548L699.05 632.85H743.207L787.706 588.351ZM787.706 543.028H743.548L699.05 587.526H743.207L787.706 543.028Z" stroke="#777777" stroke-width="0.824392"/>
</g>
</g>
<g opacity="0.5">
<g style="mix-blend-mode:color-dodge">
<path d="M878.352 44.4744L834.195 44.4744L789.696 88.9731H833.854L878.352 44.4744ZM878.352 -0.848694H834.195L789.696 43.65H833.854L878.352 -0.848694Z" stroke="#2E2E2E" stroke-width="0.824392"/>
</g>
<g style="mix-blend-mode:color-dodge">
<path d="M878.352 135.12H834.195L789.696 179.619H833.854L878.352 135.12ZM878.352 89.7968H834.195L789.696 134.295H833.854L878.352 89.7968Z" stroke="#777777" stroke-width="0.824392"/>
</g>
<g style="mix-blend-mode:color-dodge">
<path d="M878.352 225.766H834.195L789.696 270.265H833.854L878.352 225.766ZM878.352 180.443H834.195L789.696 224.942H833.854L878.352 180.443Z" stroke="#2E2E2E" stroke-width="0.824392"/>
</g>
<g style="mix-blend-mode:color-dodge">
<path d="M878.352 316.412H834.195L789.696 360.911H833.854L878.352 316.412ZM878.352 271.089H834.195L789.696 315.588H833.854L878.352 271.089Z" stroke="#777777" stroke-width="0.824392"/>
</g>
<g style="mix-blend-mode:color-dodge">
<path d="M878.352 407.059H834.195L789.696 451.558H833.854L878.352 407.059ZM878.352 361.736H834.195L789.696 406.234H833.854L878.352 361.736Z" stroke="#2E2E2E" stroke-width="0.824392"/>
</g>
<g style="mix-blend-mode:color-dodge">
<path d="M878.352 497.704H834.195L789.696 542.203H833.854L878.352 497.704ZM878.352 452.381H834.195L789.696 496.88H833.854L878.352 452.381Z" stroke="#3C3C3C" stroke-width="0.824392"/>
</g>
<g style="mix-blend-mode:color-dodge">
<path d="M878.352 588.351H834.195L789.696 632.85H833.854L878.352 588.351ZM878.352 543.028H834.195L789.696 587.526H833.854L878.352 543.028Z" stroke="#777777" stroke-width="0.824392"/>
</g>
</g>
<g style="mix-blend-mode:color-dodge">
<path d="M968.998 44.4744L924.84 44.4744L880.342 88.9731H924.499L968.998 44.4744ZM968.998 -0.848694H924.84L880.342 43.65H924.499L968.998 -0.848694Z" stroke="#2E2E2E" stroke-width="0.824392"/>
</g>
<g style="mix-blend-mode:color-dodge">
<path d="M968.998 135.12H924.84L880.342 179.619H924.499L968.998 135.12ZM968.998 89.7968H924.84L880.342 134.295H924.499L968.998 89.7968Z" stroke="#2E2E2E" stroke-width="0.824392"/>
</g>
<g style="mix-blend-mode:color-dodge">
<path d="M968.998 225.766H924.84L880.342 270.265H924.499L968.998 225.766ZM968.998 180.443H924.84L880.342 224.942H924.499L968.998 180.443Z" stroke="#777777" stroke-width="0.824392"/>
</g>
<g style="mix-blend-mode:color-dodge">
<path d="M968.998 316.412H924.84L880.342 360.911H924.499L968.998 316.412ZM968.998 271.089H924.84L880.342 315.588H924.499L968.998 271.089Z" stroke="#2E2E2E" stroke-width="0.824392"/>
</g>
<g style="mix-blend-mode:color-dodge">
<path d="M968.998 407.059H924.84L880.342 451.558H924.499L968.998 407.059ZM968.998 361.736H924.84L880.342 406.234H924.499L968.998 361.736Z" stroke="#3C3C3C" stroke-width="0.824392"/>
</g>
<g style="mix-blend-mode:color-dodge">
<path d="M968.998 497.704H924.84L880.342 542.203H924.499L968.998 497.704ZM968.998 452.381H924.84L880.342 496.88H924.499L968.998 452.381Z" stroke="#777777" stroke-width="0.824392"/>
</g>
<g style="mix-blend-mode:color-dodge">
<path d="M968.998 588.351H924.84L880.342 632.85H924.499L968.998 588.351ZM968.998 543.028H924.84L880.342 587.526H924.499L968.998 543.028Z" stroke="#3C3C3C" stroke-width="0.824392"/>
</g>
<g style="mix-blend-mode:color-dodge">
<path d="M1059.64 44.4744L1015.49 44.4744L970.988 88.9731H1015.15L1059.64 44.4744ZM1059.64 -0.848694H1015.49L970.988 43.65H1015.15L1059.64 -0.848694Z" stroke="#777777" stroke-width="0.824392"/>
</g>
<g style="mix-blend-mode:color-dodge">
<path d="M1059.64 135.12H1015.49L970.988 179.619H1015.15L1059.64 135.12ZM1059.64 89.7968H1015.49L970.988 134.295H1015.15L1059.64 89.7968Z" stroke="#2E2E2E" stroke-width="0.824392"/>
</g>
<g style="mix-blend-mode:color-dodge">
<path d="M1059.64 225.766H1015.49L970.988 270.265H1015.15L1059.64 225.766ZM1059.64 180.443H1015.49L970.988 224.942H1015.15L1059.64 180.443Z" stroke="#2E2E2E" stroke-width="0.824392"/>
</g>
<g style="mix-blend-mode:color-dodge">
<path d="M1059.64 316.412H1015.49L970.988 360.911H1015.15L1059.64 316.412ZM1059.64 271.089H1015.49L970.988 315.588H1015.15L1059.64 271.089Z" stroke="#2E2E2E" stroke-width="0.824392"/>
</g>
<g style="mix-blend-mode:color-dodge">
<path d="M1059.64 407.059H1015.49L970.988 451.558H1015.15L1059.64 407.059ZM1059.64 361.736H1015.49L970.988 406.234H1015.15L1059.64 361.736Z" stroke="#777777" stroke-width="0.824392"/>
</g>
<g style="mix-blend-mode:color-dodge">
<path d="M1059.64 497.704H1015.49L970.988 542.203H1015.15L1059.64 497.704ZM1059.64 452.381H1015.49L970.988 496.88H1015.15L1059.64 452.381Z" stroke="#3C3C3C" stroke-width="0.824392"/>
</g>
<g style="mix-blend-mode:color-dodge">
<path d="M1059.64 588.351H1015.49L970.988 632.85H1015.15L1059.64 588.351ZM1059.64 543.028H1015.49L970.988 587.526H1015.15L1059.64 543.028Z" stroke="#777777" stroke-width="0.824392"/>
</g>
</g>
</g>
<defs>
<filter id="filter0_f_1300_7679" x="135.894" y="-582.329" width="1612.6" height="1612.6" filterUnits="userSpaceOnUse" color-interpolation-filters="sRGB">
<feFlood flood-opacity="0" result="BackgroundImageFix"/>
<feBlend mode="normal" in="SourceGraphic" in2="BackgroundImageFix" result="shape"/>
<feGaussianBlur stdDeviation="163.4" result="effect1_foregroundBlur_1300_7679"/>
</filter>
<radialGradient id="paint0_radial_1300_7679" cx="0" cy="0" r="1" gradientUnits="userSpaceOnUse" gradientTransform="translate(942.194 223.971) rotate(90) scale(479.5)">
<stop stop-color="#1BD44F"/>
<stop offset="1" stop-color="#0E0BB4" stop-opacity="0.43"/>
</radialGradient>
<linearGradient id="paint1_linear_1300_7679" x1="48.3822" y1="66.8225" x2="55.8196" y2="49.6088" gradientUnits="userSpaceOnUse">
<stop stop-color="#201DA7"/>
<stop offset="1" stop-color="#30E29D"/>
</linearGradient>
<clipPath id="clip0_1300_7679">
<rect x="0.5" width="1063" height="632" rx="13" fill="white"/>
</clipPath>
<clipPath id="clip1_1300_7679">
<rect width="18.7105" height="18.7105" fill="white" transform="translate(46.4644 49.6089)"/>
</clipPath>
</defs>
</svg>
