<svg width="1063" height="632" viewBox="0 0 1063 632" fill="none" xmlns="http://www.w3.org/2000/svg">
<g clip-path="url(#clip0_2075_7596)">
<rect width="1063" height="632" rx="13" fill="#F5F5F5"/>
<g filter="url(#filter0_f_2075_7596)">
<circle cx="1080.97" cy="49.6089" r="479.5" fill="url(#paint0_radial_2075_7596)" fill-opacity="0.5"/>
</g>
<g clip-path="url(#clip1_2075_7596)">
<path fill-rule="evenodd" clip-rule="evenodd" d="M55.3196 68.3193H45.9644L55.3196 58.9641H45.9644L55.3196 49.6088H64.6749L55.3196 58.9641H64.6749L55.3196 68.3193Z" fill="url(#paint1_linear_2075_7596)"/>
</g>
<path d="M72.0272 65.9644H68.0504V51.7915H75.8983C79.2618 51.7915 81.3771 53.7164 81.3771 57.0799C81.3771 60.4433 79.2618 62.3894 75.8983 62.3894H72.0272V65.9644ZM75.4541 55.3664H72.0272V58.8145H75.4541C76.8503 58.8145 77.4214 58.5395 77.4214 57.0799C77.4214 55.6414 76.8503 55.3664 75.4541 55.3664ZM85.8389 65.9644H81.3755L87.4888 51.7915H93.1791L99.3137 65.9644H94.7445L93.6657 63.3413H86.9388L85.8389 65.9644ZM89.2657 57.7779L88.4407 59.7664H92.2061L91.3811 57.7779L90.4503 55.3876H90.1753L89.2657 57.7779ZM103.716 65.9644H99.7394V51.7915H108.01C111.755 51.7915 113.722 53.3568 113.722 56.128C113.722 58.3702 112.601 59.7029 109.893 60.0414V60.2529C111.353 60.6337 111.818 61.3317 112.347 62.4106L114.103 65.9644H109.512L107.82 62.4952C107.312 61.4375 106.889 61.1413 105.345 61.1413H103.716V65.9644ZM103.716 55.3664V58.1798H107.968C109.132 58.1798 109.555 57.9683 109.555 56.7626C109.555 55.6414 109.132 55.3664 107.968 55.3664H103.716ZM118.354 65.9644H113.891L120.004 51.7915H125.694L131.829 65.9644H127.26L126.181 63.3413H119.454L118.354 65.9644ZM121.781 57.7779L120.956 59.7664H124.721L123.896 57.7779L122.966 55.3876H122.691L121.781 57.7779ZM144.418 65.9644H132.255V51.7915H136.232V62.3894H144.418V65.9644ZM157.639 65.9644H145.476V51.7915H149.453V62.3894H157.639V65.9644ZM171.283 65.9644H158.697V51.7915H171.283V55.3664H162.674V57.0587H170.966V60.6125H162.674V62.3894H171.283V65.9644ZM184.577 65.9644H172.413V51.7915H176.39V62.3894H184.577V65.9644Z" fill="black"/>
<path d="M218.257 178.426C205.201 178.426 197.009 169.146 197.009 155.322V154.81C197.009 141.306 206.289 131.578 218.257 131.578C227.729 131.578 235.345 136.506 236.753 145.914H233.169C231.761 138.554 226.769 134.458 218.321 134.458C208.081 134.458 200.657 142.65 200.657 154.746V155.258C200.657 167.61 207.441 175.418 218.321 175.418C226.577 175.418 232.465 171.066 233.937 163.194H237.265C235.601 173.05 228.113 178.426 218.257 178.426ZM256.056 178.426C246.392 178.426 240.184 171.578 240.184 161.53V161.018C240.184 150.906 246.584 143.93 255.544 143.93C263.608 143.93 270.2 149.178 270.2 160.25V161.466H243.704C243.832 170.426 248.12 175.546 256.056 175.546C261.624 175.546 265.4 173.242 266.552 168.57H269.944C268.536 174.97 263.224 178.426 256.056 178.426ZM243.832 158.714H266.68C266.36 150.586 262.072 146.81 255.544 146.81C249.08 146.81 244.472 151.418 243.832 158.714ZM275.558 177.914V144.442H278.95V151.482C280.806 147.386 284.134 144.186 290.278 143.994V147.194C283.814 147.45 278.95 150.458 278.95 159.354V177.914H275.558ZM305.032 178.362C299.72 178.362 296.84 175.226 296.84 169.85V147.322H291.912V144.442H296.84V136.826H300.232V144.442H309V147.322H300.232V169.594C300.232 173.626 302.152 175.482 305.224 175.482C306.952 175.482 308.296 175.162 309.448 174.778V177.658C308.36 178.042 307.08 178.362 305.032 178.362ZM314.753 177.914V144.442H318.145V177.914H314.753ZM316.417 137.274C315.073 137.274 313.985 136.186 313.985 134.842C313.985 133.562 315.073 132.474 316.417 132.474C317.761 132.474 318.785 133.562 318.785 134.842C318.785 136.186 317.761 137.274 316.417 137.274ZM327.662 177.914V147.322H322.606V144.442H327.662V138.426C327.662 131.386 331.438 128.25 336.878 128.25C338.414 128.25 339.438 128.378 340.398 128.762V131.642C339.502 131.322 338.35 131.13 336.942 131.13C333.422 131.13 331.054 133.178 331.054 138.106V144.442H340.398V147.322H331.054V177.914H327.662ZM344.258 177.914V144.442H347.65V177.914H344.258ZM345.922 137.274C344.578 137.274 343.49 136.186 343.49 134.842C343.49 133.562 344.578 132.474 345.922 132.474C347.266 132.474 348.29 133.562 348.29 134.842C348.29 136.186 347.266 137.274 345.922 137.274ZM369.199 178.426C360.175 178.426 353.199 171.706 353.199 161.53V161.018C353.199 150.778 360.367 143.93 369.199 143.93C375.983 143.93 382.255 147.514 383.151 155.066H379.823C378.991 149.434 374.447 146.81 369.199 146.81C362.223 146.81 356.719 152.186 356.719 161.018V161.53C356.719 170.362 362.159 175.546 369.199 175.546C374.767 175.546 379.503 172.346 380.335 166.33H383.471C382.575 173.498 376.815 178.426 369.199 178.426ZM397.594 178.426C391.002 178.426 386.266 175.226 386.266 168.89C386.266 161.146 393.69 158.778 401.946 158.778H408.922V155.77C408.922 149.498 406.362 146.81 400.474 146.81C395.418 146.81 391.834 148.986 391.066 153.914H387.738C388.506 146.874 394.266 143.93 400.602 143.93C407.578 143.93 412.314 147.258 412.314 155.77V177.914H408.922V172.794C406.81 176.058 403.226 178.426 397.594 178.426ZM397.85 175.674C403.994 175.674 408.922 172.09 408.922 167.098V161.402H402.074C395.098 161.402 389.658 162.874 389.658 168.89C389.658 173.178 392.346 175.674 397.85 175.674ZM429.485 178.362C424.173 178.362 421.293 175.226 421.293 169.85V147.322H416.365V144.442H421.293V136.826H424.685V144.442H433.453V147.322H424.685V169.594C424.685 173.626 426.605 175.482 429.677 175.482C431.405 175.482 432.749 175.162 433.901 174.778V177.658C432.813 178.042 431.533 178.362 429.485 178.362ZM452.141 178.426C442.477 178.426 436.269 171.578 436.269 161.53V161.018C436.269 150.906 442.669 143.93 451.629 143.93C459.693 143.93 466.285 149.178 466.285 160.25V161.466H439.789C439.917 170.426 444.205 175.546 452.141 175.546C457.709 175.546 461.485 173.242 462.637 168.57H466.029C464.621 174.97 459.309 178.426 452.141 178.426ZM439.917 158.714H462.765C462.445 150.586 458.157 146.81 451.629 146.81C445.165 146.81 440.557 151.418 439.917 158.714ZM498.591 175.546C505.759 175.546 511.199 170.106 511.199 161.466V160.954C511.199 152.122 505.695 146.81 498.591 146.81C491.423 146.81 485.919 152.25 485.919 160.954V161.466C485.919 170.042 491.295 175.546 498.591 175.546ZM498.527 178.426C489.439 178.426 482.399 171.322 482.399 161.466V160.954C482.399 150.906 489.631 143.93 498.591 143.93C507.615 143.93 514.719 150.714 514.719 160.89V161.402C514.719 171.514 507.551 178.426 498.527 178.426ZM521.62 177.914V147.322H516.564V144.442H521.62V138.426C521.62 131.45 525.524 128.25 531.092 128.25C532.692 128.25 533.588 128.442 534.804 128.826V131.706C533.844 131.386 532.628 131.13 531.22 131.13C527.508 131.13 525.012 133.242 525.012 138.106V144.442H534.356V147.322H525.012V177.914H521.62ZM571.545 178.426C558.489 178.426 550.297 169.146 550.297 155.322V154.81C550.297 141.306 559.577 131.578 571.545 131.578C581.017 131.578 588.633 136.506 590.041 145.914H586.457C585.049 138.554 580.057 134.458 571.609 134.458C561.369 134.458 553.945 142.65 553.945 154.746V155.258C553.945 167.61 560.729 175.418 571.609 175.418C579.865 175.418 585.753 171.066 587.225 163.194H590.553C588.889 173.05 581.401 178.426 571.545 178.426ZM609.664 175.546C616.832 175.546 622.272 170.106 622.272 161.466V160.954C622.272 152.122 616.768 146.81 609.664 146.81C602.496 146.81 596.992 152.25 596.992 160.954V161.466C596.992 170.042 602.368 175.546 609.664 175.546ZM609.6 178.426C600.512 178.426 593.472 171.322 593.472 161.466V160.954C593.472 150.906 600.704 143.93 609.664 143.93C618.688 143.93 625.792 150.714 625.792 160.89V161.402C625.792 171.514 618.624 178.426 609.6 178.426ZM631.22 177.914V144.442H634.612V150.778C636.148 147.13 640.116 143.93 645.556 143.93C650.548 143.93 654.388 146.042 655.796 151.418C657.908 146.682 662.644 143.93 667.7 143.93C674.164 143.93 678.9 147.45 678.9 156.986V177.914H675.508V156.794C675.508 149.69 672.5 146.874 667.124 146.874C662.004 146.874 656.756 150.522 656.756 157.498V177.914H653.364V156.794C653.364 149.69 650.356 146.874 644.98 146.874C639.86 146.874 634.612 150.522 634.612 157.498V177.914H631.22ZM686.535 189.562V144.442H689.927V152.25C691.847 147.898 696.775 143.93 702.663 143.93C711.111 143.93 717.703 150.394 717.703 160.826V161.338C717.703 171.834 711.303 178.426 702.663 178.426C696.007 178.426 691.719 174.394 689.927 170.298V189.562H686.535ZM702.407 175.546C709.447 175.546 714.183 170.426 714.183 161.466V160.954C714.183 151.738 708.743 146.81 702.343 146.81C695.815 146.81 689.863 151.738 689.863 160.954V161.466C689.863 170.618 695.431 175.546 702.407 175.546ZM723.291 177.914V128.442H726.747V177.914H723.291ZM748.166 178.426C738.502 178.426 732.294 171.578 732.294 161.53V161.018C732.294 150.906 738.694 143.93 747.654 143.93C755.718 143.93 762.31 149.178 762.31 160.25V161.466H735.814C735.942 170.426 740.23 175.546 748.166 175.546C753.734 175.546 757.51 173.242 758.662 168.57H762.054C760.646 174.97 755.334 178.426 748.166 178.426ZM735.942 158.714H758.79C758.47 150.586 754.182 146.81 747.654 146.81C741.19 146.81 736.582 151.418 735.942 158.714ZM777.14 178.362C771.828 178.362 768.948 175.226 768.948 169.85V147.322H764.02V144.442H768.948V136.826H772.34V144.442H781.108V147.322H772.34V169.594C772.34 173.626 774.26 175.482 777.332 175.482C779.06 175.482 780.404 175.162 781.556 174.778V177.658C780.468 178.042 779.188 178.362 777.14 178.362ZM786.861 177.914V144.442H790.253V177.914H786.861ZM788.525 137.274C787.181 137.274 786.093 136.186 786.093 134.842C786.093 133.562 787.181 132.474 788.525 132.474C789.869 132.474 790.893 133.562 790.893 134.842C790.893 136.186 789.869 137.274 788.525 137.274ZM811.994 175.546C819.162 175.546 824.602 170.106 824.602 161.466V160.954C824.602 152.122 819.098 146.81 811.994 146.81C804.826 146.81 799.322 152.25 799.322 160.954V161.466C799.322 170.042 804.698 175.546 811.994 175.546ZM811.93 178.426C802.842 178.426 795.802 171.322 795.802 161.466V160.954C795.802 150.906 803.034 143.93 811.994 143.93C821.018 143.93 828.122 150.714 828.122 160.89V161.402C828.122 171.514 820.954 178.426 811.93 178.426ZM833.55 177.914V144.442H836.942V150.97C838.478 147.322 842.83 143.93 848.782 143.93C855.886 143.93 860.686 147.77 860.686 157.306V177.914H857.294V157.114C857.294 150.01 853.966 146.874 848.014 146.874C842.446 146.874 836.942 150.586 836.942 157.626V177.914H833.55Z" fill="black"/>
<path d="M435.312 259.863V245.563H439.372C442.112 245.563 444.372 246.763 444.372 249.743V249.823C444.372 252.863 442.092 254.043 439.372 254.043H437.052V259.863H435.312ZM437.052 252.663H439.492C441.532 252.663 442.632 251.663 442.632 249.823V249.743C442.632 247.723 441.432 246.963 439.492 246.963H437.052V252.663ZM446.813 259.863V249.403H448.473V251.283C449.133 250.103 450.033 249.283 451.913 249.223V250.783C449.813 250.883 448.473 251.543 448.473 254.123V259.863H446.813ZM458.399 258.663C460.499 258.663 461.819 257.083 461.819 254.723V254.583C461.819 252.163 460.479 250.603 458.399 250.603C456.299 250.603 454.979 252.163 454.979 254.563V254.723C454.979 257.103 456.279 258.663 458.399 258.663ZM458.379 260.043C455.399 260.043 453.259 257.783 453.259 254.723V254.563C453.259 251.423 455.439 249.223 458.399 249.223C461.359 249.223 463.539 251.403 463.539 254.543V254.703C463.539 257.863 461.359 260.043 458.379 260.043ZM469.65 260.043C467.57 260.043 466.01 258.903 466.01 256.023V249.403H467.67V255.943C467.67 257.783 468.45 258.603 470.09 258.603C471.57 258.603 472.97 257.623 472.97 255.743V249.403H474.63V259.863H472.97V258.203C472.49 259.183 471.33 260.043 469.65 260.043ZM481.925 260.043C479.185 260.043 477.205 258.103 477.205 254.843V254.683C477.205 251.483 479.205 249.223 482.085 249.223C483.825 249.223 484.905 250.063 485.505 251.083V244.403H487.165V259.863H485.505V258.063C484.905 259.083 483.445 260.043 481.925 260.043ZM482.105 258.663C484.045 258.663 485.565 257.383 485.565 254.703V254.543C485.565 251.863 484.285 250.603 482.245 250.603C480.165 250.603 478.925 252.063 478.925 254.603V254.763C478.925 257.403 480.345 258.663 482.105 258.663ZM490.564 259.863V244.403H492.244V259.863H490.564ZM496.581 263.503L498.561 258.783L494.461 249.403H496.241L499.441 256.903L502.341 249.403H504.041L498.261 263.503H496.581ZM511.52 263.503V249.403H513.18V251.163C513.78 250.143 515.2 249.223 516.72 249.223C519.46 249.223 521.48 251.223 521.48 254.483V254.643C521.48 257.843 519.6 260.043 516.72 260.043C515 260.043 513.78 259.183 513.18 258.143V263.503H511.52ZM516.56 258.663C518.64 258.663 519.76 257.263 519.76 254.723V254.563C519.76 251.923 518.3 250.603 516.54 250.603C514.6 250.603 513.12 251.883 513.12 254.563V254.723C513.12 257.403 514.52 258.663 516.56 258.663ZM524.059 259.863V249.403H525.719V251.283C526.379 250.103 527.279 249.283 529.159 249.223V250.783C527.059 250.883 525.719 251.543 525.719 254.123V259.863H524.059ZM535.565 260.043C532.605 260.043 530.505 257.963 530.505 254.743V254.583C530.505 251.423 532.525 249.223 535.405 249.223C537.825 249.223 540.105 250.683 540.105 254.423V254.963H532.225C532.305 257.343 533.445 258.663 535.585 258.663C537.205 258.663 538.145 258.063 538.365 256.843H540.025C539.665 258.943 537.925 260.043 535.565 260.043ZM532.285 253.623H538.405C538.245 251.463 537.125 250.603 535.405 250.603C533.705 250.603 532.565 251.763 532.285 253.623ZM545.99 260.043C543.49 260.043 541.99 258.783 541.89 256.643H543.51C543.63 257.883 544.29 258.663 545.97 258.663C547.55 258.663 548.25 258.123 548.25 257.003C548.25 255.903 547.43 255.543 545.81 255.243C543.09 254.743 542.17 253.983 542.17 252.163C542.17 250.223 544.07 249.223 545.71 249.223C547.59 249.223 549.21 249.983 549.49 252.243H547.89C547.65 251.103 547.01 250.603 545.69 250.603C544.49 250.603 543.71 251.203 543.71 252.103C543.71 253.043 544.23 253.423 546.15 253.763C548.31 254.163 549.83 254.643 549.83 256.863C549.83 258.763 548.53 260.043 545.99 260.043ZM556.64 260.043C553.68 260.043 551.58 257.963 551.58 254.743V254.583C551.58 251.423 553.6 249.223 556.48 249.223C558.9 249.223 561.18 250.683 561.18 254.423V254.963H553.3C553.38 257.343 554.52 258.663 556.66 258.663C558.28 258.663 559.22 258.063 559.44 256.843H561.1C560.74 258.943 559 260.043 556.64 260.043ZM553.36 253.623H559.48C559.32 251.463 558.2 250.603 556.48 250.603C554.78 250.603 553.64 251.763 553.36 253.623ZM563.727 259.863V249.403H565.387V251.063C565.867 250.083 567.027 249.223 568.747 249.223C570.907 249.223 572.427 250.403 572.427 253.443V259.863H570.767V253.323C570.767 251.483 569.987 250.663 568.307 250.663C566.767 250.663 565.387 251.643 565.387 253.523V259.863H563.727ZM578.86 260.003C576.96 260.003 576.04 258.883 576.04 257.243V250.803H574.54V249.403H576.04V247.023H577.7V249.403H580.14V250.803H577.7V257.083C577.7 258.103 578.16 258.603 579 258.603C579.52 258.603 579.92 258.523 580.28 258.383V259.783C579.94 259.903 579.54 260.003 578.86 260.003ZM587.069 260.043C584.109 260.043 582.009 257.963 582.009 254.743V254.583C582.009 251.423 584.029 249.223 586.909 249.223C589.329 249.223 591.609 250.683 591.609 254.423V254.963H583.729C583.809 257.343 584.949 258.663 587.089 258.663C588.709 258.663 589.649 258.063 589.869 256.843H591.529C591.169 258.943 589.429 260.043 587.069 260.043ZM583.789 253.623H589.909C589.749 251.463 588.629 250.603 586.909 250.603C585.209 250.603 584.069 251.763 583.789 253.623ZM598.097 260.043C595.357 260.043 593.377 258.103 593.377 254.843V254.683C593.377 251.483 595.377 249.223 598.257 249.223C599.997 249.223 601.077 250.063 601.677 251.083V244.403H603.337V259.863H601.677V258.063C601.077 259.083 599.617 260.043 598.097 260.043ZM598.277 258.663C600.217 258.663 601.737 257.383 601.737 254.703V254.543C601.737 251.863 600.457 250.603 598.417 250.603C596.337 250.603 595.097 252.063 595.097 254.603V254.763C595.097 257.403 596.517 258.663 598.277 258.663ZM615.169 260.003C613.269 260.003 612.349 258.883 612.349 257.243V250.803H610.849V249.403H612.349V247.023H614.009V249.403H616.449V250.803H614.009V257.083C614.009 258.103 614.469 258.603 615.309 258.603C615.829 258.603 616.229 258.523 616.589 258.383V259.783C616.249 259.903 615.849 260.003 615.169 260.003ZM623.458 258.663C625.558 258.663 626.878 257.083 626.878 254.723V254.583C626.878 252.163 625.538 250.603 623.458 250.603C621.358 250.603 620.038 252.163 620.038 254.563V254.723C620.038 257.103 621.338 258.663 623.458 258.663ZM623.438 260.043C620.458 260.043 618.318 257.783 618.318 254.723V254.563C618.318 251.423 620.498 249.223 623.458 249.223C626.418 249.223 628.598 251.403 628.598 254.543V254.703C628.598 257.863 626.418 260.043 623.438 260.043Z" fill="black"/>
<path d="M51.1004 531.18C48.0444 531.18 46.9404 529.5 46.7324 527.548H48.0764C48.2524 528.908 48.7964 530.06 51.1004 530.06C52.5724 530.06 53.7084 529.196 53.7084 527.9C53.7084 526.604 53.1164 526.06 50.9404 525.708C48.5404 525.34 47.1164 524.588 47.1164 522.556C47.1164 520.796 48.6364 519.452 50.7964 519.452C53.0844 519.452 54.5084 520.572 54.7324 522.604H53.4844C53.2124 521.164 52.3804 520.572 50.7964 520.572C49.2284 520.572 48.4124 521.356 48.4124 522.428C48.4124 523.548 48.8284 524.124 51.1644 524.476C53.7084 524.876 55.0524 525.644 55.0524 527.804C55.0524 529.724 53.3724 531.18 51.1004 531.18ZM59.4356 531.18C57.8836 531.18 56.6516 530.428 56.6516 528.716C56.6516 526.78 58.6996 526.124 60.8436 526.124H62.0436V525.516C62.0436 524.188 61.5316 523.628 60.2516 523.628C59.0996 523.628 58.4596 524.108 58.3316 525.132H57.0036C57.1796 523.228 58.6996 522.524 60.3156 522.524C61.9156 522.524 63.3716 523.18 63.3716 525.516V531.036H62.0436V529.98C61.4196 530.764 60.6676 531.18 59.4356 531.18ZM59.5636 530.124C60.9716 530.124 62.0436 529.404 62.0436 528.108V527.068H60.8916C59.2116 527.068 57.9796 527.484 57.9796 528.716C57.9796 529.58 58.3956 530.124 59.5636 530.124ZM66.0122 531.036V522.668H67.3402V531.036H66.0122ZM66.6522 520.924C66.1722 520.924 65.7722 520.524 65.7722 520.044C65.7722 519.564 66.1722 519.164 66.6522 519.164C67.1322 519.164 67.5322 519.564 67.5322 520.044C67.5322 520.524 67.1322 520.924 66.6522 520.924ZM70.3464 531.036V523.788H69.1464V522.668H70.3464V521.308C70.3464 519.612 71.1784 518.62 72.8424 518.62C73.2744 518.62 73.4984 518.668 73.8344 518.78V519.9C73.5944 519.804 73.2584 519.724 72.8904 519.724C72.0264 519.724 71.6744 520.316 71.6744 521.164V522.668H73.7224V523.788H71.6744V531.036H70.3464ZM83.616 531.18C80.56 531.18 79.456 529.5 79.248 527.548H80.592C80.768 528.908 81.312 530.06 83.616 530.06C85.088 530.06 86.224 529.196 86.224 527.9C86.224 526.604 85.632 526.06 83.456 525.708C81.056 525.34 79.632 524.588 79.632 522.556C79.632 520.796 81.152 519.452 83.312 519.452C85.6 519.452 87.024 520.572 87.248 522.604H86C85.728 521.164 84.896 520.572 83.312 520.572C81.744 520.572 80.928 521.356 80.928 522.428C80.928 523.548 81.344 524.124 83.68 524.476C86.224 524.876 87.568 525.644 87.568 527.804C87.568 529.724 85.888 531.18 83.616 531.18ZM90.451 533.948L92.035 530.172L88.755 522.668H90.179L92.739 528.668L95.059 522.668H96.419L91.795 533.948H90.451ZM101.357 531.18C98.9894 531.18 97.3094 529.516 97.3094 526.94V526.812C97.3094 524.284 98.9254 522.524 101.229 522.524C103.165 522.524 104.989 523.692 104.989 526.684V527.116H98.6854C98.7494 529.02 99.6614 530.076 101.373 530.076C102.669 530.076 103.421 529.596 103.597 528.62H104.925C104.637 530.3 103.245 531.18 101.357 531.18ZM98.7334 526.044H103.629C103.501 524.316 102.605 523.628 101.229 523.628C99.8694 523.628 98.9574 524.556 98.7334 526.044ZM110.179 531.18C107.987 531.18 106.403 529.628 106.403 527.02V526.892C106.403 524.332 108.003 522.524 110.307 522.524C111.699 522.524 112.563 523.196 113.043 524.012V518.668H114.371V531.036H113.043V529.596C112.563 530.412 111.395 531.18 110.179 531.18ZM110.323 530.076C111.875 530.076 113.091 529.052 113.091 526.908V526.78C113.091 524.636 112.067 523.628 110.435 523.628C108.771 523.628 107.779 524.796 107.779 526.828V526.956C107.779 529.068 108.915 530.076 110.323 530.076ZM121.389 531.036V519.596H123.325L126.861 528.508L130.285 519.596H132.205V531.036H130.813V521.404L127.021 531.036H126.589L122.669 521.404V531.036H121.389ZM137.828 531.18C136.164 531.18 134.916 530.268 134.916 527.964V522.668H136.244V527.9C136.244 529.372 136.868 530.028 138.18 530.028C139.364 530.028 140.484 529.244 140.484 527.74V522.668H141.812V531.036H140.484V529.708C140.1 530.492 139.172 531.18 137.828 531.18ZM144.496 531.036V518.668H145.824V523.996C146.208 523.212 147.136 522.524 148.512 522.524C150.24 522.524 151.456 523.468 151.456 525.9V531.036H150.128V525.804C150.128 524.332 149.504 523.676 148.16 523.676C146.928 523.676 145.824 524.46 145.824 525.964V531.036H144.496ZM157.482 531.18C155.114 531.18 153.434 529.516 153.434 526.94V526.812C153.434 524.284 155.05 522.524 157.354 522.524C159.29 522.524 161.114 523.692 161.114 526.684V527.116H154.81C154.874 529.02 155.786 530.076 157.498 530.076C158.794 530.076 159.546 529.596 159.722 528.62H161.05C160.762 530.3 159.37 531.18 157.482 531.18ZM154.858 526.044H159.754C159.626 524.316 158.73 523.628 157.354 523.628C155.994 523.628 155.082 524.556 154.858 526.044ZM166.576 531.18C164.208 531.18 162.528 529.516 162.528 526.94V526.812C162.528 524.284 164.144 522.524 166.448 522.524C168.384 522.524 170.208 523.692 170.208 526.684V527.116H163.904C163.968 529.02 164.88 530.076 166.592 530.076C167.888 530.076 168.64 529.596 168.816 528.62H170.144C169.856 530.3 168.464 531.18 166.576 531.18ZM163.952 526.044H168.848C168.72 524.316 167.824 523.628 166.448 523.628C165.088 523.628 164.176 524.556 163.952 526.044ZM176.406 531.18C175.046 531.18 174.054 530.492 173.574 529.66V531.036H172.246V518.668H173.574V524.076C174.054 523.26 175.19 522.524 176.406 522.524C178.598 522.524 180.214 524.124 180.214 526.732V526.86C180.214 529.42 178.71 531.18 176.406 531.18ZM176.278 530.076C177.942 530.076 178.838 528.956 178.838 526.924V526.796C178.838 524.684 177.67 523.628 176.262 523.628C174.71 523.628 173.526 524.652 173.526 526.796V526.924C173.526 529.068 174.646 530.076 176.278 530.076ZM47.4044 555.036V543.596H54.0924V544.732H48.7964V548.78H52.9244V549.916H48.7964V555.036H47.4044ZM59.0464 554.076C60.7264 554.076 61.7824 552.812 61.7824 550.924V550.812C61.7824 548.876 60.7104 547.628 59.0464 547.628C57.3664 547.628 56.3104 548.876 56.3104 550.796V550.924C56.3104 552.828 57.3504 554.076 59.0464 554.076ZM59.0304 555.18C56.6464 555.18 54.9344 553.372 54.9344 550.924V550.796C54.9344 548.284 56.6784 546.524 59.0464 546.524C61.4144 546.524 63.1584 548.268 63.1584 550.78V550.908C63.1584 553.436 61.4144 555.18 59.0304 555.18ZM68.0466 555.18C66.3826 555.18 65.1346 554.268 65.1346 551.964V546.668H66.4626V551.9C66.4626 553.372 67.0866 554.028 68.3986 554.028C69.5826 554.028 70.7026 553.244 70.7026 551.74V546.668H72.0306V555.036H70.7026V553.708C70.3186 554.492 69.3906 555.18 68.0466 555.18ZM74.7146 555.036V546.668H76.0426V547.996C76.4266 547.212 77.3546 546.524 78.7306 546.524C80.4586 546.524 81.6746 547.468 81.6746 549.9V555.036H80.3466V549.804C80.3466 548.332 79.7226 547.676 78.3786 547.676C77.1466 547.676 76.0426 548.46 76.0426 549.964V555.036H74.7146ZM87.4291 555.18C85.2371 555.18 83.6531 553.628 83.6531 551.02V550.892C83.6531 548.332 85.2531 546.524 87.5571 546.524C88.9491 546.524 89.8131 547.196 90.2931 548.012V542.668H91.6211V555.036H90.2931V553.596C89.8131 554.412 88.6451 555.18 87.4291 555.18ZM87.5731 554.076C89.1251 554.076 90.3411 553.052 90.3411 550.908V550.78C90.3411 548.636 89.3171 547.628 87.6851 547.628C86.0211 547.628 85.0291 548.796 85.0291 550.828V550.956C85.0291 553.068 86.1651 554.076 87.5731 554.076ZM97.7324 555.18C95.3644 555.18 93.6844 553.516 93.6844 550.94V550.812C93.6844 548.284 95.3004 546.524 97.6044 546.524C99.5404 546.524 101.364 547.692 101.364 550.684V551.116H95.0604C95.1244 553.02 96.0364 554.076 97.7484 554.076C99.0444 554.076 99.7964 553.596 99.9724 552.62H101.3C101.012 554.3 99.6204 555.18 97.7324 555.18ZM95.1084 550.044H100.004C99.8764 548.316 98.9804 547.628 97.6044 547.628C96.2444 547.628 95.3324 548.556 95.1084 550.044ZM103.402 555.036V546.668H104.73V548.172C105.258 547.228 105.978 546.572 107.482 546.524V547.772C105.802 547.852 104.73 548.38 104.73 550.444V555.036H103.402ZM108.561 557.004L107.697 556.556L109.233 553.052L110.529 553.66L108.561 557.004ZM117.311 555.036V543.596H120.559C122.751 543.596 124.559 544.556 124.559 546.94V547.004C124.559 549.436 122.735 550.38 120.559 550.38H118.703V555.036H117.311ZM118.703 549.276H120.655C122.287 549.276 123.167 548.476 123.167 547.004V546.94C123.167 545.324 122.207 544.716 120.655 544.716H118.703V549.276ZM128.529 555.18C126.977 555.18 125.745 554.428 125.745 552.716C125.745 550.78 127.793 550.124 129.937 550.124H131.137V549.516C131.137 548.188 130.625 547.628 129.345 547.628C128.193 547.628 127.553 548.108 127.425 549.132H126.097C126.273 547.228 127.793 546.524 129.409 546.524C131.009 546.524 132.465 547.18 132.465 549.516V555.036H131.137V553.98C130.513 554.764 129.761 555.18 128.529 555.18ZM128.657 554.124C130.065 554.124 131.137 553.404 131.137 552.108V551.068H129.985C128.305 551.068 127.073 551.484 127.073 552.716C127.073 553.58 127.489 554.124 128.657 554.124ZM135.074 555.036V546.668H136.402V548.172C136.93 547.228 137.65 546.572 139.154 546.524V547.772C137.474 547.852 136.402 548.38 136.402 550.444V555.036H135.074ZM143.107 555.18C141.555 555.18 140.323 554.428 140.323 552.716C140.323 550.78 142.371 550.124 144.515 550.124H145.715V549.516C145.715 548.188 145.203 547.628 143.923 547.628C142.771 547.628 142.131 548.108 142.003 549.132H140.675C140.851 547.228 142.371 546.524 143.987 546.524C145.587 546.524 147.043 547.18 147.043 549.516V555.036H145.715V553.98C145.091 554.764 144.339 555.18 143.107 555.18ZM143.235 554.124C144.643 554.124 145.715 553.404 145.715 552.108V551.068H144.563C142.883 551.068 141.651 551.484 141.651 552.716C141.651 553.58 142.067 554.124 143.235 554.124ZM149.684 555.036V542.668H151.028V555.036H149.684ZM153.778 555.036V542.668H155.122V555.036H153.778ZM161.264 555.18C158.896 555.18 157.216 553.516 157.216 550.94V550.812C157.216 548.284 158.832 546.524 161.136 546.524C163.072 546.524 164.896 547.692 164.896 550.684V551.116H158.592C158.656 553.02 159.568 554.076 161.28 554.076C162.576 554.076 163.328 553.596 163.504 552.62H164.832C164.544 554.3 163.152 555.18 161.264 555.18ZM158.64 550.044H163.536C163.408 548.316 162.512 547.628 161.136 547.628C159.776 547.628 158.864 548.556 158.64 550.044ZM166.965 555.036V542.668H168.309V555.036H166.965ZM175.357 555.036V543.596H182.029V544.732H176.749V548.62H181.005V549.756H176.749V553.9H182.317V555.036H175.357ZM187.476 555.18C185.284 555.18 183.7 553.628 183.7 551.02V550.892C183.7 548.332 185.3 546.524 187.604 546.524C188.996 546.524 189.86 547.196 190.34 548.012V542.668H191.668V555.036H190.34V553.596C189.86 554.412 188.692 555.18 187.476 555.18ZM187.62 554.076C189.172 554.076 190.388 553.052 190.388 550.908V550.78C190.388 548.636 189.364 547.628 187.732 547.628C186.068 547.628 185.076 548.796 185.076 550.828V550.956C185.076 553.068 186.212 554.076 187.62 554.076ZM197.187 555.18C195.523 555.18 194.275 554.268 194.275 551.964V546.668H195.603V551.9C195.603 553.372 196.227 554.028 197.539 554.028C198.723 554.028 199.843 553.244 199.843 551.74V546.668H201.171V555.036H199.843V553.708C199.459 554.492 198.531 555.18 197.187 555.18ZM207.327 555.18C204.991 555.18 203.231 553.532 203.231 550.94V550.812C203.231 548.252 205.055 546.524 207.295 546.524C209.039 546.524 210.671 547.324 210.927 549.452H209.615C209.407 548.124 208.447 547.628 207.295 547.628C205.775 547.628 204.607 548.844 204.607 550.812V550.94C204.607 552.988 205.727 554.076 207.343 554.076C208.527 554.076 209.599 553.388 209.743 552.028H210.975C210.799 553.836 209.343 555.18 207.327 555.18ZM215.076 555.18C213.524 555.18 212.292 554.428 212.292 552.716C212.292 550.78 214.34 550.124 216.484 550.124H217.684V549.516C217.684 548.188 217.172 547.628 215.892 547.628C214.74 547.628 214.1 548.108 213.972 549.132H212.644C212.82 547.228 214.34 546.524 215.956 546.524C217.556 546.524 219.012 547.18 219.012 549.516V555.036H217.684V553.98C217.06 554.764 216.308 555.18 215.076 555.18ZM215.204 554.124C216.612 554.124 217.684 553.404 217.684 552.108V551.068H216.532C214.852 551.068 213.62 551.484 213.62 552.716C213.62 553.58 214.036 554.124 215.204 554.124ZM224.165 555.148C222.645 555.148 221.909 554.252 221.909 552.94V547.788H220.709V546.668H221.909V544.764H223.237V546.668H225.189V547.788H223.237V552.812C223.237 553.628 223.605 554.028 224.277 554.028C224.693 554.028 225.013 553.964 225.301 553.852V554.972C225.029 555.068 224.709 555.148 224.165 555.148ZM227.34 555.036V546.668H228.668V555.036H227.34ZM227.98 544.924C227.5 544.924 227.1 544.524 227.1 544.044C227.1 543.564 227.5 543.164 227.98 543.164C228.46 543.164 228.86 543.564 228.86 544.044C228.86 544.524 228.46 544.924 227.98 544.924ZM234.874 554.076C236.554 554.076 237.61 552.812 237.61 550.924V550.812C237.61 548.876 236.538 547.628 234.874 547.628C233.194 547.628 232.138 548.876 232.138 550.796V550.924C232.138 552.828 233.178 554.076 234.874 554.076ZM234.858 555.18C232.474 555.18 230.762 553.372 230.762 550.924V550.796C230.762 548.284 232.506 546.524 234.874 546.524C237.242 546.524 238.986 548.268 238.986 550.78V550.908C238.986 553.436 237.242 555.18 234.858 555.18ZM241.043 555.036V546.668H242.371V547.996C242.755 547.212 243.683 546.524 245.059 546.524C246.787 546.524 248.003 547.468 248.003 549.9V555.036H246.675V549.804C246.675 548.332 246.051 547.676 244.707 547.676C243.475 547.676 242.371 548.46 242.371 549.964V555.036H241.043ZM47.4044 579.036V567.596H49.3404L52.8764 576.508L56.3004 567.596H58.2204V579.036H56.8284V569.404L53.0364 579.036H52.6044L48.6844 569.404V579.036H47.4044ZM64.4355 579.18C62.0675 579.18 60.3875 577.516 60.3875 574.94V574.812C60.3875 572.284 62.0035 570.524 64.3075 570.524C66.2435 570.524 68.0675 571.692 68.0675 574.684V575.116H61.7635C61.8275 577.02 62.7395 578.076 64.4515 578.076C65.7475 578.076 66.4995 577.596 66.6755 576.62H68.0035C67.7155 578.3 66.3235 579.18 64.4355 579.18ZM61.8115 574.044H66.7075C66.5795 572.316 65.6835 571.628 64.3075 571.628C62.9475 571.628 62.0355 572.556 61.8115 574.044ZM70.1052 579.036V570.668H71.4332V571.996C71.8172 571.212 72.7452 570.524 74.1212 570.524C75.8492 570.524 77.0652 571.468 77.0652 573.9V579.036H75.7372V573.804C75.7372 572.332 75.1132 571.676 73.7692 571.676C72.5372 571.676 71.4332 572.46 71.4332 573.964V579.036H70.1052ZM82.2117 579.148C80.6917 579.148 79.9557 578.252 79.9557 576.94V571.788H78.7557V570.668H79.9557V568.764H81.2837V570.668H83.2357V571.788H81.2837V576.812C81.2837 577.628 81.6517 578.028 82.3237 578.028C82.7397 578.028 83.0597 577.964 83.3477 577.852V578.972C83.0757 579.068 82.7557 579.148 82.2117 579.148ZM88.8432 578.076C90.5232 578.076 91.5792 576.812 91.5792 574.924V574.812C91.5792 572.876 90.5072 571.628 88.8432 571.628C87.1632 571.628 86.1072 572.876 86.1072 574.796V574.924C86.1072 576.828 87.1472 578.076 88.8432 578.076ZM88.8272 579.18C86.4432 579.18 84.7312 577.372 84.7312 574.924V574.796C84.7312 572.284 86.4752 570.524 88.8432 570.524C91.2112 570.524 92.9552 572.268 92.9552 574.78V574.908C92.9552 577.436 91.2112 579.18 88.8272 579.18ZM95.0115 579.036V570.668H96.3395V572.172C96.8675 571.228 97.5875 570.572 99.0915 570.524V571.772C97.4115 571.852 96.3395 572.38 96.3395 574.444V579.036H95.0115Z" fill="black"/>
<path d="M214.882 366L216.482 355.824L210.594 343.12H212.482L217.634 354.352L225.794 343.12H227.65L218.242 355.952L216.674 366H214.882ZM232.502 366.256C228.022 366.256 225.174 362.96 225.174 358.736C225.174 353.424 228.726 349.04 233.942 349.04C238.518 349.04 241.27 352.336 241.27 356.496C241.27 362.032 237.782 366.256 232.502 366.256ZM232.566 364.816C236.886 364.816 239.51 361.232 239.51 356.528C239.51 353.104 237.526 350.448 233.878 350.448C229.558 350.448 226.902 354.16 226.902 358.736C226.902 362.192 228.95 364.816 232.566 364.816ZM259.129 349.264L257.241 361.328C256.921 363.44 256.825 364.88 256.857 366H255.225C255.193 365.04 255.289 363.664 255.481 362.416C254.329 364.528 252.217 366.256 249.273 366.256C245.689 366.256 243.577 363.984 244.313 359.248L245.913 349.264H247.609L245.977 359.568C245.433 363.024 246.809 364.784 249.593 364.784C252.537 364.784 255.289 362.768 255.865 359.184L257.433 349.264H259.129ZM261.473 366L263.393 353.936C263.745 351.696 263.809 350.448 263.841 349.264H265.441C265.441 350.16 265.345 351.536 265.153 353.008C266.369 350.768 268.097 349.136 271.489 349.04L271.233 350.64C267.905 350.768 265.313 352.464 264.609 356.976L263.169 366H261.473ZM279.833 366L281.753 353.936C282.105 351.696 282.169 350.448 282.201 349.264H283.801C283.801 350.16 283.705 351.536 283.513 352.88C284.665 350.768 286.809 349.008 289.753 349.008C293.337 349.008 295.545 351.152 294.777 356.016L293.177 366H291.481L293.113 355.696C293.689 352.176 292.217 350.48 289.433 350.48C286.489 350.48 283.673 352.496 283.097 356.08L281.529 366H279.833ZM303.134 366.256C299.518 366.256 297.662 364.304 297.662 361.616C297.662 357.616 301.214 356.4 305.278 356.4H309.598L309.79 355.056C310.27 352.048 309.182 350.448 305.918 350.448C303.518 350.448 301.758 351.44 301.086 354H299.39C300.222 350.32 303.23 349.008 305.982 349.008C309.982 349.008 312.126 351.088 311.486 355.184L310.526 361.2C310.174 363.44 310.11 364.816 310.174 366H308.542C308.51 365.2 308.542 364.112 308.638 363.248C307.582 364.976 305.598 366.256 303.134 366.256ZM303.326 364.88C306.142 364.88 308.51 363.248 308.926 360.464L309.374 357.712H305.31C301.79 357.712 299.358 358.48 299.358 361.616C299.358 363.44 300.574 364.88 303.326 364.88ZM314.537 366L316.457 353.936C316.809 351.696 316.873 350.448 316.905 349.264H318.505C318.505 350.16 318.441 351.44 318.249 352.752C319.401 350.64 321.321 349.008 323.913 349.008C326.537 349.008 328.329 350.32 328.649 353.136C329.897 350.48 332.329 349.008 334.729 349.008C338.121 349.008 340.329 351.056 339.529 356.048L337.961 366H336.265L337.865 355.824C338.441 352.112 337.161 350.48 334.409 350.48C331.849 350.48 329.257 352.368 328.681 355.984L327.113 366H325.417L327.017 355.728C327.593 352.208 326.281 350.48 323.561 350.48C320.937 350.48 318.377 352.464 317.833 355.984L316.233 366H314.537ZM344.413 359.12C344.413 362.736 346.173 364.816 349.789 364.816C352.445 364.816 354.333 363.632 355.197 361.328H356.893C355.837 364.624 353.085 366.256 349.725 366.256C345.149 366.256 342.653 363.376 342.653 359.056C342.653 353.488 346.109 349.008 351.197 349.008C355.901 349.008 358.333 352.176 357.533 357.264L357.469 357.776H344.477C344.413 358.224 344.413 358.672 344.413 359.12ZM351.133 350.448C347.869 350.448 345.437 352.656 344.669 356.4H355.965C356.381 352.688 354.845 350.448 351.133 350.448Z" fill="black"/>
<line x1="207.778" y1="382.5" x2="855.222" y2="382.5" stroke="black" stroke-opacity="0.5"/>
<path d="M200.862 424V414.94H199.362V413.54H200.862V411.84C200.862 409.72 201.902 408.48 203.982 408.48C204.522 408.48 204.802 408.54 205.222 408.68V410.08C204.922 409.96 204.502 409.86 204.042 409.86C202.962 409.86 202.522 410.6 202.522 411.66V413.54H205.082V414.94H202.522V424H200.862ZM211.269 422.8C213.369 422.8 214.689 421.22 214.689 418.86V418.72C214.689 416.3 213.349 414.74 211.269 414.74C209.169 414.74 207.849 416.3 207.849 418.7V418.86C207.849 421.24 209.149 422.8 211.269 422.8ZM211.249 424.18C208.269 424.18 206.129 421.92 206.129 418.86V418.7C206.129 415.56 208.309 413.36 211.269 413.36C214.229 413.36 216.409 415.54 216.409 418.68V418.84C216.409 422 214.229 424.18 211.249 424.18ZM218.979 424V413.54H220.639V415.42C221.299 414.24 222.199 413.42 224.079 413.36V414.92C221.979 415.02 220.639 415.68 220.639 418.26V424H218.979ZM235.031 424.18C232.531 424.18 231.031 422.92 230.931 420.78H232.551C232.671 422.02 233.331 422.8 235.011 422.8C236.591 422.8 237.291 422.26 237.291 421.14C237.291 420.04 236.471 419.68 234.851 419.38C232.131 418.88 231.211 418.12 231.211 416.3C231.211 414.36 233.111 413.36 234.751 413.36C236.631 413.36 238.251 414.12 238.531 416.38H236.931C236.691 415.24 236.051 414.74 234.731 414.74C233.531 414.74 232.751 415.34 232.751 416.24C232.751 417.18 233.271 417.56 235.191 417.9C237.351 418.3 238.871 418.78 238.871 421C238.871 422.9 237.571 424.18 235.031 424.18ZM244.941 424.18C242.861 424.18 241.301 423.04 241.301 420.16V413.54H242.961V420.08C242.961 421.92 243.741 422.74 245.381 422.74C246.861 422.74 248.261 421.76 248.261 419.88V413.54H249.921V424H248.261V422.34C247.781 423.32 246.621 424.18 244.941 424.18ZM257.616 424.18C254.696 424.18 252.496 422.12 252.496 418.88V418.72C252.496 415.52 254.776 413.36 257.576 413.36C259.756 413.36 261.796 414.36 262.116 417.02H260.476C260.216 415.36 259.016 414.74 257.576 414.74C255.676 414.74 254.216 416.26 254.216 418.72V418.88C254.216 421.44 255.616 422.8 257.636 422.8C259.116 422.8 260.456 421.94 260.636 420.24H262.176C261.956 422.5 260.136 424.18 257.616 424.18ZM269.022 424.18C266.102 424.18 263.902 422.12 263.902 418.88V418.72C263.902 415.52 266.182 413.36 268.982 413.36C271.162 413.36 273.202 414.36 273.522 417.02H271.882C271.622 415.36 270.422 414.74 268.982 414.74C267.082 414.74 265.622 416.26 265.622 418.72V418.88C265.622 421.44 267.022 422.8 269.042 422.8C270.522 422.8 271.862 421.94 272.042 420.24H273.582C273.362 422.5 271.542 424.18 269.022 424.18ZM280.368 424.18C277.408 424.18 275.308 422.1 275.308 418.88V418.72C275.308 415.56 277.328 413.36 280.208 413.36C282.628 413.36 284.908 414.82 284.908 418.56V419.1H277.028C277.108 421.48 278.248 422.8 280.388 422.8C282.008 422.8 282.948 422.2 283.168 420.98H284.828C284.468 423.08 282.728 424.18 280.368 424.18ZM277.088 417.76H283.208C283.048 415.6 281.928 414.74 280.208 414.74C278.508 414.74 277.368 415.9 277.088 417.76ZM290.793 424.18C288.293 424.18 286.793 422.92 286.693 420.78H288.313C288.433 422.02 289.093 422.8 290.773 422.8C292.353 422.8 293.053 422.26 293.053 421.14C293.053 420.04 292.233 419.68 290.613 419.38C287.893 418.88 286.973 418.12 286.973 416.3C286.973 414.36 288.873 413.36 290.513 413.36C292.393 413.36 294.013 414.12 294.293 416.38H292.693C292.453 415.24 291.813 414.74 290.493 414.74C289.293 414.74 288.513 415.34 288.513 416.24C288.513 417.18 289.033 417.56 290.953 417.9C293.113 418.3 294.633 418.78 294.633 421C294.633 422.9 293.333 424.18 290.793 424.18ZM300.402 424.18C297.902 424.18 296.402 422.92 296.302 420.78H297.922C298.042 422.02 298.702 422.8 300.382 422.8C301.962 422.8 302.662 422.26 302.662 421.14C302.662 420.04 301.842 419.68 300.222 419.38C297.502 418.88 296.582 418.12 296.582 416.3C296.582 414.36 298.482 413.36 300.122 413.36C302.002 413.36 303.622 414.12 303.902 416.38H302.302C302.062 415.24 301.422 414.74 300.102 414.74C298.902 414.74 298.122 415.34 298.122 416.24C298.122 417.18 298.642 417.56 300.562 417.9C302.722 418.3 304.242 418.78 304.242 421C304.242 422.9 302.942 424.18 300.402 424.18ZM307.132 424V414.94H305.632V413.54H307.132V411.84C307.132 409.72 308.172 408.48 310.252 408.48C310.792 408.48 311.072 408.54 311.492 408.68V410.08C311.192 409.96 310.772 409.86 310.312 409.86C309.232 409.86 308.792 410.6 308.792 411.66V413.54H311.352V414.94H308.792V424H307.132ZM317.226 424.18C315.146 424.18 313.586 423.04 313.586 420.16V413.54H315.246V420.08C315.246 421.92 316.026 422.74 317.666 422.74C319.146 422.74 320.546 421.76 320.546 419.88V413.54H322.206V424H320.546V422.34C320.066 423.32 318.906 424.18 317.226 424.18ZM325.601 424V408.54H327.281V424H325.601ZM330.718 424V408.54H332.398V424H330.718ZM336.735 427.64L338.715 422.92L334.615 413.54H336.395L339.595 421.04L342.495 413.54H344.195L338.415 427.64H336.735ZM356.014 424.18C353.094 424.18 350.894 422.12 350.894 418.88V418.72C350.894 415.52 353.174 413.36 355.974 413.36C358.154 413.36 360.194 414.36 360.514 417.02H358.874C358.614 415.36 357.414 414.74 355.974 414.74C354.074 414.74 352.614 416.26 352.614 418.72V418.88C352.614 421.44 354.014 422.8 356.034 422.8C357.514 422.8 358.854 421.94 359.034 420.24H360.574C360.354 422.5 358.534 424.18 356.014 424.18ZM367.44 422.8C369.54 422.8 370.86 421.22 370.86 418.86V418.72C370.86 416.3 369.52 414.74 367.44 414.74C365.34 414.74 364.02 416.3 364.02 418.7V418.86C364.02 421.24 365.32 422.8 367.44 422.8ZM367.42 424.18C364.44 424.18 362.3 421.92 362.3 418.86V418.7C362.3 415.56 364.48 413.36 367.44 413.36C370.4 413.36 372.58 415.54 372.58 418.68V418.84C372.58 422 370.4 424.18 367.42 424.18ZM375.151 424V413.54H376.811V415.14C377.291 414.16 378.431 413.36 379.931 413.36C381.271 413.36 382.451 413.92 382.991 415.32C383.711 413.96 385.271 413.36 386.571 413.36C388.451 413.36 390.091 414.48 390.091 417.52V424H388.431V417.4C388.431 415.56 387.651 414.8 386.211 414.8C384.851 414.8 383.451 415.72 383.451 417.6V424H381.791V417.4C381.791 415.56 381.011 414.8 379.571 414.8C378.211 414.8 376.811 415.72 376.811 417.6V424H375.151ZM393.354 427.64V413.54H395.014V415.3C395.614 414.28 397.034 413.36 398.554 413.36C401.294 413.36 403.314 415.36 403.314 418.62V418.78C403.314 421.98 401.434 424.18 398.554 424.18C396.834 424.18 395.614 423.32 395.014 422.28V427.64H393.354ZM398.394 422.8C400.474 422.8 401.594 421.4 401.594 418.86V418.7C401.594 416.06 400.134 414.74 398.374 414.74C396.434 414.74 394.954 416.02 394.954 418.7V418.86C394.954 421.54 396.354 422.8 398.394 422.8ZM405.933 424V408.54H407.613V424H405.933ZM415.29 424.18C412.33 424.18 410.23 422.1 410.23 418.88V418.72C410.23 415.56 412.25 413.36 415.13 413.36C417.55 413.36 419.83 414.82 419.83 418.56V419.1H411.95C412.03 421.48 413.17 422.8 415.31 422.8C416.93 422.8 417.87 422.2 418.09 420.98H419.75C419.39 423.08 417.65 424.18 415.29 424.18ZM412.01 417.76H418.13C417.97 415.6 416.85 414.74 415.13 414.74C413.43 414.74 412.29 415.9 412.01 417.76ZM425.557 424.14C423.657 424.14 422.737 423.02 422.737 421.38V414.94H421.237V413.54H422.737V411.16H424.397V413.54H426.837V414.94H424.397V421.22C424.397 422.24 424.857 422.74 425.697 422.74C426.217 422.74 426.617 422.66 426.977 422.52V423.92C426.637 424.04 426.237 424.14 425.557 424.14ZM429.527 424V413.54H431.187V424H429.527ZM430.327 411.36C429.727 411.36 429.227 410.86 429.227 410.26C429.227 409.66 429.727 409.16 430.327 409.16C430.927 409.16 431.427 409.66 431.427 410.26C431.427 410.86 430.927 411.36 430.327 411.36ZM434.584 424V413.54H436.244V415.2C436.724 414.22 437.884 413.36 439.604 413.36C441.764 413.36 443.284 414.54 443.284 417.58V424H441.624V417.46C441.624 415.62 440.844 414.8 439.164 414.8C437.624 414.8 436.244 415.78 436.244 417.66V424H434.584ZM450.717 427.82C447.617 427.82 446.257 426.36 445.977 424.6H447.677C447.917 425.8 448.917 426.42 450.697 426.42C452.757 426.42 454.057 425.44 454.057 423.2V421.68C453.457 422.7 452.037 423.66 450.517 423.66C447.777 423.66 445.757 421.58 445.757 418.7V418.56C445.757 415.72 447.757 413.36 450.637 413.36C452.377 413.36 453.457 414.2 454.057 415.22V413.54H455.717V423.3C455.697 426.34 453.637 427.82 450.717 427.82ZM450.697 422.28C452.637 422.28 454.117 420.92 454.117 418.58V418.44C454.117 416.1 452.837 414.74 450.797 414.74C448.717 414.74 447.477 416.28 447.477 418.48V418.64C447.477 420.92 448.937 422.28 450.697 422.28ZM467.549 424.14C465.649 424.14 464.729 423.02 464.729 421.38V414.94H463.229V413.54H464.729V411.16H466.389V413.54H468.829V414.94H466.389V421.22C466.389 422.24 466.849 422.74 467.689 422.74C468.209 422.74 468.609 422.66 468.969 422.52V423.92C468.629 424.04 468.229 424.14 467.549 424.14ZM471.479 424V408.54H473.139V415.2C473.619 414.22 474.779 413.36 476.499 413.36C478.659 413.36 480.179 414.54 480.179 417.58V424H478.519V417.46C478.519 415.62 477.739 414.8 476.059 414.8C474.519 414.8 473.139 415.78 473.139 417.66V424H471.479ZM487.712 424.18C484.752 424.18 482.652 422.1 482.652 418.88V418.72C482.652 415.56 484.672 413.36 487.552 413.36C489.972 413.36 492.252 414.82 492.252 418.56V419.1H484.372C484.452 421.48 485.592 422.8 487.732 422.8C489.352 422.8 490.292 422.2 490.512 420.98H492.172C491.812 423.08 490.072 424.18 487.712 424.18ZM484.432 417.76H490.552C490.392 415.6 489.272 414.74 487.552 414.74C485.852 414.74 484.712 415.9 484.432 417.76ZM506.192 424.18C502.052 424.18 499.512 421.34 499.512 416.94V416.78C499.512 412.54 502.352 409.48 506.232 409.48C509.212 409.48 511.732 411.06 512.032 414.16H510.312C509.952 411.98 508.692 410.86 506.252 410.86C503.292 410.86 501.312 413.16 501.312 416.76V416.92C501.312 420.56 503.152 422.76 506.232 422.76C508.572 422.76 510.192 421.58 510.552 419.26H512.172C511.672 422.56 509.392 424.18 506.192 424.18ZM517.517 424.18C515.577 424.18 514.037 423.24 514.037 421.1C514.037 418.68 516.597 417.86 519.277 417.86H520.777V417.1C520.777 415.44 520.137 414.74 518.537 414.74C517.097 414.74 516.297 415.34 516.137 416.62H514.477C514.697 414.24 516.597 413.36 518.617 413.36C520.617 413.36 522.437 414.18 522.437 417.1V424H520.777V422.68C519.997 423.66 519.057 424.18 517.517 424.18ZM517.677 422.86C519.437 422.86 520.777 421.96 520.777 420.34V419.04H519.337C517.237 419.04 515.697 419.56 515.697 421.1C515.697 422.18 516.217 422.86 517.677 422.86ZM525.698 424V413.54H527.358V415.42C528.018 414.24 528.918 413.42 530.798 413.36V414.92C528.698 415.02 527.358 415.68 527.358 418.26V424H525.698ZM537.204 424.18C534.244 424.18 532.144 422.1 532.144 418.88V418.72C532.144 415.56 534.164 413.36 537.044 413.36C539.464 413.36 541.744 414.82 541.744 418.56V419.1H533.864C533.944 421.48 535.084 422.8 537.224 422.8C538.844 422.8 539.784 422.2 540.004 420.98H541.664C541.304 423.08 539.564 424.18 537.204 424.18ZM533.924 417.76H540.044C539.884 415.6 538.764 414.74 537.044 414.74C535.344 414.74 534.204 415.9 533.924 417.76ZM548.571 424.18C545.611 424.18 543.511 422.1 543.511 418.88V418.72C543.511 415.56 545.531 413.36 548.411 413.36C550.831 413.36 553.111 414.82 553.111 418.56V419.1H545.231C545.311 421.48 546.451 422.8 548.591 422.8C550.211 422.8 551.151 422.2 551.371 420.98H553.031C552.671 423.08 550.931 424.18 548.571 424.18ZM545.291 417.76H551.411C551.251 415.6 550.131 414.74 548.411 414.74C546.711 414.74 545.571 415.9 545.291 417.76ZM555.659 424V413.54H557.319V415.42C557.979 414.24 558.879 413.42 560.759 413.36V414.92C558.659 415.02 557.319 415.68 557.319 418.26V424H555.659ZM570.331 422.58H572.291C575.971 422.58 577.811 420.38 577.811 416.88V416.72C577.811 413.42 576.211 411.1 572.271 411.1H570.331V422.58ZM568.591 424V409.7H572.371C577.291 409.7 579.611 412.74 579.611 416.72V416.9C579.611 420.86 577.331 424 572.331 424H568.591ZM586.677 424.18C583.717 424.18 581.617 422.1 581.617 418.88V418.72C581.617 415.56 583.637 413.36 586.517 413.36C588.937 413.36 591.217 414.82 591.217 418.56V419.1H583.337C583.417 421.48 584.557 422.8 586.697 422.8C588.317 422.8 589.257 422.2 589.477 420.98H591.137C590.777 423.08 589.037 424.18 586.677 424.18ZM583.397 417.76H589.517C589.357 415.6 588.237 414.74 586.517 414.74C584.817 414.74 583.677 415.9 583.397 417.76ZM596.286 424L592.486 413.54H594.286L597.386 422.32L600.446 413.54H602.166L598.406 424H596.286ZM608.337 424.18C605.377 424.18 603.277 422.1 603.277 418.88V418.72C603.277 415.56 605.297 413.36 608.177 413.36C610.597 413.36 612.877 414.82 612.877 418.56V419.1H604.997C605.077 421.48 606.217 422.8 608.357 422.8C609.977 422.8 610.917 422.2 611.137 420.98H612.797C612.437 423.08 610.697 424.18 608.337 424.18ZM605.057 417.76H611.177C611.017 415.6 609.897 414.74 608.177 414.74C606.477 414.74 605.337 415.9 605.057 417.76ZM615.464 424V408.54H617.144V424H615.464ZM624.901 422.8C627.001 422.8 628.321 421.22 628.321 418.86V418.72C628.321 416.3 626.981 414.74 624.901 414.74C622.801 414.74 621.481 416.3 621.481 418.7V418.86C621.481 421.24 622.781 422.8 624.901 422.8ZM624.881 424.18C621.901 424.18 619.761 421.92 619.761 418.86V418.7C619.761 415.56 621.941 413.36 624.901 413.36C627.861 413.36 630.041 415.54 630.041 418.68V418.84C630.041 422 627.861 424.18 624.881 424.18ZM632.612 427.64V413.54H634.272V415.3C634.872 414.28 636.292 413.36 637.812 413.36C640.552 413.36 642.572 415.36 642.572 418.62V418.78C642.572 421.98 640.692 424.18 637.812 424.18C636.092 424.18 634.872 423.32 634.272 422.28V427.64H632.612ZM637.652 422.8C639.732 422.8 640.852 421.4 640.852 418.86V418.7C640.852 416.06 639.392 414.74 637.632 414.74C635.692 414.74 634.212 416.02 634.212 418.7V418.86C634.212 421.54 635.612 422.8 637.652 422.8ZM645.151 424V413.54H646.811V415.14C647.291 414.16 648.431 413.36 649.931 413.36C651.271 413.36 652.451 413.92 652.991 415.32C653.711 413.96 655.271 413.36 656.571 413.36C658.451 413.36 660.091 414.48 660.091 417.52V424H658.431V417.4C658.431 415.56 657.651 414.8 656.211 414.8C654.851 414.8 653.451 415.72 653.451 417.6V424H651.791V417.4C651.791 415.56 651.011 414.8 649.571 414.8C648.211 414.8 646.811 415.72 646.811 417.6V424H645.151ZM667.634 424.18C664.674 424.18 662.574 422.1 662.574 418.88V418.72C662.574 415.56 664.594 413.36 667.474 413.36C669.894 413.36 672.174 414.82 672.174 418.56V419.1H664.294C664.374 421.48 665.514 422.8 667.654 422.8C669.274 422.8 670.214 422.2 670.434 420.98H672.094C671.734 423.08 669.994 424.18 667.634 424.18ZM664.354 417.76H670.474C670.314 415.6 669.194 414.74 667.474 414.74C665.774 414.74 664.634 415.9 664.354 417.76ZM674.721 424V413.54H676.381V415.2C676.861 414.22 678.021 413.36 679.741 413.36C681.901 413.36 683.421 414.54 683.421 417.58V424H681.761V417.46C681.761 415.62 680.981 414.8 679.301 414.8C677.761 414.8 676.381 415.78 676.381 417.66V424H674.721ZM689.854 424.14C687.954 424.14 687.034 423.02 687.034 421.38V414.94H685.534V413.54H687.034V411.16H688.694V413.54H691.134V414.94H688.694V421.22C688.694 422.24 689.154 422.74 689.994 422.74C690.514 422.74 690.914 422.66 691.274 422.52V423.92C690.934 424.04 690.534 424.14 689.854 424.14ZM701.696 424.18C699.756 424.18 698.216 423.24 698.216 421.1C698.216 418.68 700.776 417.86 703.456 417.86H704.956V417.1C704.956 415.44 704.316 414.74 702.716 414.74C701.276 414.74 700.476 415.34 700.316 416.62H698.656C698.876 414.24 700.776 413.36 702.796 413.36C704.796 413.36 706.616 414.18 706.616 417.1V424H704.956V422.68C704.176 423.66 703.236 424.18 701.696 424.18ZM701.856 422.86C703.616 422.86 704.956 421.96 704.956 420.34V419.04H703.516C701.416 419.04 699.876 419.56 699.876 421.1C699.876 422.18 700.396 422.86 701.856 422.86ZM709.877 424V413.54H711.537V415.2C712.017 414.22 713.177 413.36 714.897 413.36C717.057 413.36 718.577 414.54 718.577 417.58V424H716.917V417.46C716.917 415.62 716.137 414.8 714.457 414.8C712.917 414.8 711.537 415.78 711.537 417.66V424H709.877ZM725.77 424.18C723.03 424.18 721.05 422.24 721.05 418.98V418.82C721.05 415.62 723.05 413.36 725.93 413.36C727.67 413.36 728.75 414.2 729.35 415.22V408.54H731.01V424H729.35V422.2C728.75 423.22 727.29 424.18 725.77 424.18ZM725.95 422.8C727.89 422.8 729.41 421.52 729.41 418.84V418.68C729.41 416 728.13 414.74 726.09 414.74C724.01 414.74 722.77 416.2 722.77 418.74V418.9C722.77 421.54 724.19 422.8 725.95 422.8ZM738.702 424L743.622 409.7H745.902L750.742 424H749.022L747.622 419.88H741.722L740.342 424H738.702ZM744.682 411.14L742.202 418.5H747.162L744.682 411.14ZM753.359 424V409.7H755.099V424H753.359ZM766.079 424L762.859 413.54H764.659L767.099 421.96L769.639 413.54H771.079L773.459 421.96L775.919 413.54H777.619L774.359 424H772.519L770.339 416.16L767.899 424H766.079ZM784.022 422.8C786.122 422.8 787.442 421.22 787.442 418.86V418.72C787.442 416.3 786.102 414.74 784.022 414.74C781.922 414.74 780.602 416.3 780.602 418.7V418.86C780.602 421.24 781.902 422.8 784.022 422.8ZM784.002 424.18C781.022 424.18 778.882 421.92 778.882 418.86V418.7C778.882 415.56 781.062 413.36 784.022 413.36C786.982 413.36 789.162 415.54 789.162 418.68V418.84C789.162 422 786.982 424.18 784.002 424.18ZM791.733 424V413.54H793.393V415.42C794.053 414.24 794.953 413.42 796.833 413.36V414.92C794.733 415.02 793.393 415.68 793.393 418.26V424H791.733ZM799.252 424V408.54H800.912V418.36L805.252 413.54H807.192L802.712 418.4L807.572 424H805.552L800.912 418.58V424H799.252ZM812.609 424.18C810.109 424.18 808.609 422.92 808.509 420.78H810.129C810.249 422.02 810.909 422.8 812.589 422.8C814.169 422.8 814.869 422.26 814.869 421.14C814.869 420.04 814.049 419.68 812.429 419.38C809.709 418.88 808.789 418.12 808.789 416.3C808.789 414.36 810.689 413.36 812.329 413.36C814.209 413.36 815.829 414.12 816.109 416.38H814.509C814.269 415.24 813.629 414.74 812.309 414.74C811.109 414.74 810.329 415.34 810.329 416.24C810.329 417.18 810.849 417.56 812.769 417.9C814.929 418.3 816.449 418.78 816.449 421C816.449 422.9 815.149 424.18 812.609 424.18ZM818.979 424V408.54H820.639V415.2C821.119 414.22 822.279 413.36 823.999 413.36C826.159 413.36 827.679 414.54 827.679 417.58V424H826.019V417.46C826.019 415.62 825.239 414.8 823.559 414.8C822.019 414.8 820.639 415.78 820.639 417.66V424H818.979ZM835.292 422.8C837.392 422.8 838.712 421.22 838.712 418.86V418.72C838.712 416.3 837.372 414.74 835.292 414.74C833.192 414.74 831.872 416.3 831.872 418.7V418.86C831.872 421.24 833.172 422.8 835.292 422.8ZM835.272 424.18C832.292 424.18 830.152 421.92 830.152 418.86V418.7C830.152 415.56 832.332 413.36 835.292 413.36C838.252 413.36 840.432 415.54 840.432 418.68V418.84C840.432 422 838.252 424.18 835.272 424.18ZM843.002 427.64V413.54H844.662V415.3C845.262 414.28 846.682 413.36 848.202 413.36C850.942 413.36 852.962 415.36 852.962 418.62V418.78C852.962 421.98 851.082 424.18 848.202 424.18C846.482 424.18 845.262 423.32 844.662 422.28V427.64H843.002ZM848.042 422.8C850.122 422.8 851.242 421.4 851.242 418.86V418.7C851.242 416.06 849.782 414.74 848.022 414.74C846.082 414.74 844.602 416.02 844.602 418.7V418.86C844.602 421.54 846.002 422.8 848.042 422.8ZM856.291 424.1C855.591 424.1 855.011 423.54 855.011 422.82C855.011 422.1 855.591 421.54 856.291 421.54C856.991 421.54 857.571 422.1 857.571 422.82C857.571 423.54 856.991 424.1 856.291 424.1Z" fill="black"/>
<g opacity="0.2">
<g style="mix-blend-mode:color-dodge">
<path d="M787.206 44.4744L743.048 44.4744L698.55 88.9731H742.707L787.206 44.4744ZM787.206 -0.848694H743.048L698.55 43.65H742.707L787.206 -0.848694Z" stroke="#2E2E2E" stroke-width="0.824392"/>
</g>
<g style="mix-blend-mode:color-dodge">
<path d="M787.206 135.12H743.048L698.55 179.619H742.707L787.206 135.12ZM787.206 89.7968H743.048L698.55 134.295H742.707L787.206 89.7968Z" stroke="#777777" stroke-width="0.824392"/>
</g>
<g style="mix-blend-mode:color-dodge">
<path d="M787.206 225.766H743.048L698.55 270.265H742.707L787.206 225.766ZM787.206 180.443H743.048L698.55 224.942H742.707L787.206 180.443Z" stroke="#2E2E2E" stroke-width="0.824392"/>
</g>
<g style="mix-blend-mode:color-dodge">
<path d="M787.206 316.412H743.048L698.55 360.911H742.707L787.206 316.412ZM787.206 271.089H743.048L698.55 315.588H742.707L787.206 271.089Z" stroke="#777777" stroke-width="0.824392"/>
</g>
<g style="mix-blend-mode:color-dodge">
<path d="M787.206 407.059H743.048L698.55 451.558H742.707L787.206 407.059ZM787.206 361.736H743.048L698.55 406.234H742.707L787.206 361.736Z" stroke="#2E2E2E" stroke-width="0.824392"/>
</g>
<g style="mix-blend-mode:color-dodge">
<path d="M787.206 497.704H743.048L698.55 542.203H742.707L787.206 497.704ZM787.206 452.381H743.048L698.55 496.88H742.707L787.206 452.381Z" stroke="#777777" stroke-width="0.824392"/>
</g>
<g style="mix-blend-mode:color-dodge">
<path d="M787.206 588.351H743.048L698.55 632.85H742.707L787.206 588.351ZM787.206 543.028H743.048L698.55 587.526H742.707L787.206 543.028Z" stroke="#777777" stroke-width="0.824392"/>
</g>
</g>
<g opacity="0.5">
<g style="mix-blend-mode:color-dodge">
<path d="M877.852 44.4744L833.695 44.4744L789.196 88.9731H833.354L877.852 44.4744ZM877.852 -0.848694H833.695L789.196 43.65H833.354L877.852 -0.848694Z" stroke="#2E2E2E" stroke-width="0.824392"/>
</g>
<g style="mix-blend-mode:color-dodge">
<path d="M877.852 135.12H833.695L789.196 179.619H833.354L877.852 135.12ZM877.852 89.7968H833.695L789.196 134.295H833.354L877.852 89.7968Z" stroke="#777777" stroke-width="0.824392"/>
</g>
<g style="mix-blend-mode:color-dodge">
<path d="M877.852 225.766H833.695L789.196 270.265H833.354L877.852 225.766ZM877.852 180.443H833.695L789.196 224.942H833.354L877.852 180.443Z" stroke="#2E2E2E" stroke-width="0.824392"/>
</g>
<g style="mix-blend-mode:color-dodge">
<path d="M877.852 316.412H833.695L789.196 360.911H833.354L877.852 316.412ZM877.852 271.089H833.695L789.196 315.588H833.354L877.852 271.089Z" stroke="#777777" stroke-width="0.824392"/>
</g>
<g style="mix-blend-mode:color-dodge">
<path d="M877.852 407.059H833.695L789.196 451.558H833.354L877.852 407.059ZM877.852 361.736H833.695L789.196 406.234H833.354L877.852 361.736Z" stroke="#2E2E2E" stroke-width="0.824392"/>
</g>
<g style="mix-blend-mode:color-dodge">
<path d="M877.852 497.704H833.695L789.196 542.203H833.354L877.852 497.704ZM877.852 452.381H833.695L789.196 496.88H833.354L877.852 452.381Z" stroke="#3C3C3C" stroke-width="0.824392"/>
</g>
<g style="mix-blend-mode:color-dodge">
<path d="M877.852 588.351H833.695L789.196 632.85H833.354L877.852 588.351ZM877.852 543.028H833.695L789.196 587.526H833.354L877.852 543.028Z" stroke="#777777" stroke-width="0.824392"/>
</g>
</g>
<g style="mix-blend-mode:color-dodge">
<path d="M968.498 44.4744L924.34 44.4744L879.842 88.9731H923.999L968.498 44.4744ZM968.498 -0.848694H924.34L879.842 43.65H923.999L968.498 -0.848694Z" stroke="#2E2E2E" stroke-width="0.824392"/>
</g>
<g style="mix-blend-mode:color-dodge">
<path d="M968.498 135.12H924.34L879.842 179.619H923.999L968.498 135.12ZM968.498 89.7968H924.34L879.842 134.295H923.999L968.498 89.7968Z" stroke="#2E2E2E" stroke-width="0.824392"/>
</g>
<g style="mix-blend-mode:color-dodge">
<path d="M968.498 225.766H924.34L879.842 270.265H923.999L968.498 225.766ZM968.498 180.443H924.34L879.842 224.942H923.999L968.498 180.443Z" stroke="#777777" stroke-width="0.824392"/>
</g>
<g style="mix-blend-mode:color-dodge">
<path d="M968.498 316.412H924.34L879.842 360.911H923.999L968.498 316.412ZM968.498 271.089H924.34L879.842 315.588H923.999L968.498 271.089Z" stroke="#2E2E2E" stroke-width="0.824392"/>
</g>
<g style="mix-blend-mode:color-dodge">
<path d="M968.498 407.059H924.34L879.842 451.558H923.999L968.498 407.059ZM968.498 361.736H924.34L879.842 406.234H923.999L968.498 361.736Z" stroke="#3C3C3C" stroke-width="0.824392"/>
</g>
<g style="mix-blend-mode:color-dodge">
<path d="M968.498 497.704H924.34L879.842 542.203H923.999L968.498 497.704ZM968.498 452.381H924.34L879.842 496.88H923.999L968.498 452.381Z" stroke="#777777" stroke-width="0.824392"/>
</g>
<g style="mix-blend-mode:color-dodge">
<path d="M968.498 588.351H924.34L879.842 632.85H923.999L968.498 588.351ZM968.498 543.028H924.34L879.842 587.526H923.999L968.498 543.028Z" stroke="#3C3C3C" stroke-width="0.824392"/>
</g>
<g style="mix-blend-mode:color-dodge">
<path d="M1059.14 44.4744L1014.99 44.4744L970.488 88.9731H1014.65L1059.14 44.4744ZM1059.14 -0.848694H1014.99L970.488 43.65H1014.65L1059.14 -0.848694Z" stroke="#777777" stroke-width="0.824392"/>
</g>
<g style="mix-blend-mode:color-dodge">
<path d="M1059.14 135.12H1014.99L970.488 179.619H1014.65L1059.14 135.12ZM1059.14 89.7968H1014.99L970.488 134.295H1014.65L1059.14 89.7968Z" stroke="#2E2E2E" stroke-width="0.824392"/>
</g>
<g style="mix-blend-mode:color-dodge">
<path d="M1059.14 225.766H1014.99L970.488 270.265H1014.65L1059.14 225.766ZM1059.14 180.443H1014.99L970.488 224.942H1014.65L1059.14 180.443Z" stroke="#2E2E2E" stroke-width="0.824392"/>
</g>
<g style="mix-blend-mode:color-dodge">
<path d="M1059.14 316.412H1014.99L970.488 360.911H1014.65L1059.14 316.412ZM1059.14 271.089H1014.99L970.488 315.588H1014.65L1059.14 271.089Z" stroke="#2E2E2E" stroke-width="0.824392"/>
</g>
<g style="mix-blend-mode:color-dodge">
<path d="M1059.14 407.059H1014.99L970.488 451.558H1014.65L1059.14 407.059ZM1059.14 361.736H1014.99L970.488 406.234H1014.65L1059.14 361.736Z" stroke="#777777" stroke-width="0.824392"/>
</g>
<g style="mix-blend-mode:color-dodge">
<path d="M1059.14 497.704H1014.99L970.488 542.203H1014.65L1059.14 497.704ZM1059.14 452.381H1014.99L970.488 496.88H1014.65L1059.14 452.381Z" stroke="#3C3C3C" stroke-width="0.824392"/>
</g>
<g style="mix-blend-mode:color-dodge">
<path d="M1059.14 588.351H1014.99L970.488 632.85H1014.65L1059.14 588.351ZM1059.14 543.028H1014.99L970.488 587.526H1014.65L1059.14 543.028Z" stroke="#777777" stroke-width="0.824392"/>
</g>
<path d="M838.74 531.036V519.596H840.548L846.116 529.052V519.596H847.444V531.036H845.844L840.068 521.228V531.036H838.74ZM852.318 531.18C850.766 531.18 849.534 530.428 849.534 528.716C849.534 526.78 851.582 526.124 853.726 526.124H854.926V525.516C854.926 524.188 854.414 523.628 853.134 523.628C851.982 523.628 851.342 524.108 851.214 525.132H849.886C850.062 523.228 851.582 522.524 853.198 522.524C854.798 522.524 856.254 523.18 856.254 525.516V531.036H854.926V529.98C854.302 530.764 853.55 531.18 852.318 531.18ZM852.446 530.124C853.854 530.124 854.926 529.404 854.926 528.108V527.068H853.774C852.094 527.068 850.862 527.484 850.862 528.716C850.862 529.58 851.278 530.124 852.446 530.124ZM858.863 531.036V522.668H860.191V523.948C860.575 523.164 861.487 522.524 862.687 522.524C863.759 522.524 864.703 522.972 865.135 524.092C865.711 523.004 866.959 522.524 867.999 522.524C869.503 522.524 870.815 523.42 870.815 525.852V531.036H869.487V525.756C869.487 524.284 868.863 523.676 867.711 523.676C866.623 523.676 865.503 524.412 865.503 525.916V531.036H864.175V525.756C864.175 524.284 863.551 523.676 862.399 523.676C861.311 523.676 860.191 524.412 860.191 525.916V531.036H858.863ZM876.85 531.18C874.482 531.18 872.802 529.516 872.802 526.94V526.812C872.802 524.284 874.418 522.524 876.722 522.524C878.658 522.524 880.482 523.692 880.482 526.684V527.116H874.178C874.242 529.02 875.154 530.076 876.866 530.076C878.162 530.076 878.914 529.596 879.09 528.62H880.418C880.13 530.3 878.738 531.18 876.85 531.18ZM874.226 526.044H879.122C878.994 524.316 878.098 523.628 876.722 523.628C875.362 523.628 874.45 524.556 874.226 526.044ZM838.74 555.036V543.596H841.988C844.18 543.596 845.988 544.556 845.988 546.94V547.004C845.988 549.436 844.164 550.38 841.988 550.38H840.132V555.036H838.74ZM840.132 549.276H842.084C843.716 549.276 844.596 548.476 844.596 547.004V546.94C844.596 545.324 843.636 544.716 842.084 544.716H840.132V549.276ZM847.941 555.036V546.668H849.269V548.172C849.797 547.228 850.517 546.572 852.021 546.524V547.772C850.341 547.852 849.269 548.38 849.269 550.444V555.036H847.941ZM853.989 555.036V546.668H855.317V555.036H853.989ZM854.629 544.924C854.149 544.924 853.749 544.524 853.749 544.044C853.749 543.564 854.149 543.164 854.629 543.164C855.109 543.164 855.509 543.564 855.509 544.044C855.509 544.524 855.109 544.924 854.629 544.924ZM858.035 555.036V546.668H859.363V547.996C859.747 547.212 860.675 546.524 862.051 546.524C863.779 546.524 864.995 547.468 864.995 549.9V555.036H863.667V549.804C863.667 548.332 863.043 547.676 861.699 547.676C860.467 547.676 859.363 548.46 859.363 549.964V555.036H858.035ZM871.069 555.18C868.733 555.18 866.973 553.532 866.973 550.94V550.812C866.973 548.252 868.797 546.524 871.037 546.524C872.781 546.524 874.413 547.324 874.669 549.452H873.357C873.149 548.124 872.189 547.628 871.037 547.628C869.517 547.628 868.349 548.844 868.349 550.812V550.94C868.349 552.988 869.469 554.076 871.085 554.076C872.269 554.076 873.341 553.388 873.485 552.028H874.717C874.541 553.836 873.085 555.18 871.069 555.18ZM876.754 555.036V546.668H878.082V555.036H876.754ZM877.394 544.924C876.914 544.924 876.514 544.524 876.514 544.044C876.514 543.564 876.914 543.164 877.394 543.164C877.874 543.164 878.274 543.564 878.274 544.044C878.274 544.524 877.874 544.924 877.394 544.924ZM880.801 557.948V546.668H882.129V548.076C882.609 547.26 883.745 546.524 884.961 546.524C887.153 546.524 888.769 548.124 888.769 550.732V550.86C888.769 553.42 887.265 555.18 884.961 555.18C883.585 555.18 882.609 554.492 882.129 553.66V557.948H880.801ZM884.833 554.076C886.497 554.076 887.393 552.956 887.393 550.924V550.796C887.393 548.684 886.225 547.628 884.817 547.628C883.265 547.628 882.081 548.652 882.081 550.796V550.924C882.081 553.068 883.201 554.076 884.833 554.076ZM892.928 555.18C891.376 555.18 890.144 554.428 890.144 552.716C890.144 550.78 892.192 550.124 894.336 550.124H895.536V549.516C895.536 548.188 895.024 547.628 893.744 547.628C892.592 547.628 891.952 548.108 891.824 549.132H890.496C890.672 547.228 892.192 546.524 893.808 546.524C895.408 546.524 896.864 547.18 896.864 549.516V555.036H895.536V553.98C894.912 554.764 894.16 555.18 892.928 555.18ZM893.056 554.124C894.464 554.124 895.536 553.404 895.536 552.108V551.068H894.384C892.704 551.068 891.472 551.484 891.472 552.716C891.472 553.58 891.888 554.124 893.056 554.124ZM899.504 555.036V542.668H900.848V555.036H899.504ZM903.662 557.004L902.798 556.556L904.334 553.052L905.63 553.66L903.662 557.004ZM917.196 555.18C913.884 555.18 911.852 552.908 911.852 549.388V549.26C911.852 545.868 914.124 543.42 917.228 543.42C919.612 543.42 921.628 544.684 921.868 547.164H920.492C920.204 545.42 919.196 544.524 917.244 544.524C914.876 544.524 913.292 546.364 913.292 549.244V549.372C913.292 552.284 914.764 554.044 917.228 554.044C919.1 554.044 920.396 553.1 920.684 551.244H921.98C921.58 553.884 919.756 555.18 917.196 555.18ZM927.492 554.076C929.172 554.076 930.228 552.812 930.228 550.924V550.812C930.228 548.876 929.156 547.628 927.492 547.628C925.812 547.628 924.756 548.876 924.756 550.796V550.924C924.756 552.828 925.796 554.076 927.492 554.076ZM927.476 555.18C925.092 555.18 923.38 553.372 923.38 550.924V550.796C923.38 548.284 925.124 546.524 927.492 546.524C929.86 546.524 931.604 548.268 931.604 550.78V550.908C931.604 553.436 929.86 555.18 927.476 555.18ZM933.692 555.036V542.668H935.036V555.036H933.692ZM937.786 555.036V542.668H939.13V555.036H937.786ZM945.271 555.18C942.903 555.18 941.223 553.516 941.223 550.94V550.812C941.223 548.284 942.839 546.524 945.143 546.524C947.079 546.524 948.903 547.692 948.903 550.684V551.116H942.599C942.663 553.02 943.575 554.076 945.287 554.076C946.583 554.076 947.335 553.596 947.511 552.62H948.839C948.551 554.3 947.159 555.18 945.271 555.18ZM942.647 550.044H947.543C947.415 548.316 946.519 547.628 945.143 547.628C943.783 547.628 942.871 548.556 942.647 550.044ZM954.285 558.092C951.805 558.092 950.717 556.924 950.493 555.516H951.853C952.045 556.476 952.845 556.972 954.269 556.972C955.917 556.972 956.957 556.188 956.957 554.396V553.18C956.477 553.996 955.341 554.764 954.125 554.764C951.933 554.764 950.317 553.1 950.317 550.796V550.684C950.317 548.412 951.917 546.524 954.221 546.524C955.613 546.524 956.477 547.196 956.957 548.012V546.668H958.285V554.476C958.269 556.908 956.621 558.092 954.285 558.092ZM954.269 553.66C955.821 553.66 957.005 552.572 957.005 550.7V550.588C957.005 548.716 955.981 547.628 954.349 547.628C952.685 547.628 951.693 548.86 951.693 550.62V550.748C951.693 552.572 952.861 553.66 954.269 553.66ZM964.396 555.18C962.028 555.18 960.348 553.516 960.348 550.94V550.812C960.348 548.284 961.964 546.524 964.268 546.524C966.204 546.524 968.028 547.692 968.028 550.684V551.116H961.724C961.788 553.02 962.7 554.076 964.412 554.076C965.708 554.076 966.46 553.596 966.636 552.62H967.964C967.676 554.3 966.284 555.18 964.396 555.18ZM961.772 550.044H966.668C966.54 548.316 965.644 547.628 964.268 547.628C962.908 547.628 961.996 548.556 961.772 550.044ZM974.301 555.036V546.668H975.629V547.996C976.013 547.212 976.941 546.524 978.317 546.524C980.045 546.524 981.261 547.468 981.261 549.9V555.036H979.933V549.804C979.933 548.332 979.309 547.676 977.965 547.676C976.733 547.676 975.629 548.46 975.629 549.964V555.036H974.301ZM985.959 555.18C984.407 555.18 983.175 554.428 983.175 552.716C983.175 550.78 985.223 550.124 987.367 550.124H988.567V549.516C988.567 548.188 988.055 547.628 986.775 547.628C985.623 547.628 984.983 548.108 984.855 549.132H983.527C983.703 547.228 985.223 546.524 986.839 546.524C988.439 546.524 989.895 547.18 989.895 549.516V555.036H988.567V553.98C987.943 554.764 987.191 555.18 985.959 555.18ZM986.087 554.124C987.495 554.124 988.567 553.404 988.567 552.108V551.068H987.415C985.735 551.068 984.503 551.484 984.503 552.716C984.503 553.58 984.919 554.124 986.087 554.124ZM992.504 555.036V546.668H993.832V547.948C994.216 547.164 995.128 546.524 996.328 546.524C997.4 546.524 998.344 546.972 998.776 548.092C999.352 547.004 1000.6 546.524 1001.64 546.524C1003.14 546.524 1004.46 547.42 1004.46 549.852V555.036H1003.13V549.756C1003.13 548.284 1002.5 547.676 1001.35 547.676C1000.26 547.676 999.144 548.412 999.144 549.916V555.036H997.816V549.756C997.816 548.284 997.192 547.676 996.04 547.676C994.952 547.676 993.832 548.412 993.832 549.916V555.036H992.504ZM1010.49 555.18C1008.12 555.18 1006.44 553.516 1006.44 550.94V550.812C1006.44 548.284 1008.06 546.524 1010.36 546.524C1012.3 546.524 1014.12 547.692 1014.12 550.684V551.116H1007.82C1007.88 553.02 1008.79 554.076 1010.51 554.076C1011.8 554.076 1012.55 553.596 1012.73 552.62H1014.06C1013.77 554.3 1012.38 555.18 1010.49 555.18ZM1007.87 550.044H1012.76C1012.63 548.316 1011.74 547.628 1010.36 547.628C1009 547.628 1008.09 548.556 1007.87 550.044Z" fill="black"/>
</g>
<defs>
<filter id="filter0_f_2075_7596" x="274.672" y="-756.691" width="1612.6" height="1612.6" filterUnits="userSpaceOnUse" color-interpolation-filters="sRGB">
<feFlood flood-opacity="0" result="BackgroundImageFix"/>
<feBlend mode="normal" in="SourceGraphic" in2="BackgroundImageFix" result="shape"/>
<feGaussianBlur stdDeviation="163.4" result="effect1_foregroundBlur_2075_7596"/>
</filter>
<radialGradient id="paint0_radial_2075_7596" cx="0" cy="0" r="1" gradientUnits="userSpaceOnUse" gradientTransform="translate(1080.97 49.6089) rotate(90) scale(479.5)">
<stop stop-color="#1BD44F"/>
<stop offset="1" stop-color="#ABA9FF" stop-opacity="0.43"/>
</radialGradient>
<linearGradient id="paint1_linear_2075_7596" x1="47.8822" y1="66.8225" x2="55.3196" y2="49.6088" gradientUnits="userSpaceOnUse">
<stop stop-color="#201DA7"/>
<stop offset="1" stop-color="#30E29D"/>
</linearGradient>
<clipPath id="clip0_2075_7596">
<rect width="1063" height="632" rx="13" fill="white"/>
</clipPath>
<clipPath id="clip1_2075_7596">
<rect width="18.7105" height="18.7105" fill="white" transform="translate(45.9644 49.6089)"/>
</clipPath>
</defs>
</svg>
