<svg width="46" height="53" viewBox="0 0 46 53" fill="none" xmlns="http://www.w3.org/2000/svg">
<path d="M44.6412 48.0688C44.6412 49.1031 44.2301 50.0952 43.4991 50.8267C42.7672 51.5577 41.7755 51.9688 40.7412 51.9688H5.64121C4.60691 51.9688 3.6148 51.5577 2.88335 50.8267C2.1519 50.0952 1.74121 49.1031 1.74121 48.0688V5.1688C1.74121 4.1345 2.1519 3.14239 2.88335 2.41094C3.6148 1.67989 4.60691 1.2688 5.64121 1.2688H27.4259C28.4602 1.2688 29.4519 1.67989 30.1834 2.41094L43.4991 15.7267C44.2301 16.4581 44.6412 17.4498 44.6412 18.4841V48.0688Z" stroke="white" stroke-width="2" stroke-linecap="round" stroke-linejoin="round"/>
<path d="M25.3701 24.1813H35.1201" stroke="white" stroke-width="2" stroke-linecap="round" stroke-linejoin="round"/>
<path d="M25.3701 37.7095H35.1201" stroke="white" stroke-width="2" stroke-linecap="round" stroke-linejoin="round"/>
<path d="M10.2881 37.4886L13.5557 40.7562L19.0018 33.1313" stroke="white" stroke-width="2" stroke-linecap="round" stroke-linejoin="round"/>
<path d="M10.2881 23.7165L13.5557 26.9845L19.0018 19.3596" stroke="white" stroke-width="2" stroke-linecap="round" stroke-linejoin="round"/>
</svg>
