<svg width="65" height="21" viewBox="0 0 65 21" fill="none" xmlns="http://www.w3.org/2000/svg">
<mask id="mask0_759_3320" style="mask-type:luminance" maskUnits="userSpaceOnUse" x="0" y="0" width="65" height="21">
<path d="M64.8596 0.989502H0.921875V20.9895H64.8596V0.989502Z" fill="white"/>
</mask>
<g mask="url(#mask0_759_3320)">
<path d="M12.3028 2.94091C11.3697 2.01112 10.1821 1.37839 8.88987 1.12248C7.59765 0.866574 6.2586 0.99888 5.04146 1.50279C3.82433 2.00669 2.78362 2.85956 2.0505 3.9541C1.31739 5.04864 0.924676 6.33562 0.921875 7.65283H7.59363V14.3247C8.91124 14.3225 10.1985 13.9301 11.2936 13.1972C12.3884 12.4643 13.2418 11.4236 13.746 10.2064C14.2504 8.98904 14.3828 7.64983 14.1269 6.35731C13.8712 5.06494 13.2383 3.87703 12.3083 2.94376L12.3028 2.94091Z" fill="white" fill-opacity="0.8"/>
<path d="M2.87476 19.0366C3.49353 19.6554 4.22845 20.1459 5.0373 20.4798C5.84616 20.8138 6.713 20.9847 7.58808 20.9826V14.3247H0.921878C0.921102 15.2001 1.09323 16.0668 1.42835 16.8756C1.76348 17.6841 2.25503 18.4186 2.87476 19.0366Z" fill="white" fill-opacity="0.8"/>
<path d="M20.7315 18.8141C19.953 18.4704 19.3809 18.0585 19.0148 17.5784C18.6257 17.1212 18.4422 16.7321 18.4422 16.3886C18.437 16.3192 18.4489 16.2495 18.4771 16.1857C18.5052 16.122 18.5486 16.0661 18.6035 16.0232C18.648 15.9776 18.7015 15.9417 18.7605 15.9178C18.8197 15.8939 18.883 15.8825 18.9468 15.8841H20.8231C20.8867 15.8888 20.9485 15.9078 21.0039 15.9396C21.0593 15.9713 21.1067 16.0151 21.1428 16.0677C21.211 16.1357 21.3945 16.2734 21.6697 16.5027C21.9352 16.7387 22.2465 16.9175 22.5843 17.028C22.9413 17.1687 23.3222 17.2385 23.7059 17.2337C24.3231 17.2337 24.804 17.1198 25.1932 16.8682C25.3728 16.7704 25.5216 16.6243 25.6227 16.4466C25.7239 16.2688 25.7734 16.0663 25.7658 15.8619C25.7702 15.5885 25.681 15.3216 25.5129 15.1058C25.2391 14.8687 24.9199 14.69 24.5747 14.5803C24.1173 14.4192 23.4308 14.2592 22.5384 14.0536C21.2346 13.7756 20.2964 13.3669 19.6778 12.7956C19.0593 12.2245 18.7396 11.4906 18.7396 10.5523C18.7436 9.92966 18.9376 9.32288 19.2956 8.81344C19.7161 8.23436 20.2825 7.77683 20.9372 7.48752C21.6461 7.1441 22.5162 6.98425 23.5224 6.98425C24.4381 6.96304 25.3486 7.12653 26.1994 7.46521C26.9556 7.80848 27.5269 8.1978 27.9161 8.65502C28.3053 9.11224 28.4887 9.52372 28.4887 9.86699C28.4903 9.93076 28.4787 9.99407 28.4548 10.0531C28.4309 10.1121 28.3952 10.1656 28.3497 10.2104C28.3035 10.2619 28.2469 10.3027 28.1837 10.3305C28.1204 10.3584 28.0519 10.3723 27.9829 10.3717H26.2691C26.1945 10.3725 26.1208 10.3565 26.0534 10.3247C25.9859 10.2929 25.9266 10.2462 25.8797 10.1881C25.7027 10.0545 25.5344 9.90908 25.3766 9.75304C24.8626 9.30927 24.2015 9.07283 23.5224 9.09008C22.9513 9.09008 22.5162 9.20403 22.2187 9.45566C22.0747 9.57056 21.9585 9.7168 21.8794 9.88313C21.8001 10.0496 21.7597 10.2318 21.7615 10.4162C21.7486 10.6654 21.83 10.9104 21.9894 11.1027C22.1283 11.2863 22.4244 11.4461 22.8595 11.606C23.5076 11.8297 24.1734 11.9985 24.8499 12.1105C27.5964 12.6358 28.9682 13.8493 28.9682 15.7021C28.9682 16.778 28.511 17.6702 27.5784 18.3346C26.6457 18.999 25.3127 19.341 23.6434 19.341C22.466 19.341 21.5084 19.1574 20.7315 18.8141Z" fill="white" fill-opacity="0.8"/>
<path d="M30.9711 18.9519C30.9175 18.9027 30.8752 18.8424 30.8474 18.7751C30.8195 18.7079 30.8067 18.6354 30.8099 18.5627V3.41219C30.8065 3.33527 30.819 3.25852 30.8467 3.18683C30.8746 3.11497 30.9168 3.04977 30.9711 2.99517C31.0791 2.9029 31.2171 2.85353 31.359 2.85622H33.2813C33.356 2.8453 33.4321 2.85179 33.5038 2.87553C33.5753 2.89926 33.6404 2.93946 33.6939 2.9928C33.7472 3.04613 33.7872 3.11117 33.811 3.18287C33.8347 3.2544 33.8414 3.33069 33.8303 3.40523V18.5558C33.8333 18.698 33.7839 18.8367 33.6913 18.9449C33.6366 18.9989 33.5714 19.041 33.4995 19.0685C33.4278 19.0961 33.3511 19.1084 33.2743 19.1048H31.3617C31.2894 19.1091 31.2171 19.0977 31.1496 19.0712C31.0822 19.0448 31.0213 19.0041 30.9711 18.9519Z" fill="white" fill-opacity="0.8"/>
<path d="M36.0876 18.952C36.0344 18.9025 35.9925 18.8422 35.9649 18.7749C35.9374 18.7077 35.9246 18.6353 35.9277 18.5627V8.15208C35.9241 8.07532 35.9365 7.99856 35.964 7.92671C35.9915 7.85502 36.0336 7.78966 36.0876 7.73506C36.1957 7.64232 36.3343 7.59278 36.4768 7.5961H38.4227C38.496 7.595 38.5688 7.60861 38.6369 7.63614C38.7048 7.66368 38.7665 7.70451 38.8184 7.75642C38.8701 7.80817 38.9111 7.87006 38.9387 7.93795C38.9662 8.00584 38.9798 8.07864 38.9787 8.15208V18.5627C38.979 18.6355 38.9649 18.7077 38.9371 18.7749C38.9091 18.8422 38.8681 18.9031 38.8163 18.9542C38.7644 19.0055 38.703 19.0457 38.6354 19.0728C38.5679 19.0998 38.4955 19.1131 38.4227 19.1119H36.4768C36.4043 19.1149 36.3318 19.102 36.2647 19.0745C36.1974 19.047 36.1371 19.005 36.0876 18.952Z" fill="white" fill-opacity="0.8"/>
<path d="M42.4619 17.9457C41.4556 17.0075 40.933 15.7218 40.8608 14.0788L40.8385 13.1628L40.8608 12.2468C40.9289 10.5998 41.4556 9.31818 42.4619 8.38C43.446 7.44183 44.7971 6.98999 46.4664 6.98999C47.6798 6.98999 48.6903 7.19573 49.534 7.63079C50.3568 8.06585 50.9755 8.56897 51.3868 9.18619C51.776 9.80467 52.0053 10.3996 52.0276 10.9723C52.0399 11.0434 52.0338 11.1165 52.0094 11.1846C51.985 11.2525 51.9434 11.3131 51.8886 11.3601C51.8344 11.4148 51.7692 11.4574 51.6973 11.4851C51.6255 11.5129 51.5485 11.5253 51.4716 11.5213H49.4422C49.3099 11.5296 49.1792 11.4886 49.0754 11.406C48.9736 11.3021 48.8958 11.1774 48.8473 11.0404C48.618 10.4678 48.3206 10.034 47.9551 9.78109C47.5228 9.51189 47.0213 9.37515 46.5123 9.38765C45.7353 9.38765 45.1404 9.63929 44.7053 10.1188C44.2702 10.5984 44.0188 11.3545 43.995 12.3622L43.9729 13.2087L43.995 13.9635C44.0868 15.9538 44.9334 16.938 46.5123 16.938C47.0216 16.9583 47.5251 16.8225 47.9551 16.5487C48.3206 16.2958 48.618 15.8843 48.8473 15.2894C48.8928 15.1511 48.9709 15.0256 49.0754 14.924C49.1792 14.8413 49.3099 14.8002 49.4422 14.8086H51.4786C51.5555 14.8046 51.6324 14.8168 51.7043 14.8447C51.7761 14.8724 51.8413 14.9151 51.8956 14.9697C51.9504 15.0169 51.992 15.0773 52.0164 15.1454C52.0406 15.2133 52.0469 15.2864 52.0346 15.3576C52.0123 15.8843 51.7829 16.457 51.3938 17.0741C51.0046 17.6913 50.3875 18.2418 49.5631 18.6768C48.7389 19.1119 47.709 19.3398 46.4734 19.3398C44.7971 19.3412 43.446 18.8838 42.4619 17.9457Z" fill="white" fill-opacity="0.8"/>
<path d="M55.1577 17.876C54.15 16.892 53.6289 15.52 53.5551 13.7061L53.533 13.1348C53.533 11.2349 54.0361 9.72539 55.0423 8.62595C56.0265 7.52777 57.4233 6.97876 59.1845 6.97876C60.9914 6.97876 62.4105 7.52777 63.3946 8.62595C64.3786 9.72397 64.8596 11.1945 64.8596 13.0251V13.5059C64.8626 13.5786 64.8499 13.6509 64.8222 13.7182C64.7947 13.7853 64.7529 13.8457 64.6997 13.8953C64.645 13.9492 64.5798 13.9913 64.5079 14.0189C64.4362 14.0464 64.3595 14.0586 64.2827 14.0551H56.6909V14.2385C56.6898 14.9988 56.9389 15.7382 57.3998 16.3429C57.8348 16.9155 58.4297 17.1893 59.1845 17.1893C59.5982 17.1985 60.0081 17.1069 60.3787 16.9227C60.7494 16.7384 61.0699 16.467 61.3125 16.1317C61.4071 16.0133 61.5147 15.906 61.6336 15.812C61.7602 15.7775 61.8914 15.762 62.0227 15.7661H64.0354C64.1659 15.7688 64.2932 15.8083 64.4024 15.88C64.4492 15.9186 64.4864 15.968 64.5105 16.0239C64.5347 16.0796 64.5453 16.1404 64.5413 16.2011C64.5413 16.5667 64.3342 17.0018 63.9005 17.4826C63.4655 17.9859 62.8247 18.4195 62.024 18.7865C61.1362 19.1695 60.1762 19.3567 59.2095 19.3355C57.4928 19.3411 56.1419 18.8601 55.1577 17.876ZM61.7016 12.0647C61.7016 11.1722 61.4723 10.4398 61.0387 9.89078C60.8089 9.62727 60.5232 9.41868 60.2023 9.2802C59.8815 9.14156 59.5336 9.07668 59.1845 9.09013C58.406 9.09013 57.7945 9.3682 57.3539 9.89078C56.9188 10.4398 56.6909 11.1722 56.6909 12.0647V12.1106H61.6947L61.7016 12.0647Z" fill="white" fill-opacity="0.8"/>
<path d="M36.7825 5.15095C37.0818 5.45101 37.4372 5.68904 37.8286 5.85126C38.2202 6.01348 38.6397 6.09672 39.0635 6.09609V2.86597H35.8333C35.8326 3.29058 35.9163 3.71124 36.0792 4.10341C36.2422 4.49559 36.4812 4.85168 36.7825 5.15095Z" fill="white" fill-opacity="0.8"/>
</g>
</svg>
