<svg width="377" height="292" viewBox="0 0 377 292" fill="none" xmlns="http://www.w3.org/2000/svg">
<g clip-path="url(#clip0_552_5922)">
<rect width="377" height="292" rx="9" fill="#021E22"/>
<g filter="url(#filter0_b_552_5922)">
<rect x="-0.501893" y="-0.869305" width="70.6966" height="70.6966" rx="7.53384" transform="matrix(0.86601 0.500028 3.18351e-05 1 128.21 147.515)" fill="#3BC4FF" fill-opacity="0.2" stroke="#00C2FF" stroke-width="1.15905"/>
<rect x="-0.501857" y="-0.289747" width="70.6966" height="70.6966" rx="7.53384" transform="matrix(0.86601 -0.500028 -3.18351e-05 1 188.433 181.783)" fill="#3BC4FF" fill-opacity="0.2" stroke="#00C2FF" stroke-width="1.15905"/>
<rect x="-1.00379" width="70.6966" height="70.6966" rx="7.53384" transform="matrix(0.866041 -0.499972 0.866041 0.499972 128.143 146.768)" fill="#3BC4FF" fill-opacity="0.2" stroke="#00C2FF" stroke-width="1.15905"/>
</g>
<g filter="url(#filter1_b_552_5922)">
<rect x="-0.501893" y="-0.869305" width="70.6966" height="70.6966" rx="7.53384" transform="matrix(0.86601 0.500028 3.18351e-05 1 128.21 77.9686)" fill="#3BC4FF" fill-opacity="0.2" stroke="#00C2FF" stroke-width="1.15905"/>
<rect x="-0.501857" y="-0.289747" width="70.6966" height="70.6966" rx="7.53384" transform="matrix(0.86601 -0.500028 -3.18351e-05 1 188.433 112.237)" fill="#3BC4FF" fill-opacity="0.2" stroke="#00C2FF" stroke-width="1.15905"/>
<rect x="-1.00379" width="70.6966" height="70.6966" rx="7.53384" transform="matrix(0.866041 -0.499972 0.866041 0.499972 128.143 77.2221)" fill="#3BC4FF" fill-opacity="0.2" stroke="#00C2FF" stroke-width="1.15905"/>
</g>
<g filter="url(#filter2_b_552_5922)">
<rect x="-0.501893" y="-0.869305" width="70.6966" height="70.6966" rx="7.53384" transform="matrix(0.86601 0.500028 3.18351e-05 1 67.9399 182.286)" fill="#3BC4FF" fill-opacity="0.2" stroke="#00C2FF" stroke-width="1.15905"/>
<rect x="-0.501857" y="-0.289747" width="70.6966" height="70.6966" rx="7.53384" transform="matrix(0.86601 -0.500028 -3.18351e-05 1 128.162 216.554)" fill="#3BC4FF" fill-opacity="0.2" stroke="#00C2FF" stroke-width="1.15905"/>
<rect x="-1.00379" width="70.6966" height="70.6966" rx="7.53384" transform="matrix(0.866041 -0.499972 0.866041 0.499972 67.8726 181.54)" fill="#3BC4FF" fill-opacity="0.2" stroke="#00C2FF" stroke-width="1.15905"/>
</g>
<g filter="url(#filter3_b_552_5922)">
<rect x="-0.501893" y="-0.869305" width="70.6966" height="70.6966" rx="7.53384" transform="matrix(0.86601 0.500028 3.18351e-05 1 67.9399 112.74)" fill="#3BC4FF" fill-opacity="0.2" stroke="#00C2FF" stroke-width="1.15905"/>
<rect x="-0.501857" y="-0.289747" width="70.6966" height="70.6966" rx="7.53384" transform="matrix(0.86601 -0.500028 -3.18351e-05 1 128.162 147.008)" fill="#3BC4FF" fill-opacity="0.2" stroke="#00C2FF" stroke-width="1.15905"/>
<rect x="-1.00379" width="70.6966" height="70.6966" rx="7.53384" transform="matrix(0.866041 -0.499972 0.866041 0.499972 67.8726 111.994)" fill="#3BC4FF" fill-opacity="0.2" stroke="#00C2FF" stroke-width="1.15905"/>
</g>
<g filter="url(#filter4_b_552_5922)">
<rect x="-0.501893" y="-0.869305" width="70.6966" height="70.6966" rx="7.53384" transform="matrix(0.86601 0.500028 3.18351e-05 1 188.481 182.286)" fill="#3BC4FF" fill-opacity="0.2" stroke="#00C2FF" stroke-width="1.15905"/>
<rect x="-0.501857" y="-0.289747" width="70.6966" height="70.6966" rx="7.53384" transform="matrix(0.86601 -0.500028 -3.18351e-05 1 248.703 216.554)" fill="#3BC4FF" fill-opacity="0.2" stroke="#00C2FF" stroke-width="1.15905"/>
<rect x="-1.00379" width="70.6966" height="70.6966" rx="7.53384" transform="matrix(0.866041 -0.499972 0.866041 0.499972 188.414 181.54)" fill="#3BC4FF" fill-opacity="0.2" stroke="#00C2FF" stroke-width="1.15905"/>
</g>
<g filter="url(#filter5_b_552_5922)">
<rect x="-0.501893" y="-0.869305" width="70.6966" height="70.6966" rx="7.53384" transform="matrix(0.86601 0.500028 3.18351e-05 1 188.481 112.74)" fill="#3BC4FF" fill-opacity="0.2" stroke="#00C2FF" stroke-width="1.15905"/>
<rect x="-0.501857" y="-0.289747" width="70.6966" height="70.6966" rx="7.53384" transform="matrix(0.86601 -0.500028 -3.18351e-05 1 248.703 147.008)" fill="#3BC4FF" fill-opacity="0.2" stroke="#00C2FF" stroke-width="1.15905"/>
<rect x="-1.00379" width="70.6966" height="70.6966" rx="7.53384" transform="matrix(0.866041 -0.499972 0.866041 0.499972 188.414 111.994)" fill="#3BC4FF" fill-opacity="0.2" stroke="#00C2FF" stroke-width="1.15905"/>
</g>
<g filter="url(#filter6_b_552_5922)">
<rect x="-0.501893" y="-0.869305" width="70.6966" height="70.6966" rx="7.53384" transform="matrix(0.86601 0.500028 3.18351e-05 1 128.21 217.058)" fill="#3BC4FF" fill-opacity="0.2" stroke="#00C2FF" stroke-width="1.15905"/>
<rect x="-0.501857" y="-0.289747" width="70.6966" height="70.6966" rx="7.53384" transform="matrix(0.86601 -0.500028 -3.18351e-05 1 188.433 251.326)" fill="#3BC4FF" fill-opacity="0.2" stroke="#00C2FF" stroke-width="1.15905"/>
<rect x="-1.00379" width="70.6966" height="70.6966" rx="7.53384" transform="matrix(0.866041 -0.499972 0.866041 0.499972 128.143 216.311)" fill="#3BC4FF" fill-opacity="0.2" stroke="#00C2FF" stroke-width="1.15905"/>
</g>
<g filter="url(#filter7_b_552_5922)">
<rect x="-0.501893" y="-0.869305" width="70.6966" height="70.6966" rx="7.53384" transform="matrix(0.86601 0.500028 3.18351e-05 1 128.21 147.512)" fill="#3BC4FF" fill-opacity="0.2" stroke="#00C2FF" stroke-width="1.15905"/>
<rect x="-0.501857" y="-0.289747" width="70.6966" height="70.6966" rx="7.53384" transform="matrix(0.86601 -0.500028 -3.18351e-05 1 188.433 181.78)" fill="#3BC4FF" fill-opacity="0.2" stroke="#00C2FF" stroke-width="1.15905"/>
<rect x="-1.00379" width="70.6966" height="70.6966" rx="7.53384" transform="matrix(0.866041 -0.499972 0.866041 0.499972 128.143 146.765)" fill="#3BC4FF" fill-opacity="0.2" stroke="#00C2FF" stroke-width="1.15905"/>
</g>
</g>
<defs>
<filter id="filter0_b_552_5922" x="117.538" y="103.984" width="141.922" height="155.965" filterUnits="userSpaceOnUse" color-interpolation-filters="sRGB">
<feFlood flood-opacity="0" result="BackgroundImageFix"/>
<feGaussianBlur in="BackgroundImageFix" stdDeviation="4.86802"/>
<feComposite in2="SourceAlpha" operator="in" result="effect1_backgroundBlur_552_5922"/>
<feBlend mode="normal" in="SourceGraphic" in2="effect1_backgroundBlur_552_5922" result="shape"/>
</filter>
<filter id="filter1_b_552_5922" x="117.538" y="34.4384" width="141.922" height="155.965" filterUnits="userSpaceOnUse" color-interpolation-filters="sRGB">
<feFlood flood-opacity="0" result="BackgroundImageFix"/>
<feGaussianBlur in="BackgroundImageFix" stdDeviation="4.86802"/>
<feComposite in2="SourceAlpha" operator="in" result="effect1_backgroundBlur_552_5922"/>
<feBlend mode="normal" in="SourceGraphic" in2="effect1_backgroundBlur_552_5922" result="shape"/>
</filter>
<filter id="filter2_b_552_5922" x="57.2676" y="138.756" width="141.922" height="155.965" filterUnits="userSpaceOnUse" color-interpolation-filters="sRGB">
<feFlood flood-opacity="0" result="BackgroundImageFix"/>
<feGaussianBlur in="BackgroundImageFix" stdDeviation="4.86802"/>
<feComposite in2="SourceAlpha" operator="in" result="effect1_backgroundBlur_552_5922"/>
<feBlend mode="normal" in="SourceGraphic" in2="effect1_backgroundBlur_552_5922" result="shape"/>
</filter>
<filter id="filter3_b_552_5922" x="57.2676" y="69.2099" width="141.922" height="155.965" filterUnits="userSpaceOnUse" color-interpolation-filters="sRGB">
<feFlood flood-opacity="0" result="BackgroundImageFix"/>
<feGaussianBlur in="BackgroundImageFix" stdDeviation="4.86802"/>
<feComposite in2="SourceAlpha" operator="in" result="effect1_backgroundBlur_552_5922"/>
<feBlend mode="normal" in="SourceGraphic" in2="effect1_backgroundBlur_552_5922" result="shape"/>
</filter>
<filter id="filter4_b_552_5922" x="177.809" y="138.756" width="141.921" height="155.965" filterUnits="userSpaceOnUse" color-interpolation-filters="sRGB">
<feFlood flood-opacity="0" result="BackgroundImageFix"/>
<feGaussianBlur in="BackgroundImageFix" stdDeviation="4.86802"/>
<feComposite in2="SourceAlpha" operator="in" result="effect1_backgroundBlur_552_5922"/>
<feBlend mode="normal" in="SourceGraphic" in2="effect1_backgroundBlur_552_5922" result="shape"/>
</filter>
<filter id="filter5_b_552_5922" x="177.809" y="69.2099" width="141.921" height="155.965" filterUnits="userSpaceOnUse" color-interpolation-filters="sRGB">
<feFlood flood-opacity="0" result="BackgroundImageFix"/>
<feGaussianBlur in="BackgroundImageFix" stdDeviation="4.86802"/>
<feComposite in2="SourceAlpha" operator="in" result="effect1_backgroundBlur_552_5922"/>
<feBlend mode="normal" in="SourceGraphic" in2="effect1_backgroundBlur_552_5922" result="shape"/>
</filter>
<filter id="filter6_b_552_5922" x="117.538" y="173.527" width="141.922" height="155.965" filterUnits="userSpaceOnUse" color-interpolation-filters="sRGB">
<feFlood flood-opacity="0" result="BackgroundImageFix"/>
<feGaussianBlur in="BackgroundImageFix" stdDeviation="4.86802"/>
<feComposite in2="SourceAlpha" operator="in" result="effect1_backgroundBlur_552_5922"/>
<feBlend mode="normal" in="SourceGraphic" in2="effect1_backgroundBlur_552_5922" result="shape"/>
</filter>
<filter id="filter7_b_552_5922" x="117.538" y="103.982" width="141.922" height="155.965" filterUnits="userSpaceOnUse" color-interpolation-filters="sRGB">
<feFlood flood-opacity="0" result="BackgroundImageFix"/>
<feGaussianBlur in="BackgroundImageFix" stdDeviation="4.86802"/>
<feComposite in2="SourceAlpha" operator="in" result="effect1_backgroundBlur_552_5922"/>
<feBlend mode="normal" in="SourceGraphic" in2="effect1_backgroundBlur_552_5922" result="shape"/>
</filter>
<clipPath id="clip0_552_5922">
<rect width="377" height="292" rx="9" fill="white"/>
</clipPath>
</defs>
</svg>
