<svg width="54" height="54" viewBox="0 0 54 54" fill="none" xmlns="http://www.w3.org/2000/svg">
<path d="M27.05 52.8272C41.3363 52.8272 52.9173 41.2462 52.9173 26.9599C52.9173 12.6737 41.3363 1.09253 27.05 1.09253C12.7638 1.09253 1.18262 12.6737 1.18262 26.9599C1.18262 41.2462 12.7638 52.8272 27.05 52.8272Z" stroke="white" stroke-width="2" stroke-linecap="round" stroke-linejoin="round"/>
<path d="M17.1016 36.9085L36.9995 17.0105" stroke="white" stroke-width="2" stroke-linecap="round" stroke-linejoin="round"/>
<path d="M19.0914 20.9901C20.1903 20.9901 21.0812 20.0992 21.0812 19.0003C21.0812 17.9014 20.1903 17.0105 19.0914 17.0105C17.9924 17.0105 17.1016 17.9014 17.1016 19.0003C17.1016 20.0992 17.9924 20.9901 19.0914 20.9901Z" stroke="white" stroke-width="2" stroke-linecap="round" stroke-linejoin="round"/>
<path d="M35.0103 36.9088C36.1092 36.9088 37.0001 36.0179 37.0001 34.919C37.0001 33.8201 36.1092 32.9292 35.0103 32.9292C33.9114 32.9292 33.0205 33.8201 33.0205 34.919C33.0205 36.0179 33.9114 36.9088 35.0103 36.9088Z" stroke="white" stroke-width="2" stroke-linecap="round" stroke-linejoin="round"/>
</svg>
