<svg width="1280" height="222" viewBox="0 0 1280 222" fill="none" xmlns="http://www.w3.org/2000/svg">
<g clip-path="url(#clip0_1068_3071)">
<path fill-rule="evenodd" clip-rule="evenodd" d="M80.3516 190.638H0.975342L80.3516 111.261H0.975342L80.3516 31.8852H159.728L80.3516 111.261L159.728 111.261L80.3516 190.638Z" fill="url(#paint0_linear_1068_3071)"/>
</g>
<path d="M222.111 168.757H188.368V48.5049H254.955C283.493 48.5049 301.441 64.8376 301.441 93.375C301.441 121.912 283.493 138.425 254.955 138.425H222.111V168.757ZM251.186 78.8371H222.111V108.092H251.186C263.032 108.092 267.878 105.759 267.878 93.375C267.878 81.1703 263.032 78.8371 251.186 78.8371ZM339.297 168.757H301.427L353.297 48.5049H401.577L453.626 168.757H414.859L405.705 146.501H348.63L339.297 168.757ZM368.373 99.2979L361.373 116.169H393.321L386.321 99.2979L378.424 79.0166H376.091L368.373 99.2979ZM490.981 168.757H457.238V48.5049H527.415C559.183 48.5049 575.875 61.7864 575.875 85.2984C575.875 104.323 566.363 115.631 543.389 118.502V120.297C555.773 123.528 559.722 129.451 564.209 138.604L579.106 168.757H540.158L525.8 139.322C521.492 130.348 517.903 127.835 504.801 127.835H490.981V168.757ZM490.981 78.8371V102.708H527.056C536.928 102.708 540.517 100.913 540.517 90.6828C540.517 81.1703 536.928 78.8371 527.056 78.8371H490.981ZM615.179 168.757H577.308L629.178 48.5049H677.458L729.508 168.757H690.74L681.586 146.501H624.512L615.179 168.757ZM644.254 99.2979L637.255 116.169H669.202L662.202 99.2979L654.305 79.0166H651.972L644.254 99.2979ZM836.321 168.757H733.12V48.5049H766.862V138.425H836.321V168.757ZM948.496 168.757H845.295V48.5049H879.037V138.425H948.496V168.757ZM1064.26 168.757H957.47V48.5049H1064.26V78.8371H991.213V93.1955H1061.57V123.348H991.213V138.425H1064.26V168.757ZM1177.05 168.757H1073.85V48.5049H1107.59V138.425H1177.05V168.757ZM1241.85" fill="#F7F7F7"/>

<defs>
<linearGradient id="paint0_linear_1068_3071" x1="17.2475" y1="177.937" x2="80.3516" y2="31.8852" gradientUnits="userSpaceOnUse">
<stop stop-color="#201DA7"/>
<stop offset="1" stop-color="#30E29D"/>
</linearGradient>
<clipPath id="clip0_1068_3071">
<rect width="158.752" height="158.752" fill="white" transform="translate(0.975342 31.8809)"/>
</clipPath>
</defs>
</svg>
