<svg width="377" height="292" viewBox="0 0 377 292" fill="none" xmlns="http://www.w3.org/2000/svg">
<g clip-path="url(#clip0_769_4448)">
<rect width="377" height="292" rx="9" fill="#210016"/>
<g filter="url(#filter0_b_769_4448)">
<circle cx="188.5" cy="195.937" r="129.9" transform="rotate(18.0621 188.5 195.937)" fill="#FF58DA" fill-opacity="0.2"/>
<path d="M304.505 180.853L304.107 180.633C272.837 162.866 195.587 155.41 131.831 163.988L131.526 164.031V163.725C131.611 117.567 143.38 82.0897 162.234 71.1452C170.393 66.405 179.582 66.6608 188.814 71.8559C218.478 67.9116 246.628 76.1413 268.225 95.0738C279.706 105.184 288.787 117.73 294.805 131.795C301.293 146.719 304.562 163.065 304.534 180.434L304.505 180.853ZM187.513 159.902C235.228 159.902 281.323 167.286 303.972 179.943C303.972 162.823 300.689 146.683 294.293 131.972C288.298 117.98 279.262 105.5 267.841 95.4362C246.372 76.6245 218.3 68.4304 188.792 72.4173H188.707L188.629 72.3676C179.39 67.137 170.62 66.874 162.497 71.5858C143.856 82.4308 132.201 117.595 132.059 163.42C150.447 161.034 168.971 159.859 187.513 159.902Z" fill="#FF01E6"/>
<path d="M246.955 81.4643C231.22 72.524 192.275 68.7787 160.152 73.0854L160.081 72.5595C192.303 68.2244 231.391 72.0123 247.218 81.0024L246.955 81.4643Z" fill="#FF01E6"/>
<path d="M288.401 120.317C261.438 105.023 194.733 98.556 139.705 105.954L139.634 105.428C194.755 98.0159 261.615 104.49 288.664 119.855L288.401 120.317Z" fill="#FF01E6"/>
<path d="M260.074 166.255H259.541C259.619 123.352 247.153 89.3812 226.188 75.3737C215.009 67.9115 202.103 66.8455 188.863 72.3959L188.629 71.9056C202.047 66.3196 215.123 67.3643 226.458 74.933C247.615 89.0329 260.152 123.174 260.074 166.255Z" fill="#FF01E6"/>
<path d="M198.209 160.271H197.676C197.782 99.8636 194.606 67.7835 191.401 67.3713C191.088 67.3287 190.207 67.7124 189.02 72.2181L188.501 72.0831C189.482 68.3663 190.427 66.6962 191.472 66.8383C196.24 67.4637 198.294 114.212 198.209 160.271Z" fill="#FF01E6"/>
<path d="M73.0865 211.973L72.6885 211.753C62.9024 206.188 58.3612 199.977 59.5551 193.794C60.6851 187.995 66.7685 182.473 76.8673 177.633C87.0016 137.814 114.007 103.204 148.76 84.8469C152.69 78.7138 157.21 74.0588 162.263 71.145C170.442 66.3906 179.66 66.6607 188.92 71.9197L189.631 72.3106L188.842 72.4172C174.967 74.3351 161.539 78.6822 149.172 85.2591C138.455 102.067 132.172 130.032 132.116 163.725V163.96H131.888C108.713 167.073 89.958 171.99 77.3861 177.939C74.5964 188.906 73.1643 200.174 73.122 211.49L73.0865 211.973ZM76.7038 178.266C67.0031 182.97 61.1684 188.301 60.081 193.901C58.9439 199.757 63.2578 205.684 72.5606 211.064C72.6308 200.005 74.0217 188.994 76.7038 178.266ZM148.198 85.7495C114.086 104.071 87.563 138.155 77.4856 177.342C90.0717 171.443 108.67 166.582 131.497 163.491C131.618 130.33 137.744 102.699 148.198 85.7495ZM174.493 68.2526C170.265 68.2792 166.121 69.4427 162.497 71.6212C157.757 74.3786 153.471 78.728 149.705 84.4134C161.652 78.1521 174.572 73.9545 187.918 71.9979C183.818 69.6424 179.192 68.3546 174.465 68.2526H174.493Z" fill="#FF01E6"/>
<path d="M130.24 97.1632C125.265 94.3205 122.934 91.1437 123.553 87.967C124.846 81.3221 138.839 75.4164 160.082 72.5594L160.153 73.0853C139.145 75.9281 125.329 81.6135 124.079 88.0665C123.51 91.0016 125.734 93.9864 130.475 96.6941L130.24 97.1632Z" fill="#FF01E6"/>
<path d="M88.6292 147.188C80.1579 142.377 76.235 137.004 77.2584 131.645C79.4473 120.353 103.34 110.325 139.621 105.428L139.692 105.954C103.66 110.801 79.9376 120.658 77.763 131.745C76.7751 136.855 80.6057 142.035 88.8638 146.719L88.6292 147.188Z" fill="#FF01E6"/>
<path d="M81.4085 175.977H80.8755C80.9394 140.443 94.3144 108.996 117.561 89.708C137.289 73.3623 162.589 67.016 188.806 71.8912L188.714 72.4171C162.653 67.5703 137.51 73.8385 117.902 90.1131C94.7764 109.287 81.4725 140.6 81.4085 175.977Z" fill="#FF01E6"/>
<path d="M60.2518 193.148H59.7188C59.7756 160.94 72.6389 130.672 95.9634 107.93C120.553 83.9232 153.528 71.1452 188.792 71.9056V72.4386C153.585 71.6213 120.787 84.4136 96.3045 108.292C73.1151 130.935 60.3086 161.06 60.2518 193.148Z" fill="#FF01E6"/>
<path d="M189.546 232.015C141.547 232.015 95.2107 224.545 72.6892 211.753L72.5542 211.675V211.519C72.6821 143.123 124.796 80.4835 188.722 71.8914H188.814L188.892 71.934C220.255 89.7507 245.662 159.852 245.534 228.205V228.44H245.306C226.819 230.86 208.191 232.054 189.546 232.015ZM73.0872 211.362C104.357 229.037 181.388 236.471 245.001 227.957C245.072 159.909 219.843 90.2127 188.708 72.4315C125.123 81.0307 73.2933 143.315 73.0872 211.362Z" fill="#FF01E6"/>
<path d="M189.254 107.397C165.02 107.397 141.638 103.623 130.268 97.1631L130.531 96.6941C146.265 105.634 185.203 109.394 217.333 105.073L217.404 105.599C208.071 106.821 198.667 107.421 189.254 107.397Z" fill="#FF01E6"/>
<path d="M189.531 164.72C148.084 164.72 108.073 158.267 88.6147 147.223L88.8777 146.754C115.841 162.077 182.545 168.523 237.573 161.117L237.644 161.65C221.692 163.731 205.619 164.757 189.531 164.72Z" fill="#FF01E6"/>
<path d="M117.561 225.661H117.028C117.12 157.301 149.264 88.3222 188.629 71.9055L188.835 72.3959C149.655 88.7415 117.646 157.493 117.561 225.661Z" fill="#FF01E6"/>
<path d="M179.39 231.645H178.857C178.978 163.363 183.306 91.7834 188.501 72.0834L189.02 72.2184C183.832 91.8829 179.511 163.399 179.39 231.645Z" fill="#FF01E6"/>
<path d="M245 228.497V228.191C245.128 160.009 219.842 90.099 188.629 72.3817L187.918 71.9909L188.7 71.8914C218.364 67.9045 246.585 76.1554 268.176 95.0382C279.657 105.149 288.737 117.694 294.755 131.759C301.222 146.626 304.498 162.937 304.484 180.242C314.178 185.785 318.698 191.968 317.482 198.122C314.952 211.185 287.286 222.804 245.285 228.454L245 228.497ZM189.574 72.332C220.574 90.7386 245.583 160.136 245.533 227.9C287.129 222.271 314.469 210.843 316.978 198.051C318.129 192.11 313.68 186.098 304.107 180.661L303.972 180.583V180.426C303.972 163.136 300.746 146.847 294.293 132.001C288.298 118.009 279.262 105.528 267.841 95.4646C246.564 76.788 218.79 68.5938 189.574 72.332Z" fill="#FF01E6"/>
<path d="M217.376 105.599L217.305 105.073C238.313 102.23 252.128 96.5449 253.379 90.0919C253.948 87.1639 251.73 84.1791 246.983 81.4643L247.246 81.0023C252.221 83.845 254.552 87.0147 253.934 90.1985C252.59 96.8434 238.618 102.742 217.376 105.599Z" fill="#FF01E6"/>
<path d="M237.666 161.615L237.595 161.082C273.64 156.235 297.363 146.356 299.509 135.291C300.497 130.181 296.666 125.007 288.408 120.317L288.671 119.855C297.143 124.666 301.066 130.039 300.042 135.398C297.832 146.69 273.91 156.732 237.666 161.615Z" fill="#FF01E6"/>
<path d="M296.183 215.939H295.65C295.778 147.792 247.807 83.4115 188.714 72.4173L188.807 71.8914C248.141 82.9282 296.311 147.55 296.183 215.939Z" fill="#FF01E6"/>
<path d="M317.34 198.79H316.807C316.935 130.672 259.491 73.9808 188.757 72.4173V71.8843C259.789 73.4549 317.468 130.38 317.34 198.79Z" fill="#FF01E6"/>
<path d="M188.245 320.032L188.167 319.99C156.812 302.173 131.398 232.071 131.526 163.725V163.491H131.76C195.608 154.899 273.044 162.396 304.37 180.192L304.505 180.27V180.426C304.377 248.815 252.263 311.454 188.338 320.046L188.245 320.032ZM132.059 163.96C131.995 232 157.217 301.697 188.352 319.478C251.936 310.872 303.759 248.58 303.972 180.554C272.681 162.88 195.672 155.481 132.059 163.96Z" fill="#FF01E6"/>
<path d="M288.167 245.191C261.204 229.875 194.499 223.43 139.471 230.828L139.4 230.302C194.528 222.889 261.381 229.364 288.437 244.729L288.167 245.191Z" fill="#FF01E6"/>
<path d="M246.557 295.215C230.822 286.275 191.884 282.515 159.754 286.836L159.683 286.311C191.905 281.975 231 285.763 246.82 294.753L246.557 295.215Z" fill="#FF01E6"/>
<path d="M188.402 320.004L188.196 319.514C227.411 303.168 259.413 234.417 259.541 166.255H260.074C259.946 234.616 227.795 303.587 188.402 320.004Z" fill="#FF01E6"/>
<path d="M188.558 319.826L188.046 319.691C193.227 300.027 197.548 228.511 197.676 160.271H198.209C198.081 228.554 193.753 300.126 188.558 319.826Z" fill="#FF01E6"/>
<path d="M173.79 321.006C149.535 321.006 126.885 312.67 108.863 296.843C97.3815 286.732 88.3011 274.187 82.2832 260.122C75.816 245.262 72.5468 228.952 72.5539 211.647C62.8603 206.103 58.3404 199.92 59.5556 193.766C62.0927 180.704 89.7595 169.077 131.761 163.434L132.059 163.391V163.697C131.931 231.872 157.224 301.768 188.43 319.499L189.141 319.89L188.359 319.99C183.531 320.654 178.664 320.994 173.79 321.006ZM131.526 164.01C89.9301 169.638 62.5902 181.066 60.0815 193.858C58.9302 199.799 63.3791 205.812 72.9519 211.249L73.087 211.327V211.483C73.087 228.774 76.3134 245.063 82.7735 259.902C88.7612 273.894 97.7926 286.375 109.211 296.438C130.496 315.086 158.248 323.28 187.492 319.556C156.492 301.171 131.476 231.787 131.526 164.01Z" fill="#FF01E6"/>
<path d="M88.4235 272.033C79.9593 267.229 76.0292 261.849 77.0526 256.498C79.2415 245.205 103.142 235.177 139.415 230.281L139.486 230.807C103.44 235.653 79.7176 245.539 77.5785 256.597C76.5835 261.707 80.4212 266.888 88.6722 271.571L88.4235 272.033Z" fill="#FF01E6"/>
<path d="M129.848 310.907C124.874 308.065 122.542 304.895 123.154 301.718C124.447 295.066 138.44 289.168 159.683 286.311L159.754 286.837C138.746 289.679 124.93 295.4 123.68 301.818C123.111 304.753 125.335 307.731 130.076 310.445L129.848 310.907Z" fill="#FF01E6"/>
<path d="M188.253 320.018C128.932 308.988 80.7483 244.359 80.8762 175.978H81.4092C81.2813 244.118 129.252 308.498 188.352 319.492L188.253 320.018Z" fill="#FF01E6"/>
<path d="M188.295 320.025C117.27 318.455 59.591 261.529 59.719 193.126H60.252C60.124 261.245 117.568 317.929 188.309 319.492L188.295 320.025Z" fill="#FF01E6"/>
<path d="M202.608 324.14C197.545 324.042 192.595 322.627 188.245 320.032C183.454 320.679 178.625 321.004 173.79 321.006C149.535 321.006 126.885 312.67 108.863 296.843C97.3814 286.732 88.301 274.187 82.2831 260.122C75.7946 245.198 72.5255 228.852 72.5539 211.49V211.036L72.9448 211.256C104.215 229.023 181.473 236.478 245.228 227.9L245.526 227.857V228.163C245.441 274.322 233.679 309.792 214.825 320.736C211.13 322.942 206.912 324.118 202.608 324.14ZM188.352 319.478L188.43 319.528C197.669 324.758 206.439 325.021 214.562 320.31C233.21 309.479 244.865 274.314 245 228.497C181.48 236.982 104.62 229.584 73.0869 211.974C73.0869 229.094 76.3702 245.226 82.7735 259.937C88.7611 273.929 97.7926 286.411 109.211 296.473C130.68 315.285 158.759 323.479 188.267 319.492L188.352 319.478Z" fill="#FF01E6"/>
<path d="M189.297 289.558C147.851 289.558 107.839 283.105 88.3809 272.054L88.6438 271.592C115.607 286.915 182.311 293.361 237.346 285.955L237.418 286.488C221.462 288.569 205.388 289.595 189.297 289.558Z" fill="#FF01E6"/>
<path d="M171.679 323.543C164.144 323.523 156.789 321.235 150.572 316.976C129.465 302.876 116.907 268.743 116.993 225.661H117.561C117.476 268.565 129.948 302.535 150.906 316.536C162.085 323.998 174.991 325.028 188.231 319.513L188.437 320.004C183.141 322.284 177.445 323.487 171.679 323.543Z" fill="#FF01E6"/>
<path d="M185.708 325.078H185.595C180.819 324.453 178.772 277.704 178.858 231.652H179.391C179.277 292.06 182.461 324.133 185.659 324.552C185.971 324.552 186.853 324.204 188.047 319.698L188.558 319.834C187.613 323.401 186.711 325.078 185.708 325.078Z" fill="#FF01E6"/>
<path d="M202.608 324.14C197.903 324.14 193.042 322.754 188.167 319.99L187.456 319.599L188.238 319.492C202.114 317.571 215.545 313.224 227.915 306.65C238.625 289.843 244.907 261.877 244.971 228.191V227.971H245.206C268.374 224.858 287.136 219.94 299.701 213.992C302.491 203.025 303.923 191.757 303.965 180.441V179.986L304.363 180.206C314.163 185.728 318.683 191.939 317.503 198.122C316.38 203.921 310.297 209.443 300.198 214.276C290.085 254.074 263.058 288.706 228.299 307.062C224.369 313.196 219.849 317.85 214.831 320.764C211.132 322.962 206.911 324.128 202.608 324.14ZM189.105 319.911C198.067 324.773 206.623 324.886 214.54 320.309C219.28 317.552 223.573 313.203 227.332 307.553C215.383 313.792 202.466 317.97 189.126 319.911H189.105ZM245.511 228.426C245.419 261.586 239.3 289.21 228.846 306.16C262.959 287.838 289.474 253.761 299.552 214.575C286.987 220.473 268.388 225.334 245.533 228.426H245.511ZM304.498 180.86C304.425 191.916 303.032 202.925 300.348 213.651C310.048 208.946 315.89 203.616 316.97 198.016C318.115 192.167 313.801 186.233 304.505 180.86H304.498Z" fill="#FF01E6"/>
<path d="M237.431 286.488L237.36 285.955C273.399 281.108 297.121 271.23 299.268 260.165C300.256 255.055 296.425 249.881 288.167 245.191L288.437 244.729C296.901 249.54 300.831 254.913 299.808 260.271C297.598 271.564 273.705 281.606 237.431 286.488Z" fill="#FF01E6"/>
<path d="M205.387 321.624C199.638 321.616 193.903 321.078 188.252 320.018L188.352 319.492C214.413 324.346 239.556 318.071 259.164 301.796C282.29 282.608 295.586 251.338 295.65 215.939H296.183C296.119 251.473 282.752 282.921 259.498 302.201C244.316 314.854 225.15 321.734 205.387 321.624Z" fill="#FF01E6"/>
<path d="M191.33 320.054C190.32 320.054 189.311 320.054 188.295 320.054V319.521C223.431 320.295 256.257 307.553 280.747 283.645C303.93 261.003 316.736 230.877 316.793 198.819H317.326C317.269 231.027 304.406 261.287 281.117 284.029C257.252 307.318 225.456 320.054 191.33 320.054Z" fill="#FF01E6"/>
<path d="M188.672 325.114C185.758 325.114 183.271 325 181.971 324.943C180.109 324.858 175.83 324.531 172.945 324.162C170.06 323.792 170.102 323.792 166.051 323.131C165.291 323.01 164.395 322.833 163.521 322.655L162.377 322.427C157.154 321.342 152.001 319.94 146.948 318.227C144.006 317.183 140.552 315.854 138.129 314.852C136.089 313.999 133.424 312.776 131.512 311.81C128.556 310.31 124.832 308.257 122.273 306.75C119.715 305.243 116.83 303.374 114.904 301.981C109.407 298.15 104.211 293.905 99.3611 289.281C97.0585 287.078 94.4574 284.406 92.7234 282.466C90.6553 280.156 87.7486 276.702 85.6521 273.938C81.469 268.43 77.7309 262.598 74.4731 256.498C71.4654 250.554 68.7984 244.444 66.4851 238.198C65.2299 234.704 64.1647 231.146 63.2941 227.537C62.7753 225.498 62.285 223.003 61.8088 220.601C61.5956 219.514 61.3895 218.469 61.1905 217.51C60.4863 213.796 60.0234 210.04 59.8047 206.267L59.7691 205.698C59.4317 201.578 59.3155 197.443 59.4209 193.311C59.4707 192.48 59.5133 191.57 59.5559 190.632C59.6768 188.059 59.8189 185.138 60.0605 182.814C60.4043 179.03 60.9548 175.267 61.7093 171.543C61.8799 170.832 62.0504 170.008 62.2352 169.184C62.7824 166.668 63.4078 163.825 64.0332 161.601C64.9997 158.175 66.3998 153.847 67.5298 150.827C68.6598 147.806 70.1806 144.168 71.3959 141.588C72.2984 139.669 74.6295 134.843 76.7331 131.347C79.9667 125.96 84.6785 119.336 87.7273 115.3C89.3619 113.168 91.6787 110.624 93.7254 108.406C94.4361 107.696 95.0544 106.985 95.6443 106.274C97.7789 103.98 100.037 101.804 102.41 99.7572C105.523 97.0495 109.808 93.688 112.757 91.3996C115.516 89.3133 118.394 87.3912 121.378 85.6431C125.187 83.4045 130.46 80.5831 134.49 78.6287C136.871 77.4703 140.509 75.9637 144.226 74.5992C147.105 73.5332 150.885 72.3179 153.621 71.5717C158.086 70.311 162.615 69.2909 167.188 68.5158C169.612 68.0751 174.444 67.4284 178.019 67.1512C180.556 66.9594 182.546 66.8386 183.939 66.803C187.819 66.7035 188.203 66.6964 192.339 66.803C192.887 66.803 197.854 66.9238 204.144 67.6914C207.839 68.1391 210.917 68.6934 211.044 68.7219C212.203 68.9351 213.837 69.2406 215.067 69.4965C215.969 69.6884 217.078 69.9442 218.101 70.2072L219.338 70.4914C220.667 70.797 222.508 71.2945 224.803 71.9626C226.068 72.3392 227.816 72.8935 230.133 73.6611C233.139 74.6489 236.608 75.9779 238.967 77.0439C240.715 77.8328 242.648 78.7495 244.56 79.6947C247.152 80.8745 249.691 82.1703 252.179 83.5822L252.335 83.6746C256.211 85.8845 259.97 88.2921 263.599 90.888C266.115 92.7926 269.91 95.6708 272.589 97.9308C273.591 98.7765 277.052 101.733 279.497 104.327L279.959 104.81C282.212 107.177 285.019 110.119 287.066 112.486C288.835 114.546 291.245 117.61 293.064 120.104C294.883 122.598 297.328 126.315 299.154 129.25C301.088 132.42 302.886 135.647 303.952 137.907C305.245 140.643 307.206 144.772 308.479 147.899C309.438 150.265 310.703 153.812 311.861 157.386C313.727 163.249 315.152 169.242 316.126 175.317C317.154 182.221 317.702 189.188 317.767 196.168C317.767 199.579 317.54 204.192 317.241 207.638C317.035 210.019 316.602 212.997 316.218 215.626C316.104 216.43 315.991 217.204 315.891 217.915C315.282 221.623 314.483 225.297 313.496 228.923C312.785 231.709 311.606 235.504 310.518 238.596C309.431 241.687 307.839 245.702 306.354 249C305.515 250.876 304.378 253.072 303.284 255.204C302.8 256.142 302.331 257.045 301.919 257.869C300.105 261.225 298.11 264.48 295.942 267.62C294.819 269.318 293.355 271.28 291.941 273.177C291.337 273.988 290.761 274.762 290.243 275.48C287.805 278.635 285.195 281.653 282.425 284.52C280.25 286.844 277.614 289.438 275.716 291.129C272.945 293.595 268.958 296.886 265.561 299.522C263.23 301.334 260.039 303.438 258.347 304.533C256.357 305.812 253.685 307.375 251.532 308.619L250.878 308.996C246.578 311.45 242.111 313.599 237.51 315.427C233.58 316.962 230.595 318.05 228.392 318.767C225.628 319.663 221.833 320.736 218.933 321.44C215.92 322.15 212.381 322.911 209.914 323.316L209.58 323.366C208.351 323.572 206.823 323.813 205.643 323.963C203.511 324.233 200.768 324.517 199.069 324.673C198.927 324.673 195.395 325.021 190.314 325.1L188.672 325.114ZM188.31 67.3573C187.102 67.3573 186.029 67.3573 183.925 67.4355C182.539 67.4711 180.556 67.5919 178.033 67.7838C174.48 68.0609 169.662 68.7005 167.252 69.1412C162.701 69.9188 158.194 70.9341 153.749 72.1829C151.02 72.8935 147.261 74.1372 144.39 75.1961C140.694 76.5606 137.07 78.0389 134.71 79.2044C130.688 81.1587 125.436 83.9659 121.634 86.1975C118.669 87.9209 115.809 89.8194 113.07 91.8829C110.121 94.1713 105.85 97.5257 102.744 100.226C100.388 102.259 98.1461 104.421 96.028 106.701L94.1021 108.833C92.0624 111.036 89.7598 113.537 88.1395 115.684C85.0978 119.713 80.4002 126.344 77.1737 131.681C75.0843 135.163 72.7604 139.975 71.8649 141.879C70.6568 144.423 69.1501 148.027 68.013 151.054C66.8759 154.082 65.4901 158.374 64.5307 161.785C63.9124 163.996 63.287 166.838 62.7398 169.34C62.5621 170.164 62.3844 170.967 62.2139 171.699C61.4656 175.405 60.9176 179.149 60.5722 182.914C60.3377 185.202 60.1956 188.109 60.0747 190.675C60.0321 191.62 59.9895 192.529 59.9397 193.361C59.8356 197.472 59.9495 201.585 60.2808 205.684L60.3164 206.253C60.5387 210.002 61.0016 213.734 61.7022 217.424C61.9012 218.377 62.1073 219.429 62.3205 220.516C62.7895 222.918 63.2799 225.398 63.7987 227.424C64.6627 231.011 65.7208 234.548 66.9683 238.02C69.0222 243.393 72.071 250.919 74.9279 256.256C78.1687 262.339 81.8953 268.15 86.0714 273.632C88.1182 276.368 91.0462 279.808 93.1071 282.111C94.827 284.037 97.421 286.702 99.7093 288.898C104.545 293.498 109.722 297.727 115.195 301.548C117.114 302.926 119.992 304.796 122.529 306.288C125.066 307.78 128.819 309.841 131.768 311.334C133.673 312.3 136.316 313.516 138.349 314.361C140.751 315.356 144.205 316.678 147.14 317.723C152.167 319.433 157.293 320.835 162.491 321.923L163.642 322.15C164.509 322.321 165.405 322.499 166.151 322.619C170.166 323.28 170.166 323.28 173.023 323.65C175.88 324.019 180.13 324.361 181.992 324.424C183.541 324.488 186.739 324.631 190.335 324.581C195.395 324.503 198.906 324.176 199.048 324.162C200.74 323.998 203.476 323.721 205.608 323.451C206.773 323.302 208.301 323.053 209.524 322.854L209.858 322.804C212.309 322.399 215.834 321.667 218.841 320.935C221.719 320.224 225.507 319.165 228.257 318.27C230.446 317.559 233.424 316.472 237.347 314.944C241.921 313.122 246.364 310.985 250.644 308.548L251.29 308.171C253.422 306.928 256.109 305.371 258.091 304.099C259.442 303.218 262.86 300.986 265.262 299.124C268.652 296.495 272.625 293.204 275.389 290.752C277.28 289.068 279.902 286.488 282.063 284.179C284.811 281.327 287.397 278.323 289.809 275.181C290.328 274.471 290.911 273.689 291.515 272.886C292.936 270.988 294.357 269.027 295.494 267.343C297.628 264.22 299.595 260.987 301.386 257.656C301.798 256.832 302.267 255.922 302.751 254.984C303.845 252.852 304.975 250.677 305.806 248.815C307.292 245.489 308.919 241.424 309.964 238.454C311.009 235.483 312.21 231.546 312.92 228.817C313.903 225.212 314.7 221.559 315.308 217.872C315.408 217.162 315.521 216.38 315.635 215.584C316.019 212.961 316.445 209.984 316.651 207.617C316.95 204.185 317.156 199.594 317.177 196.189C317.109 189.223 316.556 182.27 315.521 175.381C314.566 169.336 313.16 163.371 311.314 157.536C310.156 153.982 308.898 150.429 307.938 148.083C306.673 144.971 304.719 140.849 303.426 138.134C302.367 135.902 300.583 132.683 298.65 129.528C296.866 126.6 294.428 122.94 292.595 120.417C290.761 117.894 288.381 114.881 286.618 112.834C284.593 110.474 281.793 107.539 279.547 105.18L279.085 104.696C276.654 102.145 273.215 99.21 272.22 98.3643C269.548 96.1186 265.76 93.2403 263.251 91.3428C259.634 88.7607 255.888 86.3626 252.029 84.1578L251.887 84.0796C249.755 82.9568 247.062 81.5567 244.311 80.2064C227.376 72.4813 208.379 69.7879 188.878 72.389H188.821L188.75 71.8631C204.007 69.7122 219.552 71.0214 234.234 75.6936C232.813 75.1535 231.327 74.6276 229.97 74.1728C227.653 73.4052 225.912 72.8509 224.654 72.4813C222.366 71.8133 220.539 71.3229 219.217 71.0173L217.981 70.7331C216.964 70.4986 215.849 70.2356 214.953 70.0224C213.731 69.7594 212.11 69.4539 210.952 69.2478C210.817 69.2478 207.761 68.665 204.08 68.2173C197.819 67.4568 192.872 67.3431 192.325 67.336C190.421 67.3573 189.34 67.3573 188.31 67.3573Z" fill="#FF01E6"/>
<path d="M304.505 180.853L304.107 180.633C272.837 162.866 195.587 155.411 131.831 163.989L131.526 164.031V163.726C131.611 117.567 143.38 82.0899 162.234 71.1454C170.393 66.4052 179.582 66.6611 188.814 71.8561C218.478 67.9119 246.628 76.1415 268.225 95.074C279.706 105.185 288.787 117.73 294.805 131.795C301.293 146.719 304.562 163.065 304.534 180.434L304.505 180.853ZM187.513 159.902C235.228 159.902 281.323 167.286 303.972 179.943C303.972 162.823 300.689 146.684 294.293 131.973C288.298 117.981 279.262 105.5 267.841 95.4365C246.372 76.6248 218.3 68.4307 188.792 72.4176H188.707L188.629 72.3678C179.39 67.1372 170.62 66.8743 162.497 71.5861C143.856 82.431 132.201 117.595 132.059 163.42C150.447 161.034 168.971 159.859 187.513 159.902Z" fill="#FF01E6"/>
<path d="M246.955 81.4645C231.22 72.5241 192.275 68.7788 160.152 73.0855L160.081 72.5596C192.303 68.2245 231.391 72.0124 247.218 81.0025L246.955 81.4645Z" fill="#FF01E6"/>
<path d="M288.401 120.317C261.438 105.024 194.733 98.5563 139.705 105.955L139.634 105.429C194.755 98.0162 261.615 104.491 288.664 119.855L288.401 120.317Z" fill="#FF01E6"/>
<path d="M260.074 166.256H259.541C259.619 123.352 247.153 89.3815 226.188 75.374C215.009 67.9119 202.103 66.8459 188.863 72.3963L188.629 71.9059C202.047 66.32 215.123 67.3647 226.458 74.9334C247.615 89.0333 260.152 123.174 260.074 166.256Z" fill="#FF01E6"/>
<path d="M198.209 160.272H197.676C197.782 99.864 194.606 67.7839 191.401 67.3717C191.088 67.329 190.207 67.7128 189.02 72.2185L188.501 72.0835C189.482 68.3666 190.427 66.6965 191.472 66.8387C196.24 67.4641 198.294 114.213 198.209 160.272Z" fill="#FF01E6"/>
<path d="M73.0865 211.974L72.6885 211.753C62.9024 206.189 58.3612 199.977 59.5551 193.794C60.6851 187.995 66.7685 182.473 76.8673 177.634C87.0016 137.814 114.007 103.204 148.76 84.8472C152.69 78.714 157.21 74.0591 162.263 71.1453C170.442 66.3908 179.66 66.6609 188.92 71.9199L189.631 72.3108L188.842 72.4174C174.967 74.3354 161.539 78.6825 149.172 85.2594C138.455 102.067 132.172 130.032 132.116 163.726V163.96H131.888C108.713 167.073 89.958 171.991 77.3861 177.939C74.5964 188.906 73.1643 200.174 73.122 211.49L73.0865 211.974ZM76.7038 178.266C67.0031 182.971 61.1684 188.301 60.081 193.901C58.9439 199.757 63.2578 205.684 72.5606 211.064C72.6308 200.005 74.0217 188.995 76.7038 178.266ZM148.198 85.7498C114.086 104.071 87.563 138.155 77.4856 177.342C90.0717 171.444 108.67 166.582 131.497 163.491C131.618 130.331 137.744 102.699 148.198 85.7498ZM174.493 68.2528C170.265 68.2794 166.121 69.4429 162.497 71.6214C157.757 74.3789 153.471 78.7282 149.705 84.4137C161.652 78.1524 174.572 73.9548 187.918 71.9981C183.818 69.6426 179.192 68.3548 174.465 68.2528H174.493Z" fill="#FF01E6"/>
<path d="M130.24 97.1634C125.265 94.3207 122.934 91.144 123.552 87.9672C124.846 81.3224 138.839 75.4166 160.081 72.5597L160.152 73.0856C139.144 75.9283 125.329 81.6138 124.078 88.0667C123.51 91.0018 125.734 93.9867 130.474 96.6944L130.24 97.1634Z" fill="#FF01E6"/>
<path d="M88.6292 147.188C80.1579 142.377 76.235 137.004 77.2584 131.646C79.4473 120.353 103.34 110.325 139.621 105.429L139.692 105.954C103.66 110.801 79.9376 120.658 77.763 131.745C76.7751 136.855 80.6057 142.036 88.8638 146.719L88.6292 147.188Z" fill="#FF01E6"/>
<path d="M81.4085 175.978H80.8755C80.9394 140.444 94.3144 108.996 117.561 89.7083C137.289 73.3627 162.589 67.0163 188.806 71.8916L188.714 72.4175C162.653 67.5707 137.51 73.8389 117.902 90.1134C94.7764 109.288 81.4725 140.6 81.4085 175.978Z" fill="#FF01E6"/>
<path d="M60.2518 193.148H59.7188C59.7756 160.94 72.6389 130.672 95.9634 107.93C120.553 83.9235 153.528 71.1454 188.792 71.9059V72.4389C153.585 71.6216 120.787 84.4138 96.3045 108.293C73.1151 130.935 60.3086 161.061 60.2518 193.148Z" fill="#FF01E6"/>
<path d="M189.546 232.015C141.547 232.015 95.2107 224.546 72.6892 211.753L72.5542 211.675V211.519C72.6821 143.123 124.796 80.4838 188.722 71.8917H188.814L188.892 71.9344C220.255 89.7511 245.662 159.853 245.534 228.206V228.44H245.306C226.819 230.86 208.191 232.054 189.546 232.015ZM73.0872 211.363C104.357 229.037 181.388 236.471 245.001 227.957C245.072 159.909 219.843 90.2131 188.708 72.4318C125.123 81.0311 73.2933 143.315 73.0872 211.363Z" fill="#FF01E6"/>
<path d="M189.254 107.397C165.02 107.397 141.638 103.623 130.268 97.1633L130.531 96.6942C146.265 105.635 185.203 109.394 217.333 105.073L217.404 105.599C208.071 106.821 198.667 107.421 189.254 107.397Z" fill="#FF01E6"/>
<path d="M189.531 164.72C148.084 164.72 108.073 158.268 88.6147 147.224L88.8777 146.755C115.841 162.077 182.545 168.523 237.573 161.117L237.644 161.65C221.692 163.732 205.619 164.757 189.531 164.72Z" fill="#FF01E6"/>
<path d="M117.561 225.661H117.028C117.12 157.301 149.264 88.3226 188.629 71.9059L188.835 72.3962C149.655 88.7419 117.646 157.493 117.561 225.661Z" fill="#FF01E6"/>
<path d="M179.39 231.645H178.857C178.978 163.363 183.306 91.7837 188.501 72.0836L189.02 72.2186C183.832 91.8832 179.511 163.399 179.39 231.645Z" fill="#FF01E6"/>
<path d="M245 228.497V228.191C245.128 160.009 219.842 90.0992 188.629 72.382L187.918 71.9911L188.7 71.8916C218.364 67.9047 246.585 76.1557 268.176 95.0385C279.657 105.149 288.737 117.694 294.755 131.759C301.222 146.627 304.498 162.937 304.484 180.242C314.178 185.785 318.698 191.968 317.482 198.123C314.952 211.185 287.286 222.804 245.285 228.454L245 228.497ZM189.574 72.3322C220.574 90.7388 245.583 160.137 245.533 227.9C287.129 222.271 314.469 210.844 316.978 198.051C318.129 192.11 313.68 186.098 304.107 180.661L303.972 180.583V180.427C303.972 163.136 300.746 146.847 294.293 132.001C288.298 118.009 279.262 105.528 267.841 95.4649C246.564 76.7882 218.79 68.5941 189.574 72.3322Z" fill="#FF01E6"/>
<path d="M217.376 105.599L217.305 105.073C238.312 102.231 252.128 96.5453 253.379 90.0923C253.947 87.1643 251.73 84.1794 246.983 81.4646L247.246 81.0027C252.22 83.8454 254.551 87.015 253.933 90.1989C252.59 96.8437 238.618 102.742 217.376 105.599Z" fill="#FF01E6"/>
<path d="M237.666 161.615L237.595 161.082C273.64 156.235 297.363 146.356 299.509 135.291C300.497 130.181 296.666 125.008 288.408 120.317L288.671 119.855C297.143 124.667 301.066 130.039 300.042 135.398C297.832 146.69 273.91 156.732 237.666 161.615Z" fill="#FF01E6"/>
<path d="M296.183 215.939H295.65C295.778 147.792 247.807 83.4116 188.714 72.4174L188.807 71.8915C248.141 82.9283 296.311 147.55 296.183 215.939Z" fill="#FF01E6"/>
<path d="M317.34 198.791H316.807C316.935 130.672 259.491 73.981 188.757 72.4175V71.8845C259.789 73.4551 317.468 130.381 317.34 198.791Z" fill="#FF01E6"/>
<path d="M188.245 320.033L188.167 319.99C156.812 302.173 131.398 232.072 131.526 163.726V163.491H131.76C195.608 154.899 273.044 162.397 304.37 180.192L304.505 180.27V180.427C304.377 248.815 252.263 311.455 188.338 320.047L188.245 320.033ZM132.059 163.96C131.995 232.001 157.217 301.697 188.352 319.478C251.936 310.872 303.759 248.581 303.972 180.555C272.681 162.88 195.672 155.482 132.059 163.96Z" fill="#FF01E6"/>
<path d="M288.167 245.191C261.204 229.876 194.499 223.43 139.471 230.828L139.4 230.302C194.528 222.89 261.381 229.364 288.437 244.729L288.167 245.191Z" fill="#FF01E6"/>
<path d="M246.557 295.216C230.822 286.275 191.884 282.516 159.754 286.837L159.683 286.311C191.905 281.976 231 285.764 246.82 294.754L246.557 295.216Z" fill="#FF01E6"/>
<path d="M188.401 320.004L188.195 319.514C227.411 303.168 259.413 234.417 259.54 166.256H260.073C259.946 234.616 227.794 303.587 188.401 320.004Z" fill="#FF01E6"/>
<path d="M188.558 319.826L188.046 319.691C193.227 300.027 197.548 228.511 197.676 160.272H198.209C198.081 228.554 193.753 300.126 188.558 319.826Z" fill="#FF01E6"/>
<path d="M173.79 321.006C149.535 321.006 126.885 312.67 108.863 296.843C97.3815 286.732 88.3011 274.187 82.2832 260.122C75.816 245.262 72.5468 228.952 72.5539 211.647C62.8603 206.103 58.3404 199.921 59.5556 193.766C62.0927 180.704 89.7595 169.077 131.761 163.434L132.059 163.392V163.697C131.931 231.873 157.224 301.768 188.43 319.5L189.141 319.89L188.359 319.99C183.531 320.655 178.664 320.994 173.79 321.006ZM131.526 164.01C89.9301 169.638 62.5902 181.066 60.0815 193.858C58.9302 199.8 63.3791 205.812 72.9519 211.249L73.087 211.327V211.483C73.087 228.774 76.3134 245.063 82.7735 259.902C88.7612 273.894 97.7926 286.375 109.211 296.438C130.496 315.086 158.248 323.28 187.492 319.556C156.492 301.171 131.476 231.787 131.526 164.01Z" fill="#FF01E6"/>
<path d="M88.4235 272.033C79.9593 267.229 76.0292 261.849 77.0526 256.498C79.2415 245.205 103.142 235.177 139.415 230.281L139.486 230.807C103.44 235.654 79.7176 245.539 77.5785 256.597C76.5835 261.707 80.4212 266.888 88.6722 271.571L88.4235 272.033Z" fill="#FF01E6"/>
<path d="M129.848 310.907C124.874 308.065 122.542 304.895 123.154 301.718C124.447 295.066 138.44 289.168 159.683 286.311L159.754 286.837C138.746 289.679 124.93 295.4 123.68 301.818C123.111 304.753 125.335 307.731 130.076 310.445L129.848 310.907Z" fill="#FF01E6"/>
<path d="M188.252 320.018C128.931 308.988 80.7473 244.359 80.8753 175.978H81.4083C81.2803 244.118 129.251 308.498 188.351 319.492L188.252 320.018Z" fill="#FF01E6"/>
<path d="M188.295 320.025C117.27 318.455 59.591 261.529 59.719 193.126H60.252C60.124 261.245 117.568 317.929 188.309 319.492L188.295 320.025Z" fill="#FF01E6"/>
<path d="M202.608 324.14C197.545 324.042 192.595 322.627 188.245 320.033C183.454 320.679 178.625 321.004 173.79 321.006C149.535 321.006 126.885 312.67 108.863 296.843C97.3814 286.732 88.301 274.187 82.2831 260.122C75.7946 245.198 72.5255 228.852 72.5539 211.49V211.036L72.9448 211.256C104.215 229.023 181.473 236.478 245.228 227.9L245.526 227.857V228.163C245.441 274.322 233.679 309.792 214.825 320.736C211.13 322.943 206.912 324.118 202.608 324.14ZM188.352 319.478L188.43 319.528C197.669 324.759 206.439 325.022 214.562 320.31C233.21 309.479 244.865 274.315 245 228.497C181.48 236.983 104.62 229.584 73.0869 211.974C73.0869 229.094 76.3702 245.226 82.7735 259.938C88.7611 273.93 97.7926 286.411 109.211 296.474C130.68 315.285 158.759 323.479 188.267 319.492L188.352 319.478Z" fill="#FF01E6"/>
<path d="M189.297 289.559C147.851 289.559 107.839 283.106 88.3809 272.055L88.6438 271.593C115.607 286.915 182.311 293.361 237.346 285.955L237.418 286.488C221.462 288.569 205.388 289.595 189.297 289.559Z" fill="#FF01E6"/>
<path d="M171.679 323.543C164.144 323.523 156.789 321.235 150.572 316.977C129.465 302.877 116.907 268.743 116.993 225.661H117.561C117.476 268.565 129.948 302.536 150.906 316.536C162.085 323.998 174.991 325.029 188.231 319.514L188.437 320.004C183.141 322.284 177.445 323.487 171.679 323.543Z" fill="#FF01E6"/>
<path d="M185.708 325.078H185.595C180.819 324.453 178.772 277.705 178.858 231.652H179.391C179.277 292.06 182.461 324.133 185.659 324.553C185.971 324.553 186.853 324.204 188.047 319.699L188.558 319.834C187.613 323.401 186.711 325.078 185.708 325.078Z" fill="#FF01E6"/>
<path d="M202.608 324.14C197.903 324.14 193.042 322.754 188.167 319.99L187.456 319.599L188.238 319.492C202.114 317.571 215.545 313.224 227.915 306.65C238.625 289.843 244.907 261.878 244.971 228.191V227.971H245.206C268.374 224.858 287.136 219.94 299.701 213.992C302.491 203.025 303.923 191.757 303.965 180.441V179.986L304.363 180.206C314.163 185.728 318.683 191.94 317.503 198.123C316.38 203.922 310.297 209.444 300.198 214.276C290.085 254.074 263.058 288.706 228.299 307.063C224.369 313.196 219.849 317.851 214.831 320.765C211.132 322.962 206.911 324.128 202.608 324.14ZM189.105 319.912C198.067 324.773 206.623 324.886 214.54 320.31C219.28 317.552 223.573 313.203 227.332 307.553C215.383 313.792 202.466 317.97 189.126 319.912H189.105ZM245.511 228.426C245.419 261.586 239.3 289.21 228.846 306.16C262.959 287.839 289.474 253.762 299.552 214.575C286.987 220.473 268.388 225.334 245.533 228.426H245.511ZM304.498 180.86C304.425 191.917 303.032 202.925 300.348 213.651C310.048 208.946 315.89 203.616 316.97 198.016C318.115 192.167 313.801 186.233 304.505 180.86H304.498Z" fill="#FF01E6"/>
<path d="M237.431 286.488L237.36 285.955C273.399 281.109 297.121 271.23 299.268 260.165C300.256 255.055 296.425 249.881 288.167 245.191L288.437 244.729C296.901 249.54 300.831 254.913 299.808 260.271C297.598 271.564 273.705 281.606 237.431 286.488Z" fill="#FF01E6"/>
<path d="M205.386 321.625C199.638 321.616 193.902 321.078 188.252 320.018L188.351 319.492C214.412 324.346 239.556 318.071 259.164 301.797C282.289 282.608 295.586 251.338 295.65 215.939H296.183C296.119 251.473 282.751 282.921 259.498 302.202C244.315 314.854 225.15 321.734 205.386 321.625Z" fill="#FF01E6"/>
<path d="M191.33 320.054C190.32 320.054 189.311 320.054 188.295 320.054V319.521C223.431 320.296 256.257 307.553 280.747 283.646C303.93 261.004 316.736 230.878 316.793 198.819H317.326C317.269 231.027 304.406 261.288 281.117 284.03C257.252 307.319 225.456 320.054 191.33 320.054Z" fill="#FF01E6"/>
<path d="M188.502 325.114H187.535C185.773 325.078 183.527 325.014 181.957 324.95C178.567 324.808 174.8 324.382 172.995 324.176C170.309 323.87 166.428 323.209 166.172 323.16C163.038 322.577 160.8 322.157 158.106 321.475C156.514 321.077 154.702 320.615 153.345 320.224C151.561 319.713 149.535 319.116 148.029 318.59L147.219 318.298C145.421 317.673 143.189 316.877 141.533 316.223C138.619 315.079 136.466 314.162 134.938 313.423C132.607 312.286 128.201 310.111 124.939 308.299C122.096 306.707 119.253 305.002 117.491 303.73C116.844 303.268 116.119 302.77 115.359 302.258C113.575 301.022 111.727 299.75 110.263 298.598C108.948 297.568 104.386 293.958 100.953 290.781C99.1482 289.111 96.2984 286.361 94.2161 284.093C92.3612 282.075 88.9002 278.23 86.5408 275.11C82.217 269.563 78.3545 263.671 74.9922 257.493C71.9182 251.591 69.1986 245.511 66.8478 239.285C65.5569 235.748 64.4562 232.144 63.5503 228.49C63.0102 226.472 62.5056 223.998 62.0152 221.61C61.7949 220.516 61.5746 219.478 61.3685 218.498C60.6334 214.771 60.1373 211.002 59.8832 207.212C59.5989 203.353 59.407 198.854 59.3999 195.749C59.3999 193.446 59.5563 190.554 59.6984 188.002C59.7552 187.022 59.805 186.084 59.8476 185.224C60.0964 180.974 60.657 176.748 61.5248 172.581L61.9726 170.505C62.5198 167.89 63.1452 164.927 63.7777 162.61C64.6731 159.298 66.0163 155.034 67.1179 151.999C68.1768 149.078 69.6905 145.355 70.8987 142.761C71.7444 140.92 73.9262 136.265 75.9303 132.847C78.9862 127.616 83.5204 121.042 86.7398 116.636C88.9965 113.701 91.3992 110.88 93.9389 108.186C96.6182 105.266 99.4482 102.488 102.417 99.8639C104.279 98.2649 110.789 92.7571 116.325 89.0047C119.026 87.1712 123.112 84.5772 126.481 82.7934L127.064 82.4807C128.926 81.4928 131.25 80.2633 133.069 79.4034C134.888 78.5435 138.42 76.916 141.107 75.8927L142.109 75.5018C143.317 75.0398 144.681 74.5068 145.79 74.1444C148.185 73.3555 152.186 72.0124 155.171 71.2519C160.504 69.8265 165.92 68.7346 171.389 67.9828L171.424 68.2457L171.389 67.9828C174.672 67.5422 178.268 67.1939 181.011 67.0518C183.435 66.9239 184.337 66.8741 186.768 66.8386C189.198 66.8031 191.672 66.8386 192.347 66.8883C194.052 66.9452 195.666 67.0021 198.032 67.1797C200.399 67.3574 201.635 67.4853 204.109 67.7696C206.241 68.0254 206.532 68.0681 210.881 68.7788C211.72 68.9138 212.722 69.1128 213.61 69.2904L214.591 69.4823C216.908 69.9301 221.279 71.0032 223.752 71.7281C227.12 72.7088 231.427 74.1373 234.483 75.2815C237.041 76.2409 240.062 77.5059 242.18 78.508C245.022 79.8583 249.052 81.9121 252.186 83.632C253.408 84.3426 254.617 85.0533 255.796 85.764C257.139 86.5671 258.447 87.3701 259.549 88.1235C263.273 90.689 267.608 93.8871 270.593 96.275C275.041 99.8284 280.485 105.372 284.195 109.224C287.041 112.213 289.673 115.4 292.069 118.761L293.292 120.516C295.054 123.025 297.044 125.875 298.508 128.206C300.277 130.993 301.904 133.868 303.383 136.819L303.995 138.084C305.324 140.842 306.972 144.281 308.088 146.968C309.204 149.654 310.59 153.435 311.549 156.42C312.508 159.405 313.731 163.839 314.513 167.208C315.33 170.761 316.097 175.452 316.396 177.321C317.308 183.562 317.754 189.861 317.732 196.168C317.565 203.139 316.991 210.094 316.012 216.998C315.494 220.704 314.725 224.37 313.71 227.971C313.439 228.881 313.148 229.904 312.85 230.956C312.182 233.287 311.492 235.703 310.81 237.672C309.659 241.163 308.318 244.589 306.795 247.934C306.411 248.73 305.999 249.611 305.565 250.521C304.57 252.653 303.433 255.012 302.445 256.853C300.811 259.866 298.558 263.668 296.838 266.305C295.118 268.942 292.901 272.069 291.217 274.251C290.271 275.466 286.952 279.694 284.11 282.779C281.388 285.707 279.135 287.974 277.515 289.523C274.786 292.081 271.431 295.002 268.986 296.964C267.075 298.492 264.204 300.674 261.88 302.23C258.831 304.291 254.695 306.828 251.845 308.512C247.222 311.102 242.452 313.42 237.56 315.456C235.855 316.124 231.505 317.808 228.058 318.917C225.365 319.784 221.57 320.843 218.613 321.56C215.657 322.278 212.118 322.982 209.623 323.401C204.826 324.176 203.05 324.339 199.162 324.702C198.288 324.78 195.076 325.05 190.371 325.128L188.502 325.114ZM188.324 67.3574H186.739C184.316 67.3929 183.421 67.4427 181.011 67.5706C178.268 67.7127 174.693 68.061 171.424 68.4945C165.979 69.2443 160.587 70.3338 155.278 71.7565C152.321 72.5311 148.313 73.8459 145.918 74.5992C144.824 74.9617 143.466 75.4876 142.265 75.9495L141.263 76.3404C138.591 77.3567 135.102 78.9699 133.261 79.8369C131.42 80.704 129.139 81.9192 127.277 82.9L126.694 83.2127C123.224 85.1004 119.851 87.1616 116.588 89.3885C111.073 93.1338 104.585 98.6273 102.73 100.212C99.7757 102.821 96.9622 105.584 94.3014 108.492C91.7709 111.171 89.3776 113.977 87.1306 116.899C83.9183 121.291 79.4055 127.843 76.3567 133.06C74.3668 136.457 72.185 141.09 71.3464 142.931C70.1454 145.532 68.6387 149.242 67.5798 152.17C66.5209 155.098 65.1493 159.44 64.2538 162.738C63.6284 165.04 63.0031 167.997 62.4558 170.598C62.2995 171.309 62.1573 172.019 62.0152 172.68C61.1464 176.819 60.5881 181.016 60.3451 185.238C60.3025 186.098 60.2527 187.036 60.1959 188.017C60.0537 190.561 59.8974 193.446 59.8974 195.727C59.8974 198.826 60.0964 203.31 60.3806 207.155C60.6333 210.921 61.1247 214.666 61.8517 218.37C62.0649 219.329 62.2782 220.388 62.5056 221.49C62.9888 223.87 63.4934 226.329 64.0264 228.341C64.9321 231.975 66.0353 235.557 67.3311 239.072C69.6722 245.276 72.3824 251.335 75.4471 257.216C78.7978 263.37 82.6459 269.241 86.9529 274.769C89.2982 277.868 92.745 281.706 94.5928 283.71C96.6608 285.963 99.5036 288.684 101.302 290.369C104.713 293.531 109.268 297.134 110.54 298.186C111.997 299.33 113.831 300.595 115.615 301.825L117.747 303.303C120.133 304.938 122.6 306.451 125.138 307.837C128.393 309.642 132.785 311.817 135.087 312.947C136.601 313.658 138.747 314.596 141.64 315.74C143.317 316.394 145.541 317.161 147.325 317.808L148.142 318.092C149.635 318.618 151.653 319.208 153.43 319.72C154.78 320.104 156.585 320.566 158.17 320.964C160.849 321.639 163.081 322.058 166.172 322.641C166.464 322.698 170.316 323.351 172.988 323.65C174.793 323.856 178.545 324.282 181.914 324.424C183.485 324.488 185.723 324.552 187.486 324.588C188.388 324.588 189.618 324.588 190.257 324.588C194.948 324.51 198.146 324.247 199.013 324.162C202.893 323.806 204.656 323.636 209.439 322.868C211.926 322.463 215.437 321.745 218.386 321.035C221.335 320.324 225.116 319.265 227.795 318.405C231.228 317.296 235.563 315.619 237.269 314.951C242.137 312.929 246.883 310.625 251.482 308.05C254.325 306.366 258.447 303.836 261.489 301.782C263.784 300.233 266.641 298.058 268.553 296.537C270.998 294.59 274.338 291.676 277.081 289.125C278.723 287.59 280.933 285.33 283.648 282.409C286.491 279.36 289.788 275.153 290.755 273.938C292.432 271.806 294.678 268.586 296.348 266.028C298.018 263.469 300.306 259.632 301.934 256.611C302.921 254.785 304.066 252.404 305.039 250.308L306.276 247.721C307.789 244.391 309.122 240.981 310.27 237.508C310.945 235.554 311.627 233.145 312.295 230.821C312.594 229.769 312.885 228.746 313.155 227.829C314.162 224.26 314.926 220.627 315.444 216.955C316.416 210.072 316.988 203.139 317.156 196.189C317.181 189.911 316.736 183.64 315.827 177.427C315.529 175.573 314.761 170.868 313.951 167.357C313.169 163.996 311.983 159.682 311.002 156.612C310.021 153.542 308.664 149.853 307.555 147.195C306.446 144.537 304.798 141.098 303.469 138.34L302.865 137.075C301.39 134.153 299.77 131.307 298.011 128.547C296.554 126.223 294.571 123.38 292.816 120.879L291.586 119.123C289.209 115.784 286.596 112.618 283.769 109.65C280.066 105.805 274.636 100.29 270.216 96.744L269.121 95.8841C290.968 115.371 303.76 144.416 304.471 177.214C304.471 178.195 304.506 179.169 304.506 180.156V180.398C304.378 248.787 252.264 311.426 188.339 320.018L188.267 319.492C251.937 310.964 303.845 248.531 303.973 180.398V180.156C303.973 140.074 285.936 105.308 255.484 86.2259L254.211 85.4726C253.387 84.9823 252.598 84.5132 251.888 84.0513C248.768 82.3456 244.781 80.2918 241.938 78.9486C239.806 77.9536 236.821 76.6886 234.284 75.7363C231.242 74.585 226.943 73.1565 223.624 72.1829C221.158 71.4722 216.815 70.4062 214.513 69.9585L213.504 69.7808C212.622 69.6103 211.627 69.4113 210.832 69.2833C206.461 68.5727 206.198 68.5229 204.045 68.2742C201.578 67.9828 200.427 67.862 197.99 67.6843C195.552 67.5066 194.031 67.4498 192.304 67.3858C191.771 67.3574 190.122 67.3574 188.324 67.3574Z" fill="#FF01E6"/>
<path d="M188.246 320.715L188.167 320.672C156.649 302.756 131.064 232.271 131.214 163.548V163.299H131.448C195.651 154.665 273.506 162.198 305.01 180.093L305.145 180.171V180.327C305.017 249.078 252.591 312.059 188.338 320.701L188.246 320.715ZM131.775 163.783C131.711 232.2 157.075 302.28 188.381 320.132C252.342 311.483 304.435 248.858 304.634 180.441C273.151 162.695 195.736 155.219 131.775 163.783Z" fill="#FF01E6"/>
<path d="M246.905 295.763C231.086 286.773 191.927 282.971 159.627 287.334L159.556 286.808C191.956 282.452 231.263 286.261 247.168 295.294L246.905 295.763Z" fill="#FF01E6"/>
<path d="M288.722 245.461C261.609 230.061 194.535 223.579 139.202 231.02L139.131 230.494C194.564 223.039 261.787 229.549 288.985 244.999L288.722 245.461Z" fill="#FF01E6"/>
<path d="M188.402 320.686L188.196 320.196C227.624 303.758 259.804 234.63 259.932 166.092H260.465C260.337 234.829 228.008 304.177 188.402 320.686Z" fill="#FF01E6"/>
<path d="M188.558 320.509L188.039 320.374C193.255 300.603 197.598 228.696 197.726 160.073H198.259C198.131 228.732 193.781 300.702 188.558 320.509Z" fill="#FF01E6"/>
<path d="M173.705 321.696C149.314 321.696 126.544 313.31 108.415 297.426C96.8664 287.251 87.7369 274.625 81.693 260.471C75.1903 245.546 71.8999 229.123 71.9141 211.725C62.1635 206.146 57.6436 199.935 58.8376 193.752C61.4173 180.647 89.212 168.985 131.448 163.299L131.746 163.257V163.562C131.618 232.114 157.046 302.394 188.43 320.225L189.141 320.615L188.359 320.715C183.502 321.368 178.606 321.696 173.705 321.696ZM131.206 163.854C89.3755 169.539 61.858 181.017 59.3635 193.887C58.2051 199.857 62.6823 205.905 72.3121 211.37L72.4471 211.448V211.626C72.4116 229.009 75.6878 245.39 82.1763 260.314C88.199 274.384 97.2841 286.934 108.77 297.049C130.168 315.797 158.098 324.055 187.485 320.296C156.314 301.768 131.163 231.987 131.213 163.854H131.206Z" fill="#FF01E6"/>
<path d="M129.522 311.54C124.505 308.697 122.181 305.492 122.799 302.301C124.093 295.621 138.164 289.687 159.527 286.816L159.598 287.341C138.47 290.184 124.576 295.955 123.354 302.408C122.778 305.357 125.017 308.356 129.814 311.085L129.522 311.54Z" fill="#FF01E6"/>
<path d="M87.8481 272.474C79.3199 267.641 75.3828 262.24 76.4275 256.839C78.6306 245.468 102.652 235.384 139.131 230.48L139.202 231.006C102.957 235.881 79.1067 245.816 76.9463 256.938C75.9513 262.077 79.789 267.286 88.111 271.998L87.8481 272.474Z" fill="#FF01E6"/>
<path d="M188.253 320.701C128.556 309.6 80.1585 244.658 80.2864 175.871H80.8194C80.6915 244.388 128.925 309.124 188.345 320.175L188.253 320.701Z" fill="#FF01E6"/>
<path d="M188.295 320.708C116.851 319.13 58.8806 261.892 59.0085 193.105H59.5415C59.4136 261.593 117.178 318.597 188.302 320.168L188.295 320.708Z" fill="#FF01E6"/>
<path d="M202.687 324.851C197.596 324.75 192.618 323.324 188.246 320.715C158.454 324.702 130.112 316.451 108.422 297.426C96.874 287.251 87.7445 274.625 81.7006 260.471C75.1766 245.482 71.8861 229.023 71.9217 211.569V211.114L72.3197 211.334C103.732 229.186 181.445 236.691 245.541 228.071L245.846 228.028V228.334C245.761 274.741 233.928 310.41 214.974 321.433C211.259 323.652 207.015 324.833 202.687 324.851ZM188.352 320.161L188.431 320.21C197.669 325.469 206.539 325.739 214.726 320.992C233.48 310.104 245.2 274.741 245.335 228.675C181.459 237.203 104.179 229.762 72.476 212.059C72.476 229.272 75.7736 245.497 82.2052 260.293C88.2279 274.363 97.313 286.913 108.799 297.028C130.389 315.946 158.617 324.169 188.288 320.175L188.352 320.161Z" fill="#FF01E6"/>
<path d="M189.298 290.071C147.631 290.071 107.399 283.582 87.8481 272.474L88.1111 272.012C115.224 287.42 182.29 293.894 237.631 286.453L237.695 286.979C221.648 289.075 205.481 290.108 189.298 290.071Z" fill="#FF01E6"/>
<path d="M171.573 324.247C163.997 324.226 156.603 321.925 150.352 317.645C129.124 303.467 116.502 269.141 116.58 225.825H117.113C117.035 268.963 129.572 303.118 150.65 317.197C161.886 324.709 174.87 325.725 188.181 320.196L188.388 320.686C183.074 322.975 177.358 324.186 171.573 324.247Z" fill="#FF01E6"/>
<path d="M185.694 325.789H185.574C180.777 325.164 178.716 278.174 178.801 231.844H179.334C179.22 292.607 182.425 324.83 185.645 325.249C185.986 325.313 186.853 324.894 188.04 320.374L188.558 320.509C187.613 324.098 186.697 325.789 185.694 325.789Z" fill="#FF01E6"/>
<path d="M202.687 324.851C197.954 324.851 193.064 323.43 188.168 320.672L187.457 320.281L188.246 320.175C202.198 318.247 215.701 313.876 228.136 307.262C238.91 290.362 245.228 262.247 245.292 228.376V228.142H245.52C268.823 225.008 287.706 220.068 300.327 214.084C303.124 203.056 304.556 191.726 304.591 180.349V179.894L304.989 180.114C314.832 185.707 319.395 191.954 318.194 198.165C317.064 204 310.945 209.536 300.789 214.418C290.626 254.451 263.443 289.253 228.499 307.709C224.547 313.878 219.971 318.554 214.953 321.49C211.238 323.685 207.002 324.846 202.687 324.851ZM189.127 320.587C198.139 325.476 206.745 325.611 214.712 320.985C219.48 318.22 223.794 313.878 227.575 308.157C215.553 314.444 202.553 318.65 189.127 320.594V320.587ZM245.846 228.597C245.754 261.942 239.6 289.715 229.089 306.771C263.386 288.343 290.058 254.074 300.157 214.674C287.528 220.609 268.83 225.498 245.846 228.604V228.597ZM305.138 180.768C305.069 191.887 303.669 202.957 300.967 213.743C310.732 209.017 316.602 203.652 317.689 198.023C318.833 192.146 314.491 186.183 305.138 180.775V180.768Z" fill="#FF01E6"/>
<path d="M237.666 286.958L237.602 286.432C273.847 281.556 297.69 271.621 299.85 260.499C300.845 255.361 297.008 250.151 288.693 245.44L288.956 244.978C297.484 249.817 301.414 255.219 300.376 260.613C298.202 271.976 274.174 282.075 237.666 286.958Z" fill="#FF01E6"/>
<path d="M205.48 322.314C199.7 322.306 193.934 321.766 188.253 320.701L188.345 320.175C214.548 325.05 239.834 318.753 259.548 302.408C282.802 283.113 296.177 251.651 296.248 216.074H296.781C296.71 251.807 283.278 283.425 259.889 302.777C244.624 315.502 225.353 322.422 205.48 322.314Z" fill="#FF01E6"/>
<path d="M191.344 320.736C190.327 320.736 189.311 320.736 188.295 320.736V320.203C223.651 320.978 256.641 308.171 281.259 284.129C304.576 261.387 317.454 231.077 317.504 198.847H318.037C317.98 231.226 305.045 261.65 281.628 284.52C257.629 307.93 225.662 320.736 191.344 320.736Z" fill="#FF01E6"/>
<path d="M305.138 180.768L304.74 180.548C273.328 162.695 195.622 155.191 131.519 163.811L131.213 163.854V163.548C131.299 117.134 143.131 81.4647 162.092 70.4491C170.294 65.6876 179.532 65.9434 188.814 71.1598C218.599 67.18 246.948 75.4239 268.638 94.4488C280.184 104.625 289.313 117.251 295.359 131.404C301.883 146.392 305.174 162.845 305.145 180.306L305.138 180.768ZM187.506 159.703C235.491 159.703 281.821 167.13 304.612 179.858C304.612 162.639 301.307 146.414 294.876 131.624C288.853 117.552 279.768 105 268.282 94.8823C246.692 75.964 218.478 67.7485 188.8 71.7355H188.707L188.629 71.6928C179.39 66.4267 170.521 66.1637 162.334 70.904C143.608 81.8058 131.889 117.169 131.775 163.243C150.254 160.843 168.872 159.661 187.506 159.703Z" fill="#FF01E6"/>
<path d="M288.956 119.905C261.829 104.498 194.762 98.0232 139.436 105.464L139.365 104.931C194.798 97.476 262.014 103.986 289.219 119.436L288.956 119.905Z" fill="#FF01E6"/>
<path d="M247.275 80.8605C231.455 71.8704 192.304 68.0683 159.996 72.439L159.925 71.9131C192.325 67.5566 231.633 71.3587 247.538 80.3986L247.275 80.8605Z" fill="#FF01E6"/>
<path d="M260.465 166.092H259.932C260.01 122.954 247.474 88.7916 226.395 74.713C215.159 67.2011 202.182 66.1849 188.864 71.7211L188.658 71.2236C202.161 65.6021 215.294 66.661 226.693 74.2653C247.921 88.4505 260.543 122.79 260.465 166.092Z" fill="#FF01E6"/>
<path d="M198.259 160.073H197.726C197.868 99.3382 194.635 67.0804 191.415 66.6469C191.095 66.5971 190.214 66.9951 189.02 71.5221L188.501 71.3871C189.489 67.656 190.449 65.9859 191.486 66.1139C196.283 66.7535 198.344 113.765 198.259 160.073Z" fill="#FF01E6"/>
<path d="M72.4545 212.059L72.0565 211.839C62.2065 206.246 57.6439 199.999 58.845 193.788C59.9821 187.953 66.0939 182.417 76.2495 177.534C86.4123 137.495 113.596 102.693 148.547 84.2363C152.498 78.0676 157.075 73.3914 162.093 70.4563C170.315 65.6805 179.582 65.9505 188.892 71.238L189.603 71.6289L188.821 71.7355C174.859 73.6596 161.346 78.0309 148.902 84.6485C138.128 101.548 131.846 129.663 131.747 163.534V163.769H131.519C108.216 166.903 89.3403 171.842 76.7186 177.826C73.9216 188.854 72.4895 200.184 72.4545 211.562V212.059ZM76.0932 178.167C66.3356 182.893 60.4582 188.259 59.3709 193.887C58.2267 199.772 62.569 205.734 71.9215 211.142C71.9909 200.023 73.3915 188.953 76.0932 178.167ZM147.978 85.1247C113.674 103.602 87.0021 137.836 76.8749 177.243C89.5321 171.309 108.23 166.419 131.214 163.314C131.306 129.961 137.46 102.181 147.978 85.1247ZM174.416 67.5496C170.16 67.5647 165.986 68.7258 162.334 70.9111C157.566 73.6827 153.252 78.0179 149.471 83.7033C161.498 77.4386 174.497 73.2506 187.919 71.3162C183.295 68.8098 178.794 67.5543 174.416 67.5496Z" fill="#FF01E6"/>
<path d="M88.0756 146.954C79.5474 142.114 75.6173 136.713 76.662 131.319C78.858 119.948 102.886 109.863 139.365 104.96L139.436 105.493C103.192 110.361 79.3413 120.303 77.1808 131.425C76.1859 136.564 80.0236 141.766 88.3385 146.478L88.0756 146.954Z" fill="#FF01E6"/>
<path d="M129.92 96.616C124.902 93.7733 122.579 90.5681 123.197 87.3772C124.49 80.6968 138.569 74.7626 159.925 71.8915L159.996 72.4174C138.867 75.2601 124.974 81.0308 123.751 87.4767C123.176 90.426 125.414 93.4322 130.211 96.1612L129.92 96.616Z" fill="#FF01E6"/>
<path d="M80.8191 175.871H80.2861C80.3501 140.131 93.7891 108.513 117.178 89.1257C137.013 72.6664 162.455 66.3058 188.807 71.2095L188.715 71.7354C162.512 66.8601 137.226 73.1567 117.512 89.5024C94.2581 108.826 80.8831 140.295 80.8191 175.871Z" fill="#FF01E6"/>
<path d="M59.5413 193.148H59.0083C59.0723 160.769 71.9995 130.338 95.4235 107.468C120.148 83.3051 153.294 70.4632 188.764 71.2236V71.7566C153.429 70.9748 120.425 83.7884 95.8073 107.831C72.4757 130.608 59.6053 160.869 59.5413 193.148Z" fill="#FF01E6"/>
<path d="M189.553 232.235C141.291 232.235 94.6988 224.702 72.0779 211.839L71.9429 211.761V211.626C72.0779 142.832 124.448 79.8513 188.729 71.2095H188.814L188.892 71.2521C220.425 89.1684 245.974 159.661 245.846 228.383V228.618H245.612C227.026 231.059 208.299 232.268 189.553 232.235ZM72.4546 211.448C103.916 229.215 181.345 236.698 245.313 228.135C245.384 159.718 220.02 89.6303 188.708 71.7851C124.775 80.3986 72.6536 143.024 72.4546 211.448Z" fill="#FF01E6"/>
<path d="M189.532 164.507C147.865 164.507 107.633 158.026 88.0752 146.918L88.3382 146.449C115.429 161.878 182.525 168.338 237.858 160.89L237.929 161.423C221.882 163.517 205.715 164.547 189.532 164.507Z" fill="#FF01E6"/>
<path d="M189.255 106.907C164.893 106.907 141.362 103.112 129.92 96.6164L130.183 96.1544C146.01 105.137 185.162 108.947 217.469 104.576L217.54 105.102C208.162 106.328 198.713 106.931 189.255 106.907Z" fill="#FF01E6"/>
<path d="M117.128 225.839H116.595C116.723 157.102 149.051 87.747 188.658 71.2379L188.864 71.7354C149.435 88.1521 117.256 157.28 117.128 225.839Z" fill="#FF01E6"/>
<path d="M179.333 231.844H178.8C178.928 163.186 183.285 91.215 188.501 71.4083L189.02 71.5434C183.803 91.3074 179.461 163.221 179.333 231.844Z" fill="#FF01E6"/>
<path d="M245.313 228.682V228.376C245.441 159.817 220.013 89.5381 188.629 71.7142L187.918 71.3234L188.707 71.2167C218.556 67.2085 246.905 75.4808 268.616 94.4915C280.162 104.668 289.291 117.294 295.338 131.447C301.84 146.371 305.131 162.795 305.124 180.192C314.874 185.764 319.394 191.983 318.193 198.165C315.642 211.306 287.826 222.99 245.59 228.668L245.313 228.682ZM189.574 71.6218C220.745 90.0995 245.896 159.917 245.846 228.05C287.677 222.364 315.194 210.887 317.689 198.016C318.847 192.047 314.37 185.999 304.74 180.534L304.612 180.455V180.299C304.612 162.916 301.364 146.535 294.876 131.61C288.853 117.538 279.768 104.986 268.282 94.8682C246.905 76.1347 218.961 67.8908 189.574 71.6218Z" fill="#FF01E6"/>
<path d="M237.929 161.423L237.858 160.89C274.103 156.022 297.953 146.08 300.114 134.957C301.109 129.826 297.271 124.617 288.956 119.905L289.219 119.436C297.747 124.276 301.677 129.677 300.633 135.071C298.437 146.414 274.409 156.519 237.929 161.423Z" fill="#FF01E6"/>
<path d="M217.54 105.102L217.469 104.576C238.59 101.733 252.491 95.9626 253.713 89.5096C254.282 86.5603 252.05 83.5612 247.246 80.8322L247.509 80.3702C252.527 83.213 254.858 86.4181 254.232 89.6091C252.967 96.2966 238.896 102.231 217.54 105.102Z" fill="#FF01E6"/>
<path d="M296.781 216.046H296.248C296.376 147.529 248.135 82.7865 188.715 71.7354L188.807 71.2095C248.469 82.2819 296.909 147.281 296.781 216.046Z" fill="#FF01E6"/>
<path d="M318.051 198.833H317.518C317.646 130.338 259.882 73.3344 188.757 71.7638V71.2308C260.181 72.7801 318.179 130.025 318.051 198.833Z" fill="#FF01E6"/>
<path d="M188.551 325.824C182.236 325.822 175.93 325.359 169.682 324.439C164.146 323.628 159.804 322.598 157.949 322.157C152.811 320.942 147.857 319.272 147.815 319.251C143.325 317.767 138.922 316.035 134.624 314.063C131.59 312.712 127.518 310.637 124.554 308.91C122.06 307.489 119.224 305.798 117.156 304.369C113.411 301.789 109.054 298.577 106.055 296.175C101.585 292.622 96.1056 287.028 92.3745 283.155C89.5115 280.149 86.8659 276.943 84.4575 273.561L83.2352 271.82C81.4656 269.29 79.4615 266.419 77.9832 264.066C76.0857 261.046 73.9253 257.016 73.0796 255.425C71.4237 252.283 69.5262 248.09 68.3464 245.205C67.5576 243.3 66.7332 240.941 65.9372 238.695C65.5677 237.643 65.2265 236.627 64.8712 235.71C63.628 232.162 62.633 228.531 61.8935 224.844C60.515 218.035 59.5208 211.155 58.9157 204.234C58.539 198.84 58.3898 190.987 59.1076 185.117C59.2284 184.115 59.3421 182.985 59.4558 181.869C59.733 179.204 60.0386 176.184 60.5432 173.824C60.7493 172.872 60.9625 171.813 61.1828 170.719C61.666 168.302 62.1635 165.808 62.6965 163.761C63.5849 160.13 64.6691 156.55 65.9443 153.037C66.2783 152.191 66.655 151.253 67.0032 150.279C67.8774 147.984 68.787 145.61 69.647 143.677C71.0683 140.486 73.0582 136.457 74.6217 133.664C76.1852 130.871 78.1751 127.545 79.696 125.207C81.7427 122.016 83.9511 118.933 86.3124 115.968C90.3154 111.044 94.5859 106.344 99.1046 101.889C101.45 99.6791 104.826 96.7369 107.697 94.4058C109.886 92.622 112.75 90.4971 114.804 89.1042C117.646 87.1782 121.733 84.6411 124.888 82.7862C126.85 81.642 129.543 80.2207 131.597 79.2328C133.821 78.1881 136.366 77.0084 138.32 76.1698C139.834 75.5302 141.873 74.7484 143.458 74.1515L144.005 73.9454C147.616 72.5738 152.249 71.2448 153.585 70.8752C155.653 70.2996 157.196 69.8945 158.304 69.6458C160.642 69.127 164.409 68.3239 167.337 67.798C169.298 67.4427 174.01 66.7817 177.905 66.4832C186.646 65.7657 195.437 65.9372 204.143 66.9949C210.248 67.7411 214.803 68.7361 214.803 68.7432C217.738 69.4041 221.157 70.2356 223.509 70.8752C225.442 71.4011 227.915 72.1971 229.195 72.6235C231.17 73.2773 233.814 74.2368 235.761 75.0043C237.964 75.8713 240.857 77.1363 242.385 77.847C244.346 78.7212 246.649 79.8938 248.781 81.0238C250.01 81.6563 251.233 82.3172 252.434 82.9994L252.825 83.2411C257.416 86.0838 263.122 89.559 267.173 92.75C270.35 95.2516 274.024 98.3359 276.54 100.61C278.743 102.607 281.465 105.308 283.32 107.347C285.971 110.261 289.005 113.8 291.031 116.373C292.68 118.462 294.932 121.589 296.766 124.34C298.6 127.09 300.845 130.835 302.643 134.09C303.88 136.336 305.266 139.25 306.488 141.815L307.071 143.045C308.542 146.115 310.141 150.422 311.214 153.492C311.925 155.453 312.635 157.862 313.275 160.193C313.588 161.267 313.886 162.326 314.171 163.235C315.233 166.86 316.024 170.558 316.537 174.3C316.658 175.26 316.807 176.312 316.964 177.406C317.312 179.908 317.674 182.488 317.852 184.641C318.136 188.102 318.335 192.736 318.342 196.168C318.225 203.182 317.646 210.181 316.608 217.119C316.003 221.299 315.113 225.433 313.943 229.492C313.716 230.245 313.467 231.07 313.232 231.922C312.522 234.339 311.704 237.075 310.944 239.207C309.746 242.702 308.361 246.13 306.794 249.476L305.891 251.487C304.775 253.783 303.51 256.384 302.402 258.388C300.724 261.401 298.415 265.196 296.659 267.826C292.786 273.635 288.451 279.122 283.697 284.236C282.794 285.195 279.639 288.5 277.009 290.93C274.216 293.489 270.812 296.395 268.332 298.335C266.392 299.842 263.499 302.003 261.189 303.523C258.084 305.57 253.884 308.093 250.991 309.763C246.219 312.372 241.295 314.69 236.245 316.706C233.629 317.701 229.77 319.101 226.814 320.018C224.142 320.843 220.382 321.852 217.461 322.527C207.98 324.716 198.281 325.822 188.551 325.824ZM124.824 308.448C127.795 310.168 131.817 312.229 134.845 313.572C139.127 315.539 143.513 317.268 147.985 318.753C148.035 318.753 152.96 320.43 158.063 321.639C159.918 322.079 164.246 323.103 169.76 323.913C185.612 326.259 201.763 325.611 217.376 322.001C220.283 321.333 224.021 320.331 226.679 319.507C229.628 318.59 233.473 317.204 236.088 316.209C241.098 314.2 245.984 311.896 250.721 309.308C253.614 307.631 257.828 305.122 260.898 303.083C263.193 301.569 266.072 299.416 268.005 297.909C270.478 295.983 273.875 293.083 276.661 290.532C278.423 288.919 280.925 286.424 283.313 283.873C288.047 278.779 292.366 273.313 296.226 267.527C297.974 264.898 300.27 261.131 301.911 258.118C303.02 256.128 304.278 253.534 305.387 251.246L306.367 249.235C307.921 245.903 309.297 242.492 310.489 239.015C311.25 236.883 312.06 234.168 312.771 231.766C313.026 230.913 313.268 230.089 313.481 229.328C314.642 225.297 315.528 221.192 316.132 217.041C317.166 210.129 317.743 203.156 317.859 196.168C317.859 192.736 317.66 188.123 317.376 184.676C317.198 182.544 316.836 179.965 316.487 177.477C316.331 176.376 316.182 175.345 316.061 174.357C315.549 170.649 314.763 166.984 313.709 163.392C313.424 162.453 313.126 161.416 312.813 160.343C312.145 158.019 311.449 155.617 310.766 153.669C309.686 150.614 308.101 146.328 306.644 143.279L306.055 142.043C304.839 139.484 303.453 136.585 302.224 134.346C300.433 131.098 298.138 127.289 296.368 124.638C294.598 121.987 292.31 118.782 290.683 116.707C288.657 114.141 285.637 110.609 282.993 107.703C281.152 105.684 278.445 102.991 276.256 101.008C273.74 98.741 270.08 95.6638 266.917 93.1906C262.881 89.9996 257.188 86.5031 252.59 83.703L252.213 83.4685C251.147 82.8857 249.897 82.2035 248.582 81.507C230.595 72.2682 210.063 68.9067 188.885 71.7281H188.842H188.75L188.679 71.2022C203.913 69.0467 219.436 70.3239 234.112 74.9403C232.449 74.3149 230.595 73.654 229.138 73.1636C227.837 72.7301 225.378 71.9413 223.452 71.4225C221.107 70.79 217.703 70.0011 214.775 69.2904C214.732 69.2904 210.269 68.3026 204.15 67.5493C195.462 66.4977 186.69 66.3334 177.969 67.0589C174.088 67.3574 169.398 68.0112 167.458 68.3665C164.537 68.8924 160.777 69.6884 158.446 70.2072C157.338 70.4559 155.81 70.8539 153.749 71.4296C152.42 71.7991 147.8 73.121 144.219 74.4855L143.664 74.6916C142.058 75.3028 140.054 76.0632 138.547 76.7028C136.6 77.5343 134.07 78.714 131.846 79.7587C129.806 80.7182 127.127 82.1253 125.179 83.2695C122.031 85.1173 117.987 87.6473 115.116 89.5661C113.055 90.9875 110.205 93.0698 108.009 94.8394C105.167 97.1704 101.791 100.091 99.4813 102.294C94.9642 106.736 90.6937 111.422 86.6891 116.33C84.3406 119.284 82.1419 122.353 80.1011 125.527C78.5873 127.815 76.5477 131.212 75.0552 133.948C73.5628 136.684 71.5445 140.742 70.1231 143.898C69.2703 145.809 68.3677 148.162 67.4936 150.471C67.1241 151.445 66.7829 152.383 66.4347 153.236C65.1636 156.727 64.0865 160.286 63.2082 163.896C62.6752 165.929 62.1777 168.416 61.6945 170.825C61.4742 171.92 61.2609 172.957 61.062 173.938C60.5645 176.269 60.2518 179.275 59.9817 181.926C59.8609 183.07 59.7472 184.179 59.6264 185.181C58.9157 191.016 59.0649 198.826 59.4416 204.199C60.0441 211.088 61.0335 217.938 62.4051 224.716C63.145 228.376 64.1352 231.98 65.3687 235.504C65.7027 236.414 66.0794 237.437 66.4276 238.489C67.2236 240.749 68.0479 243.08 68.8368 244.978C70.0307 247.82 71.8927 252.02 73.5486 255.14C74.3872 256.732 76.5406 260.748 78.431 263.754C79.895 266.099 81.8991 268.963 83.6687 271.486L84.8911 273.234C87.2822 276.591 89.9089 279.773 92.7512 282.757C96.468 286.623 101.933 292.174 106.382 295.734C109.367 298.122 113.716 301.334 117.447 303.9C119.508 305.321 122.33 306.977 124.817 308.42L124.824 308.448Z" fill="#FF01E6"/>
<path d="M188.245 320.715L188.167 320.672C156.648 302.756 131.064 232.27 131.213 163.548V163.299H131.448C195.65 154.664 273.505 162.197 305.01 180.092L305.145 180.171V180.327C305.017 249.078 252.59 312.058 188.337 320.7L188.245 320.715ZM131.774 163.782C131.711 232.199 157.075 302.279 188.38 320.132C252.341 311.483 304.434 248.858 304.633 180.441C273.15 162.695 195.736 155.219 131.774 163.782Z" fill="#FF01E6"/>
<path d="M246.904 295.763C231.085 286.772 191.926 282.97 159.626 287.334L159.555 286.808C191.955 282.452 231.262 286.261 247.167 295.294L246.904 295.763Z" fill="#FF01E6"/>
<path d="M288.721 245.461C261.608 230.06 194.534 223.579 139.201 231.02L139.13 230.494C194.563 223.039 261.786 229.548 288.984 244.999L288.721 245.461Z" fill="#FF01E6"/>
<path d="M188.401 320.686L188.195 320.196C227.624 303.758 259.803 234.63 259.931 166.092H260.464C260.336 234.829 228.008 304.177 188.401 320.686Z" fill="#FF01E6"/>
<path d="M188.558 320.508L188.039 320.373C193.255 300.602 197.598 228.696 197.726 160.073H198.259C198.131 228.731 193.781 300.702 188.558 320.508Z" fill="#FF01E6"/>
<path d="M173.705 321.695C149.314 321.695 126.544 313.309 108.415 297.426C96.8664 287.251 87.7369 274.625 81.693 260.47C75.1903 245.546 71.8999 229.122 71.9141 211.725C62.1635 206.146 57.6436 199.935 58.8376 193.752C61.4173 180.647 89.212 168.984 131.448 163.299L131.746 163.256V163.562C131.618 232.114 157.046 302.393 188.43 320.224L189.141 320.615L188.359 320.715C183.502 321.368 178.606 321.695 173.705 321.695ZM131.206 163.853C89.3755 169.539 61.858 181.016 59.3635 193.887C58.2051 199.856 62.6823 205.904 72.3121 211.369L72.4471 211.448V211.625C72.4116 229.008 75.6878 245.39 82.1763 260.314C88.199 274.384 97.2841 286.934 108.77 297.049C130.168 315.797 158.098 324.055 187.485 320.295C156.314 301.768 131.163 231.986 131.213 163.853H131.206Z" fill="#FF01E6"/>
<path d="M129.522 311.54C124.505 308.697 122.181 305.492 122.799 302.301C124.092 295.621 138.164 289.686 159.527 286.815L159.598 287.341C138.469 290.184 124.576 295.955 123.353 302.408C122.778 305.357 125.016 308.356 129.813 311.085L129.522 311.54Z" fill="#FF01E6"/>
<path d="M87.8471 272.474C79.3189 267.641 75.3818 262.24 76.4265 256.839C78.6296 245.468 102.651 235.383 139.13 230.479L139.201 231.005C102.956 235.881 79.1057 245.816 76.9453 256.938C75.9503 262.076 79.788 267.286 88.1101 271.997L87.8471 272.474Z" fill="#FF01E6"/>
<path d="M188.252 320.701C128.555 309.6 80.158 244.658 80.2859 175.871H80.8189C80.691 244.388 128.925 309.124 188.345 320.175L188.252 320.701Z" fill="#FF01E6"/>
<path d="M188.295 320.708C116.85 319.13 58.8801 261.892 59.008 193.105H59.541C59.4131 261.593 117.177 318.597 188.302 320.167L188.295 320.708Z" fill="#FF01E6"/>
<path d="M202.686 324.851C197.595 324.75 192.618 323.324 188.245 320.715C158.454 324.702 130.112 316.451 108.422 297.426C96.8735 287.251 87.744 274.625 81.7001 260.47C75.1761 245.482 71.8856 229.023 71.9212 211.568V211.114L72.3192 211.334C103.731 229.186 181.444 236.691 245.54 228.07L245.846 228.028V228.333C245.761 274.741 233.928 310.41 214.974 321.432C211.258 323.652 207.014 324.832 202.686 324.851ZM188.352 320.16L188.43 320.21C197.669 325.469 206.538 325.739 214.725 320.992C233.48 310.104 245.199 274.741 245.334 228.675C181.458 237.203 104.179 229.762 72.4755 212.059C72.4755 229.272 75.7731 245.496 82.2047 260.293C88.2274 274.363 97.3125 286.913 108.798 297.028C130.389 315.946 158.617 324.169 188.288 320.175L188.352 320.16Z" fill="#FF01E6"/>
<path d="M189.297 290.07C147.63 290.07 107.398 283.582 87.8477 272.474L88.1106 272.012C115.223 287.419 182.29 293.894 237.631 286.453L237.695 286.979C221.648 289.075 205.48 290.108 189.297 290.07Z" fill="#FF01E6"/>
<path d="M171.573 324.247C163.997 324.225 156.603 321.925 150.352 317.644C129.124 303.466 116.502 269.141 116.58 225.825H117.113C117.035 268.963 129.572 303.118 150.65 317.197C161.886 324.709 174.87 325.725 188.181 320.196L188.388 320.686C183.074 322.975 177.358 324.186 171.573 324.247Z" fill="#FF01E6"/>
<path d="M185.694 325.789H185.573C180.776 325.163 178.715 278.173 178.8 231.844H179.333C179.22 292.607 182.425 324.829 185.644 325.249C185.985 325.313 186.852 324.893 188.039 320.373L188.558 320.509C187.613 324.097 186.696 325.789 185.694 325.789Z" fill="#FF01E6"/>
<path d="M202.686 324.851C197.953 324.851 193.064 323.43 188.167 320.672L187.457 320.281L188.245 320.175C202.198 318.247 215.701 313.876 228.136 307.262C238.91 290.362 245.228 262.247 245.292 228.376V228.142H245.519C268.822 225.007 287.705 220.068 300.327 214.084C303.124 203.056 304.556 191.726 304.591 180.348V179.894L304.989 180.114C314.832 185.707 319.394 191.954 318.193 198.165C317.063 204 310.944 209.536 300.789 214.418C290.626 254.451 263.442 289.253 228.498 307.709C224.547 313.878 219.97 318.554 214.953 321.489C211.238 323.685 207.002 324.846 202.686 324.851ZM189.127 320.587C198.138 325.476 206.744 325.611 214.711 320.985C219.48 318.22 223.794 313.878 227.574 308.157C215.553 314.444 202.553 318.649 189.127 320.594V320.587ZM245.846 228.596C245.754 261.942 239.599 289.715 229.088 306.771C263.386 288.343 290.057 254.074 300.156 214.674C287.527 220.608 268.829 225.498 245.846 228.604V228.596ZM305.138 180.768C305.069 191.887 303.668 202.957 300.966 213.743C310.731 209.017 316.601 203.652 317.689 198.023C318.833 192.146 314.491 186.183 305.138 180.775V180.768Z" fill="#FF01E6"/>
<path d="M237.666 286.957L237.602 286.431C273.847 281.556 297.69 271.621 299.85 260.499C300.845 255.36 297.008 250.151 288.693 245.439L288.956 244.977C297.484 249.817 301.414 255.218 300.376 260.612C298.202 271.976 274.174 282.075 237.666 286.957Z" fill="#FF01E6"/>
<path d="M205.479 322.313C199.699 322.306 193.933 321.766 188.252 320.7L188.344 320.174C214.547 325.05 239.833 318.753 259.547 302.407C282.801 283.112 296.176 251.651 296.247 216.074H296.78C296.709 251.807 283.277 283.425 259.888 302.777C244.623 315.502 225.352 322.422 205.479 322.313Z" fill="#FF01E6"/>
<path d="M191.344 320.736C190.327 320.736 189.311 320.736 188.295 320.736V320.203C223.651 320.977 256.641 308.171 281.259 284.129C304.576 261.387 317.454 231.076 317.504 198.847H318.037C317.98 231.226 305.045 261.65 281.628 284.52C257.629 307.929 225.662 320.736 191.344 320.736Z" fill="#FF01E6"/>
<path d="M305.138 180.768L304.74 180.547C273.328 162.695 195.622 155.19 131.519 163.811L131.213 163.854V163.548C131.299 117.133 143.131 81.4644 162.092 70.4489C170.294 65.6873 179.532 65.9432 188.814 71.1596C218.599 67.1797 246.948 75.4236 268.638 94.4485C280.184 104.625 289.313 117.251 295.359 131.404C301.883 146.392 305.174 162.844 305.145 180.306L305.138 180.768ZM187.506 159.703C235.491 159.703 281.821 167.13 304.612 179.858C304.612 162.638 301.307 146.413 294.876 131.624C288.853 117.552 279.768 105 268.282 94.882C246.692 75.9638 218.478 67.7483 188.8 71.7352H188.707L188.629 71.6926C179.39 66.4264 170.521 66.1635 162.334 70.9037C143.608 81.8055 131.889 117.169 131.775 163.242C150.254 160.843 168.872 159.661 187.506 159.703Z" fill="#FF01E6"/>
<path d="M288.956 119.905C261.829 104.497 194.762 98.023 139.436 105.464L139.365 104.931C194.798 97.4758 262.014 103.986 289.219 119.436L288.956 119.905Z" fill="#FF01E6"/>
<path d="M247.274 80.86C231.454 71.8699 192.303 68.0678 159.995 72.4385L159.924 71.9126C192.324 67.5561 231.632 71.3583 247.537 80.3981L247.274 80.86Z" fill="#FF01E6"/>
<path d="M260.464 166.092H259.931C260.009 122.954 247.473 88.7915 226.394 74.7129C215.158 67.201 202.181 66.1847 188.863 71.7209L188.657 71.2235C202.16 65.602 215.293 66.6609 226.693 74.2652C247.921 88.4503 260.542 122.79 260.464 166.092Z" fill="#FF01E6"/>
<path d="M198.259 160.073H197.726C197.868 99.3379 194.634 67.0802 191.415 66.6466C191.095 66.5969 190.214 66.9949 189.02 71.5219L188.501 71.3869C189.489 67.6558 190.448 65.9857 191.486 66.1136C196.283 66.7532 198.344 113.765 198.259 160.073Z" fill="#FF01E6"/>
<path d="M72.454 212.059L72.056 211.838C62.206 206.245 57.6435 199.998 58.8445 193.787C59.9816 187.952 66.0934 182.416 76.2491 177.534C86.4118 137.494 113.595 102.692 148.547 84.2358C152.498 78.0671 157.075 73.3909 162.092 70.4558C170.315 65.68 179.582 65.9501 188.892 71.2375L189.602 71.6284L188.821 71.735C174.859 73.6591 161.346 78.0304 148.902 84.648C138.128 101.548 131.846 129.662 131.746 163.534V163.768H131.519C108.215 166.902 89.3398 171.841 76.7181 177.825C73.9211 188.854 72.489 200.184 72.454 211.561V212.059ZM76.0927 178.166C66.3351 182.892 60.4577 188.258 59.3704 193.887C58.2262 199.771 62.5685 205.734 71.921 211.142C71.9904 200.023 73.391 188.952 76.0927 178.166ZM147.978 85.1242C113.673 103.602 87.0016 137.835 76.8745 177.243C89.5317 171.308 108.23 166.419 131.213 163.313C131.305 129.961 137.46 102.181 147.978 85.1242ZM174.415 67.5491C170.159 67.5642 165.986 68.7254 162.334 70.9106C157.565 73.6823 153.251 78.0174 149.47 83.7028C161.497 77.4381 174.496 73.2501 187.918 71.3157C183.294 68.8094 178.793 67.5538 174.415 67.5491Z" fill="#FF01E6"/>
<path d="M88.0746 146.953C79.5464 142.114 75.6164 136.713 76.6611 131.318C78.8571 119.948 102.885 109.863 139.364 104.959L139.435 105.492C103.191 110.361 79.3403 120.303 77.1799 131.425C76.1849 136.563 80.0226 141.765 88.3375 146.477L88.0746 146.953Z" fill="#FF01E6"/>
<path d="M129.919 96.6159C124.902 93.7732 122.578 90.568 123.196 87.3771C124.49 80.6967 138.568 74.7625 159.924 71.8914L159.995 72.4173C138.867 75.26 124.973 81.0307 123.751 87.4766C123.175 90.4259 125.414 93.4321 130.211 96.1611L129.919 96.6159Z" fill="#FF01E6"/>
<path d="M80.8191 175.871H80.2861C80.3501 140.131 93.7891 108.513 117.178 89.1255C137.013 72.6661 162.455 66.3055 188.807 71.2092L188.715 71.7351C162.512 66.8599 137.226 73.1565 117.512 89.5021C94.2581 108.826 80.8831 140.294 80.8191 175.871Z" fill="#FF01E6"/>
<path d="M59.5408 193.148H59.0078C59.0718 160.769 71.999 130.338 95.423 107.468C120.148 83.3049 153.294 70.4629 188.764 71.2233V71.7563C153.429 70.9746 120.425 83.7882 95.8068 107.83C72.4752 130.608 59.6048 160.868 59.5408 193.148Z" fill="#FF01E6"/>
<path d="M189.553 232.235C141.291 232.235 94.6984 224.702 72.0774 211.838L71.9424 211.76V211.625C72.0774 142.831 124.447 79.8509 188.728 71.209H188.814L188.892 71.2516C220.425 89.1679 245.974 159.66 245.846 228.383V228.617H245.611C227.025 231.059 208.298 232.267 189.553 232.235ZM72.4541 211.447C103.916 229.214 181.344 236.698 245.313 228.134C245.384 159.717 220.02 89.6298 188.707 71.7846C124.774 80.3981 72.6531 143.023 72.4541 211.447Z" fill="#FF01E6"/>
<path d="M189.531 164.507C147.864 164.507 107.633 158.026 88.0747 146.918L88.3377 146.449C115.429 161.878 182.524 168.338 237.858 160.89L237.929 161.423C221.882 163.517 205.714 164.547 189.531 164.507Z" fill="#FF01E6"/>
<path d="M189.254 106.907C164.892 106.907 141.361 103.111 129.919 96.6159L130.182 96.1539C146.009 105.137 185.161 108.946 217.468 104.575L217.539 105.101C208.161 106.328 198.712 106.931 189.254 106.907Z" fill="#FF01E6"/>
<path d="M117.128 225.839H116.595C116.723 157.102 149.051 87.7466 188.658 71.2375L188.864 71.735C149.435 88.1517 117.256 157.28 117.128 225.839Z" fill="#FF01E6"/>
<path d="M179.333 231.844H178.8C178.928 163.185 183.285 91.2147 188.501 71.4081L189.02 71.5431C183.803 91.3071 179.461 163.221 179.333 231.844Z" fill="#FF01E6"/>
<path d="M245.313 228.682V228.376C245.441 159.817 220.013 89.5377 188.629 71.7139L187.918 71.323L188.707 71.2164C218.556 67.2081 246.905 75.4805 268.616 94.4911C280.162 104.668 289.291 117.293 295.338 131.446C301.84 146.371 305.131 162.795 305.124 180.192C314.874 185.764 319.394 191.982 318.193 198.165C315.642 211.306 287.826 222.989 245.59 228.668L245.313 228.682ZM189.574 71.6215C220.745 90.0991 245.896 159.916 245.846 228.049C287.677 222.364 315.194 210.886 317.689 198.016C318.847 192.046 314.37 185.998 304.74 180.533L304.612 180.455V180.299C304.612 162.915 301.364 146.534 294.876 131.61C288.853 117.538 279.768 104.986 268.282 94.8678C246.905 76.1343 218.961 67.8904 189.574 71.6215Z" fill="#FF01E6"/>
<path d="M237.929 161.423L237.858 160.89C274.103 156.022 297.953 146.079 300.113 134.957C301.108 129.826 297.271 124.617 288.956 119.905L289.219 119.436C297.747 124.276 301.677 129.677 300.632 135.071C298.436 146.413 274.408 156.519 237.929 161.423Z" fill="#FF01E6"/>
<path d="M217.539 105.101L217.468 104.576C238.59 101.733 252.491 95.9621 253.713 89.5091C254.281 86.5598 252.05 83.5607 247.246 80.8317L247.509 80.3698C252.526 83.2125 254.857 86.4176 254.232 89.6086C252.967 96.2961 238.895 102.23 217.539 105.101Z" fill="#FF01E6"/>
<path d="M296.78 216.046H296.247C296.375 147.529 248.134 82.7862 188.714 71.7351L188.807 71.2092C248.468 82.2816 296.908 147.28 296.78 216.046Z" fill="#FF01E6"/>
<path d="M318.051 198.833H317.518C317.646 130.338 259.882 73.3342 188.757 71.7636V71.2306C260.181 72.7799 318.179 130.025 318.051 198.833Z" fill="#FF01E6"/>
<path d="M188.082 325.818H187.535L185.595 325.782H184.728C183.939 325.782 182.83 325.725 181.885 325.668C176.527 325.393 171.192 324.788 165.909 323.856C156.265 322.152 146.846 319.353 137.837 315.513C133.298 313.547 128.862 311.35 124.547 308.932C120.574 306.719 116.739 304.268 113.063 301.59C112.437 301.114 111.762 300.61 111.059 300.091C108.678 298.314 105.977 296.303 104.016 294.498C103.362 293.901 102.644 293.247 101.884 292.572C100.199 291.058 98.4511 289.488 97.0723 288.102C94.656 285.671 91.6001 282.374 89.4752 279.9C86.469 276.404 82.7095 271.23 77.9693 264.095C75.9835 260.938 74.1571 257.684 72.497 254.344C70.7917 251.078 69.2708 247.718 67.9416 244.281C65.5952 237.92 63.5696 231.444 61.8724 224.88C60.586 219.443 59.6835 212.13 59.0297 206.366C58.7312 203.666 58.6814 200.248 58.6459 197.234V195.77C58.574 191.911 58.752 188.051 59.1789 184.215C59.3068 183.241 59.4347 182.161 59.5698 181.038C59.8612 178.558 60.1667 175.992 60.5363 173.881C61.1404 170.442 62.1069 166 62.9455 162.83C63.7557 159.767 64.9567 155.851 65.9375 153.094C66.769 150.742 67.9771 147.835 69.0431 145.276L70.1234 142.647C71.6457 139.087 73.4001 135.63 75.3753 132.299C78.1327 127.644 82.411 121.255 86.27 116.018C88.6662 112.811 91.2781 109.772 94.0875 106.921L96.0205 104.974C97.5698 103.403 99.3323 101.612 100.825 100.283C103.603 97.8101 107.612 94.4983 111.037 91.8404C113.482 89.9429 116.922 87.69 118.286 86.8088C120.29 85.5154 122.984 83.9661 125.151 82.6868L125.791 82.3173C130.118 79.8525 134.61 77.6915 139.237 75.8501C143.203 74.3079 146.209 73.2064 148.412 72.4886C151.297 71.5576 155.213 70.4916 157.914 69.8022C161.311 68.9423 165.731 68.1463 166.982 67.9189C169.825 67.4214 172.17 67.1443 174.643 66.86C175.546 66.7534 179.035 66.4265 180.918 66.3341C183.491 66.2062 185.708 66.0925 189.496 66.1138C195.487 66.1763 201.466 66.6512 207.391 67.5352C210.269 67.9473 213.61 68.587 215.152 68.9139C217.362 69.39 220.617 70.1931 223.879 71.0459C225.727 71.5434 228.314 72.3536 230.311 73.0571C233.274 74.1089 236.749 75.4379 239.18 76.4542C243.444 78.2309 248.859 81.1234 252.462 83.0351C253.287 83.5041 254.104 83.9874 254.914 84.4564C257.444 85.956 260.379 87.7611 262.561 89.3814C263.201 89.8576 263.912 90.3764 264.651 90.9094C266.342 92.146 268.261 93.546 269.725 94.74C272.673 97.0653 275.5 99.5393 278.196 102.152C278.829 102.806 279.532 103.517 280.271 104.284C281.885 105.905 283.555 107.575 284.862 109.039C287.307 111.775 290.093 115.136 291.969 117.567C293.845 119.998 296.12 123.252 297.619 125.612C298.443 126.898 301.293 131.404 303.212 135.114C306.522 141.309 309.319 147.765 311.577 154.416C313.936 161.345 315.841 170.619 316.552 174.279C317.213 177.683 317.674 182.303 317.973 185.579C318.165 187.924 318.243 190.881 318.307 193.496C318.307 194.434 318.357 195.337 318.385 196.161C318.46 200.499 318.237 204.838 317.717 209.145C317.276 212.791 316.793 216.558 316.246 219.45C315.606 222.868 314.59 227.303 313.716 230.473C312.884 233.514 311.641 237.402 310.632 240.159C309.743 242.561 308.5 245.525 307.355 248.14L306.325 250.564C304.967 253.602 303.446 256.565 301.769 259.44C300.419 261.807 298.564 264.706 296.93 267.257L295.729 269.191C293.451 272.601 290.973 275.873 288.309 278.991C284.244 283.83 279.849 288.383 275.154 292.615C272.312 295.088 268.247 298.385 264.75 301.029C262.81 302.493 260.145 304.22 258.006 305.606L257.501 305.933C252.797 308.875 247.918 311.526 242.89 313.871C241.12 314.653 236.614 316.621 233.111 317.915C230.488 318.881 226.715 320.104 223.659 320.956C219.169 322.217 214.617 323.244 210.021 324.034C206.581 324.616 204.641 324.837 202.388 325.093C201.073 325.242 197.854 325.526 196.113 325.611C193.64 325.739 192.04 325.818 190.335 325.825H188.082V325.818ZM188.629 66.6468C185.389 66.6468 183.335 66.7463 180.982 66.8671C179.106 66.9595 175.638 67.2793 174.743 67.3859C172.269 67.6773 169.938 67.9473 167.11 68.4448C163.734 69.0418 160.358 69.7383 158.084 70.321C155.391 71.0317 151.489 72.0693 148.611 73.0003C146.415 73.711 143.423 74.8054 139.464 76.3476C134.864 78.1642 130.397 80.3015 126.097 82.7437L125.457 83.1133C123.325 84.3712 120.603 85.956 118.606 87.221C117.249 88.0951 113.83 90.3409 111.4 92.1957C107.981 94.8466 103.987 98.1512 101.216 100.617C99.7374 101.932 97.982 103.716 96.4327 105.286L94.4997 107.234C91.6998 110.063 89.0996 113.084 86.7177 116.274C82.8588 121.497 78.5947 127.865 75.8443 132.513C73.8905 135.832 72.1574 139.277 70.6564 142.825C70.3224 143.642 69.9457 144.53 69.569 145.454C68.5101 148.013 67.302 150.912 66.4705 153.272C65.4968 156.022 64.3384 159.909 63.4927 162.965C62.647 166.021 61.7018 170.548 61.0977 173.974C60.7282 176.07 60.4226 178.629 60.1312 181.08C60.0033 182.203 59.8754 183.284 59.7474 184.264C59.3203 188.074 59.1422 191.908 59.2144 195.742V197.206C59.2571 200.205 59.3068 203.602 59.6053 206.281C60.2449 212.038 61.1404 219.329 62.448 224.759C64.1381 231.305 66.159 237.762 68.503 244.104C69.8241 247.521 71.3354 250.862 73.0301 254.11C74.6779 257.431 76.4925 260.666 78.4668 263.804C81.9808 269.274 85.8108 274.535 89.9371 279.559C92.0692 282.025 95.0967 285.316 97.5059 287.739C98.8775 289.111 100.612 290.674 102.296 292.188C103.049 292.863 103.774 293.51 104.428 294.107C106.375 295.898 109.069 297.902 111.435 299.672C112.146 300.19 112.814 300.695 113.439 301.171C117.096 303.832 120.909 306.269 124.86 308.47C129.159 310.88 133.578 313.069 138.1 315.029C152.017 320.954 166.871 324.377 181.977 325.142C182.894 325.199 183.996 325.242 184.784 325.256H185.644L187.577 325.292C188.16 325.292 188.871 325.292 189.532 325.292H190.377C192.069 325.292 193.668 325.206 196.063 325.086C197.84 324.993 201.038 324.709 202.352 324.56C204.591 324.304 206.531 324.083 209.95 323.508C214.529 322.725 219.065 321.702 223.538 320.445C226.558 319.599 230.339 318.377 232.947 317.417C236.444 316.131 240.928 314.169 242.698 313.381C247.697 311.048 252.551 308.414 257.231 305.492L257.736 305.158C259.868 303.779 262.526 302.052 264.452 300.603C267.941 297.966 272.013 294.676 274.828 292.217C279.501 287.999 283.877 283.464 287.925 278.643C290.576 275.544 293.039 272.291 295.302 268.899L296.525 266.98C298.152 264.436 300 261.551 301.35 259.163C303.019 256.31 304.535 253.371 305.891 250.358L306.922 247.927C308.038 245.319 309.303 242.362 310.184 239.975C311.193 237.231 312.43 233.358 313.261 230.331C314.128 227.168 315.144 222.762 315.784 219.358C316.317 216.472 316.8 212.713 317.241 209.081C317.761 204.802 317.984 200.492 317.909 196.182C317.909 195.351 317.859 194.448 317.831 193.503C317.767 190.902 317.696 187.953 317.504 185.622C317.234 182.36 316.793 177.762 316.083 174.386C315.372 170.726 313.446 161.487 311.108 154.586C308.862 147.953 306.079 141.514 302.786 135.334C300.874 131.646 298.038 127.161 297.214 125.875C295.722 123.544 293.511 120.403 291.585 117.873C289.659 115.343 286.952 112.073 284.479 109.344C283.178 107.923 281.515 106.225 279.909 104.611C279.198 103.901 278.488 103.19 277.827 102.479C275.146 99.8766 272.333 97.4143 269.398 95.1024L269.22 94.9532C291.614 114.852 304.676 144.658 305.11 178.309C305.11 178.877 305.11 179.453 305.11 180.029V180.277C305.017 249.078 252.59 312.059 188.338 320.701L188.267 320.175C252.292 311.561 304.47 248.822 304.612 180.313V180.064C304.612 139.25 286.014 103.915 254.673 84.8971L252.235 83.4757C248.646 81.5711 243.209 78.6857 239.002 76.9161C236.586 75.907 233.118 74.578 230.161 73.5333C228.179 72.8226 225.606 72.0266 223.765 71.5363C220.517 70.6621 217.27 69.8591 215.067 69.4042C213.531 69.0702 210.213 68.4377 207.349 68.0255C201.445 67.1615 195.49 66.7008 189.525 66.6468H188.629Z" fill="#FF01E6"/>
</g>
</g>
<defs>
<filter id="filter0_b_769_4448" x="10.0351" y="17.4716" width="356.93" height="356.93" filterUnits="userSpaceOnUse" color-interpolation-filters="sRGB">
<feFlood flood-opacity="0" result="BackgroundImageFix"/>
<feGaussianBlur in="BackgroundImageFix" stdDeviation="24.2649"/>
<feComposite in2="SourceAlpha" operator="in" result="effect1_backgroundBlur_769_4448"/>
<feBlend mode="normal" in="SourceGraphic" in2="effect1_backgroundBlur_769_4448" result="shape"/>
</filter>
<clipPath id="clip0_769_4448">
<rect width="377" height="292" rx="9" fill="white"/>
</clipPath>
</defs>
</svg>
