<svg width="71" height="71" viewBox="0 0 71 71" fill="none" xmlns="http://www.w3.org/2000/svg">
<rect width="71" height="71" rx="9" fill="#30E29D"/>
<path d="M46.9844 46.1621C46.9844 46.5973 46.8116 47.0145 46.5039 47.3222C46.1962 47.6299 45.7788 47.8027 45.3438 47.8027H25.6562C25.2211 47.8027 24.8038 47.6299 24.4962 47.3222C24.1885 47.0145 24.0156 46.5973 24.0156 46.1621V24.834C24.0156 24.6185 24.0581 24.4052 24.1405 24.2061C24.223 24.0071 24.3438 23.8262 24.4962 23.6739C24.8038 23.3662 25.2211 23.1934 25.6562 23.1934H42.0625C42.4905 23.1937 42.9015 23.3613 43.2077 23.6604L46.4889 26.8126C46.6458 26.9654 46.7703 27.1481 46.8554 27.3498C46.9405 27.5516 46.9844 27.7683 46.9844 27.9873V46.1621Z" stroke="black" stroke-width="1.75" stroke-linecap="round" stroke-linejoin="round"/>
<path d="M32.2188 34.6777V28.1152" stroke="black" stroke-width="1.75" stroke-linecap="round" stroke-linejoin="round"/>
<path d="M28.9375 29.7559V28.1152H35.5V29.7559" stroke="black" stroke-width="1.75" stroke-linecap="round" stroke-linejoin="round"/>
<path d="M39.6016 33.0371H42.0625" stroke="black" stroke-width="1.75" stroke-linecap="round" stroke-linejoin="round"/>
<path d="M39.6016 28.1152H42.0625" stroke="black" stroke-width="1.75" stroke-linecap="round" stroke-linejoin="round"/>
<path d="M28.9375 37.959H42.0625" stroke="black" stroke-width="1.75" stroke-linecap="round" stroke-linejoin="round"/>
<path d="M28.9375 42.8809H42.0625" stroke="black" stroke-width="1.75" stroke-linecap="round" stroke-linejoin="round"/>
<path d="M30.5781 34.6777H33.8594" stroke="black" stroke-width="1.75" stroke-linecap="round" stroke-linejoin="round"/>
</svg>
