<svg width="71" height="71" viewBox="0 0 71 71" fill="none" xmlns="http://www.w3.org/2000/svg">
<rect width="71" height="71" rx="9" fill="#30E29D"/>
<path d="M43.6667 25C44.2855 25 44.879 25.2458 45.3166 25.6834C45.7542 26.121 46 26.7145 46 27.3333V43.6667C46 44.2855 45.7542 44.879 45.3166 45.3166C44.879 45.7542 44.2855 46 43.6667 46H27.3333C26.7145 46 26.121 45.7542 25.6834 45.3166C25.2458 44.879 25 44.2855 25 43.6667V27.3333C25 26.7145 25.2458 26.121 25.6834 25.6834C26.121 25.2458 26.7145 25 27.3333 25H43.6667ZM43.0833 43.0833V36.9C43.0833 35.8913 42.6826 34.9239 41.9694 34.2106C41.2561 33.4974 40.2887 33.0967 39.28 33.0967C38.2883 33.0967 37.1333 33.7033 36.5733 34.6133V33.3183H33.3183V43.0833H36.5733V37.3317C36.5733 36.4333 37.2967 35.6983 38.195 35.6983C38.6282 35.6983 39.0436 35.8704 39.3499 36.1767C39.6562 36.483 39.8283 36.8985 39.8283 37.3317V43.0833H43.0833ZM29.5267 31.4867C30.0465 31.4867 30.545 31.2802 30.9126 30.9126C31.2802 30.545 31.4867 30.0465 31.4867 29.5267C31.4867 28.4417 30.6117 27.555 29.5267 27.555C29.0037 27.555 28.5022 27.7627 28.1325 28.1325C27.7627 28.5022 27.555 29.0037 27.555 29.5267C27.555 30.6117 28.4417 31.4867 29.5267 31.4867ZM31.1483 43.0833V33.3183H27.9167V43.0833H31.1483Z" fill="black"/>
</svg>
