<svg width="1286" height="722" viewBox="0 0 1286 722" fill="none" xmlns="http://www.w3.org/2000/svg">
<g style="mix-blend-mode:color-dodge">
<rect x="1.00697" y="29.4391" width="197.122" height="54.1904" rx="7.83666" stroke="#797979" stroke-width="1.74148"/>
<path d="M90.2881 62.5342L95.2081 48.2342H97.4881L102.328 62.5342H100.608L99.2081 58.4142H93.3081L91.9281 62.5342H90.2881ZM96.2681 49.6742L93.7881 57.0342H98.7481L96.2681 49.6742ZM104.945 62.5342V48.2342H106.685V62.5342H104.945Z" fill="#797979"/>
<rect x="1.00697" y="152.371" width="197.122" height="54.1904" rx="7.83666" stroke="#797979" stroke-width="1.74148"/>
<path d="M62.9681 185.466L59.2481 171.166H61.0281L63.9281 182.706L67.2881 171.166H68.5281L71.8881 182.746L74.8281 171.166H76.4481L72.7281 185.466H71.1281L67.8881 174.166L64.5481 185.466H62.9681ZM82.282 185.646C79.322 185.646 77.222 183.566 77.222 180.346V180.186C77.222 177.026 79.242 174.826 82.122 174.826C84.542 174.826 86.822 176.286 86.822 180.026V180.566H78.942C79.022 182.946 80.162 184.266 82.302 184.266C83.922 184.266 84.862 183.666 85.082 182.446H86.742C86.382 184.546 84.642 185.646 82.282 185.646ZM79.002 179.226H85.122C84.962 177.066 83.842 176.206 82.122 176.206C80.422 176.206 79.282 177.366 79.002 179.226ZM94.5692 185.646C92.8692 185.646 91.6292 184.786 91.0292 183.746V185.466H89.3692V170.006H91.0292V176.766C91.6292 175.746 93.0492 174.826 94.5692 174.826C97.3092 174.826 99.3292 176.826 99.3292 180.086V180.246C99.3292 183.446 97.4492 185.646 94.5692 185.646ZM94.4092 184.266C96.4892 184.266 97.6092 182.866 97.6092 180.326V180.166C97.6092 177.526 96.1492 176.206 94.3892 176.206C92.4492 176.206 90.9692 177.486 90.9692 180.166V180.326C90.9692 183.006 92.3692 184.266 94.4092 184.266ZM102.268 185.466V176.406H100.768V175.006H102.268V173.306C102.268 171.186 103.288 169.946 105.348 169.946C105.888 169.946 106.168 169.986 106.488 170.106V171.506C106.188 171.386 105.868 171.326 105.408 171.326C104.348 171.326 103.928 172.066 103.928 173.126V175.006H106.488V176.406H103.928V185.466H102.268ZM108.569 185.466V170.006H110.249V185.466H108.569ZM118.007 184.266C120.107 184.266 121.427 182.686 121.427 180.326V180.186C121.427 177.766 120.087 176.206 118.007 176.206C115.907 176.206 114.587 177.766 114.587 180.166V180.326C114.587 182.706 115.887 184.266 118.007 184.266ZM117.987 185.646C115.007 185.646 112.867 183.386 112.867 180.326V180.166C112.867 177.026 115.047 174.826 118.007 174.826C120.967 174.826 123.147 177.006 123.147 180.146V180.306C123.147 183.466 120.967 185.646 117.987 185.646ZM127.622 185.466L124.402 175.006H126.202L128.642 183.426L131.182 175.006H132.622L135.002 183.426L137.462 175.006H139.162L135.902 185.466H134.062L131.882 177.626L129.442 185.466H127.622Z" fill="#797979"/>
<rect x="1.00697" y="275.303" width="197.122" height="54.1904" rx="7.83666" stroke="#797979" stroke-width="1.74148"/>
<path d="M83.1081 306.978H85.0681C88.7481 306.978 90.5881 304.778 90.5881 301.278V301.118C90.5881 297.818 88.9881 295.498 85.0481 295.498H83.1081V306.978ZM81.3681 308.398V294.098H85.1481C90.0681 294.098 92.3881 297.138 92.3881 301.118V301.298C92.3881 305.258 90.1081 308.398 85.1081 308.398H81.3681ZM99.7186 308.578C95.8986 308.578 94.5186 306.478 94.2586 304.038H95.9386C96.1586 305.738 96.8386 307.178 99.7186 307.178C101.559 307.178 102.979 306.098 102.979 304.478C102.979 302.858 102.239 302.178 99.5186 301.738C96.5186 301.278 94.7386 300.338 94.7386 297.798C94.7386 295.598 96.6386 293.918 99.3386 293.918C102.199 293.918 103.979 295.318 104.259 297.858H102.699C102.359 296.058 101.319 295.318 99.3386 295.318C97.3786 295.318 96.3586 296.298 96.3586 297.638C96.3586 299.038 96.8786 299.758 99.7986 300.198C102.979 300.698 104.659 301.658 104.659 304.358C104.659 306.758 102.559 308.578 99.7186 308.578ZM106.05 308.398L110.97 294.098H113.25L118.09 308.398H116.37L114.97 304.278H109.07L107.69 308.398H106.05ZM112.03 295.538L109.55 302.898H114.51L112.03 295.538Z" fill="#797979"/>
<rect x="1.00697" y="398.235" width="197.122" height="54.1904" rx="7.83666" stroke="#797979" stroke-width="1.74148"/>
<path d="M44.8881 431.51C41.6081 431.51 39.7481 429.59 39.7481 426.11V417.03H41.4881V425.91C41.4881 428.91 42.5481 430.07 44.9281 430.07C47.2081 430.07 48.5681 429.15 48.5681 425.65V417.03H50.3081V425.89C50.3081 429.37 48.5681 431.51 44.8881 431.51ZM53.8939 431.33V417.03H55.6339V431.33H53.8939ZM57.6608 434.29L63.4808 415.81H65.0008L59.1808 434.29H57.6608ZM72.4272 431.51C69.1472 431.51 67.2872 429.59 67.2872 426.11V417.03H69.0272V425.91C69.0272 428.91 70.0872 430.07 72.4672 430.07C74.7472 430.07 76.1072 429.15 76.1072 425.65V417.03H77.8472V425.89C77.8472 429.37 76.1072 431.51 72.4272 431.51ZM80.0423 431.33L84.7623 423.99L80.3623 417.03H82.2823L85.8423 422.65L89.3823 417.03H91.1623L86.7223 423.99L91.3823 431.33H89.4223L85.6023 425.31L81.7823 431.33H80.0423ZM103.2 431.51C100.46 431.51 98.4798 429.57 98.4798 426.31V426.15C98.4798 422.95 100.48 420.69 103.36 420.69C105.1 420.69 106.18 421.53 106.78 422.55V415.87H108.44V431.33H106.78V429.53C106.18 430.55 104.72 431.51 103.2 431.51ZM103.38 430.13C105.32 430.13 106.84 428.85 106.84 426.17V426.01C106.84 423.33 105.56 422.07 103.52 422.07C101.44 422.07 100.2 423.53 100.2 426.07V426.23C100.2 428.87 101.62 430.13 103.38 430.13ZM116.079 431.51C113.119 431.51 111.019 429.43 111.019 426.21V426.05C111.019 422.89 113.039 420.69 115.919 420.69C118.339 420.69 120.619 422.15 120.619 425.89V426.43H112.739C112.819 428.81 113.959 430.13 116.099 430.13C117.719 430.13 118.659 429.53 118.879 428.31H120.539C120.179 430.41 118.439 431.51 116.079 431.51ZM112.799 425.09H118.919C118.759 422.93 117.639 422.07 115.919 422.07C114.219 422.07 113.079 423.23 112.799 425.09ZM126.504 431.51C124.004 431.51 122.504 430.25 122.404 428.11H124.024C124.144 429.35 124.804 430.13 126.484 430.13C128.064 430.13 128.764 429.59 128.764 428.47C128.764 427.37 127.944 427.01 126.324 426.71C123.604 426.21 122.684 425.45 122.684 423.63C122.684 421.69 124.584 420.69 126.224 420.69C128.104 420.69 129.724 421.45 130.004 423.71H128.404C128.164 422.57 127.524 422.07 126.204 422.07C125.004 422.07 124.224 422.67 124.224 423.57C124.224 424.51 124.744 424.89 126.664 425.23C128.824 425.63 130.344 426.11 130.344 428.33C130.344 430.23 129.044 431.51 126.504 431.51ZM132.913 431.33V420.87H134.573V431.33H132.913ZM133.713 418.69C133.113 418.69 132.613 418.19 132.613 417.59C132.613 416.99 133.113 416.49 133.713 416.49C134.313 416.49 134.813 416.99 134.813 417.59C134.813 418.19 134.313 418.69 133.713 418.69ZM142.151 435.15C139.051 435.15 137.691 433.69 137.411 431.93H139.111C139.351 433.13 140.351 433.75 142.131 433.75C144.191 433.75 145.491 432.77 145.491 430.53V429.01C144.891 430.03 143.471 430.99 141.951 430.99C139.211 430.99 137.191 428.91 137.191 426.03V425.89C137.191 423.05 139.191 420.69 142.071 420.69C143.811 420.69 144.891 421.53 145.491 422.55V420.87H147.151V430.63C147.131 433.67 145.071 435.15 142.151 435.15ZM142.131 429.61C144.071 429.61 145.551 428.25 145.551 425.91V425.77C145.551 423.43 144.271 422.07 142.231 422.07C140.151 422.07 138.911 423.61 138.911 425.81V425.97C138.911 428.25 140.371 429.61 142.131 429.61ZM150.51 431.33V420.87H152.17V422.53C152.65 421.55 153.81 420.69 155.53 420.69C157.69 420.69 159.21 421.87 159.21 424.91V431.33H157.55V424.79C157.55 422.95 156.77 422.13 155.09 422.13C153.55 422.13 152.17 423.11 152.17 424.99V431.33H150.51Z" fill="#797979"/>
<rect x="1.00697" y="521.167" width="197.122" height="54.1904" rx="7.83666" stroke="#797979" stroke-width="1.74148"/>
<path d="M68.3681 554.262V539.962H72.6681C75.3281 539.962 77.2681 540.842 77.2681 543.662V543.742C77.2681 545.042 76.7481 546.202 75.1081 546.762C77.1881 547.262 77.9681 548.322 77.9681 550.182V550.262C77.9681 552.962 76.1281 554.262 73.2681 554.262H68.3681ZM70.0681 552.902H73.2281C75.3081 552.902 76.2681 551.982 76.2681 550.242V550.162C76.2681 548.402 75.2881 547.562 72.9881 547.562H70.0681V552.902ZM70.0681 546.202H72.6681C74.7681 546.202 75.5681 545.442 75.5681 543.682V543.602C75.5681 541.982 74.6281 541.322 72.6281 541.322H70.0681V546.202ZM84.2295 554.442C82.1495 554.442 80.5895 553.302 80.5895 550.422V543.802H82.2495V550.342C82.2495 552.182 83.0295 553.002 84.6695 553.002C86.1495 553.002 87.5495 552.022 87.5495 550.142V543.802H89.2095V554.262H87.5495V552.602C87.0695 553.582 85.9095 554.442 84.2295 554.442ZM97.7645 554.442C96.0645 554.442 94.8245 553.582 94.2245 552.542V554.262H92.5645V538.802H94.2245V545.562C94.8245 544.542 96.2445 543.622 97.7645 543.622C100.505 543.622 102.525 545.622 102.525 548.882V549.042C102.525 552.242 100.645 554.442 97.7645 554.442ZM97.6045 553.062C99.6845 553.062 100.805 551.662 100.805 549.122V548.962C100.805 546.322 99.3445 545.002 97.5845 545.002C95.6445 545.002 94.1645 546.282 94.1645 548.962V549.122C94.1645 551.802 95.5645 553.062 97.6045 553.062ZM110.304 554.442C108.604 554.442 107.364 553.582 106.764 552.542V554.262H105.104V538.802H106.764V545.562C107.364 544.542 108.784 543.622 110.304 543.622C113.044 543.622 115.064 545.622 115.064 548.882V549.042C115.064 552.242 113.184 554.442 110.304 554.442ZM110.144 553.062C112.224 553.062 113.344 551.662 113.344 549.122V548.962C113.344 546.322 111.884 545.002 110.124 545.002C108.184 545.002 106.704 546.282 106.704 548.962V549.122C106.704 551.802 108.104 553.062 110.144 553.062ZM117.683 554.262V538.802H119.363V554.262H117.683ZM127.04 554.442C124.08 554.442 121.98 552.362 121.98 549.142V548.982C121.98 545.822 124 543.622 126.88 543.622C129.3 543.622 131.58 545.082 131.58 548.822V549.362H123.7C123.78 551.742 124.92 553.062 127.06 553.062C128.68 553.062 129.62 552.462 129.84 551.242H131.5C131.14 553.342 129.4 554.442 127.04 554.442ZM123.76 548.022H129.88C129.72 545.862 128.6 545.002 126.88 545.002C125.18 545.002 124.04 546.162 123.76 548.022Z" fill="#797979"/>
<rect x="1.00697" y="644.098" width="197.122" height="54.1904" rx="7.83666" stroke="#797979" stroke-width="1.74148"/>
<path d="M41.1081 675.773H43.0681C46.7481 675.773 48.5881 673.573 48.5881 670.073V669.913C48.5881 666.613 46.9881 664.293 43.0481 664.293H41.1081V675.773ZM39.3681 677.193V662.893H43.1481C48.0681 662.893 50.3881 665.933 50.3881 669.913V670.093C50.3881 674.053 48.1081 677.193 43.1081 677.193H39.3681ZM55.7939 677.373C53.8539 677.373 52.3139 676.433 52.3139 674.293C52.3139 671.873 54.8739 671.053 57.5539 671.053H59.0539V670.293C59.0539 668.633 58.4139 667.933 56.8139 667.933C55.3739 667.933 54.5739 668.533 54.4139 669.813H52.7539C52.9739 667.433 54.8739 666.553 56.8939 666.553C58.8939 666.553 60.7139 667.373 60.7139 670.293V677.193H59.0539V675.873C58.2739 676.853 57.3339 677.373 55.7939 677.373ZM55.9539 676.053C57.7139 676.053 59.0539 675.153 59.0539 673.533V672.233H57.6139C55.5139 672.233 53.9739 672.753 53.9739 674.293C53.9739 675.373 54.4939 676.053 55.9539 676.053ZM67.1547 677.333C65.2547 677.333 64.3347 676.213 64.3347 674.573V668.133H62.8347V666.733H64.3347V664.353H65.9947V666.733H68.4347V668.133H65.9947V674.413C65.9947 675.433 66.4547 675.933 67.2947 675.933C67.8147 675.933 68.2147 675.853 68.5747 675.713V677.113C68.2347 677.233 67.8347 677.333 67.1547 677.333ZM73.8017 677.373C71.8617 677.373 70.3217 676.433 70.3217 674.293C70.3217 671.873 72.8817 671.053 75.5617 671.053H77.0617V670.293C77.0617 668.633 76.4217 667.933 74.8217 667.933C73.3817 667.933 72.5817 668.533 72.4217 669.813H70.7617C70.9817 667.433 72.8817 666.553 74.9017 666.553C76.9017 666.553 78.7217 667.373 78.7217 670.293V677.193H77.0617V675.873C76.2817 676.853 75.3417 677.373 73.8017 677.373ZM73.9617 676.053C75.7217 676.053 77.0617 675.153 77.0617 673.533V672.233H75.6217C73.5217 672.233 71.9817 672.753 71.9817 674.293C71.9817 675.373 72.5017 676.053 73.9617 676.053ZM92.0155 677.373C88.1955 677.373 86.8155 675.273 86.5555 672.833H88.2355C88.4555 674.533 89.1355 675.973 92.0155 675.973C93.8555 675.973 95.2755 674.893 95.2755 673.273C95.2755 671.653 94.5355 670.973 91.8155 670.533C88.8155 670.073 87.0355 669.133 87.0355 666.593C87.0355 664.393 88.9355 662.713 91.6355 662.713C94.4955 662.713 96.2755 664.113 96.5555 666.653H94.9955C94.6555 664.853 93.6155 664.113 91.6355 664.113C89.6755 664.113 88.6555 665.093 88.6555 666.433C88.6555 667.833 89.1755 668.553 92.0955 668.993C95.2755 669.493 96.9555 670.453 96.9555 673.153C96.9555 675.553 94.8555 677.373 92.0155 677.373ZM104.155 677.373C101.235 677.373 99.0345 675.313 99.0345 672.073V671.913C99.0345 668.713 101.315 666.553 104.115 666.553C106.295 666.553 108.335 667.553 108.655 670.213H107.015C106.755 668.553 105.555 667.933 104.115 667.933C102.215 667.933 100.755 669.453 100.755 671.913V672.073C100.755 674.633 102.155 675.993 104.175 675.993C105.655 675.993 106.995 675.133 107.175 673.433H108.715C108.495 675.693 106.675 677.373 104.155 677.373ZM111.261 677.193V666.733H112.921V677.193H111.261ZM112.061 664.553C111.461 664.553 110.961 664.053 110.961 663.453C110.961 662.853 111.461 662.353 112.061 662.353C112.661 662.353 113.161 662.853 113.161 663.453C113.161 664.053 112.661 664.553 112.061 664.553ZM120.598 677.373C117.638 677.373 115.538 675.293 115.538 672.073V671.913C115.538 668.753 117.558 666.553 120.438 666.553C122.858 666.553 125.138 668.013 125.138 671.753V672.293H117.258C117.338 674.673 118.478 675.993 120.618 675.993C122.238 675.993 123.178 675.393 123.398 674.173H125.058C124.698 676.273 122.958 677.373 120.598 677.373ZM117.318 670.953H123.438C123.278 668.793 122.158 667.933 120.438 667.933C118.738 667.933 117.598 669.093 117.318 670.953ZM127.686 677.193V666.733H129.346V668.393C129.826 667.413 130.986 666.553 132.706 666.553C134.866 666.553 136.386 667.733 136.386 670.773V677.193H134.726V670.653C134.726 668.813 133.946 667.993 132.266 667.993C130.726 667.993 129.346 668.973 129.346 670.853V677.193H127.686ZM143.979 677.373C141.059 677.373 138.859 675.313 138.859 672.073V671.913C138.859 668.713 141.139 666.553 143.939 666.553C146.119 666.553 148.159 667.553 148.479 670.213H146.839C146.579 668.553 145.379 667.933 143.939 667.933C142.039 667.933 140.579 669.453 140.579 671.913V672.073C140.579 674.633 141.979 675.993 143.999 675.993C145.479 675.993 146.819 675.133 146.999 673.433H148.539C148.319 675.693 146.499 677.373 143.979 677.373ZM155.325 677.373C152.365 677.373 150.265 675.293 150.265 672.073V671.913C150.265 668.753 152.285 666.553 155.165 666.553C157.585 666.553 159.865 668.013 159.865 671.753V672.293H151.985C152.065 674.673 153.205 675.993 155.345 675.993C156.965 675.993 157.905 675.393 158.125 674.173H159.785C159.425 676.273 157.685 677.373 155.325 677.373ZM152.045 670.953H158.165C158.005 668.793 156.885 667.933 155.165 667.933C153.465 667.933 152.325 669.093 152.045 670.953Z" fill="#797979"/>
<rect x="652.871" y="29.4391" width="197.122" height="54.1904" rx="7.83666" stroke="#797979" stroke-width="1.74148"/>
<path d="M742.152 62.5342L747.072 48.2342H749.352L754.192 62.5342H752.472L751.072 58.4142H745.172L743.792 62.5342H742.152ZM748.132 49.6742L745.652 57.0342H750.612L748.132 49.6742ZM756.808 62.5342V48.2342H758.548V62.5342H756.808Z" fill="#797979"/>
<rect x="652.871" y="152.371" width="197.122" height="54.1904" rx="7.83666" stroke="#797979" stroke-width="1.74148"/>
<path d="M714.832 185.466L711.112 171.166H712.892L715.792 182.706L719.152 171.166H720.392L723.752 182.746L726.692 171.166H728.312L724.592 185.466H722.992L719.752 174.166L716.412 185.466H714.832ZM734.146 185.646C731.186 185.646 729.086 183.566 729.086 180.346V180.186C729.086 177.026 731.106 174.826 733.986 174.826C736.406 174.826 738.686 176.286 738.686 180.026V180.566H730.806C730.886 182.946 732.026 184.266 734.166 184.266C735.786 184.266 736.726 183.666 736.946 182.446H738.606C738.246 184.546 736.506 185.646 734.146 185.646ZM730.866 179.226H736.986C736.826 177.066 735.706 176.206 733.986 176.206C732.286 176.206 731.146 177.366 730.866 179.226ZM746.433 185.646C744.733 185.646 743.493 184.786 742.893 183.746V185.466H741.233V170.006H742.893V176.766C743.493 175.746 744.913 174.826 746.433 174.826C749.173 174.826 751.193 176.826 751.193 180.086V180.246C751.193 183.446 749.313 185.646 746.433 185.646ZM746.273 184.266C748.353 184.266 749.473 182.866 749.473 180.326V180.166C749.473 177.526 748.013 176.206 746.253 176.206C744.313 176.206 742.833 177.486 742.833 180.166V180.326C742.833 183.006 744.233 184.266 746.273 184.266ZM754.132 185.466V176.406H752.632V175.006H754.132V173.306C754.132 171.186 755.152 169.946 757.212 169.946C757.752 169.946 758.032 169.986 758.352 170.106V171.506C758.052 171.386 757.732 171.326 757.272 171.326C756.212 171.326 755.792 172.066 755.792 173.126V175.006H758.352V176.406H755.792V185.466H754.132ZM760.433 185.466V170.006H762.113V185.466H760.433ZM769.87 184.266C771.97 184.266 773.29 182.686 773.29 180.326V180.186C773.29 177.766 771.95 176.206 769.87 176.206C767.77 176.206 766.45 177.766 766.45 180.166V180.326C766.45 182.706 767.75 184.266 769.87 184.266ZM769.85 185.646C766.87 185.646 764.73 183.386 764.73 180.326V180.166C764.73 177.026 766.91 174.826 769.87 174.826C772.83 174.826 775.01 177.006 775.01 180.146V180.306C775.01 183.466 772.83 185.646 769.85 185.646ZM779.485 185.466L776.265 175.006H778.065L780.505 183.426L783.045 175.006H784.485L786.865 183.426L789.325 175.006H791.025L787.765 185.466H785.925L783.745 177.626L781.305 185.466H779.485Z" fill="#797979"/>
<rect x="652.871" y="275.303" width="197.122" height="54.1904" rx="7.83666" stroke="#797979" stroke-width="1.74148"/>
<path d="M686.472 306.978H688.432C692.112 306.978 693.952 304.778 693.952 301.278V301.118C693.952 297.818 692.352 295.498 688.412 295.498H686.472V306.978ZM684.732 308.398V294.098H688.512C693.432 294.098 695.752 297.138 695.752 301.118V301.298C695.752 305.258 693.472 308.398 688.472 308.398H684.732ZM702.818 308.578C699.858 308.578 697.758 306.498 697.758 303.278V303.118C697.758 299.958 699.778 297.758 702.658 297.758C705.078 297.758 707.358 299.218 707.358 302.958V303.498H699.478C699.558 305.878 700.698 307.198 702.838 307.198C704.458 307.198 705.398 306.598 705.618 305.378H707.278C706.918 307.478 705.178 308.578 702.818 308.578ZM699.538 302.158H705.658C705.498 299.998 704.378 299.138 702.658 299.138C700.958 299.138 699.818 300.298 699.538 302.158ZM713.243 308.578C710.743 308.578 709.243 307.318 709.143 305.178H710.763C710.883 306.418 711.543 307.198 713.223 307.198C714.803 307.198 715.503 306.658 715.503 305.538C715.503 304.438 714.683 304.078 713.063 303.778C710.343 303.278 709.423 302.518 709.423 300.698C709.423 298.758 711.323 297.758 712.963 297.758C714.843 297.758 716.463 298.518 716.743 300.778H715.143C714.903 299.638 714.263 299.138 712.943 299.138C711.743 299.138 710.963 299.738 710.963 300.638C710.963 301.578 711.483 301.958 713.403 302.298C715.563 302.698 717.083 303.178 717.083 305.398C717.083 307.298 715.783 308.578 713.243 308.578ZM719.652 308.398V297.938H721.312V308.398H719.652ZM720.452 295.758C719.852 295.758 719.352 295.258 719.352 294.658C719.352 294.058 719.852 293.558 720.452 293.558C721.052 293.558 721.552 294.058 721.552 294.658C721.552 295.258 721.052 295.758 720.452 295.758ZM728.89 312.218C725.79 312.218 724.43 310.758 724.15 308.998H725.85C726.09 310.198 727.09 310.818 728.87 310.818C730.93 310.818 732.23 309.838 732.23 307.598V306.078C731.63 307.098 730.21 308.058 728.69 308.058C725.95 308.058 723.93 305.978 723.93 303.098V302.958C723.93 300.118 725.93 297.758 728.81 297.758C730.55 297.758 731.63 298.598 732.23 299.618V297.938H733.89V307.698C733.87 310.738 731.81 312.218 728.89 312.218ZM728.87 306.678C730.81 306.678 732.29 305.318 732.29 302.978V302.838C732.29 300.498 731.01 299.138 728.97 299.138C726.89 299.138 725.65 300.678 725.65 302.878V303.038C725.65 305.318 727.11 306.678 728.87 306.678ZM737.249 308.398V297.938H738.909V299.598C739.389 298.618 740.549 297.758 742.269 297.758C744.429 297.758 745.949 298.938 745.949 301.978V308.398H744.289V301.858C744.289 300.018 743.509 299.198 741.829 299.198C740.289 299.198 738.909 300.178 738.909 302.058V308.398H737.249ZM757.735 308.578C755.235 308.578 753.735 307.318 753.635 305.178H755.255C755.375 306.418 756.035 307.198 757.715 307.198C759.295 307.198 759.995 306.658 759.995 305.538C759.995 304.438 759.175 304.078 757.555 303.778C754.835 303.278 753.915 302.518 753.915 300.698C753.915 298.758 755.815 297.758 757.455 297.758C759.335 297.758 760.955 298.518 761.235 300.778H759.635C759.395 299.638 758.755 299.138 757.435 299.138C756.235 299.138 755.455 299.738 755.455 300.638C755.455 301.578 755.975 301.958 757.895 302.298C760.055 302.698 761.575 303.178 761.575 305.398C761.575 307.298 760.275 308.578 757.735 308.578ZM764.849 312.038L766.829 307.318L762.729 297.938H764.509L767.709 305.438L770.609 297.938H772.309L766.529 312.038H764.849ZM777.735 308.578C775.235 308.578 773.735 307.318 773.635 305.178H775.255C775.375 306.418 776.035 307.198 777.715 307.198C779.295 307.198 779.995 306.658 779.995 305.538C779.995 304.438 779.175 304.078 777.555 303.778C774.835 303.278 773.915 302.518 773.915 300.698C773.915 298.758 775.815 297.758 777.455 297.758C779.335 297.758 780.955 298.518 781.235 300.778H779.635C779.395 299.638 778.755 299.138 777.435 299.138C776.235 299.138 775.455 299.738 775.455 300.638C775.455 301.578 775.975 301.958 777.895 302.298C780.055 302.698 781.575 303.178 781.575 305.398C781.575 307.298 780.275 308.578 777.735 308.578ZM787.284 308.538C785.384 308.538 784.464 307.418 784.464 305.778V299.338H782.964V297.938H784.464V295.558H786.124V297.938H788.564V299.338H786.124V305.618C786.124 306.638 786.584 307.138 787.424 307.138C787.944 307.138 788.344 307.058 788.704 306.918V308.318C788.364 308.438 787.964 308.538 787.284 308.538ZM795.493 308.578C792.533 308.578 790.433 306.498 790.433 303.278V303.118C790.433 299.958 792.453 297.758 795.333 297.758C797.753 297.758 800.033 299.218 800.033 302.958V303.498H792.153C792.233 305.878 793.373 307.198 795.513 307.198C797.133 307.198 798.073 306.598 798.293 305.378H799.953C799.593 307.478 797.853 308.578 795.493 308.578ZM792.213 302.158H798.333C798.173 299.998 797.053 299.138 795.333 299.138C793.633 299.138 792.493 300.298 792.213 302.158ZM802.581 308.398V297.938H804.241V299.538C804.721 298.558 805.861 297.758 807.361 297.758C808.701 297.758 809.881 298.318 810.421 299.718C811.141 298.358 812.701 297.758 814.001 297.758C815.881 297.758 817.521 298.878 817.521 301.918V308.398H815.861V301.798C815.861 299.958 815.081 299.198 813.641 299.198C812.281 299.198 810.881 300.118 810.881 301.998V308.398H809.221V301.798C809.221 299.958 808.441 299.198 807.001 299.198C805.641 299.198 804.241 300.118 804.241 301.998V308.398H802.581Z" fill="#797979"/>
<rect x="652.871" y="398.235" width="197.122" height="54.1904" rx="7.83666" stroke="#797979" stroke-width="1.74148"/>
<path d="M696.752 431.51C693.472 431.51 691.612 429.59 691.612 426.11V417.03H693.352V425.91C693.352 428.91 694.412 430.07 696.792 430.07C699.072 430.07 700.432 429.15 700.432 425.65V417.03H702.172V425.89C702.172 429.37 700.432 431.51 696.752 431.51ZM705.758 431.33V417.03H707.498V431.33H705.758ZM709.525 434.29L715.345 415.81H716.865L711.045 434.29H709.525ZM724.291 431.51C721.011 431.51 719.151 429.59 719.151 426.11V417.03H720.891V425.91C720.891 428.91 721.951 430.07 724.331 430.07C726.611 430.07 727.971 429.15 727.971 425.65V417.03H729.711V425.89C729.711 429.37 727.971 431.51 724.291 431.51ZM731.906 431.33L736.626 423.99L732.226 417.03H734.146L737.706 422.65L741.246 417.03H743.026L738.586 423.99L743.246 431.33H741.286L737.466 425.31L733.646 431.33H731.906ZM755.064 431.51C752.324 431.51 750.344 429.57 750.344 426.31V426.15C750.344 422.95 752.344 420.69 755.224 420.69C756.964 420.69 758.044 421.53 758.644 422.55V415.87H760.304V431.33H758.644V429.53C758.044 430.55 756.584 431.51 755.064 431.51ZM755.244 430.13C757.184 430.13 758.704 428.85 758.704 426.17V426.01C758.704 423.33 757.424 422.07 755.384 422.07C753.304 422.07 752.064 423.53 752.064 426.07V426.23C752.064 428.87 753.484 430.13 755.244 430.13ZM767.943 431.51C764.983 431.51 762.883 429.43 762.883 426.21V426.05C762.883 422.89 764.903 420.69 767.783 420.69C770.203 420.69 772.483 422.15 772.483 425.89V426.43H764.603C764.683 428.81 765.823 430.13 767.963 430.13C769.583 430.13 770.523 429.53 770.743 428.31H772.403C772.043 430.41 770.303 431.51 767.943 431.51ZM764.663 425.09H770.783C770.623 422.93 769.503 422.07 767.783 422.07C766.083 422.07 764.943 423.23 764.663 425.09ZM778.368 431.51C775.868 431.51 774.368 430.25 774.268 428.11H775.888C776.008 429.35 776.668 430.13 778.348 430.13C779.928 430.13 780.628 429.59 780.628 428.47C780.628 427.37 779.808 427.01 778.188 426.71C775.468 426.21 774.548 425.45 774.548 423.63C774.548 421.69 776.448 420.69 778.088 420.69C779.968 420.69 781.588 421.45 781.868 423.71H780.268C780.028 422.57 779.388 422.07 778.068 422.07C776.868 422.07 776.088 422.67 776.088 423.57C776.088 424.51 776.608 424.89 778.528 425.23C780.688 425.63 782.208 426.11 782.208 428.33C782.208 430.23 780.908 431.51 778.368 431.51ZM784.777 431.33V420.87H786.437V431.33H784.777ZM785.577 418.69C784.977 418.69 784.477 418.19 784.477 417.59C784.477 416.99 784.977 416.49 785.577 416.49C786.177 416.49 786.677 416.99 786.677 417.59C786.677 418.19 786.177 418.69 785.577 418.69ZM794.015 435.15C790.915 435.15 789.555 433.69 789.275 431.93H790.975C791.215 433.13 792.215 433.75 793.995 433.75C796.055 433.75 797.355 432.77 797.355 430.53V429.01C796.755 430.03 795.335 430.99 793.815 430.99C791.075 430.99 789.055 428.91 789.055 426.03V425.89C789.055 423.05 791.055 420.69 793.935 420.69C795.675 420.69 796.755 421.53 797.355 422.55V420.87H799.015V430.63C798.995 433.67 796.935 435.15 794.015 435.15ZM793.995 429.61C795.935 429.61 797.415 428.25 797.415 425.91V425.77C797.415 423.43 796.135 422.07 794.095 422.07C792.015 422.07 790.775 423.61 790.775 425.81V425.97C790.775 428.25 792.235 429.61 793.995 429.61ZM802.374 431.33V420.87H804.034V422.53C804.514 421.55 805.674 420.69 807.394 420.69C809.554 420.69 811.074 421.87 811.074 424.91V431.33H809.414V424.79C809.414 422.95 808.634 422.13 806.954 422.13C805.414 422.13 804.034 423.11 804.034 424.99V431.33H802.374Z" fill="#797979"/>
<rect x="652.871" y="521.167" width="197.122" height="54.1904" rx="7.83666" stroke="#797979" stroke-width="1.74148"/>
<path d="M720.232 554.262V539.962H724.532C727.192 539.962 729.132 540.842 729.132 543.662V543.742C729.132 545.042 728.612 546.202 726.972 546.762C729.052 547.262 729.832 548.322 729.832 550.182V550.262C729.832 552.962 727.992 554.262 725.132 554.262H720.232ZM721.932 552.902H725.092C727.172 552.902 728.132 551.982 728.132 550.242V550.162C728.132 548.402 727.152 547.562 724.852 547.562H721.932V552.902ZM721.932 546.202H724.532C726.632 546.202 727.432 545.442 727.432 543.682V543.602C727.432 541.982 726.492 541.322 724.492 541.322H721.932V546.202ZM736.093 554.442C734.013 554.442 732.453 553.302 732.453 550.422V543.802H734.113V550.342C734.113 552.182 734.893 553.002 736.533 553.002C738.013 553.002 739.413 552.022 739.413 550.142V543.802H741.073V554.262H739.413V552.602C738.933 553.582 737.773 554.442 736.093 554.442ZM749.628 554.442C747.928 554.442 746.688 553.582 746.088 552.542V554.262H744.428V538.802H746.088V545.562C746.688 544.542 748.108 543.622 749.628 543.622C752.368 543.622 754.388 545.622 754.388 548.882V549.042C754.388 552.242 752.508 554.442 749.628 554.442ZM749.468 553.062C751.548 553.062 752.668 551.662 752.668 549.122V548.962C752.668 546.322 751.208 545.002 749.448 545.002C747.508 545.002 746.028 546.282 746.028 548.962V549.122C746.028 551.802 747.428 553.062 749.468 553.062ZM762.167 554.442C760.467 554.442 759.227 553.582 758.627 552.542V554.262H756.967V538.802H758.627V545.562C759.227 544.542 760.647 543.622 762.167 543.622C764.907 543.622 766.927 545.622 766.927 548.882V549.042C766.927 552.242 765.047 554.442 762.167 554.442ZM762.007 553.062C764.087 553.062 765.207 551.662 765.207 549.122V548.962C765.207 546.322 763.747 545.002 761.987 545.002C760.047 545.002 758.567 546.282 758.567 548.962V549.122C758.567 551.802 759.967 553.062 762.007 553.062ZM769.546 554.262V538.802H771.226V554.262H769.546ZM778.904 554.442C775.944 554.442 773.844 552.362 773.844 549.142V548.982C773.844 545.822 775.864 543.622 778.744 543.622C781.164 543.622 783.444 545.082 783.444 548.822V549.362H775.564C775.644 551.742 776.784 553.062 778.924 553.062C780.544 553.062 781.484 552.462 781.704 551.242H783.364C783.004 553.342 781.264 554.442 778.904 554.442ZM775.624 548.022H781.744C781.584 545.862 780.464 545.002 778.744 545.002C777.044 545.002 775.904 546.162 775.624 548.022Z" fill="#797979"/>
<rect x="652.871" y="644.098" width="197.122" height="54.1904" rx="7.83666" stroke="#797979" stroke-width="1.74148"/>
<path d="M714.832 677.193L711.112 662.893H712.892L715.792 674.433L719.152 662.893H720.392L723.752 674.473L726.692 662.893H728.312L724.592 677.193H722.992L719.752 665.893L716.412 677.193H714.832ZM734.146 677.373C731.186 677.373 729.086 675.293 729.086 672.073V671.913C729.086 668.753 731.106 666.553 733.986 666.553C736.406 666.553 738.686 668.013 738.686 671.753V672.293H730.806C730.886 674.673 732.026 675.993 734.166 675.993C735.786 675.993 736.726 675.393 736.946 674.173H738.606C738.246 676.273 736.506 677.373 734.146 677.373ZM730.866 670.953H736.986C736.826 668.793 735.706 667.933 733.986 667.933C732.286 667.933 731.146 669.093 730.866 670.953ZM746.433 677.373C744.733 677.373 743.493 676.513 742.893 675.473V677.193H741.233V661.733H742.893V668.493C743.493 667.473 744.913 666.553 746.433 666.553C749.173 666.553 751.193 668.553 751.193 671.813V671.973C751.193 675.173 749.313 677.373 746.433 677.373ZM746.273 675.993C748.353 675.993 749.473 674.593 749.473 672.053V671.893C749.473 669.253 748.013 667.933 746.253 667.933C744.313 667.933 742.833 669.213 742.833 671.893V672.053C742.833 674.733 744.233 675.993 746.273 675.993ZM754.132 677.193V668.133H752.632V666.733H754.132V665.033C754.132 662.913 755.152 661.673 757.212 661.673C757.752 661.673 758.032 661.713 758.352 661.833V663.233C758.052 663.113 757.732 663.053 757.272 663.053C756.212 663.053 755.792 663.793 755.792 664.853V666.733H758.352V668.133H755.792V677.193H754.132ZM760.433 677.193V661.733H762.113V677.193H760.433ZM769.87 675.993C771.97 675.993 773.29 674.413 773.29 672.053V671.913C773.29 669.493 771.95 667.933 769.87 667.933C767.77 667.933 766.45 669.493 766.45 671.893V672.053C766.45 674.433 767.75 675.993 769.87 675.993ZM769.85 677.373C766.87 677.373 764.73 675.113 764.73 672.053V671.893C764.73 668.753 766.91 666.553 769.87 666.553C772.83 666.553 775.01 668.733 775.01 671.873V672.033C775.01 675.193 772.83 677.373 769.85 677.373ZM779.485 677.193L776.265 666.733H778.065L780.505 675.153L783.045 666.733H784.485L786.865 675.153L789.325 666.733H791.025L787.765 677.193H785.925L783.745 669.353L781.305 677.193H779.485Z" fill="#797979"/>
<rect x="435.871" y="77.9391" width="197.122" height="54.1904" rx="7.83666" stroke="#797979" stroke-width="1.74148"/>
<path d="M525.152 111.034L530.072 96.7342H532.352L537.192 111.034H535.472L534.072 106.914H528.172L526.792 111.034H525.152ZM531.132 98.1742L528.652 105.534H533.612L531.132 98.1742ZM539.808 111.034V96.7342H541.548V111.034H539.808Z" fill="#797979"/>
<rect x="435.871" y="200.871" width="197.122" height="54.1904" rx="7.83666" stroke="#797979" stroke-width="1.74148"/>
<path d="M497.832 233.966L494.112 219.666H495.892L498.792 231.206L502.152 219.666H503.392L506.752 231.246L509.692 219.666H511.312L507.592 233.966H505.992L502.752 222.666L499.412 233.966H497.832ZM517.146 234.146C514.186 234.146 512.086 232.066 512.086 228.846V228.686C512.086 225.526 514.106 223.326 516.986 223.326C519.406 223.326 521.686 224.786 521.686 228.526V229.066H513.806C513.886 231.446 515.026 232.766 517.166 232.766C518.786 232.766 519.726 232.166 519.946 230.946H521.606C521.246 233.046 519.506 234.146 517.146 234.146ZM513.866 227.726H519.986C519.826 225.566 518.706 224.706 516.986 224.706C515.286 224.706 514.146 225.866 513.866 227.726ZM529.433 234.146C527.733 234.146 526.493 233.286 525.893 232.246V233.966H524.233V218.506H525.893V225.266C526.493 224.246 527.913 223.326 529.433 223.326C532.173 223.326 534.193 225.326 534.193 228.586V228.746C534.193 231.946 532.313 234.146 529.433 234.146ZM529.273 232.766C531.353 232.766 532.473 231.366 532.473 228.826V228.666C532.473 226.026 531.013 224.706 529.253 224.706C527.313 224.706 525.833 225.986 525.833 228.666V228.826C525.833 231.506 527.233 232.766 529.273 232.766ZM537.132 233.966V224.906H535.632V223.506H537.132V221.806C537.132 219.686 538.152 218.446 540.212 218.446C540.752 218.446 541.032 218.486 541.352 218.606V220.006C541.052 219.886 540.732 219.826 540.272 219.826C539.212 219.826 538.792 220.566 538.792 221.626V223.506H541.352V224.906H538.792V233.966H537.132ZM543.433 233.966V218.506H545.113V233.966H543.433ZM552.87 232.766C554.97 232.766 556.29 231.186 556.29 228.826V228.686C556.29 226.266 554.95 224.706 552.87 224.706C550.77 224.706 549.45 226.266 549.45 228.666V228.826C549.45 231.206 550.75 232.766 552.87 232.766ZM552.85 234.146C549.87 234.146 547.73 231.886 547.73 228.826V228.666C547.73 225.526 549.91 223.326 552.87 223.326C555.83 223.326 558.01 225.506 558.01 228.646V228.806C558.01 231.966 555.83 234.146 552.85 234.146ZM562.485 233.966L559.265 223.506H561.065L563.505 231.926L566.045 223.506H567.485L569.865 231.926L572.325 223.506H574.025L570.765 233.966H568.925L566.745 226.126L564.305 233.966H562.485Z" fill="#797979"/>
<rect x="435.871" y="323.803" width="197.122" height="54.1904" rx="7.83666" stroke="#797979" stroke-width="1.74148"/>
<path d="M517.972 355.478H519.932C523.612 355.478 525.452 353.278 525.452 349.778V349.618C525.452 346.318 523.852 343.998 519.912 343.998H517.972V355.478ZM516.232 356.898V342.598H520.012C524.932 342.598 527.252 345.638 527.252 349.618V349.798C527.252 353.758 524.972 356.898 519.972 356.898H516.232ZM534.582 357.078C530.762 357.078 529.382 354.978 529.122 352.538H530.802C531.022 354.238 531.702 355.678 534.582 355.678C536.422 355.678 537.842 354.598 537.842 352.978C537.842 351.358 537.102 350.678 534.382 350.238C531.382 349.778 529.602 348.838 529.602 346.298C529.602 344.098 531.502 342.418 534.202 342.418C537.062 342.418 538.842 343.818 539.122 346.358H537.562C537.222 344.558 536.182 343.818 534.202 343.818C532.242 343.818 531.222 344.798 531.222 346.138C531.222 347.538 531.742 348.258 534.662 348.698C537.842 349.198 539.522 350.158 539.522 352.858C539.522 355.258 537.422 357.078 534.582 357.078ZM540.914 356.898L545.834 342.598H548.114L552.954 356.898H551.234L549.834 352.778H543.934L542.554 356.898H540.914ZM546.894 344.038L544.414 351.398H549.374L546.894 344.038Z" fill="#797979"/>
<rect x="435.871" y="446.735" width="197.122" height="54.1904" rx="7.83666" stroke="#797979" stroke-width="1.74148"/>
<path d="M479.752 480.01C476.472 480.01 474.612 478.09 474.612 474.61V465.53H476.352V474.41C476.352 477.41 477.412 478.57 479.792 478.57C482.072 478.57 483.432 477.65 483.432 474.15V465.53H485.172V474.39C485.172 477.87 483.432 480.01 479.752 480.01ZM488.758 479.83V465.53H490.498V479.83H488.758ZM492.525 482.79L498.345 464.31H499.865L494.045 482.79H492.525ZM507.291 480.01C504.011 480.01 502.151 478.09 502.151 474.61V465.53H503.891V474.41C503.891 477.41 504.951 478.57 507.331 478.57C509.611 478.57 510.971 477.65 510.971 474.15V465.53H512.711V474.39C512.711 477.87 510.971 480.01 507.291 480.01ZM514.906 479.83L519.626 472.49L515.226 465.53H517.146L520.706 471.15L524.246 465.53H526.026L521.586 472.49L526.246 479.83H524.286L520.466 473.81L516.646 479.83H514.906ZM538.064 480.01C535.324 480.01 533.344 478.07 533.344 474.81V474.65C533.344 471.45 535.344 469.19 538.224 469.19C539.964 469.19 541.044 470.03 541.644 471.05V464.37H543.304V479.83H541.644V478.03C541.044 479.05 539.584 480.01 538.064 480.01ZM538.244 478.63C540.184 478.63 541.704 477.35 541.704 474.67V474.51C541.704 471.83 540.424 470.57 538.384 470.57C536.304 470.57 535.064 472.03 535.064 474.57V474.73C535.064 477.37 536.484 478.63 538.244 478.63ZM550.943 480.01C547.983 480.01 545.883 477.93 545.883 474.71V474.55C545.883 471.39 547.903 469.19 550.783 469.19C553.203 469.19 555.483 470.65 555.483 474.39V474.93H547.603C547.683 477.31 548.823 478.63 550.963 478.63C552.583 478.63 553.523 478.03 553.743 476.81H555.403C555.043 478.91 553.303 480.01 550.943 480.01ZM547.663 473.59H553.783C553.623 471.43 552.503 470.57 550.783 470.57C549.083 470.57 547.943 471.73 547.663 473.59ZM561.368 480.01C558.868 480.01 557.368 478.75 557.268 476.61H558.888C559.008 477.85 559.668 478.63 561.348 478.63C562.928 478.63 563.628 478.09 563.628 476.97C563.628 475.87 562.808 475.51 561.188 475.21C558.468 474.71 557.548 473.95 557.548 472.13C557.548 470.19 559.448 469.19 561.088 469.19C562.968 469.19 564.588 469.95 564.868 472.21H563.268C563.028 471.07 562.388 470.57 561.068 470.57C559.868 470.57 559.088 471.17 559.088 472.07C559.088 473.01 559.608 473.39 561.528 473.73C563.688 474.13 565.208 474.61 565.208 476.83C565.208 478.73 563.908 480.01 561.368 480.01ZM567.777 479.83V469.37H569.437V479.83H567.777ZM568.577 467.19C567.977 467.19 567.477 466.69 567.477 466.09C567.477 465.49 567.977 464.99 568.577 464.99C569.177 464.99 569.677 465.49 569.677 466.09C569.677 466.69 569.177 467.19 568.577 467.19ZM577.015 483.65C573.915 483.65 572.555 482.19 572.275 480.43H573.975C574.215 481.63 575.215 482.25 576.995 482.25C579.055 482.25 580.355 481.27 580.355 479.03V477.51C579.755 478.53 578.335 479.49 576.815 479.49C574.075 479.49 572.055 477.41 572.055 474.53V474.39C572.055 471.55 574.055 469.19 576.935 469.19C578.675 469.19 579.755 470.03 580.355 471.05V469.37H582.015V479.13C581.995 482.17 579.935 483.65 577.015 483.65ZM576.995 478.11C578.935 478.11 580.415 476.75 580.415 474.41V474.27C580.415 471.93 579.135 470.57 577.095 470.57C575.015 470.57 573.775 472.11 573.775 474.31V474.47C573.775 476.75 575.235 478.11 576.995 478.11ZM585.374 479.83V469.37H587.034V471.03C587.514 470.05 588.674 469.19 590.394 469.19C592.554 469.19 594.074 470.37 594.074 473.41V479.83H592.414V473.29C592.414 471.45 591.634 470.63 589.954 470.63C588.414 470.63 587.034 471.61 587.034 473.49V479.83H585.374Z" fill="#797979"/>
<rect x="435.871" y="569.667" width="197.122" height="54.1904" rx="7.83666" stroke="#797979" stroke-width="1.74148"/>
<path d="M503.232 602.762V588.462H507.532C510.192 588.462 512.132 589.342 512.132 592.162V592.242C512.132 593.542 511.612 594.702 509.972 595.262C512.052 595.762 512.832 596.822 512.832 598.682V598.762C512.832 601.462 510.992 602.762 508.132 602.762H503.232ZM504.932 601.402H508.092C510.172 601.402 511.132 600.482 511.132 598.742V598.662C511.132 596.902 510.152 596.062 507.852 596.062H504.932V601.402ZM504.932 594.702H507.532C509.632 594.702 510.432 593.942 510.432 592.182V592.102C510.432 590.482 509.492 589.822 507.492 589.822H504.932V594.702ZM519.093 602.942C517.013 602.942 515.453 601.802 515.453 598.922V592.302H517.113V598.842C517.113 600.682 517.893 601.502 519.533 601.502C521.013 601.502 522.413 600.522 522.413 598.642V592.302H524.073V602.762H522.413V601.102C521.933 602.082 520.773 602.942 519.093 602.942ZM532.628 602.942C530.928 602.942 529.688 602.082 529.088 601.042V602.762H527.428V587.302H529.088V594.062C529.688 593.042 531.108 592.122 532.628 592.122C535.368 592.122 537.388 594.122 537.388 597.382V597.542C537.388 600.742 535.508 602.942 532.628 602.942ZM532.468 601.562C534.548 601.562 535.668 600.162 535.668 597.622V597.462C535.668 594.822 534.208 593.502 532.448 593.502C530.508 593.502 529.028 594.782 529.028 597.462V597.622C529.028 600.302 530.428 601.562 532.468 601.562ZM545.167 602.942C543.467 602.942 542.227 602.082 541.627 601.042V602.762H539.967V587.302H541.627V594.062C542.227 593.042 543.647 592.122 545.167 592.122C547.907 592.122 549.927 594.122 549.927 597.382V597.542C549.927 600.742 548.047 602.942 545.167 602.942ZM545.007 601.562C547.087 601.562 548.207 600.162 548.207 597.622V597.462C548.207 594.822 546.747 593.502 544.987 593.502C543.047 593.502 541.567 594.782 541.567 597.462V597.622C541.567 600.302 542.967 601.562 545.007 601.562ZM552.546 602.762V587.302H554.226V602.762H552.546ZM561.904 602.942C558.944 602.942 556.844 600.862 556.844 597.642V597.482C556.844 594.322 558.864 592.122 561.744 592.122C564.164 592.122 566.444 593.582 566.444 597.322V597.862H558.564C558.644 600.242 559.784 601.562 561.924 601.562C563.544 601.562 564.484 600.962 564.704 599.742H566.364C566.004 601.842 564.264 602.942 561.904 602.942ZM558.624 596.522H564.744C564.584 594.362 563.464 593.502 561.744 593.502C560.044 593.502 558.904 594.662 558.624 596.522Z" fill="#797979"/>
<rect x="435.871" y="692.598" width="197.122" height="54.1904" rx="7.83666" stroke="#797979" stroke-width="1.74148"/>
<path d="M497.832 725.693L494.112 711.393H495.892L498.792 722.933L502.152 711.393H503.392L506.752 722.973L509.692 711.393H511.312L507.592 725.693H505.992L502.752 714.393L499.412 725.693H497.832ZM517.146 725.873C514.186 725.873 512.086 723.793 512.086 720.573V720.413C512.086 717.253 514.106 715.053 516.986 715.053C519.406 715.053 521.686 716.513 521.686 720.253V720.793H513.806C513.886 723.173 515.026 724.493 517.166 724.493C518.786 724.493 519.726 723.893 519.946 722.673H521.606C521.246 724.773 519.506 725.873 517.146 725.873ZM513.866 719.453H519.986C519.826 717.293 518.706 716.433 516.986 716.433C515.286 716.433 514.146 717.593 513.866 719.453ZM529.433 725.873C527.733 725.873 526.493 725.013 525.893 723.973V725.693H524.233V710.233H525.893V716.993C526.493 715.973 527.913 715.053 529.433 715.053C532.173 715.053 534.193 717.053 534.193 720.313V720.473C534.193 723.673 532.313 725.873 529.433 725.873ZM529.273 724.493C531.353 724.493 532.473 723.093 532.473 720.553V720.393C532.473 717.753 531.013 716.433 529.253 716.433C527.313 716.433 525.833 717.713 525.833 720.393V720.553C525.833 723.233 527.233 724.493 529.273 724.493ZM537.132 725.693V716.633H535.632V715.233H537.132V713.533C537.132 711.413 538.152 710.173 540.212 710.173C540.752 710.173 541.032 710.213 541.352 710.333V711.733C541.052 711.613 540.732 711.553 540.272 711.553C539.212 711.553 538.792 712.293 538.792 713.353V715.233H541.352V716.633H538.792V725.693H537.132ZM543.433 725.693V710.233H545.113V725.693H543.433ZM552.87 724.493C554.97 724.493 556.29 722.913 556.29 720.553V720.413C556.29 717.993 554.95 716.433 552.87 716.433C550.77 716.433 549.45 717.993 549.45 720.393V720.553C549.45 722.933 550.75 724.493 552.87 724.493ZM552.85 725.873C549.87 725.873 547.73 723.613 547.73 720.553V720.393C547.73 717.253 549.91 715.053 552.87 715.053C555.83 715.053 558.01 717.233 558.01 720.373V720.533C558.01 723.693 555.83 725.873 552.85 725.873ZM562.485 725.693L559.265 715.233H561.065L563.505 723.653L566.045 715.233H567.485L569.865 723.653L572.325 715.233H574.025L570.765 725.693H568.925L566.745 717.853L564.305 725.693H562.485Z" fill="#797979"/>
<rect x="1087.73" y="77.9391" width="197.122" height="54.1904" rx="7.83666" stroke="#797979" stroke-width="1.74148"/>
<path d="M1177.02 111.034L1181.94 96.7342H1184.22L1189.06 111.034H1187.34L1185.94 106.914H1180.04L1178.66 111.034H1177.02ZM1183 98.1742L1180.52 105.534H1185.48L1183 98.1742ZM1191.67 111.034V96.7342H1193.41V111.034H1191.67Z" fill="#797979"/>
<rect x="1087.73" y="200.871" width="197.122" height="54.1904" rx="7.83666" stroke="#797979" stroke-width="1.74148"/>
<path d="M1149.7 233.966L1145.98 219.666H1147.76L1150.66 231.206L1154.02 219.666H1155.26L1158.62 231.246L1161.56 219.666H1163.18L1159.46 233.966H1157.86L1154.62 222.666L1151.28 233.966H1149.7ZM1169.01 234.146C1166.05 234.146 1163.95 232.066 1163.95 228.846V228.686C1163.95 225.526 1165.97 223.326 1168.85 223.326C1171.27 223.326 1173.55 224.786 1173.55 228.526V229.066H1165.67C1165.75 231.446 1166.89 232.766 1169.03 232.766C1170.65 232.766 1171.59 232.166 1171.81 230.946H1173.47C1173.11 233.046 1171.37 234.146 1169.01 234.146ZM1165.73 227.726H1171.85C1171.69 225.566 1170.57 224.706 1168.85 224.706C1167.15 224.706 1166.01 225.866 1165.73 227.726ZM1181.3 234.146C1179.6 234.146 1178.36 233.286 1177.76 232.246V233.966H1176.1V218.506H1177.76V225.266C1178.36 224.246 1179.78 223.326 1181.3 223.326C1184.04 223.326 1186.06 225.326 1186.06 228.586V228.746C1186.06 231.946 1184.18 234.146 1181.3 234.146ZM1181.14 232.766C1183.22 232.766 1184.34 231.366 1184.34 228.826V228.666C1184.34 226.026 1182.88 224.706 1181.12 224.706C1179.18 224.706 1177.7 225.986 1177.7 228.666V228.826C1177.7 231.506 1179.1 232.766 1181.14 232.766ZM1189 233.966V224.906H1187.5V223.506H1189V221.806C1189 219.686 1190.02 218.446 1192.08 218.446C1192.62 218.446 1192.9 218.486 1193.22 218.606V220.006C1192.92 219.886 1192.6 219.826 1192.14 219.826C1191.08 219.826 1190.66 220.566 1190.66 221.626V223.506H1193.22V224.906H1190.66V233.966H1189ZM1195.3 233.966V218.506H1196.98V233.966H1195.3ZM1204.73 232.766C1206.83 232.766 1208.15 231.186 1208.15 228.826V228.686C1208.15 226.266 1206.81 224.706 1204.73 224.706C1202.63 224.706 1201.31 226.266 1201.31 228.666V228.826C1201.31 231.206 1202.61 232.766 1204.73 232.766ZM1204.71 234.146C1201.73 234.146 1199.59 231.886 1199.59 228.826V228.666C1199.59 225.526 1201.77 223.326 1204.73 223.326C1207.69 223.326 1209.87 225.506 1209.87 228.646V228.806C1209.87 231.966 1207.69 234.146 1204.71 234.146ZM1214.35 233.966L1211.13 223.506H1212.93L1215.37 231.926L1217.91 223.506H1219.35L1221.73 231.926L1224.19 223.506H1225.89L1222.63 233.966H1220.79L1218.61 226.126L1216.17 233.966H1214.35Z" fill="#797979"/>
<rect x="1087.73" y="323.803" width="197.122" height="54.1904" rx="7.83666" stroke="#797979" stroke-width="1.74148"/>
<path d="M1169.84 355.478H1171.8C1175.48 355.478 1177.32 353.278 1177.32 349.778V349.618C1177.32 346.318 1175.72 343.998 1171.78 343.998H1169.84V355.478ZM1168.1 356.898V342.598H1171.88C1176.8 342.598 1179.12 345.638 1179.12 349.618V349.798C1179.12 353.758 1176.84 356.898 1171.84 356.898H1168.1ZM1186.45 357.078C1182.63 357.078 1181.25 354.978 1180.99 352.538H1182.67C1182.89 354.238 1183.57 355.678 1186.45 355.678C1188.29 355.678 1189.71 354.598 1189.71 352.978C1189.71 351.358 1188.97 350.678 1186.25 350.238C1183.25 349.778 1181.47 348.838 1181.47 346.298C1181.47 344.098 1183.37 342.418 1186.07 342.418C1188.93 342.418 1190.71 343.818 1190.99 346.358H1189.43C1189.09 344.558 1188.05 343.818 1186.07 343.818C1184.11 343.818 1183.09 344.798 1183.09 346.138C1183.09 347.538 1183.61 348.258 1186.53 348.698C1189.71 349.198 1191.39 350.158 1191.39 352.858C1191.39 355.258 1189.29 357.078 1186.45 357.078ZM1192.78 356.898L1197.7 342.598H1199.98L1204.82 356.898H1203.1L1201.7 352.778H1195.8L1194.42 356.898H1192.78ZM1198.76 344.038L1196.28 351.398H1201.24L1198.76 344.038Z" fill="#797979"/>
<rect x="1087.73" y="446.735" width="197.122" height="54.1904" rx="7.83666" stroke="#797979" stroke-width="1.74148"/>
<path d="M1131.62 480.01C1128.34 480.01 1126.48 478.09 1126.48 474.61V465.53H1128.22V474.41C1128.22 477.41 1129.28 478.57 1131.66 478.57C1133.94 478.57 1135.3 477.65 1135.3 474.15V465.53H1137.04V474.39C1137.04 477.87 1135.3 480.01 1131.62 480.01ZM1140.62 479.83V465.53H1142.36V479.83H1140.62ZM1144.39 482.79L1150.21 464.31H1151.73L1145.91 482.79H1144.39ZM1159.15 480.01C1155.87 480.01 1154.01 478.09 1154.01 474.61V465.53H1155.75V474.41C1155.75 477.41 1156.81 478.57 1159.19 478.57C1161.47 478.57 1162.83 477.65 1162.83 474.15V465.53H1164.57V474.39C1164.57 477.87 1162.83 480.01 1159.15 480.01ZM1166.77 479.83L1171.49 472.49L1167.09 465.53H1169.01L1172.57 471.15L1176.11 465.53H1177.89L1173.45 472.49L1178.11 479.83H1176.15L1172.33 473.81L1168.51 479.83H1166.77ZM1189.93 480.01C1187.19 480.01 1185.21 478.07 1185.21 474.81V474.65C1185.21 471.45 1187.21 469.19 1190.09 469.19C1191.83 469.19 1192.91 470.03 1193.51 471.05V464.37H1195.17V479.83H1193.51V478.03C1192.91 479.05 1191.45 480.01 1189.93 480.01ZM1190.11 478.63C1192.05 478.63 1193.57 477.35 1193.57 474.67V474.51C1193.57 471.83 1192.29 470.57 1190.25 470.57C1188.17 470.57 1186.93 472.03 1186.93 474.57V474.73C1186.93 477.37 1188.35 478.63 1190.11 478.63ZM1202.81 480.01C1199.85 480.01 1197.75 477.93 1197.75 474.71V474.55C1197.75 471.39 1199.77 469.19 1202.65 469.19C1205.07 469.19 1207.35 470.65 1207.35 474.39V474.93H1199.47C1199.55 477.31 1200.69 478.63 1202.83 478.63C1204.45 478.63 1205.39 478.03 1205.61 476.81H1207.27C1206.91 478.91 1205.17 480.01 1202.81 480.01ZM1199.53 473.59H1205.65C1205.49 471.43 1204.37 470.57 1202.65 470.57C1200.95 470.57 1199.81 471.73 1199.53 473.59ZM1213.23 480.01C1210.73 480.01 1209.23 478.75 1209.13 476.61H1210.75C1210.87 477.85 1211.53 478.63 1213.21 478.63C1214.79 478.63 1215.49 478.09 1215.49 476.97C1215.49 475.87 1214.67 475.51 1213.05 475.21C1210.33 474.71 1209.41 473.95 1209.41 472.13C1209.41 470.19 1211.31 469.19 1212.95 469.19C1214.83 469.19 1216.45 469.95 1216.73 472.21H1215.13C1214.89 471.07 1214.25 470.57 1212.93 470.57C1211.73 470.57 1210.95 471.17 1210.95 472.07C1210.95 473.01 1211.47 473.39 1213.39 473.73C1215.55 474.13 1217.07 474.61 1217.07 476.83C1217.07 478.73 1215.77 480.01 1213.23 480.01ZM1219.64 479.83V469.37H1221.3V479.83H1219.64ZM1220.44 467.19C1219.84 467.19 1219.34 466.69 1219.34 466.09C1219.34 465.49 1219.84 464.99 1220.44 464.99C1221.04 464.99 1221.54 465.49 1221.54 466.09C1221.54 466.69 1221.04 467.19 1220.44 467.19ZM1228.88 483.65C1225.78 483.65 1224.42 482.19 1224.14 480.43H1225.84C1226.08 481.63 1227.08 482.25 1228.86 482.25C1230.92 482.25 1232.22 481.27 1232.22 479.03V477.51C1231.62 478.53 1230.2 479.49 1228.68 479.49C1225.94 479.49 1223.92 477.41 1223.92 474.53V474.39C1223.92 471.55 1225.92 469.19 1228.8 469.19C1230.54 469.19 1231.62 470.03 1232.22 471.05V469.37H1233.88V479.13C1233.86 482.17 1231.8 483.65 1228.88 483.65ZM1228.86 478.11C1230.8 478.11 1232.28 476.75 1232.28 474.41V474.27C1232.28 471.93 1231 470.57 1228.96 470.57C1226.88 470.57 1225.64 472.11 1225.64 474.31V474.47C1225.64 476.75 1227.1 478.11 1228.86 478.11ZM1237.24 479.83V469.37H1238.9V471.03C1239.38 470.05 1240.54 469.19 1242.26 469.19C1244.42 469.19 1245.94 470.37 1245.94 473.41V479.83H1244.28V473.29C1244.28 471.45 1243.5 470.63 1241.82 470.63C1240.28 470.63 1238.9 471.61 1238.9 473.49V479.83H1237.24Z" fill="#797979"/>
<rect x="1087.73" y="569.667" width="197.122" height="54.1904" rx="7.83666" stroke="#797979" stroke-width="1.74148"/>
<path d="M1155.1 602.762V588.462H1159.4C1162.06 588.462 1164 589.342 1164 592.162V592.242C1164 593.542 1163.48 594.702 1161.84 595.262C1163.92 595.762 1164.7 596.822 1164.7 598.682V598.762C1164.7 601.462 1162.86 602.762 1160 602.762H1155.1ZM1156.8 601.402H1159.96C1162.04 601.402 1163 600.482 1163 598.742V598.662C1163 596.902 1162.02 596.062 1159.72 596.062H1156.8V601.402ZM1156.8 594.702H1159.4C1161.5 594.702 1162.3 593.942 1162.3 592.182V592.102C1162.3 590.482 1161.36 589.822 1159.36 589.822H1156.8V594.702ZM1170.96 602.942C1168.88 602.942 1167.32 601.802 1167.32 598.922V592.302H1168.98V598.842C1168.98 600.682 1169.76 601.502 1171.4 601.502C1172.88 601.502 1174.28 600.522 1174.28 598.642V592.302H1175.94V602.762H1174.28V601.102C1173.8 602.082 1172.64 602.942 1170.96 602.942ZM1184.49 602.942C1182.79 602.942 1181.55 602.082 1180.95 601.042V602.762H1179.29V587.302H1180.95V594.062C1181.55 593.042 1182.97 592.122 1184.49 592.122C1187.23 592.122 1189.25 594.122 1189.25 597.382V597.542C1189.25 600.742 1187.37 602.942 1184.49 602.942ZM1184.33 601.562C1186.41 601.562 1187.53 600.162 1187.53 597.622V597.462C1187.53 594.822 1186.07 593.502 1184.31 593.502C1182.37 593.502 1180.89 594.782 1180.89 597.462V597.622C1180.89 600.302 1182.29 601.562 1184.33 601.562ZM1197.03 602.942C1195.33 602.942 1194.09 602.082 1193.49 601.042V602.762H1191.83V587.302H1193.49V594.062C1194.09 593.042 1195.51 592.122 1197.03 592.122C1199.77 592.122 1201.79 594.122 1201.79 597.382V597.542C1201.79 600.742 1199.91 602.942 1197.03 602.942ZM1196.87 601.562C1198.95 601.562 1200.07 600.162 1200.07 597.622V597.462C1200.07 594.822 1198.61 593.502 1196.85 593.502C1194.91 593.502 1193.43 594.782 1193.43 597.462V597.622C1193.43 600.302 1194.83 601.562 1196.87 601.562ZM1204.41 602.762V587.302H1206.09V602.762H1204.41ZM1213.77 602.942C1210.81 602.942 1208.71 600.862 1208.71 597.642V597.482C1208.71 594.322 1210.73 592.122 1213.61 592.122C1216.03 592.122 1218.31 593.582 1218.31 597.322V597.862H1210.43C1210.51 600.242 1211.65 601.562 1213.79 601.562C1215.41 601.562 1216.35 600.962 1216.57 599.742H1218.23C1217.87 601.842 1216.13 602.942 1213.77 602.942ZM1210.49 596.522H1216.61C1216.45 594.362 1215.33 593.502 1213.61 593.502C1211.91 593.502 1210.77 594.662 1210.49 596.522Z" fill="#797979"/>
<rect x="1087.73" y="692.598" width="197.122" height="54.1904" rx="7.83666" stroke="#797979" stroke-width="1.74148"/>
<path d="M1149.7 725.693L1145.98 711.393H1147.76L1150.66 722.933L1154.02 711.393H1155.26L1158.62 722.973L1161.56 711.393H1163.18L1159.46 725.693H1157.86L1154.62 714.393L1151.28 725.693H1149.7ZM1169.01 725.873C1166.05 725.873 1163.95 723.793 1163.95 720.573V720.413C1163.95 717.253 1165.97 715.053 1168.85 715.053C1171.27 715.053 1173.55 716.513 1173.55 720.253V720.793H1165.67C1165.75 723.173 1166.89 724.493 1169.03 724.493C1170.65 724.493 1171.59 723.893 1171.81 722.673H1173.47C1173.11 724.773 1171.37 725.873 1169.01 725.873ZM1165.73 719.453H1171.85C1171.69 717.293 1170.57 716.433 1168.85 716.433C1167.15 716.433 1166.01 717.593 1165.73 719.453ZM1181.3 725.873C1179.6 725.873 1178.36 725.013 1177.76 723.973V725.693H1176.1V710.233H1177.76V716.993C1178.36 715.973 1179.78 715.053 1181.3 715.053C1184.04 715.053 1186.06 717.053 1186.06 720.313V720.473C1186.06 723.673 1184.18 725.873 1181.3 725.873ZM1181.14 724.493C1183.22 724.493 1184.34 723.093 1184.34 720.553V720.393C1184.34 717.753 1182.88 716.433 1181.12 716.433C1179.18 716.433 1177.7 717.713 1177.7 720.393V720.553C1177.7 723.233 1179.1 724.493 1181.14 724.493ZM1189 725.693V716.633H1187.5V715.233H1189V713.533C1189 711.413 1190.02 710.173 1192.08 710.173C1192.62 710.173 1192.9 710.213 1193.22 710.333V711.733C1192.92 711.613 1192.6 711.553 1192.14 711.553C1191.08 711.553 1190.66 712.293 1190.66 713.353V715.233H1193.22V716.633H1190.66V725.693H1189ZM1195.3 725.693V710.233H1196.98V725.693H1195.3ZM1204.73 724.493C1206.83 724.493 1208.15 722.913 1208.15 720.553V720.413C1208.15 717.993 1206.81 716.433 1204.73 716.433C1202.63 716.433 1201.31 717.993 1201.31 720.393V720.553C1201.31 722.933 1202.61 724.493 1204.73 724.493ZM1204.71 725.873C1201.73 725.873 1199.59 723.613 1199.59 720.553V720.393C1199.59 717.253 1201.77 715.053 1204.73 715.053C1207.69 715.053 1209.87 717.233 1209.87 720.373V720.533C1209.87 723.693 1207.69 725.873 1204.71 725.873ZM1214.35 725.693L1211.13 715.233H1212.93L1215.37 723.653L1217.91 715.233H1219.35L1221.73 723.653L1224.19 715.233H1225.89L1222.63 725.693H1220.79L1218.61 717.853L1216.17 725.693H1214.35Z" fill="#797979"/>
<rect x="219.871" y="1.47328" width="197.122" height="54.1904" rx="7.83666" stroke="#797979" stroke-width="1.74148"/>
<path d="M309.152 34.5684L314.072 20.2684H316.352L321.192 34.5684H319.472L318.072 30.4484H312.172L310.792 34.5684H309.152ZM315.132 21.7084L312.652 29.0684H317.612L315.132 21.7084ZM323.808 34.5684V20.2684H325.548V34.5684H323.808Z" fill="#797979"/>
<rect x="219.871" y="124.405" width="197.122" height="54.1904" rx="7.83666" stroke="#797979" stroke-width="1.74148"/>
<path d="M281.832 157.5L278.112 143.2H279.892L282.792 154.74L286.152 143.2H287.392L290.752 154.78L293.692 143.2H295.312L291.592 157.5H289.992L286.752 146.2L283.412 157.5H281.832ZM301.146 157.68C298.186 157.68 296.086 155.6 296.086 152.38V152.22C296.086 149.06 298.106 146.86 300.986 146.86C303.406 146.86 305.686 148.32 305.686 152.06V152.6H297.806C297.886 154.98 299.026 156.3 301.166 156.3C302.786 156.3 303.726 155.7 303.946 154.48H305.606C305.246 156.58 303.506 157.68 301.146 157.68ZM297.866 151.26H303.986C303.826 149.1 302.706 148.24 300.986 148.24C299.286 148.24 298.146 149.4 297.866 151.26ZM313.433 157.68C311.733 157.68 310.493 156.82 309.893 155.78V157.5H308.233V142.04H309.893V148.8C310.493 147.78 311.913 146.86 313.433 146.86C316.173 146.86 318.193 148.86 318.193 152.12V152.28C318.193 155.48 316.313 157.68 313.433 157.68ZM313.273 156.3C315.353 156.3 316.473 154.9 316.473 152.36V152.2C316.473 149.56 315.013 148.24 313.253 148.24C311.313 148.24 309.833 149.52 309.833 152.2V152.36C309.833 155.04 311.233 156.3 313.273 156.3ZM321.132 157.5V148.44H319.632V147.04H321.132V145.34C321.132 143.22 322.152 141.98 324.212 141.98C324.752 141.98 325.032 142.02 325.352 142.14V143.54C325.052 143.42 324.732 143.36 324.272 143.36C323.212 143.36 322.792 144.1 322.792 145.16V147.04H325.352V148.44H322.792V157.5H321.132ZM327.433 157.5V142.04H329.113V157.5H327.433ZM336.87 156.3C338.97 156.3 340.29 154.72 340.29 152.36V152.22C340.29 149.8 338.95 148.24 336.87 148.24C334.77 148.24 333.45 149.8 333.45 152.2V152.36C333.45 154.74 334.75 156.3 336.87 156.3ZM336.85 157.68C333.87 157.68 331.73 155.42 331.73 152.36V152.2C331.73 149.06 333.91 146.86 336.87 146.86C339.83 146.86 342.01 149.04 342.01 152.18V152.34C342.01 155.5 339.83 157.68 336.85 157.68ZM346.485 157.5L343.265 147.04H345.065L347.505 155.46L350.045 147.04H351.485L353.865 155.46L356.325 147.04H358.025L354.765 157.5H352.925L350.745 149.66L348.305 157.5H346.485Z" fill="#797979"/>
<rect x="219.871" y="247.337" width="197.122" height="54.1904" rx="7.83666" stroke="#797979" stroke-width="1.74148"/>
<path d="M301.972 279.012H303.932C307.612 279.012 309.452 276.812 309.452 273.312V273.152C309.452 269.852 307.852 267.532 303.912 267.532H301.972V279.012ZM300.232 280.432V266.132H304.012C308.932 266.132 311.252 269.172 311.252 273.152V273.332C311.252 277.292 308.972 280.432 303.972 280.432H300.232ZM318.582 280.612C314.762 280.612 313.382 278.512 313.122 276.072H314.802C315.022 277.772 315.702 279.212 318.582 279.212C320.422 279.212 321.842 278.132 321.842 276.512C321.842 274.892 321.102 274.212 318.382 273.772C315.382 273.312 313.602 272.372 313.602 269.832C313.602 267.632 315.502 265.952 318.202 265.952C321.062 265.952 322.842 267.352 323.122 269.892H321.562C321.222 268.092 320.182 267.352 318.202 267.352C316.242 267.352 315.222 268.332 315.222 269.672C315.222 271.072 315.742 271.792 318.662 272.232C321.842 272.732 323.522 273.692 323.522 276.392C323.522 278.792 321.422 280.612 318.582 280.612ZM324.914 280.432L329.834 266.132H332.114L336.954 280.432H335.234L333.834 276.312H327.934L326.554 280.432H324.914ZM330.894 267.572L328.414 274.932H333.374L330.894 267.572Z" fill="#797979"/>
<rect x="219.871" y="370.269" width="197.122" height="54.1904" rx="7.83666" stroke="#797979" stroke-width="1.74148"/>
<path d="M263.752 403.544C260.472 403.544 258.612 401.624 258.612 398.144V389.064H260.352V397.944C260.352 400.944 261.412 402.104 263.792 402.104C266.072 402.104 267.432 401.184 267.432 397.684V389.064H269.172V397.924C269.172 401.404 267.432 403.544 263.752 403.544ZM272.758 403.364V389.064H274.498V403.364H272.758ZM276.525 406.324L282.345 387.844H283.865L278.045 406.324H276.525ZM291.291 403.544C288.011 403.544 286.151 401.624 286.151 398.144V389.064H287.891V397.944C287.891 400.944 288.951 402.104 291.331 402.104C293.611 402.104 294.971 401.184 294.971 397.684V389.064H296.711V397.924C296.711 401.404 294.971 403.544 291.291 403.544ZM298.906 403.364L303.626 396.024L299.226 389.064H301.146L304.706 394.684L308.246 389.064H310.026L305.586 396.024L310.246 403.364H308.286L304.466 397.344L300.646 403.364H298.906ZM322.064 403.544C319.324 403.544 317.344 401.604 317.344 398.344V398.184C317.344 394.984 319.344 392.724 322.224 392.724C323.964 392.724 325.044 393.564 325.644 394.584V387.904H327.304V403.364H325.644V401.564C325.044 402.584 323.584 403.544 322.064 403.544ZM322.244 402.164C324.184 402.164 325.704 400.884 325.704 398.204V398.044C325.704 395.364 324.424 394.104 322.384 394.104C320.304 394.104 319.064 395.564 319.064 398.104V398.264C319.064 400.904 320.484 402.164 322.244 402.164ZM334.943 403.544C331.983 403.544 329.883 401.464 329.883 398.244V398.084C329.883 394.924 331.903 392.724 334.783 392.724C337.203 392.724 339.483 394.184 339.483 397.924V398.464H331.603C331.683 400.844 332.823 402.164 334.963 402.164C336.583 402.164 337.523 401.564 337.743 400.344H339.403C339.043 402.444 337.303 403.544 334.943 403.544ZM331.663 397.124H337.783C337.623 394.964 336.503 394.104 334.783 394.104C333.083 394.104 331.943 395.264 331.663 397.124ZM345.368 403.544C342.868 403.544 341.368 402.284 341.268 400.144H342.888C343.008 401.384 343.668 402.164 345.348 402.164C346.928 402.164 347.628 401.624 347.628 400.504C347.628 399.404 346.808 399.044 345.188 398.744C342.468 398.244 341.548 397.484 341.548 395.664C341.548 393.724 343.448 392.724 345.088 392.724C346.968 392.724 348.588 393.484 348.868 395.744H347.268C347.028 394.604 346.388 394.104 345.068 394.104C343.868 394.104 343.088 394.704 343.088 395.604C343.088 396.544 343.608 396.924 345.528 397.264C347.688 397.664 349.208 398.144 349.208 400.364C349.208 402.264 347.908 403.544 345.368 403.544ZM351.777 403.364V392.904H353.437V403.364H351.777ZM352.577 390.724C351.977 390.724 351.477 390.224 351.477 389.624C351.477 389.024 351.977 388.524 352.577 388.524C353.177 388.524 353.677 389.024 353.677 389.624C353.677 390.224 353.177 390.724 352.577 390.724ZM361.015 407.184C357.915 407.184 356.555 405.724 356.275 403.964H357.975C358.215 405.164 359.215 405.784 360.995 405.784C363.055 405.784 364.355 404.804 364.355 402.564V401.044C363.755 402.064 362.335 403.024 360.815 403.024C358.075 403.024 356.055 400.944 356.055 398.064V397.924C356.055 395.084 358.055 392.724 360.935 392.724C362.675 392.724 363.755 393.564 364.355 394.584V392.904H366.015V402.664C365.995 405.704 363.935 407.184 361.015 407.184ZM360.995 401.644C362.935 401.644 364.415 400.284 364.415 397.944V397.804C364.415 395.464 363.135 394.104 361.095 394.104C359.015 394.104 357.775 395.644 357.775 397.844V398.004C357.775 400.284 359.235 401.644 360.995 401.644ZM369.374 403.364V392.904H371.034V394.564C371.514 393.584 372.674 392.724 374.394 392.724C376.554 392.724 378.074 393.904 378.074 396.944V403.364H376.414V396.824C376.414 394.984 375.634 394.164 373.954 394.164C372.414 394.164 371.034 395.144 371.034 397.024V403.364H369.374Z" fill="#797979"/>
<rect x="219.871" y="493.201" width="197.122" height="54.1904" rx="7.83666" stroke="#797979" stroke-width="1.74148"/>
<path d="M287.232 526.296V511.996H291.532C294.192 511.996 296.132 512.876 296.132 515.696V515.776C296.132 517.076 295.612 518.236 293.972 518.796C296.052 519.296 296.832 520.356 296.832 522.216V522.296C296.832 524.996 294.992 526.296 292.132 526.296H287.232ZM288.932 524.936H292.092C294.172 524.936 295.132 524.016 295.132 522.276V522.196C295.132 520.436 294.152 519.596 291.852 519.596H288.932V524.936ZM288.932 518.236H291.532C293.632 518.236 294.432 517.476 294.432 515.716V515.636C294.432 514.016 293.492 513.356 291.492 513.356H288.932V518.236ZM303.093 526.476C301.013 526.476 299.453 525.336 299.453 522.456V515.836H301.113V522.376C301.113 524.216 301.893 525.036 303.533 525.036C305.013 525.036 306.413 524.056 306.413 522.176V515.836H308.073V526.296H306.413V524.636C305.933 525.616 304.773 526.476 303.093 526.476ZM316.628 526.476C314.928 526.476 313.688 525.616 313.088 524.576V526.296H311.428V510.836H313.088V517.596C313.688 516.576 315.108 515.656 316.628 515.656C319.368 515.656 321.388 517.656 321.388 520.916V521.076C321.388 524.276 319.508 526.476 316.628 526.476ZM316.468 525.096C318.548 525.096 319.668 523.696 319.668 521.156V520.996C319.668 518.356 318.208 517.036 316.448 517.036C314.508 517.036 313.028 518.316 313.028 520.996V521.156C313.028 523.836 314.428 525.096 316.468 525.096ZM329.167 526.476C327.467 526.476 326.227 525.616 325.627 524.576V526.296H323.967V510.836H325.627V517.596C326.227 516.576 327.647 515.656 329.167 515.656C331.907 515.656 333.927 517.656 333.927 520.916V521.076C333.927 524.276 332.047 526.476 329.167 526.476ZM329.007 525.096C331.087 525.096 332.207 523.696 332.207 521.156V520.996C332.207 518.356 330.747 517.036 328.987 517.036C327.047 517.036 325.567 518.316 325.567 520.996V521.156C325.567 523.836 326.967 525.096 329.007 525.096ZM336.546 526.296V510.836H338.226V526.296H336.546ZM345.904 526.476C342.944 526.476 340.844 524.396 340.844 521.176V521.016C340.844 517.856 342.864 515.656 345.744 515.656C348.164 515.656 350.444 517.116 350.444 520.856V521.396H342.564C342.644 523.776 343.784 525.096 345.924 525.096C347.544 525.096 348.484 524.496 348.704 523.276H350.364C350.004 525.376 348.264 526.476 345.904 526.476ZM342.624 520.056H348.744C348.584 517.896 347.464 517.036 345.744 517.036C344.044 517.036 342.904 518.196 342.624 520.056Z" fill="#797979"/>
<rect x="219.871" y="616.132" width="197.122" height="54.1904" rx="7.83666" stroke="#797979" stroke-width="1.74148"/>
<path d="M281.832 649.228L278.112 634.928H279.892L282.792 646.468L286.152 634.928H287.392L290.752 646.508L293.692 634.928H295.312L291.592 649.228H289.992L286.752 637.928L283.412 649.228H281.832ZM301.146 649.408C298.186 649.408 296.086 647.328 296.086 644.108V643.948C296.086 640.788 298.106 638.588 300.986 638.588C303.406 638.588 305.686 640.048 305.686 643.788V644.328H297.806C297.886 646.708 299.026 648.028 301.166 648.028C302.786 648.028 303.726 647.428 303.946 646.208H305.606C305.246 648.308 303.506 649.408 301.146 649.408ZM297.866 642.988H303.986C303.826 640.828 302.706 639.968 300.986 639.968C299.286 639.968 298.146 641.128 297.866 642.988ZM313.433 649.408C311.733 649.408 310.493 648.548 309.893 647.508V649.228H308.233V633.768H309.893V640.528C310.493 639.508 311.913 638.588 313.433 638.588C316.173 638.588 318.193 640.588 318.193 643.848V644.008C318.193 647.208 316.313 649.408 313.433 649.408ZM313.273 648.028C315.353 648.028 316.473 646.628 316.473 644.088V643.928C316.473 641.288 315.013 639.968 313.253 639.968C311.313 639.968 309.833 641.248 309.833 643.928V644.088C309.833 646.768 311.233 648.028 313.273 648.028ZM321.132 649.228V640.168H319.632V638.768H321.132V637.068C321.132 634.948 322.152 633.708 324.212 633.708C324.752 633.708 325.032 633.748 325.352 633.868V635.268C325.052 635.148 324.732 635.088 324.272 635.088C323.212 635.088 322.792 635.828 322.792 636.888V638.768H325.352V640.168H322.792V649.228H321.132ZM327.433 649.228V633.768H329.113V649.228H327.433ZM336.87 648.028C338.97 648.028 340.29 646.448 340.29 644.088V643.948C340.29 641.528 338.95 639.968 336.87 639.968C334.77 639.968 333.45 641.528 333.45 643.928V644.088C333.45 646.468 334.75 648.028 336.87 648.028ZM336.85 649.408C333.87 649.408 331.73 647.148 331.73 644.088V643.928C331.73 640.788 333.91 638.588 336.87 638.588C339.83 638.588 342.01 640.768 342.01 643.908V644.068C342.01 647.228 339.83 649.408 336.85 649.408ZM346.485 649.228L343.265 638.768H345.065L347.505 647.188L350.045 638.768H351.485L353.865 647.188L356.325 638.768H358.025L354.765 649.228H352.925L350.745 641.388L348.305 649.228H346.485Z" fill="#797979"/>
<rect x="871.735" y="1.47328" width="197.122" height="54.1904" rx="7.83666" stroke="#797979" stroke-width="1.74148"/>
<path d="M961.016 34.5684L965.936 20.2684H968.216L973.056 34.5684H971.336L969.936 30.4484H964.036L962.656 34.5684H961.016ZM966.996 21.7084L964.516 29.0684H969.476L966.996 21.7084ZM975.672 34.5684V20.2684H977.412V34.5684H975.672Z" fill="#797979"/>
<rect x="871.735" y="124.405" width="197.122" height="54.1904" rx="7.83666" stroke="#797979" stroke-width="1.74148"/>
<path d="M933.696 157.5L929.976 143.2H931.756L934.656 154.74L938.016 143.2H939.256L942.616 154.78L945.556 143.2H947.176L943.456 157.5H941.856L938.616 146.2L935.276 157.5H933.696ZM953.009 157.68C950.049 157.68 947.949 155.6 947.949 152.38V152.22C947.949 149.06 949.969 146.86 952.849 146.86C955.269 146.86 957.55 148.32 957.55 152.06V152.6H949.669C949.749 154.98 950.889 156.3 953.03 156.3C954.65 156.3 955.589 155.7 955.809 154.48H957.47C957.109 156.58 955.369 157.68 953.009 157.68ZM949.729 151.26H955.85C955.689 149.1 954.569 148.24 952.849 148.24C951.149 148.24 950.009 149.4 949.729 151.26ZM965.297 157.68C963.597 157.68 962.357 156.82 961.757 155.78V157.5H960.097V142.04H961.757V148.8C962.357 147.78 963.777 146.86 965.297 146.86C968.037 146.86 970.057 148.86 970.057 152.12V152.28C970.057 155.48 968.177 157.68 965.297 157.68ZM965.137 156.3C967.217 156.3 968.337 154.9 968.337 152.36V152.2C968.337 149.56 966.877 148.24 965.117 148.24C963.177 148.24 961.697 149.52 961.697 152.2V152.36C961.697 155.04 963.097 156.3 965.137 156.3ZM972.996 157.5V148.44H971.496V147.04H972.996V145.34C972.996 143.22 974.016 141.98 976.076 141.98C976.616 141.98 976.896 142.02 977.216 142.14V143.54C976.916 143.42 976.596 143.36 976.136 143.36C975.076 143.36 974.656 144.1 974.656 145.16V147.04H977.216V148.44H974.656V157.5H972.996ZM979.297 157.5V142.04H980.977V157.5H979.297ZM988.734 156.3C990.834 156.3 992.154 154.72 992.154 152.36V152.22C992.154 149.8 990.814 148.24 988.734 148.24C986.634 148.24 985.314 149.8 985.314 152.2V152.36C985.314 154.74 986.614 156.3 988.734 156.3ZM988.714 157.68C985.734 157.68 983.594 155.42 983.594 152.36V152.2C983.594 149.06 985.774 146.86 988.734 146.86C991.694 146.86 993.874 149.04 993.874 152.18V152.34C993.874 155.5 991.694 157.68 988.714 157.68ZM998.349 157.5L995.129 147.04H996.929L999.369 155.46L1001.91 147.04H1003.35L1005.73 155.46L1008.19 147.04H1009.89L1006.63 157.5H1004.79L1002.61 149.66L1000.17 157.5H998.349Z" fill="#797979"/>
<rect x="871.735" y="247.337" width="197.122" height="54.1904" rx="7.83666" stroke="#797979" stroke-width="1.74148"/>
<path d="M953.836 279.012H955.796C959.476 279.012 961.316 276.812 961.316 273.312V273.152C961.316 269.852 959.716 267.532 955.776 267.532H953.836V279.012ZM952.096 280.432V266.132H955.876C960.796 266.132 963.116 269.172 963.116 273.152V273.332C963.116 277.292 960.836 280.432 955.836 280.432H952.096ZM970.446 280.612C966.626 280.612 965.246 278.512 964.986 276.072H966.666C966.886 277.772 967.566 279.212 970.446 279.212C972.286 279.212 973.706 278.132 973.706 276.512C973.706 274.892 972.966 274.212 970.246 273.772C967.246 273.312 965.466 272.372 965.466 269.832C965.466 267.632 967.366 265.952 970.066 265.952C972.926 265.952 974.706 267.352 974.986 269.892H973.426C973.086 268.092 972.046 267.352 970.066 267.352C968.106 267.352 967.086 268.332 967.086 269.672C967.086 271.072 967.606 271.792 970.526 272.232C973.706 272.732 975.386 273.692 975.386 276.392C975.386 278.792 973.286 280.612 970.446 280.612ZM976.777 280.432L981.697 266.132H983.977L988.817 280.432H987.097L985.697 276.312H979.797L978.417 280.432H976.777ZM982.757 267.572L980.277 274.932H985.237L982.757 267.572Z" fill="#797979"/>
<rect x="871.735" y="370.269" width="197.122" height="54.1904" rx="7.83666" stroke="#797979" stroke-width="1.74148"/>
<path d="M915.616 403.544C912.336 403.544 910.476 401.624 910.476 398.144V389.064H912.216V397.944C912.216 400.944 913.276 402.104 915.656 402.104C917.936 402.104 919.296 401.184 919.296 397.684V389.064H921.036V397.924C921.036 401.404 919.296 403.544 915.616 403.544ZM924.621 403.364V389.064H926.361V403.364H924.621ZM928.388 406.324L934.208 387.844H935.728L929.908 406.324H928.388ZM943.155 403.544C939.875 403.544 938.015 401.624 938.015 398.144V389.064H939.755V397.944C939.755 400.944 940.815 402.104 943.195 402.104C945.475 402.104 946.835 401.184 946.835 397.684V389.064H948.575V397.924C948.575 401.404 946.835 403.544 943.155 403.544ZM950.77 403.364L955.49 396.024L951.09 389.064H953.01L956.57 394.684L960.11 389.064H961.89L957.45 396.024L962.11 403.364H960.15L956.33 397.344L952.51 403.364H950.77ZM973.927 403.544C971.187 403.544 969.207 401.604 969.207 398.344V398.184C969.207 394.984 971.207 392.724 974.087 392.724C975.827 392.724 976.907 393.564 977.507 394.584V387.904H979.167V403.364H977.507V401.564C976.907 402.584 975.447 403.544 973.927 403.544ZM974.107 402.164C976.047 402.164 977.567 400.884 977.567 398.204V398.044C977.567 395.364 976.287 394.104 974.247 394.104C972.167 394.104 970.927 395.564 970.927 398.104V398.264C970.927 400.904 972.347 402.164 974.107 402.164ZM986.806 403.544C983.846 403.544 981.746 401.464 981.746 398.244V398.084C981.746 394.924 983.766 392.724 986.646 392.724C989.066 392.724 991.346 394.184 991.346 397.924V398.464H983.466C983.546 400.844 984.686 402.164 986.826 402.164C988.446 402.164 989.386 401.564 989.606 400.344H991.266C990.906 402.444 989.166 403.544 986.806 403.544ZM983.526 397.124H989.646C989.486 394.964 988.366 394.104 986.646 394.104C984.946 394.104 983.806 395.264 983.526 397.124ZM997.231 403.544C994.731 403.544 993.231 402.284 993.131 400.144H994.751C994.871 401.384 995.531 402.164 997.211 402.164C998.791 402.164 999.491 401.624 999.491 400.504C999.491 399.404 998.671 399.044 997.051 398.744C994.331 398.244 993.411 397.484 993.411 395.664C993.411 393.724 995.311 392.724 996.951 392.724C998.831 392.724 1000.45 393.484 1000.73 395.744H999.131C998.891 394.604 998.251 394.104 996.931 394.104C995.731 394.104 994.951 394.704 994.951 395.604C994.951 396.544 995.471 396.924 997.391 397.264C999.551 397.664 1001.07 398.144 1001.07 400.364C1001.07 402.264 999.771 403.544 997.231 403.544ZM1003.64 403.364V392.904H1005.3V403.364H1003.64ZM1004.44 390.724C1003.84 390.724 1003.34 390.224 1003.34 389.624C1003.34 389.024 1003.84 388.524 1004.44 388.524C1005.04 388.524 1005.54 389.024 1005.54 389.624C1005.54 390.224 1005.04 390.724 1004.44 390.724ZM1012.88 407.184C1009.78 407.184 1008.42 405.724 1008.14 403.964H1009.84C1010.08 405.164 1011.08 405.784 1012.86 405.784C1014.92 405.784 1016.22 404.804 1016.22 402.564V401.044C1015.62 402.064 1014.2 403.024 1012.68 403.024C1009.94 403.024 1007.92 400.944 1007.92 398.064V397.924C1007.92 395.084 1009.92 392.724 1012.8 392.724C1014.54 392.724 1015.62 393.564 1016.22 394.584V392.904H1017.88V402.664C1017.86 405.704 1015.8 407.184 1012.88 407.184ZM1012.86 401.644C1014.8 401.644 1016.28 400.284 1016.28 397.944V397.804C1016.28 395.464 1015 394.104 1012.96 394.104C1010.88 394.104 1009.64 395.644 1009.64 397.844V398.004C1009.64 400.284 1011.1 401.644 1012.86 401.644ZM1021.24 403.364V392.904H1022.9V394.564C1023.38 393.584 1024.54 392.724 1026.26 392.724C1028.42 392.724 1029.94 393.904 1029.94 396.944V403.364H1028.28V396.824C1028.28 394.984 1027.5 394.164 1025.82 394.164C1024.28 394.164 1022.9 395.144 1022.9 397.024V403.364H1021.24Z" fill="#797979"/>
<rect x="871.735" y="493.201" width="197.122" height="54.1904" rx="7.83666" stroke="#797979" stroke-width="1.74148"/>
<path d="M939.096 526.296V511.996H943.396C946.056 511.996 947.996 512.876 947.996 515.696V515.776C947.996 517.076 947.476 518.236 945.836 518.796C947.916 519.296 948.696 520.356 948.696 522.216V522.296C948.696 524.996 946.856 526.296 943.996 526.296H939.096ZM940.796 524.936H943.956C946.036 524.936 946.996 524.016 946.996 522.276V522.196C946.996 520.436 946.016 519.596 943.716 519.596H940.796V524.936ZM940.796 518.236H943.396C945.496 518.236 946.296 517.476 946.296 515.716V515.636C946.296 514.016 945.356 513.356 943.356 513.356H940.796V518.236ZM954.957 526.476C952.877 526.476 951.317 525.336 951.317 522.456V515.836H952.977V522.376C952.977 524.216 953.757 525.036 955.397 525.036C956.877 525.036 958.277 524.056 958.277 522.176V515.836H959.937V526.296H958.277V524.636C957.797 525.616 956.637 526.476 954.957 526.476ZM968.492 526.476C966.792 526.476 965.552 525.616 964.952 524.576V526.296H963.292V510.836H964.952V517.596C965.552 516.576 966.972 515.656 968.492 515.656C971.232 515.656 973.252 517.656 973.252 520.916V521.076C973.252 524.276 971.372 526.476 968.492 526.476ZM968.332 525.096C970.412 525.096 971.532 523.696 971.532 521.156V520.996C971.532 518.356 970.072 517.036 968.312 517.036C966.372 517.036 964.892 518.316 964.892 520.996V521.156C964.892 523.836 966.292 525.096 968.332 525.096ZM981.031 526.476C979.331 526.476 978.091 525.616 977.491 524.576V526.296H975.831V510.836H977.491V517.596C978.091 516.576 979.511 515.656 981.031 515.656C983.771 515.656 985.791 517.656 985.791 520.916V521.076C985.791 524.276 983.911 526.476 981.031 526.476ZM980.871 525.096C982.951 525.096 984.071 523.696 984.071 521.156V520.996C984.071 518.356 982.611 517.036 980.851 517.036C978.911 517.036 977.431 518.316 977.431 520.996V521.156C977.431 523.836 978.831 525.096 980.871 525.096ZM988.41 526.296V510.836H990.09V526.296H988.41ZM997.767 526.476C994.807 526.476 992.707 524.396 992.707 521.176V521.016C992.707 517.856 994.727 515.656 997.607 515.656C1000.03 515.656 1002.31 517.116 1002.31 520.856V521.396H994.427C994.507 523.776 995.647 525.096 997.787 525.096C999.407 525.096 1000.35 524.496 1000.57 523.276H1002.23C1001.87 525.376 1000.13 526.476 997.767 526.476ZM994.487 520.056H1000.61C1000.45 517.896 999.327 517.036 997.607 517.036C995.907 517.036 994.767 518.196 994.487 520.056Z" fill="#797979"/>
<rect x="871.735" y="616.132" width="197.122" height="54.1904" rx="7.83666" stroke="#797979" stroke-width="1.74148"/>
<path d="M933.696 649.228L929.976 634.928H931.756L934.656 646.468L938.016 634.928H939.256L942.616 646.508L945.556 634.928H947.176L943.456 649.228H941.856L938.616 637.928L935.276 649.228H933.696ZM953.009 649.408C950.049 649.408 947.949 647.328 947.949 644.108V643.948C947.949 640.788 949.969 638.588 952.849 638.588C955.269 638.588 957.55 640.048 957.55 643.788V644.328H949.669C949.749 646.708 950.889 648.028 953.03 648.028C954.65 648.028 955.589 647.428 955.809 646.208H957.47C957.109 648.308 955.369 649.408 953.009 649.408ZM949.729 642.988H955.85C955.689 640.828 954.569 639.968 952.849 639.968C951.149 639.968 950.009 641.128 949.729 642.988ZM965.297 649.408C963.597 649.408 962.357 648.548 961.757 647.508V649.228H960.097V633.768H961.757V640.528C962.357 639.508 963.777 638.588 965.297 638.588C968.037 638.588 970.057 640.588 970.057 643.848V644.008C970.057 647.208 968.177 649.408 965.297 649.408ZM965.137 648.028C967.217 648.028 968.337 646.628 968.337 644.088V643.928C968.337 641.288 966.877 639.968 965.117 639.968C963.177 639.968 961.697 641.248 961.697 643.928V644.088C961.697 646.768 963.097 648.028 965.137 648.028ZM972.996 649.228V640.168H971.496V638.768H972.996V637.068C972.996 634.948 974.016 633.708 976.076 633.708C976.616 633.708 976.896 633.748 977.216 633.868V635.268C976.916 635.148 976.596 635.088 976.136 635.088C975.076 635.088 974.656 635.828 974.656 636.888V638.768H977.216V640.168H974.656V649.228H972.996ZM979.297 649.228V633.768H980.977V649.228H979.297ZM988.734 648.028C990.834 648.028 992.154 646.448 992.154 644.088V643.948C992.154 641.528 990.814 639.968 988.734 639.968C986.634 639.968 985.314 641.528 985.314 643.928V644.088C985.314 646.468 986.614 648.028 988.734 648.028ZM988.714 649.408C985.734 649.408 983.594 647.148 983.594 644.088V643.928C983.594 640.788 985.774 638.588 988.734 638.588C991.694 638.588 993.874 640.768 993.874 643.908V644.068C993.874 647.228 991.694 649.408 988.714 649.408ZM998.349 649.228L995.129 638.768H996.929L999.369 647.188L1001.91 638.768H1003.35L1005.73 647.188L1008.19 638.768H1009.89L1006.63 649.228H1004.79L1002.61 641.388L1000.17 649.228H998.349Z" fill="#797979"/>
</g>
</svg>
