<svg width="71" height="71" viewBox="0 0 71 71" fill="none" xmlns="http://www.w3.org/2000/svg">
<rect width="71" height="71" rx="9" fill="#30E29D"/>
<g clip-path="url(#clip0_2056_7295)">
<path d="M41.5874 46.8828H28.6133L26.9268 39.2604C26.8897 39.0952 26.8866 38.9242 26.9178 38.7578C26.9491 38.5913 27.0139 38.433 27.1083 38.2925C27.194 38.1609 27.3106 38.0523 27.4478 37.9761C27.5851 37.8998 27.7389 37.8583 27.8958 37.855H42.3049C42.4619 37.8583 42.6156 37.8998 42.7529 37.9761C42.8902 38.0523 43.0067 38.1609 43.0924 38.2925C43.1868 38.433 43.2517 38.5913 43.2829 38.7578C43.3141 38.9242 43.311 39.0952 43.274 39.2604L41.5874 46.8828Z" stroke="black" stroke-width="1.75" stroke-linecap="round" stroke-linejoin="round"/>
<path d="M22.7949 46.8828H47.4043" stroke="black" stroke-width="1.75" stroke-linecap="round" stroke-linejoin="round"/>
<path d="M33.459 41.9609C33.459 42.396 33.6318 42.8134 33.9395 43.1211C34.2471 43.4288 34.6645 43.6016 35.0996 43.6016C35.5347 43.6016 35.9521 43.4288 36.2598 43.1211C36.5674 42.8134 36.7402 42.396 36.7402 41.9609C36.7402 41.5258 36.5674 41.1085 36.2598 40.8008C35.9521 40.4931 35.5347 40.3203 35.0996 40.3203C34.6645 40.3203 34.2471 40.4931 33.9395 40.8008C33.6318 41.1085 33.459 41.5258 33.459 41.9609Z" stroke="black" stroke-width="1.75" stroke-linecap="round" stroke-linejoin="round"/>
<path d="M31.2109 24.4946C31.9097 25.2191 32.7474 25.7953 33.6738 26.1888C34.6002 26.5824 35.5965 26.7851 36.6031 26.7849C37.6235 26.7857 38.6332 26.578 39.5705 26.1746" stroke="black" stroke-width="1.75" stroke-linecap="round" stroke-linejoin="round"/>
<path d="M30.5879 26.7852C30.5879 27.9817 31.0632 29.1293 31.9093 29.9754C32.7555 30.8215 33.903 31.2969 35.0996 31.2969C36.2962 31.2969 37.4437 30.8215 38.2899 29.9754C39.136 29.1293 39.6113 27.9817 39.6113 26.7852C39.6113 25.5886 39.136 24.441 38.2899 23.5949C37.4437 22.7488 36.2962 22.2734 35.0996 22.2734C33.903 22.2734 32.7555 22.7488 31.9093 23.5949C31.0632 24.441 30.5879 25.5886 30.5879 26.7852Z" stroke="black" stroke-width="1.75" stroke-linecap="round" stroke-linejoin="round"/>
<path d="M40.5684 35.3985C39.8832 34.624 39.0414 34.004 38.0986 33.5793C37.1559 33.1546 36.1336 32.9351 35.0996 32.9351C34.0656 32.9351 33.0434 33.1546 32.1006 33.5793C31.1578 34.004 30.316 34.624 29.6309 35.3985" stroke="black" stroke-width="1.75" stroke-linecap="round" stroke-linejoin="round"/>
</g>
<defs>
<clipPath id="clip0_2056_7295">
<rect width="28" height="28" fill="white" transform="translate(21.0996 20.5781)"/>
</clipPath>
</defs>
</svg>
