<svg width="71" height="71" viewBox="0 0 71 71" fill="none" xmlns="http://www.w3.org/2000/svg">
<rect width="71" height="71" rx="9" fill="#30E29D"/>
<path d="M43.1109 35.6159L37.4693 33.5312L35.3912 27.8853C35.2681 27.551 35.0454 27.2625 34.7532 27.0586C34.461 26.8548 34.1134 26.7456 33.7571 26.7456C33.4008 26.7456 33.0532 26.8548 32.761 27.0586C32.4688 27.2625 32.2461 27.551 32.123 27.8853L30.0318 33.5312L24.3859 35.6094C24.0515 35.7324 23.763 35.9551 23.5592 36.2473C23.3554 36.5395 23.2461 36.8872 23.2461 37.2434C23.2461 37.5997 23.3554 37.9474 23.5592 38.2396C23.763 38.5318 24.0515 38.7544 24.3859 38.8775L30.0318 40.9688L32.1099 46.6147C32.233 46.949 32.4556 47.2375 32.7478 47.4414C33.04 47.6452 33.3877 47.7544 33.744 47.7544C34.1002 47.7544 34.4479 47.6452 34.7401 47.4414C35.0323 47.2375 35.255 46.949 35.378 46.6147L37.4693 40.9688L43.1152 38.8906C43.4496 38.7676 43.7381 38.5449 43.9419 38.2527C44.1457 37.9605 44.255 37.6128 44.255 37.2566C44.255 36.9003 44.1457 36.5526 43.9419 36.2604C43.7381 35.9682 43.4496 35.7456 43.1152 35.6225L43.1109 35.6159ZM36.4849 39.4616C36.3661 39.5053 36.2583 39.5744 36.1688 39.6639C36.0793 39.7534 36.0103 39.8612 35.9665 39.98L33.7505 45.9836L31.539 39.9844C31.4953 39.8644 31.4258 39.7554 31.3355 39.665C31.2452 39.5747 31.1362 39.5053 31.0162 39.4616L25.0169 37.25L31.0162 35.0384C31.1362 34.9947 31.2452 34.9253 31.3355 34.835C31.4258 34.7446 31.4953 34.6356 31.539 34.5156L33.7505 28.5164L35.9621 34.5156C36.0059 34.6344 36.0749 34.7423 36.1644 34.8318C36.2539 34.9213 36.3618 34.9903 36.4805 35.0341L42.4841 37.25L36.4849 39.4616ZM37.2505 25.875C37.2505 25.6429 37.3427 25.4204 37.5068 25.2563C37.6709 25.0922 37.8935 25 38.1255 25H39.8755V23.25C39.8755 23.0179 39.9677 22.7954 40.1318 22.6313C40.2959 22.4672 40.5185 22.375 40.7505 22.375C40.9826 22.375 41.2052 22.4672 41.3693 22.6313C41.5334 22.7954 41.6255 23.0179 41.6255 23.25V25H43.3755C43.6076 25 43.8302 25.0922 43.9943 25.2563C44.1584 25.4204 44.2505 25.6429 44.2505 25.875C44.2505 26.1071 44.1584 26.3296 43.9943 26.4937C43.8302 26.6578 43.6076 26.75 43.3755 26.75H41.6255V28.5C41.6255 28.7321 41.5334 28.9546 41.3693 29.1187C41.2052 29.2828 40.9826 29.375 40.7505 29.375C40.5185 29.375 40.2959 29.2828 40.1318 29.1187C39.9677 28.9546 39.8755 28.7321 39.8755 28.5V26.75H38.1255C37.8935 26.75 37.6709 26.6578 37.5068 26.4937C37.3427 26.3296 37.2505 26.1071 37.2505 25.875ZM48.6255 31.125C48.6255 31.3571 48.5334 31.5796 48.3693 31.7437C48.2052 31.9078 47.9826 32 47.7505 32H46.8755V32.875C46.8755 33.1071 46.7834 33.3296 46.6193 33.4937C46.4552 33.6578 46.2326 33.75 46.0005 33.75C45.7685 33.75 45.5459 33.6578 45.3818 33.4937C45.2177 33.3296 45.1255 33.1071 45.1255 32.875V32H44.2505C44.0185 32 43.7959 31.9078 43.6318 31.7437C43.4677 31.5796 43.3755 31.3571 43.3755 31.125C43.3755 30.8929 43.4677 30.6704 43.6318 30.5063C43.7959 30.3422 44.0185 30.25 44.2505 30.25H45.1255V29.375C45.1255 29.1429 45.2177 28.9204 45.3818 28.7563C45.5459 28.5922 45.7685 28.5 46.0005 28.5C46.2326 28.5 46.4552 28.5922 46.6193 28.7563C46.7834 28.9204 46.8755 29.1429 46.8755 29.375V30.25H47.7505C47.9826 30.25 48.2052 30.3422 48.3693 30.5063C48.5334 30.6704 48.6255 30.8929 48.6255 31.125Z" fill="black"/>
</svg>
