<svg width="377" height="292" viewBox="0 0 377 292" fill="none" xmlns="http://www.w3.org/2000/svg">
<g clip-path="url(#clip0_769_4714)">
<rect width="377" height="292" rx="9" fill="#240101"/>
<g filter="url(#filter0_b_769_4714)">
<path d="M124.415 130.32L-28.3313 266.571C-25.5085 271.808 -14.4084 286.858 7.40914 305.162C34.681 328.043 71.169 326.8 101.49 311.865C125.746 299.918 200.137 240.246 234.301 211.903C254.362 192.903 296.927 176.386 312.568 176.501L367.296 210.397C377.38 216.371 398.723 229.082 403.43 232.139C390.697 206.284 359.304 186.27 345.2 179.495C313.235 162.537 246.559 127.164 235.578 121.34C224.596 115.517 213.462 119.33 209.268 121.964C206.044 123.49 193.814 130.388 170.686 145.779C147.558 161.17 130.202 141.886 124.415 130.32Z" fill="#FF4C4C" fill-opacity="0.2"/>
<path d="M56.7721 323.448C53.4479 323.454 50.127 323.237 46.8317 322.799C19.7349 319.185 -4.85393 300.957 -28.4054 267.066L-28.6904 266.656L-28.3142 266.325L124.383 129.793L124.736 130.374C132.021 141.922 139.647 148.374 148.071 150.084C161.135 152.74 174.564 143.404 187.548 134.375C200.726 125.256 214.36 115.726 227.902 118.484C236.612 120.251 244.466 126.829 251.899 138.593L312.487 175.653C317.961 175.195 323.468 175.325 328.914 176.041C356.011 179.654 380.6 197.882 404.151 231.773L405.69 233.996L312.214 176.793C270.811 180.338 228.917 215.552 188.243 249.819C145.187 286.081 100.774 323.448 56.7721 323.448ZM-27.1401 266.85C-3.91916 300.193 20.3277 318.148 46.9571 321.682C93.6954 327.906 141.38 287.802 187.48 248.998C227.8 215.084 269.317 180.156 310.595 175.858L251.078 139.437L251.009 139.323C243.725 127.775 236.099 121.311 227.629 119.601C214.565 116.945 201.136 126.282 188.152 135.31C174.974 144.43 161.352 153.96 147.798 151.201C139.191 149.457 131.439 143.027 124.087 131.548L-27.1401 266.85ZM314.163 176.702L401.598 230.2C378.799 198.03 354.917 180.68 328.766 177.192C323.926 176.558 319.036 176.39 314.163 176.69V176.702Z" fill="#FF1111"/>
<path d="M72.7428 294.79C69.6925 294.792 66.6456 294.586 63.6232 294.174C39.6385 290.88 17.8767 274.601 -3.00732 244.392L-2.06116 243.743C18.5721 273.666 40.1172 289.797 63.8284 293.046C104.958 298.677 146.92 263.715 187.502 229.892C228.29 195.91 270.457 160.834 312.077 166.533C336.107 169.828 357.914 186.106 378.753 216.315L377.807 216.965C357.174 187.03 335.628 170.911 311.917 167.662C270.799 162.031 228.826 196.993 188.243 230.815C150.419 262.29 111.41 294.79 72.7428 294.79Z" fill="#FF1111"/>
<path d="M88.7023 266.131C85.9638 266.131 83.2286 265.936 80.5174 265.55C59.5308 262.575 40.5164 248.234 22.3796 221.707L23.3144 221.069C41.2801 247.288 60.0552 261.492 80.6998 264.387C116.209 269.426 152.517 239.605 187.537 210.809C222.795 181.797 259.251 151.817 295.251 156.924C316.238 159.899 335.252 174.239 353.389 200.766L352.454 201.405C334.488 175.186 315.713 160.982 295.069 158.086C259.559 153.048 223.251 182.869 188.232 211.664C155.652 238.476 122.035 266.131 88.7023 266.131Z" fill="#FF1111"/>
<path d="M104.685 237.473C102.231 237.476 99.7812 237.297 97.3546 236.937C79.4345 234.27 63.1559 221.867 47.7095 199.034L48.6556 198.452C63.9539 221.012 79.9361 233.255 97.5256 235.866C127.415 240.323 157.943 215.631 187.514 191.749C217.255 167.719 248.011 142.868 278.391 147.394C296.311 150.061 312.59 162.452 328.036 185.297L327.09 185.936C311.792 163.376 295.81 151.133 278.22 148.522C248.331 144.076 217.802 168.756 188.232 192.638C160.884 214.674 132.682 237.473 104.685 237.473Z" fill="#FF1111"/>
<path d="M120.667 208.837C118.498 208.841 116.333 208.673 114.192 208.336C99.3722 205.976 85.8751 195.511 73.062 176.348L74.0082 175.71C86.6389 194.599 99.8396 204.904 114.374 207.207C138.655 211.049 163.495 191.498 187.525 172.586C211.738 153.526 236.783 133.828 261.554 137.738C276.373 140.098 289.87 150.562 302.684 169.725L301.726 170.364C289.107 151.474 275.906 141.169 261.372 138.867C237.102 135.025 212.251 154.575 188.22 173.487C166.071 190.894 143.272 208.837 120.667 208.837Z" fill="#FF1111"/>
<path d="M136.672 180.213C134.761 180.217 132.854 180.053 130.972 179.723C119.162 177.671 108.492 169.133 98.3577 153.641L99.3152 153.014C109.267 168.232 119.686 176.599 131.166 178.606C149.838 181.854 168.967 167.423 187.468 153.458C206.163 139.357 225.497 124.765 244.66 128.105C256.47 130.169 267.14 138.696 277.263 154.188L276.316 154.815C266.365 139.608 255.945 131.229 244.466 129.234C225.782 125.974 206.665 140.417 188.163 154.313C171.349 167.115 153.976 180.213 136.672 180.213Z" fill="#FF1111"/>
<path d="M230.549 119.174L229.988 120.167L331.427 177.535L331.989 176.543L230.549 119.174Z" fill="#FF1111"/>
<path d="M209.537 121.535L208.6 122.185L259.322 195.299L260.258 194.649L209.537 121.535Z" fill="#FF1111"/>
<path d="M188.449 134.843H187.309V249.431H188.449V134.843Z" fill="#FF1111"/>
<path d="M166.065 147.58L115.438 303.672L116.523 304.024L167.15 147.932L166.065 147.58Z" fill="#FF1111"/>
<path d="M144.91 149.674L43.594 321.537L44.576 322.116L145.892 150.253L144.91 149.674Z" fill="#FF1111"/>
</g>
</g>
<defs>
<filter id="filter0_b_769_4714" x="-42.2904" y="104.4" width="461.581" height="232.648" filterUnits="userSpaceOnUse" color-interpolation-filters="sRGB">
<feFlood flood-opacity="0" result="BackgroundImageFix"/>
<feGaussianBlur in="BackgroundImageFix" stdDeviation="6.8"/>
<feComposite in2="SourceAlpha" operator="in" result="effect1_backgroundBlur_769_4714"/>
<feBlend mode="normal" in="SourceGraphic" in2="effect1_backgroundBlur_769_4714" result="shape"/>
</filter>
<clipPath id="clip0_769_4714">
<rect width="377" height="292" rx="9" fill="white"/>
</clipPath>
</defs>
</svg>
