<svg width="71" height="71" viewBox="0 0 71 71" fill="none" xmlns="http://www.w3.org/2000/svg">
<rect width="71" height="71" rx="9" fill="#30E29D"/>
<path d="M34.6797 29.7568H35.5C35.7175 29.7568 35.9262 29.8433 36.08 29.9971C36.2339 30.1509 36.3203 30.3596 36.3203 30.5771V36.3193" stroke="black" stroke-width="1.75" stroke-linecap="round" stroke-linejoin="round"/>
<path d="M34.6797 36.3193H37.9609" stroke="black" stroke-width="1.75" stroke-linecap="round" stroke-linejoin="round"/>
<path d="M27.5342 36.7588L23.1953 42.0613L27.2969 42.8816L28.9375 47.8035L33.3016 40.8779" stroke="black" stroke-width="1.75" stroke-linecap="round" stroke-linejoin="round"/>
<path d="M43.4666 36.7588L47.8055 42.0613L43.7039 42.8816L42.0633 47.8035L37.6992 40.8779" stroke="black" stroke-width="1.75" stroke-linecap="round" stroke-linejoin="round"/>
<path d="M36.0159 23.3757L38.0361 24.9999L40.6272 24.8708C40.8141 24.8615 40.9985 24.9165 41.1499 25.0265C41.3014 25.1365 41.4105 25.295 41.4595 25.4757L42.1376 27.9792L44.3098 29.4011C44.4665 29.5036 44.5833 29.6566 44.641 29.8347C44.6987 30.0127 44.6937 30.2051 44.627 30.38L43.7039 32.8049L44.627 35.2286C44.6939 35.4035 44.699 35.596 44.6412 35.7741C44.5836 35.9522 44.4666 36.1052 44.3098 36.2075L42.1376 37.6294L41.4595 40.1341C41.4105 40.3148 41.3014 40.4733 41.1499 40.5832C40.9985 40.6932 40.8141 40.7482 40.6272 40.7389L38.0361 40.6099L36.0159 42.2374C35.8698 42.3547 35.6881 42.4187 35.5008 42.4187C35.3134 42.4187 35.1316 42.3547 34.9856 42.2374L32.9654 40.6066L30.3743 40.7357C30.1874 40.745 30.0029 40.6899 29.8515 40.5799C29.7001 40.47 29.5909 40.3115 29.542 40.1308L28.8639 37.6261L26.6917 36.2042C26.5349 36.1019 26.4179 35.949 26.3602 35.7708C26.3025 35.5927 26.3075 35.4002 26.3745 35.2253L27.2976 32.8049L26.3745 30.38C26.3077 30.2051 26.3028 30.0127 26.3605 29.8347C26.4182 29.6566 26.5351 29.5036 26.6917 29.4011L28.8639 27.9792L29.542 25.4757C29.5909 25.295 29.7001 25.1365 29.8515 25.0265C30.0029 24.9165 30.1874 24.8615 30.3743 24.8708L32.9654 24.9999L34.9856 23.3757C35.1316 23.2583 35.3134 23.1943 35.5008 23.1943C35.6881 23.1943 35.8698 23.2583 36.0159 23.3757Z" stroke="black" stroke-width="1.75" stroke-linecap="round" stroke-linejoin="round"/>
</svg>
