<svg width="71" height="71" viewBox="0 0 71 71" fill="none" xmlns="http://www.w3.org/2000/svg">
<rect width="71" height="71" rx="9" fill="#30E29D"/>
<path d="M28.1172 24.835H24.8359C24.4008 24.835 23.9835 25.0078 23.6758 25.3155C23.3682 25.6232 23.1953 26.0405 23.1953 26.4756V46.1631C23.1953 46.5982 23.3682 47.0155 23.6758 47.3232C23.9835 47.6309 24.4008 47.8037 24.8359 47.8037H46.1641C46.5992 47.8037 47.0165 47.6309 47.3242 47.3232C47.6319 47.0155 47.8047 46.5982 47.8047 46.1631V26.4756C47.8047 26.0405 47.6319 25.6232 47.3242 25.3155C47.0165 25.0078 46.5992 24.835 46.1641 24.835H34.6797" stroke="black" stroke-width="1.75" stroke-linecap="round" stroke-linejoin="round"/>
<path d="M34.6797 34.6787L31.3984 32.2189L28.1172 34.6798V24.0157C28.117 23.9079 28.1382 23.8011 28.1793 23.7015C28.2205 23.6018 28.2809 23.5113 28.3571 23.435C28.4332 23.3587 28.5237 23.2982 28.6233 23.2569C28.7229 23.2156 28.8297 23.1943 28.9375 23.1943H33.8594C34.0769 23.1943 34.2856 23.2808 34.4394 23.4346C34.5933 23.5884 34.6797 23.7971 34.6797 24.0146V34.6787Z" stroke="black" stroke-width="1.75" stroke-linecap="round" stroke-linejoin="round"/>
<path d="M28.1172 42.8818H39.6016" stroke="black" stroke-width="1.75" stroke-linecap="round" stroke-linejoin="round"/>
<path d="M28.1172 37.96H42.8828" stroke="black" stroke-width="1.75" stroke-linecap="round" stroke-linejoin="round"/>
<path d="M42.8828 33.0381H37.9609" stroke="black" stroke-width="1.75" stroke-linecap="round" stroke-linejoin="round"/>
</svg>
