<svg width="71" height="71" viewBox="0 0 71 71" fill="none" xmlns="http://www.w3.org/2000/svg">
<rect width="71" height="71" rx="9" fill="#30E29D"/>
<path d="M39.581 33.9323L40.4384 33.5035C40.6527 33.3964 40.9742 33.5035 41.1886 33.7179L42.3674 36.0757C42.689 36.6115 43.2247 36.933 43.7606 36.933C43.975 36.933 44.2965 36.8259 44.5107 36.7187C45.2609 36.2899 45.5825 35.3255 45.2609 34.5753L44.0821 32.2175C43.6534 31.3601 42.9032 30.61 41.9387 30.2885C40.9742 29.967 40.0097 30.0742 39.0451 30.5029L36.6875 31.6817L33.7939 33.1821C33.5796 33.2892 33.3652 33.2892 33.1509 33.0749L31.5434 31.4674C30.9004 30.8243 29.9358 30.8243 29.2927 31.4674C28.6498 32.1104 28.6498 33.0749 29.2927 33.7179L30.9004 35.3255C32.0792 36.5043 33.7939 36.7187 35.1871 36.0757L36.6875 35.3255L37.8663 37.4688L34.7584 39.505C34.1154 39.9337 33.6866 40.4695 33.3652 41.1125L31.972 44.9707C31.6505 45.828 31.9721 46.6854 32.8293 47.114C33.0437 47.2213 33.258 47.2213 33.4724 47.2213C34.1154 47.2213 34.6511 46.8998 34.9727 46.2567L36.3659 42.3986C36.3659 42.2915 36.4731 42.1843 36.5803 42.1843L39.1523 40.4696L39.3667 41.1125C39.9025 42.6129 41.2958 43.5775 42.9032 43.5775C43.2247 43.5775 43.5463 43.5775 43.8677 43.4704L46.3326 42.8274C47.19 42.613 47.7259 41.7556 47.5115 40.8982C47.2972 40.041 46.4399 39.5051 45.5825 39.7194L43.1176 40.3625C42.9032 40.4696 42.5817 40.2551 42.4746 40.0408L42.2602 39.3978" stroke="black" stroke-width="1.75" stroke-miterlimit="10" stroke-linecap="round" stroke-linejoin="round"/>
<path d="M35.1252 30.102C36.9009 30.102 38.3402 28.6626 38.3402 26.8869C38.3402 25.1113 36.9009 23.6719 35.1252 23.6719C33.3496 23.6719 31.9102 25.1113 31.9102 26.8869C31.9102 28.6626 33.3496 30.102 35.1252 30.102Z" stroke="black" stroke-width="1.75" stroke-miterlimit="10" stroke-linecap="round" stroke-linejoin="round"/>
<path d="M30.1955 23.6719C28.4199 23.6719 26.9805 25.1113 26.9805 26.8869C26.9805 27.9448 27.4913 28.8833 28.2798 29.4692" stroke="black" stroke-width="1.75" stroke-miterlimit="10" stroke-linecap="round" stroke-linejoin="round"/>
<path d="M30.0888 39.1836L29.4458 39.6122C28.8028 40.041 28.3741 40.5767 28.0527 41.2197L26.6594 45.0779C26.3379 45.9353 26.6594 46.7926 27.5167 47.2213C27.7311 47.3284 27.9454 47.3284 28.1598 47.3284C28.4813 47.3284 28.8028 47.2213 29.0171 47.007" stroke="black" stroke-width="1.75" stroke-miterlimit="10" stroke-linecap="round" stroke-linejoin="round"/>
<path d="M26.1742 31.4671C25.5312 30.8241 24.5667 30.8241 23.9237 31.4671C23.2806 32.1102 23.2806 33.0746 23.9237 33.7176L25.5312 35.3252C26.1742 35.9684 27.1388 36.397 27.9961 36.397" stroke="black" stroke-width="1.75" stroke-miterlimit="10" stroke-linecap="round" stroke-linejoin="round"/>
</svg>
