<svg width="1286" height="591" viewBox="0 0 1286 591" fill="none" xmlns="http://www.w3.org/2000/svg">
<g style="mix-blend-mode:color-dodge">
<rect x="0.87074" y="29.3707" width="197.122" height="54.1904" rx="7.83666" stroke="#797979" stroke-width="1.74148"/>
<path d="M68.7119 62.6458C64.5719 62.6458 62.0319 59.8058 62.0319 55.4058V55.2458C62.0319 51.0058 64.8719 47.9458 68.7519 47.9458C71.7319 47.9458 74.2519 49.5258 74.5519 52.6258H72.8319C72.4719 50.4458 71.2119 49.3258 68.7719 49.3258C65.8119 49.3258 63.8319 51.6258 63.8319 55.2258V55.3858C63.8319 59.0258 65.6719 61.2258 68.7519 61.2258C71.0919 61.2258 72.7119 60.0458 73.0719 57.7258H74.6919C74.1919 61.0258 71.9119 62.6458 68.7119 62.6458ZM77.2212 62.4658V47.0058H78.8812V53.6658C79.3612 52.6858 80.5212 51.8258 82.2412 51.8258C84.4012 51.8258 85.9212 53.0058 85.9212 56.0458V62.4658H84.2612V55.9258C84.2612 54.0858 83.4812 53.2658 81.8012 53.2658C80.2612 53.2658 78.8812 54.2458 78.8812 56.1258V62.4658H77.2212ZM91.7944 62.6458C89.8544 62.6458 88.3144 61.7058 88.3144 59.5658C88.3144 57.1458 90.8744 56.3258 93.5544 56.3258H95.0544V55.5658C95.0544 53.9058 94.4144 53.2058 92.8144 53.2058C91.3744 53.2058 90.5744 53.8058 90.4144 55.0858H88.7544C88.9744 52.7058 90.8744 51.8258 92.8944 51.8258C94.8944 51.8258 96.7144 52.6458 96.7144 55.5658V62.4658H95.0544V61.1458C94.2744 62.1258 93.3344 62.6458 91.7944 62.6458ZM91.9544 61.3258C93.7144 61.3258 95.0544 60.4258 95.0544 58.8058V57.5058H93.6144C91.5144 57.5058 89.9744 58.0258 89.9744 59.5658C89.9744 60.6458 90.4944 61.3258 91.9544 61.3258ZM103.155 62.6058C101.255 62.6058 100.335 61.4858 100.335 59.8458V53.4058H98.8351V52.0058H100.335V49.6258H101.995V52.0058H104.435V53.4058H101.995V59.6858C101.995 60.7058 102.455 61.2058 103.295 61.2058C103.815 61.2058 104.215 61.1258 104.575 60.9858V62.3858C104.235 62.5058 103.835 62.6058 103.155 62.6058ZM112.285 62.6458C110.585 62.6458 109.345 61.7858 108.745 60.7458V62.4658H107.085V47.0058H108.745V53.7658C109.345 52.7458 110.765 51.8258 112.285 51.8258C115.025 51.8258 117.045 53.8258 117.045 57.0858V57.2458C117.045 60.4458 115.165 62.6458 112.285 62.6458ZM112.125 61.2658C114.205 61.2658 115.325 59.8658 115.325 57.3258V57.1658C115.325 54.5258 113.865 53.2058 112.105 53.2058C110.165 53.2058 108.685 54.4858 108.685 57.1658V57.3258C108.685 60.0058 110.085 61.2658 112.125 61.2658ZM123.984 61.2658C126.084 61.2658 127.404 59.6858 127.404 57.3258V57.1858C127.404 54.7658 126.064 53.2058 123.984 53.2058C121.884 53.2058 120.564 54.7658 120.564 57.1658V57.3258C120.564 59.7058 121.864 61.2658 123.984 61.2658ZM123.964 62.6458C120.984 62.6458 118.844 60.3858 118.844 57.3258V57.1658C118.844 54.0258 121.024 51.8258 123.984 51.8258C126.944 51.8258 129.124 54.0058 129.124 57.1458V57.3058C129.124 60.4658 126.944 62.6458 123.964 62.6458ZM134.874 62.6058C132.974 62.6058 132.054 61.4858 132.054 59.8458V53.4058H130.554V52.0058H132.054V49.6258H133.714V52.0058H136.154V53.4058H133.714V59.6858C133.714 60.7058 134.174 61.2058 135.014 61.2058C135.534 61.2058 135.934 61.1258 136.294 60.9858V62.3858C135.954 62.5058 135.554 62.6058 134.874 62.6058Z" fill="#797979"/>
<rect x="0.87074" y="152.302" width="197.122" height="54.1904" rx="7.83666" stroke="#797979" stroke-width="1.74148"/>
<path d="M78.4519 185.577C74.0519 185.577 71.5319 182.517 71.5319 178.337V178.177C71.5319 173.997 74.3519 170.877 78.4519 170.877C81.2919 170.877 83.8319 172.197 84.2719 175.417H82.5319C82.1319 173.137 80.5719 172.257 78.4919 172.257C75.2119 172.257 73.3319 174.657 73.3319 178.157V178.317C73.3319 181.857 75.0919 184.177 78.4519 184.177C81.5519 184.177 82.8919 182.157 82.9519 179.617H78.7719V178.177H84.6519V179.237C84.6519 183.377 82.1119 185.577 78.4519 185.577ZM91.7239 185.577C88.7639 185.577 86.6639 183.497 86.6639 180.277V180.117C86.6639 176.957 88.6839 174.757 91.5639 174.757C93.9839 174.757 96.2639 176.217 96.2639 179.957V180.497H88.3839C88.4639 182.877 89.6039 184.197 91.7439 184.197C93.3639 184.197 94.3039 183.597 94.5239 182.377H96.1839C95.8239 184.477 94.0839 185.577 91.7239 185.577ZM88.4439 179.157H94.5639C94.4039 176.997 93.2839 176.137 91.5639 176.137C89.8639 176.137 88.7239 177.297 88.4439 179.157ZM98.8111 185.397V174.937H100.471V176.597C100.951 175.617 102.111 174.757 103.831 174.757C105.991 174.757 107.511 175.937 107.511 178.977V185.397H105.851V178.857C105.851 177.017 105.071 176.197 103.391 176.197C101.851 176.197 100.471 177.177 100.471 179.057V185.397H98.8111ZM109.804 185.397L114.724 171.097H117.004L121.844 185.397H120.124L118.724 181.277H112.824L111.444 185.397H109.804ZM115.784 172.537L113.304 179.897H118.264L115.784 172.537ZM124.461 185.397V171.097H126.201V185.397H124.461Z" fill="#797979"/>
<rect x="0.87074" y="275.235" width="197.122" height="54.1904" rx="7.83666" stroke="#797979" stroke-width="1.74148"/>
<path d="M82.7318 308.33V294.03H84.9918L91.9518 305.85V294.03H93.6118V308.33H91.6118L84.3918 296.07V308.33H82.7318ZM97.2045 308.33V294.03H98.9445V306.91H105.484V308.33H97.2045ZM107.908 308.33V294.03H111.968C114.708 294.03 116.968 295.23 116.968 298.21V298.29C116.968 301.33 114.688 302.51 111.968 302.51H109.648V308.33H107.908ZM109.648 301.13H112.088C114.128 301.13 115.228 300.13 115.228 298.29V298.21C115.228 296.19 114.028 295.43 112.088 295.43H109.648V301.13Z" fill="#797979"/>
<rect x="0.87074" y="398.166" width="197.122" height="54.1904" rx="7.83666" stroke="#797979" stroke-width="1.74148"/>
<path d="M74.2319 431.261V416.961H76.4919L83.4519 428.781V416.961H85.1119V431.261H83.1119L75.8919 419.001V431.261H74.2319ZM94.6845 431.441C90.5445 431.441 88.0045 428.601 88.0045 424.201V424.041C88.0045 419.801 90.8445 416.741 94.7245 416.741C97.7045 416.741 100.225 418.321 100.525 421.421H98.8045C98.4445 419.241 97.1845 418.121 94.7445 418.121C91.7845 418.121 89.8045 420.421 89.8045 424.021V424.181C89.8045 427.821 91.6445 430.021 94.7245 430.021C97.0645 430.021 98.6845 428.841 99.0445 426.521H100.665C100.165 429.821 97.8845 431.441 94.6845 431.441ZM103.314 431.261V416.961H105.054V429.841H111.594V431.261H103.314ZM119.392 431.441C115.252 431.441 112.712 428.601 112.712 424.201V424.041C112.712 419.801 115.552 416.741 119.432 416.741C122.412 416.741 124.932 418.321 125.232 421.421H123.512C123.152 419.241 121.892 418.121 119.452 418.121C116.492 418.121 114.512 420.421 114.512 424.021V424.181C114.512 427.821 116.352 430.021 119.432 430.021C121.772 430.021 123.392 428.841 123.752 426.521H125.372C124.872 429.821 122.592 431.441 119.392 431.441Z" fill="#797979"/>
<rect x="0.87074" y="521.098" width="197.122" height="54.1904" rx="7.83666" stroke="#797979" stroke-width="1.74148"/>
<path d="M51.7119 554.373C47.5719 554.373 45.0319 551.533 45.0319 547.133V546.973C45.0319 542.733 47.8719 539.673 51.7519 539.673C54.7319 539.673 57.2519 541.253 57.5519 544.353H55.8319C55.4719 542.173 54.2119 541.053 51.7719 541.053C48.8119 541.053 46.8319 543.353 46.8319 546.953V547.113C46.8319 550.753 48.6719 552.953 51.7519 552.953C54.0919 552.953 55.7119 551.773 56.0719 549.453H57.6919C57.1919 552.753 54.9119 554.373 51.7119 554.373ZM63.0365 554.373C61.0965 554.373 59.5565 553.433 59.5565 551.293C59.5565 548.873 62.1165 548.053 64.7965 548.053H66.2965V547.293C66.2965 545.633 65.6565 544.933 64.0565 544.933C62.6165 544.933 61.8165 545.533 61.6565 546.813H59.9965C60.2165 544.433 62.1165 543.553 64.1365 543.553C66.1365 543.553 67.9565 544.373 67.9565 547.293V554.193H66.2965V552.873C65.5165 553.853 64.5765 554.373 63.0365 554.373ZM63.1965 553.053C64.9565 553.053 66.2965 552.153 66.2965 550.533V549.233H64.8565C62.7565 549.233 61.2165 549.753 61.2165 551.293C61.2165 552.373 61.7365 553.053 63.1965 553.053ZM71.2173 554.193V543.733H72.8773V545.613C73.5373 544.433 74.4373 543.613 76.3173 543.553V545.113C74.2173 545.213 72.8773 545.873 72.8773 548.453V554.193H71.2173ZM82.7239 554.373C79.7639 554.373 77.6639 552.293 77.6639 549.073V548.913C77.6639 545.753 79.6839 543.553 82.5639 543.553C84.9839 543.553 87.2639 545.013 87.2639 548.753V549.293H79.3839C79.4639 551.673 80.6039 552.993 82.7439 552.993C84.3639 552.993 85.3039 552.393 85.5239 551.173H87.1839C86.8239 553.273 85.0839 554.373 82.7239 554.373ZM79.4439 547.953H85.5639C85.4039 545.793 84.2839 544.933 82.5639 544.933C80.8639 544.933 79.7239 546.093 79.4439 547.953ZM94.0911 554.373C91.1311 554.373 89.0311 552.293 89.0311 549.073V548.913C89.0311 545.753 91.0511 543.553 93.9311 543.553C96.3511 543.553 98.6311 545.013 98.6311 548.753V549.293H90.7511C90.8311 551.673 91.9711 552.993 94.1111 552.993C95.7311 552.993 96.6711 552.393 96.8911 551.173H98.5511C98.1911 553.273 96.4511 554.373 94.0911 554.373ZM90.8111 547.953H96.9311C96.7711 545.793 95.6511 544.933 93.9311 544.933C92.2311 544.933 91.0911 546.093 90.8111 547.953ZM101.178 554.193V543.733H102.838V545.613C103.498 544.433 104.398 543.613 106.278 543.553V545.113C104.178 545.213 102.838 545.873 102.838 548.453V554.193H101.178ZM113.991 557.833V543.733H115.651V545.493C116.251 544.473 117.671 543.553 119.191 543.553C121.931 543.553 123.951 545.553 123.951 548.813V548.973C123.951 552.173 122.071 554.373 119.191 554.373C117.471 554.373 116.251 553.513 115.651 552.473V557.833H113.991ZM119.031 552.993C121.111 552.993 122.231 551.593 122.231 549.053V548.893C122.231 546.253 120.771 544.933 119.011 544.933C117.071 544.933 115.591 546.213 115.591 548.893V549.053C115.591 551.733 116.991 552.993 119.031 552.993ZM129.15 554.373C127.21 554.373 125.67 553.433 125.67 551.293C125.67 548.873 128.23 548.053 130.91 548.053H132.41V547.293C132.41 545.633 131.77 544.933 130.17 544.933C128.73 544.933 127.93 545.533 127.77 546.813H126.11C126.33 544.433 128.23 543.553 130.25 543.553C132.25 543.553 134.07 544.373 134.07 547.293V554.193H132.41V552.873C131.63 553.853 130.69 554.373 129.15 554.373ZM129.31 553.053C131.07 553.053 132.41 552.153 132.41 550.533V549.233H130.97C128.87 549.233 127.33 549.753 127.33 551.293C127.33 552.373 127.85 553.053 129.31 553.053ZM140.511 554.333C138.611 554.333 137.691 553.213 137.691 551.573V545.133H136.191V543.733H137.691V541.353H139.351V543.733H141.791V545.133H139.351V551.413C139.351 552.433 139.811 552.933 140.651 552.933C141.171 552.933 141.571 552.853 141.931 552.713V554.113C141.591 554.233 141.191 554.333 140.511 554.333ZM144.44 554.193V538.733H146.1V545.393C146.58 544.413 147.74 543.553 149.46 543.553C151.62 543.553 153.14 544.733 153.14 547.773V554.193H151.48V547.653C151.48 545.813 150.7 544.993 149.02 544.993C147.48 544.993 146.1 545.973 146.1 547.853V554.193H144.44Z" fill="#797979"/>
<rect x="652.871" y="28.9391" width="197.122" height="54.1904" rx="7.83666" stroke="#797979" stroke-width="1.74148"/>
<path d="M742.152 62.0342L747.072 47.7342H749.352L754.192 62.0342H752.472L751.072 57.9142H745.172L743.792 62.0342H742.152ZM748.132 49.1742L745.652 56.5342H750.612L748.132 49.1742ZM756.808 62.0342V47.7342H758.548V62.0342H756.808Z" fill="#797979"/>
<rect x="652.871" y="151.871" width="197.122" height="54.1904" rx="7.83666" stroke="#797979" stroke-width="1.74148"/>
<path d="M714.832 184.966L711.112 170.666H712.892L715.792 182.206L719.152 170.666H720.392L723.752 182.246L726.692 170.666H728.312L724.592 184.966H722.992L719.752 173.666L716.412 184.966H714.832ZM734.146 185.146C731.186 185.146 729.086 183.066 729.086 179.846V179.686C729.086 176.526 731.106 174.326 733.986 174.326C736.406 174.326 738.686 175.786 738.686 179.526V180.066H730.806C730.886 182.446 732.026 183.766 734.166 183.766C735.786 183.766 736.726 183.166 736.946 181.946H738.606C738.246 184.046 736.506 185.146 734.146 185.146ZM730.866 178.726H736.986C736.826 176.566 735.706 175.706 733.986 175.706C732.286 175.706 731.146 176.866 730.866 178.726ZM746.433 185.146C744.733 185.146 743.493 184.286 742.893 183.246V184.966H741.233V169.506H742.893V176.266C743.493 175.246 744.913 174.326 746.433 174.326C749.173 174.326 751.193 176.326 751.193 179.586V179.746C751.193 182.946 749.313 185.146 746.433 185.146ZM746.273 183.766C748.353 183.766 749.473 182.366 749.473 179.826V179.666C749.473 177.026 748.013 175.706 746.253 175.706C744.313 175.706 742.833 176.986 742.833 179.666V179.826C742.833 182.506 744.233 183.766 746.273 183.766ZM754.132 184.966V175.906H752.632V174.506H754.132V172.806C754.132 170.686 755.152 169.446 757.212 169.446C757.752 169.446 758.032 169.486 758.352 169.606V171.006C758.052 170.886 757.732 170.826 757.272 170.826C756.212 170.826 755.792 171.566 755.792 172.626V174.506H758.352V175.906H755.792V184.966H754.132ZM760.433 184.966V169.506H762.113V184.966H760.433ZM769.87 183.766C771.97 183.766 773.29 182.186 773.29 179.826V179.686C773.29 177.266 771.95 175.706 769.87 175.706C767.77 175.706 766.45 177.266 766.45 179.666V179.826C766.45 182.206 767.75 183.766 769.87 183.766ZM769.85 185.146C766.87 185.146 764.73 182.886 764.73 179.826V179.666C764.73 176.526 766.91 174.326 769.87 174.326C772.83 174.326 775.01 176.506 775.01 179.646V179.806C775.01 182.966 772.83 185.146 769.85 185.146ZM779.485 184.966L776.265 174.506H778.065L780.505 182.926L783.045 174.506H784.485L786.865 182.926L789.325 174.506H791.025L787.765 184.966H785.925L783.745 177.126L781.305 184.966H779.485Z" fill="#797979"/>
<rect x="652.871" y="274.803" width="197.122" height="54.1904" rx="7.83666" stroke="#797979" stroke-width="1.74148"/>
<path d="M686.472 306.478H688.432C692.112 306.478 693.952 304.278 693.952 300.778V300.618C693.952 297.318 692.352 294.998 688.412 294.998H686.472V306.478ZM684.732 307.898V293.598H688.512C693.432 293.598 695.752 296.638 695.752 300.618V300.798C695.752 304.758 693.472 307.898 688.472 307.898H684.732ZM702.818 308.078C699.858 308.078 697.758 305.998 697.758 302.778V302.618C697.758 299.458 699.778 297.258 702.658 297.258C705.078 297.258 707.358 298.718 707.358 302.458V302.998H699.478C699.558 305.378 700.698 306.698 702.838 306.698C704.458 306.698 705.398 306.098 705.618 304.878H707.278C706.918 306.978 705.178 308.078 702.818 308.078ZM699.538 301.658H705.658C705.498 299.498 704.378 298.638 702.658 298.638C700.958 298.638 699.818 299.798 699.538 301.658ZM713.242 308.078C710.742 308.078 709.242 306.818 709.142 304.678H710.762C710.882 305.918 711.542 306.698 713.222 306.698C714.802 306.698 715.502 306.158 715.502 305.038C715.502 303.938 714.682 303.578 713.062 303.278C710.342 302.778 709.422 302.018 709.422 300.198C709.422 298.258 711.322 297.258 712.962 297.258C714.842 297.258 716.462 298.018 716.742 300.278H715.142C714.902 299.138 714.262 298.638 712.942 298.638C711.742 298.638 710.962 299.238 710.962 300.138C710.962 301.078 711.482 301.458 713.402 301.798C715.562 302.198 717.082 302.678 717.082 304.898C717.082 306.798 715.782 308.078 713.242 308.078ZM719.652 307.898V297.438H721.312V307.898H719.652ZM720.452 295.258C719.852 295.258 719.352 294.758 719.352 294.158C719.352 293.558 719.852 293.058 720.452 293.058C721.052 293.058 721.552 293.558 721.552 294.158C721.552 294.758 721.052 295.258 720.452 295.258ZM728.889 311.718C725.789 311.718 724.429 310.258 724.149 308.498H725.849C726.089 309.698 727.089 310.318 728.869 310.318C730.929 310.318 732.229 309.338 732.229 307.098V305.578C731.629 306.598 730.209 307.558 728.689 307.558C725.949 307.558 723.929 305.478 723.929 302.598V302.458C723.929 299.618 725.929 297.258 728.809 297.258C730.549 297.258 731.629 298.098 732.229 299.118V297.438H733.889V307.198C733.869 310.238 731.809 311.718 728.889 311.718ZM728.869 306.178C730.809 306.178 732.289 304.818 732.289 302.478V302.338C732.289 299.998 731.009 298.638 728.969 298.638C726.889 298.638 725.649 300.178 725.649 302.378V302.538C725.649 304.818 727.109 306.178 728.869 306.178ZM737.248 307.898V297.438H738.908V299.098C739.388 298.118 740.548 297.258 742.268 297.258C744.428 297.258 745.948 298.438 745.948 301.478V307.898H744.288V301.358C744.288 299.518 743.508 298.698 741.828 298.698C740.288 298.698 738.908 299.678 738.908 301.558V307.898H737.248ZM757.735 308.078C755.235 308.078 753.735 306.818 753.635 304.678H755.255C755.375 305.918 756.035 306.698 757.715 306.698C759.295 306.698 759.995 306.158 759.995 305.038C759.995 303.938 759.175 303.578 757.555 303.278C754.835 302.778 753.915 302.018 753.915 300.198C753.915 298.258 755.815 297.258 757.455 297.258C759.335 297.258 760.955 298.018 761.235 300.278H759.635C759.395 299.138 758.755 298.638 757.435 298.638C756.235 298.638 755.455 299.238 755.455 300.138C755.455 301.078 755.975 301.458 757.895 301.798C760.055 302.198 761.575 302.678 761.575 304.898C761.575 306.798 760.275 308.078 757.735 308.078ZM764.849 311.538L766.829 306.818L762.729 297.438H764.509L767.709 304.938L770.609 297.438H772.309L766.529 311.538H764.849ZM777.735 308.078C775.235 308.078 773.735 306.818 773.635 304.678H775.255C775.375 305.918 776.035 306.698 777.715 306.698C779.295 306.698 779.995 306.158 779.995 305.038C779.995 303.938 779.175 303.578 777.555 303.278C774.835 302.778 773.915 302.018 773.915 300.198C773.915 298.258 775.815 297.258 777.455 297.258C779.335 297.258 780.955 298.018 781.235 300.278H779.635C779.395 299.138 778.755 298.638 777.435 298.638C776.235 298.638 775.455 299.238 775.455 300.138C775.455 301.078 775.975 301.458 777.895 301.798C780.055 302.198 781.575 302.678 781.575 304.898C781.575 306.798 780.275 308.078 777.735 308.078ZM787.284 308.038C785.384 308.038 784.464 306.918 784.464 305.278V298.838H782.964V297.438H784.464V295.058H786.124V297.438H788.564V298.838H786.124V305.118C786.124 306.138 786.584 306.638 787.424 306.638C787.944 306.638 788.344 306.558 788.704 306.418V307.818C788.364 307.938 787.964 308.038 787.284 308.038ZM795.493 308.078C792.533 308.078 790.433 305.998 790.433 302.778V302.618C790.433 299.458 792.453 297.258 795.333 297.258C797.753 297.258 800.033 298.718 800.033 302.458V302.998H792.153C792.233 305.378 793.373 306.698 795.513 306.698C797.133 306.698 798.073 306.098 798.293 304.878H799.953C799.593 306.978 797.853 308.078 795.493 308.078ZM792.213 301.658H798.333C798.173 299.498 797.053 298.638 795.333 298.638C793.633 298.638 792.493 299.798 792.213 301.658ZM802.581 307.898V297.438H804.241V299.038C804.721 298.058 805.861 297.258 807.361 297.258C808.701 297.258 809.881 297.818 810.421 299.218C811.141 297.858 812.701 297.258 814.001 297.258C815.881 297.258 817.521 298.378 817.521 301.418V307.898H815.861V301.298C815.861 299.458 815.081 298.698 813.641 298.698C812.281 298.698 810.881 299.618 810.881 301.498V307.898H809.221V301.298C809.221 299.458 808.441 298.698 807.001 298.698C805.641 298.698 804.241 299.618 804.241 301.498V307.898H802.581Z" fill="#797979"/>
<rect x="652.871" y="397.735" width="197.122" height="54.1904" rx="7.83666" stroke="#797979" stroke-width="1.74148"/>
<path d="M696.752 431.01C693.472 431.01 691.612 429.09 691.612 425.61V416.53H693.352V425.41C693.352 428.41 694.412 429.57 696.792 429.57C699.072 429.57 700.432 428.65 700.432 425.15V416.53H702.172V425.39C702.172 428.87 700.432 431.01 696.752 431.01ZM705.758 430.83V416.53H707.498V430.83H705.758ZM709.524 433.79L715.344 415.31H716.864L711.044 433.79H709.524ZM724.291 431.01C721.011 431.01 719.151 429.09 719.151 425.61V416.53H720.891V425.41C720.891 428.41 721.951 429.57 724.331 429.57C726.611 429.57 727.971 428.65 727.971 425.15V416.53H729.711V425.39C729.711 428.87 727.971 431.01 724.291 431.01ZM731.906 430.83L736.626 423.49L732.226 416.53H734.146L737.706 422.15L741.246 416.53H743.026L738.586 423.49L743.246 430.83H741.286L737.466 424.81L733.646 430.83H731.906ZM755.063 431.01C752.323 431.01 750.343 429.07 750.343 425.81V425.65C750.343 422.45 752.343 420.19 755.223 420.19C756.963 420.19 758.043 421.03 758.643 422.05V415.37H760.303V430.83H758.643V429.03C758.043 430.05 756.583 431.01 755.063 431.01ZM755.243 429.63C757.183 429.63 758.703 428.35 758.703 425.67V425.51C758.703 422.83 757.423 421.57 755.383 421.57C753.303 421.57 752.063 423.03 752.063 425.57V425.73C752.063 428.37 753.483 429.63 755.243 429.63ZM767.943 431.01C764.983 431.01 762.883 428.93 762.883 425.71V425.55C762.883 422.39 764.903 420.19 767.783 420.19C770.203 420.19 772.483 421.65 772.483 425.39V425.93H764.603C764.683 428.31 765.823 429.63 767.963 429.63C769.583 429.63 770.523 429.03 770.743 427.81H772.403C772.043 429.91 770.303 431.01 767.943 431.01ZM764.663 424.59H770.783C770.623 422.43 769.503 421.57 767.783 421.57C766.083 421.57 764.943 422.73 764.663 424.59ZM778.367 431.01C775.867 431.01 774.367 429.75 774.267 427.61H775.887C776.007 428.85 776.667 429.63 778.347 429.63C779.927 429.63 780.627 429.09 780.627 427.97C780.627 426.87 779.807 426.51 778.187 426.21C775.467 425.71 774.547 424.95 774.547 423.13C774.547 421.19 776.447 420.19 778.087 420.19C779.967 420.19 781.587 420.95 781.867 423.21H780.267C780.027 422.07 779.387 421.57 778.067 421.57C776.867 421.57 776.087 422.17 776.087 423.07C776.087 424.01 776.607 424.39 778.527 424.73C780.687 425.13 782.207 425.61 782.207 427.83C782.207 429.73 780.907 431.01 778.367 431.01ZM784.777 430.83V420.37H786.437V430.83H784.777ZM785.577 418.19C784.977 418.19 784.477 417.69 784.477 417.09C784.477 416.49 784.977 415.99 785.577 415.99C786.177 415.99 786.677 416.49 786.677 417.09C786.677 417.69 786.177 418.19 785.577 418.19ZM794.014 434.65C790.914 434.65 789.554 433.19 789.274 431.43H790.974C791.214 432.63 792.214 433.25 793.994 433.25C796.054 433.25 797.354 432.27 797.354 430.03V428.51C796.754 429.53 795.334 430.49 793.814 430.49C791.074 430.49 789.054 428.41 789.054 425.53V425.39C789.054 422.55 791.054 420.19 793.934 420.19C795.674 420.19 796.754 421.03 797.354 422.05V420.37H799.014V430.13C798.994 433.17 796.934 434.65 794.014 434.65ZM793.994 429.11C795.934 429.11 797.414 427.75 797.414 425.41V425.27C797.414 422.93 796.134 421.57 794.094 421.57C792.014 421.57 790.774 423.11 790.774 425.31V425.47C790.774 427.75 792.234 429.11 793.994 429.11ZM802.373 430.83V420.37H804.033V422.03C804.513 421.05 805.673 420.19 807.393 420.19C809.553 420.19 811.073 421.37 811.073 424.41V430.83H809.413V424.29C809.413 422.45 808.633 421.63 806.953 421.63C805.413 421.63 804.033 422.61 804.033 424.49V430.83H802.373Z" fill="#797979"/>
<rect x="652.871" y="520.667" width="197.122" height="54.1904" rx="7.83666" stroke="#797979" stroke-width="1.74148"/>
<path d="M720.232 553.762V539.462H724.532C727.192 539.462 729.132 540.342 729.132 543.162V543.242C729.132 544.542 728.612 545.702 726.972 546.262C729.052 546.762 729.832 547.822 729.832 549.682V549.762C729.832 552.462 727.992 553.762 725.132 553.762H720.232ZM721.932 552.402H725.092C727.172 552.402 728.132 551.482 728.132 549.742V549.662C728.132 547.902 727.152 547.062 724.852 547.062H721.932V552.402ZM721.932 545.702H724.532C726.632 545.702 727.432 544.942 727.432 543.182V543.102C727.432 541.482 726.492 540.822 724.492 540.822H721.932V545.702ZM736.093 553.942C734.013 553.942 732.453 552.802 732.453 549.922V543.302H734.113V549.842C734.113 551.682 734.893 552.502 736.533 552.502C738.013 552.502 739.413 551.522 739.413 549.642V543.302H741.073V553.762H739.413V552.102C738.933 553.082 737.773 553.942 736.093 553.942ZM749.628 553.942C747.928 553.942 746.688 553.082 746.088 552.042V553.762H744.428V538.302H746.088V545.062C746.688 544.042 748.108 543.122 749.628 543.122C752.368 543.122 754.388 545.122 754.388 548.382V548.542C754.388 551.742 752.508 553.942 749.628 553.942ZM749.468 552.562C751.548 552.562 752.668 551.162 752.668 548.622V548.462C752.668 545.822 751.208 544.502 749.448 544.502C747.508 544.502 746.028 545.782 746.028 548.462V548.622C746.028 551.302 747.428 552.562 749.468 552.562ZM762.167 553.942C760.467 553.942 759.227 553.082 758.627 552.042V553.762H756.967V538.302H758.627V545.062C759.227 544.042 760.647 543.122 762.167 543.122C764.907 543.122 766.927 545.122 766.927 548.382V548.542C766.927 551.742 765.047 553.942 762.167 553.942ZM762.007 552.562C764.087 552.562 765.207 551.162 765.207 548.622V548.462C765.207 545.822 763.747 544.502 761.987 544.502C760.047 544.502 758.567 545.782 758.567 548.462V548.622C758.567 551.302 759.967 552.562 762.007 552.562ZM769.546 553.762V538.302H771.226V553.762H769.546ZM778.903 553.942C775.943 553.942 773.843 551.862 773.843 548.642V548.482C773.843 545.322 775.863 543.122 778.743 543.122C781.163 543.122 783.443 544.582 783.443 548.322V548.862H775.563C775.643 551.242 776.783 552.562 778.923 552.562C780.543 552.562 781.483 551.962 781.703 550.742H783.363C783.003 552.842 781.263 553.942 778.903 553.942ZM775.623 547.522H781.743C781.583 545.362 780.463 544.502 778.743 544.502C777.043 544.502 775.903 545.662 775.623 547.522Z" fill="#797979"/>
<rect x="435.871" y="77.3707" width="197.122" height="54.1904" rx="7.83666" stroke="#797979" stroke-width="1.74148"/>
<path d="M503.712 110.646C499.572 110.646 497.032 107.806 497.032 103.406V103.246C497.032 99.0058 499.872 95.9458 503.752 95.9458C506.732 95.9458 509.252 97.5258 509.552 100.626H507.832C507.472 98.4458 506.212 97.3258 503.772 97.3258C500.812 97.3258 498.832 99.6258 498.832 103.226V103.386C498.832 107.026 500.672 109.226 503.752 109.226C506.092 109.226 507.712 108.046 508.072 105.726H509.692C509.192 109.026 506.912 110.646 503.712 110.646ZM512.221 110.466V95.0058H513.881V101.666C514.361 100.686 515.521 99.8258 517.241 99.8258C519.401 99.8258 520.921 101.006 520.921 104.046V110.466H519.261V103.926C519.261 102.086 518.481 101.266 516.801 101.266C515.261 101.266 513.881 102.246 513.881 104.126V110.466H512.221ZM526.794 110.646C524.854 110.646 523.314 109.706 523.314 107.566C523.314 105.146 525.874 104.326 528.554 104.326H530.054V103.566C530.054 101.906 529.414 101.206 527.814 101.206C526.374 101.206 525.574 101.806 525.414 103.086H523.754C523.974 100.706 525.874 99.8258 527.894 99.8258C529.894 99.8258 531.714 100.646 531.714 103.566V110.466H530.054V109.146C529.274 110.126 528.334 110.646 526.794 110.646ZM526.954 109.326C528.714 109.326 530.054 108.426 530.054 106.806V105.506H528.614C526.514 105.506 524.974 106.026 524.974 107.566C524.974 108.646 525.494 109.326 526.954 109.326ZM538.155 110.606C536.255 110.606 535.335 109.486 535.335 107.846V101.406H533.835V100.006H535.335V97.6258H536.995V100.006H539.435V101.406H536.995V107.686C536.995 108.706 537.455 109.206 538.295 109.206C538.815 109.206 539.215 109.126 539.575 108.986V110.386C539.235 110.506 538.835 110.606 538.155 110.606ZM547.284 110.646C545.584 110.646 544.344 109.786 543.744 108.746V110.466H542.084V95.0058H543.744V101.766C544.344 100.746 545.764 99.8258 547.284 99.8258C550.024 99.8258 552.044 101.826 552.044 105.086V105.246C552.044 108.446 550.164 110.646 547.284 110.646ZM547.124 109.266C549.204 109.266 550.324 107.866 550.324 105.326V105.166C550.324 102.526 548.864 101.206 547.104 101.206C545.164 101.206 543.684 102.486 543.684 105.166V105.326C543.684 108.006 545.084 109.266 547.124 109.266ZM558.984 109.266C561.084 109.266 562.404 107.686 562.404 105.326V105.186C562.404 102.766 561.064 101.206 558.984 101.206C556.884 101.206 555.564 102.766 555.564 105.166V105.326C555.564 107.706 556.864 109.266 558.984 109.266ZM558.964 110.646C555.984 110.646 553.844 108.386 553.844 105.326V105.166C553.844 102.026 556.024 99.8258 558.984 99.8258C561.944 99.8258 564.124 102.006 564.124 105.146V105.306C564.124 108.466 561.944 110.646 558.964 110.646ZM569.874 110.606C567.974 110.606 567.054 109.486 567.054 107.846V101.406H565.554V100.006H567.054V97.6258H568.714V100.006H571.154V101.406H568.714V107.686C568.714 108.706 569.174 109.206 570.014 109.206C570.534 109.206 570.934 109.126 571.294 108.986V110.386C570.954 110.506 570.554 110.606 569.874 110.606Z" fill="#797979"/>
<rect x="435.871" y="200.302" width="197.122" height="54.1904" rx="7.83666" stroke="#797979" stroke-width="1.74148"/>
<path d="M513.452 233.577C509.052 233.577 506.532 230.517 506.532 226.337V226.177C506.532 221.997 509.352 218.877 513.452 218.877C516.292 218.877 518.832 220.197 519.272 223.417H517.532C517.132 221.137 515.572 220.257 513.492 220.257C510.212 220.257 508.332 222.657 508.332 226.157V226.317C508.332 229.857 510.092 232.177 513.452 232.177C516.552 232.177 517.892 230.157 517.952 227.617H513.772V226.177H519.652V227.237C519.652 231.377 517.112 233.577 513.452 233.577ZM526.724 233.577C523.764 233.577 521.664 231.497 521.664 228.277V228.117C521.664 224.957 523.684 222.757 526.564 222.757C528.984 222.757 531.264 224.217 531.264 227.957V228.497H523.384C523.464 230.877 524.604 232.197 526.744 232.197C528.364 232.197 529.304 231.597 529.524 230.377H531.184C530.824 232.477 529.084 233.577 526.724 233.577ZM523.444 227.157H529.564C529.404 224.997 528.284 224.137 526.564 224.137C524.864 224.137 523.724 225.297 523.444 227.157ZM533.811 233.397V222.937H535.471V224.597C535.951 223.617 537.111 222.757 538.831 222.757C540.991 222.757 542.511 223.937 542.511 226.977V233.397H540.851V226.857C540.851 225.017 540.071 224.197 538.391 224.197C536.851 224.197 535.471 225.177 535.471 227.057V233.397H533.811ZM544.804 233.397L549.724 219.097H552.004L556.844 233.397H555.124L553.724 229.277H547.824L546.444 233.397H544.804ZM550.784 220.537L548.304 227.897H553.264L550.784 220.537ZM559.461 233.397V219.097H561.201V233.397H559.461Z" fill="#797979"/>
<rect x="435.871" y="323.235" width="197.122" height="54.1904" rx="7.83666" stroke="#797979" stroke-width="1.74148"/>
<path d="M517.732 356.33V342.03H519.992L526.952 353.85V342.03H528.612V356.33H526.612L519.392 344.07V356.33H517.732ZM532.204 356.33V342.03H533.944V354.91H540.484V356.33H532.204ZM542.908 356.33V342.03H546.968C549.708 342.03 551.968 343.23 551.968 346.21V346.29C551.968 349.33 549.688 350.51 546.968 350.51H544.648V356.33H542.908ZM544.648 349.13H547.088C549.128 349.13 550.228 348.13 550.228 346.29V346.21C550.228 344.19 549.028 343.43 547.088 343.43H544.648V349.13Z" fill="#797979"/>
<rect x="435.871" y="446.166" width="197.122" height="54.1904" rx="7.83666" stroke="#797979" stroke-width="1.74148"/>
<path d="M509.232 479.261V464.961H511.492L518.452 476.781V464.961H520.112V479.261H518.112L510.892 467.001V479.261H509.232ZM529.684 479.441C525.544 479.441 523.004 476.601 523.004 472.201V472.041C523.004 467.801 525.844 464.741 529.724 464.741C532.704 464.741 535.224 466.321 535.524 469.421H533.804C533.444 467.241 532.184 466.121 529.744 466.121C526.784 466.121 524.804 468.421 524.804 472.021V472.181C524.804 475.821 526.644 478.021 529.724 478.021C532.064 478.021 533.684 476.841 534.044 474.521H535.664C535.164 477.821 532.884 479.441 529.684 479.441ZM538.314 479.261V464.961H540.054V477.841H546.594V479.261H538.314ZM554.392 479.441C550.252 479.441 547.712 476.601 547.712 472.201V472.041C547.712 467.801 550.552 464.741 554.432 464.741C557.412 464.741 559.932 466.321 560.232 469.421H558.512C558.152 467.241 556.892 466.121 554.452 466.121C551.492 466.121 549.512 468.421 549.512 472.021V472.181C549.512 475.821 551.352 478.021 554.432 478.021C556.772 478.021 558.392 476.841 558.752 474.521H560.372C559.872 477.821 557.592 479.441 554.392 479.441Z" fill="#797979"/>
<rect x="435.871" y="569.098" width="197.122" height="54.1904" rx="7.83666" stroke="#797979" stroke-width="1.74148"/>
<path d="M486.712 602.373C482.572 602.373 480.032 599.533 480.032 595.133V594.973C480.032 590.733 482.872 587.673 486.752 587.673C489.732 587.673 492.252 589.253 492.552 592.353H490.832C490.472 590.173 489.212 589.053 486.772 589.053C483.812 589.053 481.832 591.353 481.832 594.953V595.113C481.832 598.753 483.672 600.953 486.752 600.953C489.092 600.953 490.712 599.773 491.072 597.453H492.692C492.192 600.753 489.912 602.373 486.712 602.373ZM498.037 602.373C496.097 602.373 494.557 601.433 494.557 599.293C494.557 596.873 497.117 596.053 499.797 596.053H501.297V595.293C501.297 593.633 500.657 592.933 499.057 592.933C497.617 592.933 496.817 593.533 496.657 594.813H494.997C495.217 592.433 497.117 591.553 499.137 591.553C501.137 591.553 502.957 592.373 502.957 595.293V602.193H501.297V600.873C500.517 601.853 499.577 602.373 498.037 602.373ZM498.197 601.053C499.957 601.053 501.297 600.153 501.297 598.533V597.233H499.857C497.757 597.233 496.217 597.753 496.217 599.293C496.217 600.373 496.737 601.053 498.197 601.053ZM506.217 602.193V591.733H507.877V593.613C508.537 592.433 509.437 591.613 511.317 591.553V593.113C509.217 593.213 507.877 593.873 507.877 596.453V602.193H506.217ZM517.724 602.373C514.764 602.373 512.664 600.293 512.664 597.073V596.913C512.664 593.753 514.684 591.553 517.564 591.553C519.984 591.553 522.264 593.013 522.264 596.753V597.293H514.384C514.464 599.673 515.604 600.993 517.744 600.993C519.364 600.993 520.304 600.393 520.524 599.173H522.184C521.824 601.273 520.084 602.373 517.724 602.373ZM514.444 595.953H520.564C520.404 593.793 519.284 592.933 517.564 592.933C515.864 592.933 514.724 594.093 514.444 595.953ZM529.091 602.373C526.131 602.373 524.031 600.293 524.031 597.073V596.913C524.031 593.753 526.051 591.553 528.931 591.553C531.351 591.553 533.631 593.013 533.631 596.753V597.293H525.751C525.831 599.673 526.971 600.993 529.111 600.993C530.731 600.993 531.671 600.393 531.891 599.173H533.551C533.191 601.273 531.451 602.373 529.091 602.373ZM525.811 595.953H531.931C531.771 593.793 530.651 592.933 528.931 592.933C527.231 592.933 526.091 594.093 525.811 595.953ZM536.178 602.193V591.733H537.838V593.613C538.498 592.433 539.398 591.613 541.278 591.553V593.113C539.178 593.213 537.838 593.873 537.838 596.453V602.193H536.178ZM548.991 605.833V591.733H550.651V593.493C551.251 592.473 552.671 591.553 554.191 591.553C556.931 591.553 558.951 593.553 558.951 596.813V596.973C558.951 600.173 557.071 602.373 554.191 602.373C552.471 602.373 551.251 601.513 550.651 600.473V605.833H548.991ZM554.031 600.993C556.111 600.993 557.231 599.593 557.231 597.053V596.893C557.231 594.253 555.771 592.933 554.011 592.933C552.071 592.933 550.591 594.213 550.591 596.893V597.053C550.591 599.733 551.991 600.993 554.031 600.993ZM564.15 602.373C562.21 602.373 560.67 601.433 560.67 599.293C560.67 596.873 563.23 596.053 565.91 596.053H567.41V595.293C567.41 593.633 566.77 592.933 565.17 592.933C563.73 592.933 562.93 593.533 562.77 594.813H561.11C561.33 592.433 563.23 591.553 565.25 591.553C567.25 591.553 569.07 592.373 569.07 595.293V602.193H567.41V600.873C566.63 601.853 565.69 602.373 564.15 602.373ZM564.31 601.053C566.07 601.053 567.41 600.153 567.41 598.533V597.233H565.97C563.87 597.233 562.33 597.753 562.33 599.293C562.33 600.373 562.85 601.053 564.31 601.053ZM575.511 602.333C573.611 602.333 572.691 601.213 572.691 599.573V593.133H571.191V591.733H572.691V589.353H574.351V591.733H576.791V593.133H574.351V599.413C574.351 600.433 574.811 600.933 575.651 600.933C576.171 600.933 576.571 600.853 576.931 600.713V602.113C576.591 602.233 576.191 602.333 575.511 602.333ZM579.44 602.193V586.733H581.1V593.393C581.58 592.413 582.74 591.553 584.46 591.553C586.62 591.553 588.14 592.733 588.14 595.773V602.193H586.48V595.653C586.48 593.813 585.7 592.993 584.02 592.993C582.48 592.993 581.1 593.973 581.1 595.853V602.193H579.44Z" fill="#797979"/>
<rect x="1087.73" y="77.4391" width="197.122" height="54.1904" rx="7.83666" stroke="#797979" stroke-width="1.74148"/>
<path d="M1177.02 110.534L1181.94 96.2342H1184.22L1189.06 110.534H1187.34L1185.94 106.414H1180.04L1178.66 110.534H1177.02ZM1183 97.6742L1180.52 105.034H1185.48L1183 97.6742ZM1191.67 110.534V96.2342H1193.41V110.534H1191.67Z" fill="#797979"/>
<rect x="1087.73" y="200.371" width="197.122" height="54.1904" rx="7.83666" stroke="#797979" stroke-width="1.74148"/>
<path d="M1149.7 233.466L1145.98 219.166H1147.76L1150.66 230.706L1154.02 219.166H1155.26L1158.62 230.746L1161.56 219.166H1163.18L1159.46 233.466H1157.86L1154.62 222.166L1151.28 233.466H1149.7ZM1169.01 233.646C1166.05 233.646 1163.95 231.566 1163.95 228.346V228.186C1163.95 225.026 1165.97 222.826 1168.85 222.826C1171.27 222.826 1173.55 224.286 1173.55 228.026V228.566H1165.67C1165.75 230.946 1166.89 232.266 1169.03 232.266C1170.65 232.266 1171.59 231.666 1171.81 230.446H1173.47C1173.11 232.546 1171.37 233.646 1169.01 233.646ZM1165.73 227.226H1171.85C1171.69 225.066 1170.57 224.206 1168.85 224.206C1167.15 224.206 1166.01 225.366 1165.73 227.226ZM1181.3 233.646C1179.6 233.646 1178.36 232.786 1177.76 231.746V233.466H1176.1V218.006H1177.76V224.766C1178.36 223.746 1179.78 222.826 1181.3 222.826C1184.04 222.826 1186.06 224.826 1186.06 228.086V228.246C1186.06 231.446 1184.18 233.646 1181.3 233.646ZM1181.14 232.266C1183.22 232.266 1184.34 230.866 1184.34 228.326V228.166C1184.34 225.526 1182.88 224.206 1181.12 224.206C1179.18 224.206 1177.7 225.486 1177.7 228.166V228.326C1177.7 231.006 1179.1 232.266 1181.14 232.266ZM1189 233.466V224.406H1187.5V223.006H1189V221.306C1189 219.186 1190.02 217.946 1192.08 217.946C1192.62 217.946 1192.9 217.986 1193.22 218.106V219.506C1192.92 219.386 1192.6 219.326 1192.14 219.326C1191.08 219.326 1190.66 220.066 1190.66 221.126V223.006H1193.22V224.406H1190.66V233.466H1189ZM1195.3 233.466V218.006H1196.98V233.466H1195.3ZM1204.73 232.266C1206.83 232.266 1208.15 230.686 1208.15 228.326V228.186C1208.15 225.766 1206.81 224.206 1204.73 224.206C1202.63 224.206 1201.31 225.766 1201.31 228.166V228.326C1201.31 230.706 1202.61 232.266 1204.73 232.266ZM1204.71 233.646C1201.73 233.646 1199.59 231.386 1199.59 228.326V228.166C1199.59 225.026 1201.77 222.826 1204.73 222.826C1207.69 222.826 1209.87 225.006 1209.87 228.146V228.306C1209.87 231.466 1207.69 233.646 1204.71 233.646ZM1214.35 233.466L1211.13 223.006H1212.93L1215.37 231.426L1217.91 223.006H1219.35L1221.73 231.426L1224.19 223.006H1225.89L1222.63 233.466H1220.79L1218.61 225.626L1216.17 233.466H1214.35Z" fill="#797979"/>
<rect x="1087.73" y="323.303" width="197.122" height="54.1904" rx="7.83666" stroke="#797979" stroke-width="1.74148"/>
<path d="M1169.84 354.978H1171.8C1175.48 354.978 1177.32 352.778 1177.32 349.278V349.118C1177.32 345.818 1175.72 343.498 1171.78 343.498H1169.84V354.978ZM1168.1 356.398V342.098H1171.88C1176.8 342.098 1179.12 345.138 1179.12 349.118V349.298C1179.12 353.258 1176.84 356.398 1171.84 356.398H1168.1ZM1186.45 356.578C1182.63 356.578 1181.25 354.478 1180.99 352.038H1182.67C1182.89 353.738 1183.57 355.178 1186.45 355.178C1188.29 355.178 1189.71 354.098 1189.71 352.478C1189.71 350.858 1188.97 350.178 1186.25 349.738C1183.25 349.278 1181.47 348.338 1181.47 345.798C1181.47 343.598 1183.37 341.918 1186.07 341.918C1188.93 341.918 1190.71 343.318 1190.99 345.858H1189.43C1189.09 344.058 1188.05 343.318 1186.07 343.318C1184.11 343.318 1183.09 344.298 1183.09 345.638C1183.09 347.038 1183.61 347.758 1186.53 348.198C1189.71 348.698 1191.39 349.658 1191.39 352.358C1191.39 354.758 1189.29 356.578 1186.45 356.578ZM1192.78 356.398L1197.7 342.098H1199.98L1204.82 356.398H1203.1L1201.7 352.278H1195.8L1194.42 356.398H1192.78ZM1198.76 343.538L1196.28 350.898H1201.24L1198.76 343.538Z" fill="#797979"/>
<rect x="1087.73" y="446.235" width="197.122" height="54.1904" rx="7.83666" stroke="#797979" stroke-width="1.74148"/>
<path d="M1131.62 479.51C1128.34 479.51 1126.48 477.59 1126.48 474.11V465.03H1128.22V473.91C1128.22 476.91 1129.28 478.07 1131.66 478.07C1133.94 478.07 1135.3 477.15 1135.3 473.65V465.03H1137.04V473.89C1137.04 477.37 1135.3 479.51 1131.62 479.51ZM1140.62 479.33V465.03H1142.36V479.33H1140.62ZM1144.39 482.29L1150.21 463.81H1151.73L1145.91 482.29H1144.39ZM1159.15 479.51C1155.87 479.51 1154.01 477.59 1154.01 474.11V465.03H1155.75V473.91C1155.75 476.91 1156.81 478.07 1159.19 478.07C1161.47 478.07 1162.83 477.15 1162.83 473.65V465.03H1164.57V473.89C1164.57 477.37 1162.83 479.51 1159.15 479.51ZM1166.77 479.33L1171.49 471.99L1167.09 465.03H1169.01L1172.57 470.65L1176.11 465.03H1177.89L1173.45 471.99L1178.11 479.33H1176.15L1172.33 473.31L1168.51 479.33H1166.77ZM1189.93 479.51C1187.19 479.51 1185.21 477.57 1185.21 474.31V474.15C1185.21 470.95 1187.21 468.69 1190.09 468.69C1191.83 468.69 1192.91 469.53 1193.51 470.55V463.87H1195.17V479.33H1193.51V477.53C1192.91 478.55 1191.45 479.51 1189.93 479.51ZM1190.11 478.13C1192.05 478.13 1193.57 476.85 1193.57 474.17V474.01C1193.57 471.33 1192.29 470.07 1190.25 470.07C1188.17 470.07 1186.93 471.53 1186.93 474.07V474.23C1186.93 476.87 1188.35 478.13 1190.11 478.13ZM1202.81 479.51C1199.85 479.51 1197.75 477.43 1197.75 474.21V474.05C1197.75 470.89 1199.77 468.69 1202.65 468.69C1205.07 468.69 1207.35 470.15 1207.35 473.89V474.43H1199.47C1199.55 476.81 1200.69 478.13 1202.83 478.13C1204.45 478.13 1205.39 477.53 1205.61 476.31H1207.27C1206.91 478.41 1205.17 479.51 1202.81 479.51ZM1199.53 473.09H1205.65C1205.49 470.93 1204.37 470.07 1202.65 470.07C1200.95 470.07 1199.81 471.23 1199.53 473.09ZM1213.23 479.51C1210.73 479.51 1209.23 478.25 1209.13 476.11H1210.75C1210.87 477.35 1211.53 478.13 1213.21 478.13C1214.79 478.13 1215.49 477.59 1215.49 476.47C1215.49 475.37 1214.67 475.01 1213.05 474.71C1210.33 474.21 1209.41 473.45 1209.41 471.63C1209.41 469.69 1211.31 468.69 1212.95 468.69C1214.83 468.69 1216.45 469.45 1216.73 471.71H1215.13C1214.89 470.57 1214.25 470.07 1212.93 470.07C1211.73 470.07 1210.95 470.67 1210.95 471.57C1210.95 472.51 1211.47 472.89 1213.39 473.23C1215.55 473.63 1217.07 474.11 1217.07 476.33C1217.07 478.23 1215.77 479.51 1213.23 479.51ZM1219.64 479.33V468.87H1221.3V479.33H1219.64ZM1220.44 466.69C1219.84 466.69 1219.34 466.19 1219.34 465.59C1219.34 464.99 1219.84 464.49 1220.44 464.49C1221.04 464.49 1221.54 464.99 1221.54 465.59C1221.54 466.19 1221.04 466.69 1220.44 466.69ZM1228.88 483.15C1225.78 483.15 1224.42 481.69 1224.14 479.93H1225.84C1226.08 481.13 1227.08 481.75 1228.86 481.75C1230.92 481.75 1232.22 480.77 1232.22 478.53V477.01C1231.62 478.03 1230.2 478.99 1228.68 478.99C1225.94 478.99 1223.92 476.91 1223.92 474.03V473.89C1223.92 471.05 1225.92 468.69 1228.8 468.69C1230.54 468.69 1231.62 469.53 1232.22 470.55V468.87H1233.88V478.63C1233.86 481.67 1231.8 483.15 1228.88 483.15ZM1228.86 477.61C1230.8 477.61 1232.28 476.25 1232.28 473.91V473.77C1232.28 471.43 1231 470.07 1228.96 470.07C1226.88 470.07 1225.64 471.61 1225.64 473.81V473.97C1225.64 476.25 1227.1 477.61 1228.86 477.61ZM1237.24 479.33V468.87H1238.9V470.53C1239.38 469.55 1240.54 468.69 1242.26 468.69C1244.42 468.69 1245.94 469.87 1245.94 472.91V479.33H1244.28V472.79C1244.28 470.95 1243.5 470.13 1241.82 470.13C1240.28 470.13 1238.9 471.11 1238.9 472.99V479.33H1237.24Z" fill="#797979"/>
<rect x="1087.73" y="569.167" width="197.122" height="54.1904" rx="7.83666" stroke="#797979" stroke-width="1.74148"/>
<path d="M1155.1 602.262V587.962H1159.4C1162.06 587.962 1164 588.842 1164 591.662V591.742C1164 593.042 1163.48 594.202 1161.84 594.762C1163.92 595.262 1164.7 596.322 1164.7 598.182V598.262C1164.7 600.962 1162.86 602.262 1160 602.262H1155.1ZM1156.8 600.902H1159.96C1162.04 600.902 1163 599.982 1163 598.242V598.162C1163 596.402 1162.02 595.562 1159.72 595.562H1156.8V600.902ZM1156.8 594.202H1159.4C1161.5 594.202 1162.3 593.442 1162.3 591.682V591.602C1162.3 589.982 1161.36 589.322 1159.36 589.322H1156.8V594.202ZM1170.96 602.442C1168.88 602.442 1167.32 601.302 1167.32 598.422V591.802H1168.98V598.342C1168.98 600.182 1169.76 601.002 1171.4 601.002C1172.88 601.002 1174.28 600.022 1174.28 598.142V591.802H1175.94V602.262H1174.28V600.602C1173.8 601.582 1172.64 602.442 1170.96 602.442ZM1184.49 602.442C1182.79 602.442 1181.55 601.582 1180.95 600.542V602.262H1179.29V586.802H1180.95V593.562C1181.55 592.542 1182.97 591.622 1184.49 591.622C1187.23 591.622 1189.25 593.622 1189.25 596.882V597.042C1189.25 600.242 1187.37 602.442 1184.49 602.442ZM1184.33 601.062C1186.41 601.062 1187.53 599.662 1187.53 597.122V596.962C1187.53 594.322 1186.07 593.002 1184.31 593.002C1182.37 593.002 1180.89 594.282 1180.89 596.962V597.122C1180.89 599.802 1182.29 601.062 1184.33 601.062ZM1197.03 602.442C1195.33 602.442 1194.09 601.582 1193.49 600.542V602.262H1191.83V586.802H1193.49V593.562C1194.09 592.542 1195.51 591.622 1197.03 591.622C1199.77 591.622 1201.79 593.622 1201.79 596.882V597.042C1201.79 600.242 1199.91 602.442 1197.03 602.442ZM1196.87 601.062C1198.95 601.062 1200.07 599.662 1200.07 597.122V596.962C1200.07 594.322 1198.61 593.002 1196.85 593.002C1194.91 593.002 1193.43 594.282 1193.43 596.962V597.122C1193.43 599.802 1194.83 601.062 1196.87 601.062ZM1204.41 602.262V586.802H1206.09V602.262H1204.41ZM1213.77 602.442C1210.81 602.442 1208.71 600.362 1208.71 597.142V596.982C1208.71 593.822 1210.73 591.622 1213.61 591.622C1216.03 591.622 1218.31 593.082 1218.31 596.822V597.362H1210.43C1210.51 599.742 1211.65 601.062 1213.79 601.062C1215.41 601.062 1216.35 600.462 1216.57 599.242H1218.23C1217.87 601.342 1216.13 602.442 1213.77 602.442ZM1210.49 596.022H1216.61C1216.45 593.862 1215.33 593.002 1213.61 593.002C1211.91 593.002 1210.77 594.162 1210.49 596.022Z" fill="#797979"/>
<rect x="219.871" y="0.973279" width="197.122" height="54.1904" rx="7.83666" stroke="#797979" stroke-width="1.74148"/>
<path d="M309.152 34.0684L314.072 19.7684H316.352L321.192 34.0684H319.472L318.072 29.9484H312.172L310.792 34.0684H309.152ZM315.132 21.2084L312.652 28.5684H317.612L315.132 21.2084ZM323.808 34.0684V19.7684H325.548V34.0684H323.808Z" fill="#797979"/>
<rect x="219.871" y="123.905" width="197.122" height="54.1904" rx="7.83666" stroke="#797979" stroke-width="1.74148"/>
<path d="M281.832 157L278.112 142.7H279.892L282.792 154.24L286.152 142.7H287.392L290.752 154.28L293.692 142.7H295.312L291.592 157H289.992L286.752 145.7L283.412 157H281.832ZM301.146 157.18C298.186 157.18 296.086 155.1 296.086 151.88V151.72C296.086 148.56 298.106 146.36 300.986 146.36C303.406 146.36 305.686 147.82 305.686 151.56V152.1H297.806C297.886 154.48 299.026 155.8 301.166 155.8C302.786 155.8 303.726 155.2 303.946 153.98H305.606C305.246 156.08 303.506 157.18 301.146 157.18ZM297.866 150.76H303.986C303.826 148.6 302.706 147.74 300.986 147.74C299.286 147.74 298.146 148.9 297.866 150.76ZM313.433 157.18C311.733 157.18 310.493 156.32 309.893 155.28V157H308.233V141.54H309.893V148.3C310.493 147.28 311.913 146.36 313.433 146.36C316.173 146.36 318.193 148.36 318.193 151.62V151.78C318.193 154.98 316.313 157.18 313.433 157.18ZM313.273 155.8C315.353 155.8 316.473 154.4 316.473 151.86V151.7C316.473 149.06 315.013 147.74 313.253 147.74C311.313 147.74 309.833 149.02 309.833 151.7V151.86C309.833 154.54 311.233 155.8 313.273 155.8ZM321.132 157V147.94H319.632V146.54H321.132V144.84C321.132 142.72 322.152 141.48 324.212 141.48C324.752 141.48 325.032 141.52 325.352 141.64V143.04C325.052 142.92 324.732 142.86 324.272 142.86C323.212 142.86 322.792 143.6 322.792 144.66V146.54H325.352V147.94H322.792V157H321.132ZM327.433 157V141.54H329.113V157H327.433ZM336.87 155.8C338.97 155.8 340.29 154.22 340.29 151.86V151.72C340.29 149.3 338.95 147.74 336.87 147.74C334.77 147.74 333.45 149.3 333.45 151.7V151.86C333.45 154.24 334.75 155.8 336.87 155.8ZM336.85 157.18C333.87 157.18 331.73 154.92 331.73 151.86V151.7C331.73 148.56 333.91 146.36 336.87 146.36C339.83 146.36 342.01 148.54 342.01 151.68V151.84C342.01 155 339.83 157.18 336.85 157.18ZM346.485 157L343.265 146.54H345.065L347.505 154.96L350.045 146.54H351.485L353.865 154.96L356.325 146.54H358.025L354.765 157H352.925L350.745 149.16L348.305 157H346.485Z" fill="#797979"/>
<rect x="219.871" y="246.837" width="197.122" height="54.1904" rx="7.83666" stroke="#797979" stroke-width="1.74148"/>
<path d="M301.972 278.512H303.932C307.612 278.512 309.452 276.312 309.452 272.812V272.652C309.452 269.352 307.852 267.032 303.912 267.032H301.972V278.512ZM300.232 279.932V265.632H304.012C308.932 265.632 311.252 268.672 311.252 272.652V272.832C311.252 276.792 308.972 279.932 303.972 279.932H300.232ZM318.582 280.112C314.762 280.112 313.382 278.012 313.122 275.572H314.802C315.022 277.272 315.702 278.712 318.582 278.712C320.422 278.712 321.842 277.632 321.842 276.012C321.842 274.392 321.102 273.712 318.382 273.272C315.382 272.812 313.602 271.872 313.602 269.332C313.602 267.132 315.502 265.452 318.202 265.452C321.062 265.452 322.842 266.852 323.122 269.392H321.562C321.222 267.592 320.182 266.852 318.202 266.852C316.242 266.852 315.222 267.832 315.222 269.172C315.222 270.572 315.742 271.292 318.662 271.732C321.842 272.232 323.522 273.192 323.522 275.892C323.522 278.292 321.422 280.112 318.582 280.112ZM324.913 279.932L329.833 265.632H332.113L336.953 279.932H335.233L333.833 275.812H327.933L326.553 279.932H324.913ZM330.893 267.072L328.413 274.432H333.373L330.893 267.072Z" fill="#797979"/>
<rect x="219.871" y="369.769" width="197.122" height="54.1904" rx="7.83666" stroke="#797979" stroke-width="1.74148"/>
<path d="M263.752 403.044C260.472 403.044 258.612 401.124 258.612 397.644V388.564H260.352V397.444C260.352 400.444 261.412 401.604 263.792 401.604C266.072 401.604 267.432 400.684 267.432 397.184V388.564H269.172V397.424C269.172 400.904 267.432 403.044 263.752 403.044ZM272.758 402.864V388.564H274.498V402.864H272.758ZM276.524 405.824L282.344 387.344H283.864L278.044 405.824H276.524ZM291.291 403.044C288.011 403.044 286.151 401.124 286.151 397.644V388.564H287.891V397.444C287.891 400.444 288.951 401.604 291.331 401.604C293.611 401.604 294.971 400.684 294.971 397.184V388.564H296.711V397.424C296.711 400.904 294.971 403.044 291.291 403.044ZM298.906 402.864L303.626 395.524L299.226 388.564H301.146L304.706 394.184L308.246 388.564H310.026L305.586 395.524L310.246 402.864H308.286L304.466 396.844L300.646 402.864H298.906ZM322.063 403.044C319.323 403.044 317.343 401.104 317.343 397.844V397.684C317.343 394.484 319.343 392.224 322.223 392.224C323.963 392.224 325.043 393.064 325.643 394.084V387.404H327.303V402.864H325.643V401.064C325.043 402.084 323.583 403.044 322.063 403.044ZM322.243 401.664C324.183 401.664 325.703 400.384 325.703 397.704V397.544C325.703 394.864 324.423 393.604 322.383 393.604C320.303 393.604 319.063 395.064 319.063 397.604V397.764C319.063 400.404 320.483 401.664 322.243 401.664ZM334.943 403.044C331.983 403.044 329.883 400.964 329.883 397.744V397.584C329.883 394.424 331.903 392.224 334.783 392.224C337.203 392.224 339.483 393.684 339.483 397.424V397.964H331.603C331.683 400.344 332.823 401.664 334.963 401.664C336.583 401.664 337.523 401.064 337.743 399.844H339.403C339.043 401.944 337.303 403.044 334.943 403.044ZM331.663 396.624H337.783C337.623 394.464 336.503 393.604 334.783 393.604C333.083 393.604 331.943 394.764 331.663 396.624ZM345.367 403.044C342.867 403.044 341.367 401.784 341.267 399.644H342.887C343.007 400.884 343.667 401.664 345.347 401.664C346.927 401.664 347.627 401.124 347.627 400.004C347.627 398.904 346.807 398.544 345.187 398.244C342.467 397.744 341.547 396.984 341.547 395.164C341.547 393.224 343.447 392.224 345.087 392.224C346.967 392.224 348.587 392.984 348.867 395.244H347.267C347.027 394.104 346.387 393.604 345.067 393.604C343.867 393.604 343.087 394.204 343.087 395.104C343.087 396.044 343.607 396.424 345.527 396.764C347.687 397.164 349.207 397.644 349.207 399.864C349.207 401.764 347.907 403.044 345.367 403.044ZM351.777 402.864V392.404H353.437V402.864H351.777ZM352.577 390.224C351.977 390.224 351.477 389.724 351.477 389.124C351.477 388.524 351.977 388.024 352.577 388.024C353.177 388.024 353.677 388.524 353.677 389.124C353.677 389.724 353.177 390.224 352.577 390.224ZM361.014 406.684C357.914 406.684 356.554 405.224 356.274 403.464H357.974C358.214 404.664 359.214 405.284 360.994 405.284C363.054 405.284 364.354 404.304 364.354 402.064V400.544C363.754 401.564 362.334 402.524 360.814 402.524C358.074 402.524 356.054 400.444 356.054 397.564V397.424C356.054 394.584 358.054 392.224 360.934 392.224C362.674 392.224 363.754 393.064 364.354 394.084V392.404H366.014V402.164C365.994 405.204 363.934 406.684 361.014 406.684ZM360.994 401.144C362.934 401.144 364.414 399.784 364.414 397.444V397.304C364.414 394.964 363.134 393.604 361.094 393.604C359.014 393.604 357.774 395.144 357.774 397.344V397.504C357.774 399.784 359.234 401.144 360.994 401.144ZM369.373 402.864V392.404H371.033V394.064C371.513 393.084 372.673 392.224 374.393 392.224C376.553 392.224 378.073 393.404 378.073 396.444V402.864H376.413V396.324C376.413 394.484 375.633 393.664 373.953 393.664C372.413 393.664 371.033 394.644 371.033 396.524V402.864H369.373Z" fill="#797979"/>
<rect x="219.871" y="492.701" width="197.122" height="54.1904" rx="7.83666" stroke="#797979" stroke-width="1.74148"/>
<path d="M287.232 525.796V511.496H291.532C294.192 511.496 296.132 512.376 296.132 515.196V515.276C296.132 516.576 295.612 517.736 293.972 518.296C296.052 518.796 296.832 519.856 296.832 521.716V521.796C296.832 524.496 294.992 525.796 292.132 525.796H287.232ZM288.932 524.436H292.092C294.172 524.436 295.132 523.516 295.132 521.776V521.696C295.132 519.936 294.152 519.096 291.852 519.096H288.932V524.436ZM288.932 517.736H291.532C293.632 517.736 294.432 516.976 294.432 515.216V515.136C294.432 513.516 293.492 512.856 291.492 512.856H288.932V517.736ZM303.093 525.976C301.013 525.976 299.453 524.836 299.453 521.956V515.336H301.113V521.876C301.113 523.716 301.893 524.536 303.533 524.536C305.013 524.536 306.413 523.556 306.413 521.676V515.336H308.073V525.796H306.413V524.136C305.933 525.116 304.773 525.976 303.093 525.976ZM316.628 525.976C314.928 525.976 313.688 525.116 313.088 524.076V525.796H311.428V510.336H313.088V517.096C313.688 516.076 315.108 515.156 316.628 515.156C319.368 515.156 321.388 517.156 321.388 520.416V520.576C321.388 523.776 319.508 525.976 316.628 525.976ZM316.468 524.596C318.548 524.596 319.668 523.196 319.668 520.656V520.496C319.668 517.856 318.208 516.536 316.448 516.536C314.508 516.536 313.028 517.816 313.028 520.496V520.656C313.028 523.336 314.428 524.596 316.468 524.596ZM329.167 525.976C327.467 525.976 326.227 525.116 325.627 524.076V525.796H323.967V510.336H325.627V517.096C326.227 516.076 327.647 515.156 329.167 515.156C331.907 515.156 333.927 517.156 333.927 520.416V520.576C333.927 523.776 332.047 525.976 329.167 525.976ZM329.007 524.596C331.087 524.596 332.207 523.196 332.207 520.656V520.496C332.207 517.856 330.747 516.536 328.987 516.536C327.047 516.536 325.567 517.816 325.567 520.496V520.656C325.567 523.336 326.967 524.596 329.007 524.596ZM336.546 525.796V510.336H338.226V525.796H336.546ZM345.903 525.976C342.943 525.976 340.843 523.896 340.843 520.676V520.516C340.843 517.356 342.863 515.156 345.743 515.156C348.163 515.156 350.443 516.616 350.443 520.356V520.896H342.563C342.643 523.276 343.783 524.596 345.923 524.596C347.543 524.596 348.483 523.996 348.703 522.776H350.363C350.003 524.876 348.263 525.976 345.903 525.976ZM342.623 519.556H348.743C348.583 517.396 347.463 516.536 345.743 516.536C344.043 516.536 342.903 517.696 342.623 519.556Z" fill="#797979"/>
<rect x="871.871" y="1.37074" width="197.122" height="54.1904" rx="7.83666" stroke="#797979" stroke-width="1.74148"/>
<path d="M939.712 34.6458C935.572 34.6458 933.032 31.8058 933.032 27.4058V27.2458C933.032 23.0058 935.872 19.9458 939.752 19.9458C942.732 19.9458 945.252 21.5258 945.552 24.6258H943.832C943.472 22.4458 942.212 21.3258 939.772 21.3258C936.812 21.3258 934.832 23.6258 934.832 27.2258V27.3858C934.832 31.0258 936.672 33.2258 939.752 33.2258C942.092 33.2258 943.712 32.0458 944.072 29.7258H945.692C945.192 33.0258 942.912 34.6458 939.712 34.6458ZM948.221 34.4658V19.0058H949.881V25.6658C950.361 24.6858 951.521 23.8258 953.241 23.8258C955.401 23.8258 956.921 25.0058 956.921 28.0458V34.4658H955.261V27.9258C955.261 26.0858 954.481 25.2658 952.801 25.2658C951.261 25.2658 949.881 26.2458 949.881 28.1258V34.4658H948.221ZM962.794 34.6458C960.854 34.6458 959.314 33.7058 959.314 31.5658C959.314 29.1458 961.874 28.3258 964.554 28.3258H966.054V27.5658C966.054 25.9058 965.414 25.2058 963.814 25.2058C962.374 25.2058 961.574 25.8058 961.414 27.0858H959.754C959.974 24.7058 961.874 23.8258 963.894 23.8258C965.894 23.8258 967.714 24.6458 967.714 27.5658V34.4658H966.054V33.1458C965.274 34.1258 964.334 34.6458 962.794 34.6458ZM962.954 33.3258C964.714 33.3258 966.054 32.4258 966.054 30.8058V29.5058H964.614C962.514 29.5058 960.974 30.0258 960.974 31.5658C960.974 32.6458 961.494 33.3258 962.954 33.3258ZM974.155 34.6058C972.255 34.6058 971.335 33.4858 971.335 31.8458V25.4058H969.835V24.0058H971.335V21.6258H972.995V24.0058H975.435V25.4058H972.995V31.6858C972.995 32.7058 973.455 33.2058 974.295 33.2058C974.815 33.2058 975.215 33.1258 975.575 32.9858V34.3858C975.235 34.5058 974.835 34.6058 974.155 34.6058ZM983.285 34.6458C981.585 34.6458 980.345 33.7858 979.745 32.7458V34.4658H978.085V19.0058H979.745V25.7658C980.345 24.7458 981.765 23.8258 983.285 23.8258C986.025 23.8258 988.045 25.8258 988.045 29.0858V29.2458C988.045 32.4458 986.165 34.6458 983.285 34.6458ZM983.125 33.2658C985.205 33.2658 986.325 31.8658 986.325 29.3258V29.1658C986.325 26.5258 984.865 25.2058 983.105 25.2058C981.165 25.2058 979.685 26.4858 979.685 29.1658V29.3258C979.685 32.0058 981.085 33.2658 983.125 33.2658ZM994.984 33.2658C997.084 33.2658 998.404 31.6858 998.404 29.3258V29.1858C998.404 26.7658 997.064 25.2058 994.984 25.2058C992.884 25.2058 991.564 26.7658 991.564 29.1658V29.3258C991.564 31.7058 992.864 33.2658 994.984 33.2658ZM994.964 34.6458C991.984 34.6458 989.844 32.3858 989.844 29.3258V29.1658C989.844 26.0258 992.024 23.8258 994.984 23.8258C997.944 23.8258 1000.12 26.0058 1000.12 29.1458V29.3058C1000.12 32.4658 997.944 34.6458 994.964 34.6458ZM1005.87 34.6058C1003.97 34.6058 1003.05 33.4858 1003.05 31.8458V25.4058H1001.55V24.0058H1003.05V21.6258H1004.71V24.0058H1007.15V25.4058H1004.71V31.6858C1004.71 32.7058 1005.17 33.2058 1006.01 33.2058C1006.53 33.2058 1006.93 33.1258 1007.29 32.9858V34.3858C1006.95 34.5058 1006.55 34.6058 1005.87 34.6058Z" fill="#797979"/>
<rect x="871.871" y="124.302" width="197.122" height="54.1904" rx="7.83666" stroke="#797979" stroke-width="1.74148"/>
<path d="M949.452 157.577C945.052 157.577 942.532 154.517 942.532 150.337V150.177C942.532 145.997 945.352 142.877 949.452 142.877C952.292 142.877 954.832 144.197 955.272 147.417H953.532C953.132 145.137 951.572 144.257 949.492 144.257C946.212 144.257 944.332 146.657 944.332 150.157V150.317C944.332 153.857 946.092 156.177 949.452 156.177C952.552 156.177 953.892 154.157 953.952 151.617H949.772V150.177H955.652V151.237C955.652 155.377 953.112 157.577 949.452 157.577ZM962.724 157.577C959.764 157.577 957.664 155.497 957.664 152.277V152.117C957.664 148.957 959.684 146.757 962.564 146.757C964.984 146.757 967.264 148.217 967.264 151.957V152.497H959.384C959.464 154.877 960.604 156.197 962.744 156.197C964.364 156.197 965.304 155.597 965.524 154.377H967.184C966.824 156.477 965.084 157.577 962.724 157.577ZM959.444 151.157H965.564C965.404 148.997 964.284 148.137 962.564 148.137C960.864 148.137 959.724 149.297 959.444 151.157ZM969.811 157.397V146.937H971.471V148.597C971.951 147.617 973.111 146.757 974.831 146.757C976.991 146.757 978.511 147.937 978.511 150.977V157.397H976.851V150.857C976.851 149.017 976.071 148.197 974.391 148.197C972.851 148.197 971.471 149.177 971.471 151.057V157.397H969.811ZM980.804 157.397L985.724 143.097H988.004L992.844 157.397H991.124L989.724 153.277H983.824L982.444 157.397H980.804ZM986.784 144.537L984.304 151.897H989.264L986.784 144.537ZM995.461 157.397V143.097H997.201V157.397H995.461Z" fill="#797979"/>
<rect x="871.871" y="247.235" width="197.122" height="54.1904" rx="7.83666" stroke="#797979" stroke-width="1.74148"/>
<path d="M953.732 280.33V266.03H955.992L962.952 277.85V266.03H964.612V280.33H962.612L955.392 268.07V280.33H953.732ZM968.205 280.33V266.03H969.945V278.91H976.485V280.33H968.205ZM978.908 280.33V266.03H982.968C985.708 266.03 987.968 267.23 987.968 270.21V270.29C987.968 273.33 985.688 274.51 982.968 274.51H980.648V280.33H978.908ZM980.648 273.13H983.088C985.128 273.13 986.228 272.13 986.228 270.29V270.21C986.228 268.19 985.028 267.43 983.088 267.43H980.648V273.13Z" fill="#797979"/>
<rect x="871.871" y="370.166" width="197.122" height="54.1904" rx="7.83666" stroke="#797979" stroke-width="1.74148"/>
<path d="M945.232 403.261V388.961H947.492L954.452 400.781V388.961H956.112V403.261H954.112L946.892 391.001V403.261H945.232ZM965.685 403.441C961.545 403.441 959.005 400.601 959.005 396.201V396.041C959.005 391.801 961.845 388.741 965.725 388.741C968.705 388.741 971.225 390.321 971.525 393.421H969.805C969.445 391.241 968.185 390.121 965.745 390.121C962.785 390.121 960.805 392.421 960.805 396.021V396.181C960.805 399.821 962.645 402.021 965.725 402.021C968.065 402.021 969.685 400.841 970.045 398.521H971.665C971.165 401.821 968.885 403.441 965.685 403.441ZM974.314 403.261V388.961H976.054V401.841H982.594V403.261H974.314ZM990.392 403.441C986.252 403.441 983.712 400.601 983.712 396.201V396.041C983.712 391.801 986.552 388.741 990.432 388.741C993.412 388.741 995.932 390.321 996.232 393.421H994.512C994.152 391.241 992.892 390.121 990.452 390.121C987.492 390.121 985.512 392.421 985.512 396.021V396.181C985.512 399.821 987.352 402.021 990.432 402.021C992.772 402.021 994.392 400.841 994.752 398.521H996.372C995.872 401.821 993.592 403.441 990.392 403.441Z" fill="#797979"/>
<rect x="871.871" y="493.098" width="197.122" height="54.1904" rx="7.83666" stroke="#797979" stroke-width="1.74148"/>
<path d="M922.712 526.373C918.572 526.373 916.032 523.533 916.032 519.133V518.973C916.032 514.733 918.872 511.673 922.752 511.673C925.732 511.673 928.252 513.253 928.552 516.353H926.832C926.472 514.173 925.212 513.053 922.772 513.053C919.812 513.053 917.832 515.353 917.832 518.953V519.113C917.832 522.753 919.672 524.953 922.752 524.953C925.092 524.953 926.712 523.773 927.072 521.453H928.692C928.192 524.753 925.912 526.373 922.712 526.373ZM934.037 526.373C932.097 526.373 930.557 525.433 930.557 523.293C930.557 520.873 933.117 520.053 935.797 520.053H937.297V519.293C937.297 517.633 936.657 516.933 935.057 516.933C933.617 516.933 932.817 517.533 932.657 518.813H930.997C931.217 516.433 933.117 515.553 935.137 515.553C937.137 515.553 938.957 516.373 938.957 519.293V526.193H937.297V524.873C936.517 525.853 935.577 526.373 934.037 526.373ZM934.197 525.053C935.957 525.053 937.297 524.153 937.297 522.533V521.233H935.857C933.757 521.233 932.217 521.753 932.217 523.293C932.217 524.373 932.737 525.053 934.197 525.053ZM942.217 526.193V515.733H943.877V517.613C944.537 516.433 945.437 515.613 947.317 515.553V517.113C945.217 517.213 943.877 517.873 943.877 520.453V526.193H942.217ZM953.724 526.373C950.764 526.373 948.664 524.293 948.664 521.073V520.913C948.664 517.753 950.684 515.553 953.564 515.553C955.984 515.553 958.264 517.013 958.264 520.753V521.293H950.384C950.464 523.673 951.604 524.993 953.744 524.993C955.364 524.993 956.304 524.393 956.524 523.173H958.184C957.824 525.273 956.084 526.373 953.724 526.373ZM950.444 519.953H956.564C956.404 517.793 955.284 516.933 953.564 516.933C951.864 516.933 950.724 518.093 950.444 519.953ZM965.091 526.373C962.131 526.373 960.031 524.293 960.031 521.073V520.913C960.031 517.753 962.051 515.553 964.931 515.553C967.351 515.553 969.631 517.013 969.631 520.753V521.293H961.751C961.831 523.673 962.971 524.993 965.111 524.993C966.731 524.993 967.671 524.393 967.891 523.173H969.551C969.191 525.273 967.451 526.373 965.091 526.373ZM961.811 519.953H967.931C967.771 517.793 966.651 516.933 964.931 516.933C963.231 516.933 962.091 518.093 961.811 519.953ZM972.178 526.193V515.733H973.838V517.613C974.498 516.433 975.398 515.613 977.278 515.553V517.113C975.178 517.213 973.838 517.873 973.838 520.453V526.193H972.178ZM984.991 529.833V515.733H986.651V517.493C987.251 516.473 988.671 515.553 990.191 515.553C992.931 515.553 994.951 517.553 994.951 520.813V520.973C994.951 524.173 993.071 526.373 990.191 526.373C988.471 526.373 987.251 525.513 986.651 524.473V529.833H984.991ZM990.031 524.993C992.111 524.993 993.231 523.593 993.231 521.053V520.893C993.231 518.253 991.771 516.933 990.011 516.933C988.071 516.933 986.591 518.213 986.591 520.893V521.053C986.591 523.733 987.991 524.993 990.031 524.993ZM1000.15 526.373C998.21 526.373 996.67 525.433 996.67 523.293C996.67 520.873 999.23 520.053 1001.91 520.053H1003.41V519.293C1003.41 517.633 1002.77 516.933 1001.17 516.933C999.73 516.933 998.93 517.533 998.77 518.813H997.11C997.33 516.433 999.23 515.553 1001.25 515.553C1003.25 515.553 1005.07 516.373 1005.07 519.293V526.193H1003.41V524.873C1002.63 525.853 1001.69 526.373 1000.15 526.373ZM1000.31 525.053C1002.07 525.053 1003.41 524.153 1003.41 522.533V521.233H1001.97C999.87 521.233 998.33 521.753 998.33 523.293C998.33 524.373 998.85 525.053 1000.31 525.053ZM1011.51 526.333C1009.61 526.333 1008.69 525.213 1008.69 523.573V517.133H1007.19V515.733H1008.69V513.353H1010.35V515.733H1012.79V517.133H1010.35V523.413C1010.35 524.433 1010.81 524.933 1011.65 524.933C1012.17 524.933 1012.57 524.853 1012.93 524.713V526.113C1012.59 526.233 1012.19 526.333 1011.51 526.333ZM1015.44 526.193V510.733H1017.1V517.393C1017.58 516.413 1018.74 515.553 1020.46 515.553C1022.62 515.553 1024.14 516.733 1024.14 519.773V526.193H1022.48V519.653C1022.48 517.813 1021.7 516.993 1020.02 516.993C1018.48 516.993 1017.1 517.973 1017.1 519.853V526.193H1015.44Z" fill="#797979"/>
</g>
</svg>
