<svg width="140" height="26" viewBox="0 0 140 26" fill="none" xmlns="http://www.w3.org/2000/svg">
<g clip-path="url(#clip0_748_264)">
<path fill-rule="evenodd" clip-rule="evenodd" d="M9.35527 22.3553H0L9.35527 13H0L9.35527 3.64471H18.7105L9.35527 13L18.7105 13L9.35527 22.3553Z" fill="url(#paint0_linear_748_264)"/>
</g>
<path d="M26.063 20H22.0861V5.82712H29.9341C33.2975 5.82712 35.4128 7.75209 35.4128 11.1155C35.4128 14.4789 33.2975 16.425 29.9341 16.425H26.063V20ZM29.4898 9.40207H26.063V12.8501H29.4898C30.886 12.8501 31.4571 12.5751 31.4571 11.1155C31.4571 9.67707 30.886 9.40207 29.4898 9.40207ZM39.8746 20H35.4112L41.5245 5.82712H47.2148L53.3494 20H48.7802L47.7014 17.377H40.9746L39.8746 20ZM43.3014 11.8136L42.4765 13.802H46.2418L45.4168 11.8136L44.486 9.42323H44.211L43.3014 11.8136ZM57.752 20H53.7751V5.82712H62.0461C65.7903 5.82712 67.7576 7.39248 67.7576 10.1636C67.7576 12.4059 66.6364 13.7385 63.9288 14.077V14.2885C65.3884 14.6693 65.8538 15.3674 66.3826 16.4462L68.1384 20H63.548L61.8557 16.5308C61.3481 15.4731 60.925 15.177 59.3808 15.177H57.752V20ZM57.752 9.40207V12.2155H62.0038C63.1673 12.2155 63.5903 12.004 63.5903 10.7982C63.5903 9.67707 63.1673 9.40207 62.0038 9.40207H57.752ZM72.3899 20H67.9265L74.0399 5.82712H79.7302L85.8647 20H81.2955L80.2167 17.377H73.4899L72.3899 20ZM75.8168 11.8136L74.9918 13.802H78.7571L77.9321 11.8136L77.0014 9.42323H76.7264L75.8168 11.8136ZM98.4537 20H86.2904V5.82712H90.2673V16.425H98.4537V20ZM111.675 20H99.5114V5.82712H103.488V16.425H111.675V20ZM125.319 20H112.732V5.82712H125.319V9.40207H116.709V11.0944H125.001V14.6482H116.709V16.425H125.319V20ZM138.612 20H126.449V5.82712H130.426V16.425H138.612V20Z" fill="#F7F7F7"/>
<defs>
<linearGradient id="paint0_linear_748_264" x1="1.91783" y1="20.8584" x2="9.35527" y2="3.64471" gradientUnits="userSpaceOnUse">
<stop stop-color="#201DA7"/>
<stop offset="1" stop-color="#30E29D"/>
</linearGradient>
<clipPath id="clip0_748_264">
<rect width="18.7105" height="18.7105" fill="white" transform="translate(0 3.64471)"/>
</clipPath>
</defs>
</svg>
