<svg width="377" height="292" viewBox="0 0 377 292" fill="none" xmlns="http://www.w3.org/2000/svg">
<g clip-path="url(#clip0_769_4755)">
<rect width="377" height="292" rx="9" fill="#07023A"/>
<g filter="url(#filter0_b_769_4755)">
<path d="M318.682 178.192C320.244 235.013 238.147 283.623 193.71 301.464L98.9369 206.501L50.3987 103.825C171.34 35.3225 254.164 36.5141 270.514 59.0134C283.972 92.7551 312.446 163.829 318.682 178.192Z" fill="#00C2FF" fill-opacity="0.1"/>
<path d="M206.706 144.639L213.482 160.16L220.193 175.547L226.843 190.792L233.435 205.907L239.969 220.886L246.447 235.735L252.868 250.455L259.233 265.045" stroke="#555CFF" stroke-width="1.34781" stroke-linecap="round" stroke-linejoin="round"/>
<path d="M221.092 134.506L227.762 149.984L234.366 165.33L240.918 180.536L247.413 195.613L253.85 210.553L260.23 225.364L266.556 240.052L272.829 254.6" stroke="#555CFF" stroke-width="1.34781" stroke-linecap="round" stroke-linejoin="round"/>
<path d="M233.94 124.349L240.51 139.768L247.018 155.06L253.47 170.207L259.869 185.23L266.209 200.117L272.492 214.874L278.722 229.508L284.904 244.015" stroke="#555CFF" stroke-width="1.34781" stroke-linecap="round" stroke-linejoin="round"/>
<path d="M245.096 114.325L251.561 129.672L257.977 144.886L264.33 159.973L270.63 174.922L276.874 189.74L283.07 204.433L289.206 219.004L295.292 233.443" stroke="#555CFF" stroke-width="1.34781" stroke-linecap="round" stroke-linejoin="round"/>
<path d="M254.421 104.583L260.791 119.846L267.112 134.976L273.373 149.971L279.581 164.842L285.738 179.581L291.842 194.195L297.889 208.68L303.889 223.054" stroke="#555CFF" stroke-width="1.34781" stroke-linecap="round" stroke-linejoin="round"/>
<path d="M261.83 95.2673L268.11 110.423L274.336 125.455L280.512 140.354L286.634 155.13L292.7 169.776L298.721 184.302L304.686 198.698L310.602 212.983L303.889 223.054L295.293 233.443L284.904 244.016L272.829 254.6L259.232 265.045L244.298 275.166L228.254 284.815L211.349 293.816L193.846 302.034" stroke="#555CFF" stroke-width="1.34781" stroke-linecap="round" stroke-linejoin="round"/>
<path d="M267.26 86.4877L273.455 101.533L279.603 116.452L285.691 131.25L291.735 145.913L297.721 160.461L303.66 174.883L309.549 189.188L304.685 198.698L297.889 208.68L289.207 219.004L278.721 229.508L266.556 240.051L252.868 250.454L237.843 260.556L221.709 270.2L204.716 279.218L187.127 287.458" stroke="#555CFF" stroke-width="1.34781" stroke-linecap="round" stroke-linejoin="round"/>
<path d="M270.703 78.3587L276.823 93.2824L282.886 108.091L288.905 122.765L294.867 137.324L300.782 151.756L306.651 166.069L303.661 174.883L298.721 184.302L291.842 194.195L283.071 204.432L272.492 214.874L260.23 225.364L246.447 235.735L231.327 245.82L215.103 255.458L198.018 264.486L180.353 272.752" stroke="#555CFF" stroke-width="1.34781" stroke-linecap="round" stroke-linejoin="round"/>
<path d="M193.846 302.033L187.127 287.458L180.352 272.752L173.514 257.92L166.618 242.951L159.656 227.849L152.629 212.614L145.546 197.234L139.43 183.977L138.39 181.717" stroke="#555CFF" stroke-width="1.34781" stroke-linecap="round" stroke-linejoin="round"/>
<path d="M211.348 293.816L204.715 279.218L198.017 264.486L191.263 249.625L184.449 234.628L177.571 219.497L170.633 204.23L163.636 188.828L156.568 173.28" stroke="#555CFF" stroke-width="1.34781" stroke-linecap="round" stroke-linejoin="round"/>
<path d="M228.254 284.815L221.71 270.2L215.103 255.459L208.439 240.587L201.708 225.576L194.923 210.442L188.082 195.162L181.168 179.746L174.2 164.191" stroke="#555CFF" stroke-width="1.34781" stroke-linecap="round" stroke-linejoin="round"/>
<path d="M272.167 70.9714L278.212 85.7732L284.21 100.449L282.886 108.092L279.603 116.453L274.336 125.455L267.112 134.977L257.977 144.887L247.018 155.06L234.366 165.33L220.193 175.547L204.683 185.544L188.082 195.162L170.633 204.231L152.629 212.614" stroke="#555CFF" stroke-width="1.34781" stroke-linecap="round" stroke-linejoin="round"/>
<path d="M244.298 275.166L237.844 260.557L231.327 245.82L224.754 230.953L218.122 215.951L211.433 200.818L204.683 185.544L197.874 170.133L190.999 154.589" stroke="#555CFF" stroke-width="1.34781" stroke-linecap="round" stroke-linejoin="round"/>
<path d="M56.9225 116.939L70.6475 108.871L84.9283 101.185L99.6236 93.9299L114.599 87.1846L129.719 81.0085L144.844 75.4545L159.839 70.5815L174.557 66.439L188.867 63.0682L202.61 60.5241L215.659 58.8327L227.858 58.0461L239.063 58.1838L249.131 59.271L257.918 61.3183L263.689 75.3358L267.776 85.2722" stroke="#555CFF" stroke-width="1.34781" stroke-linecap="round" stroke-linejoin="round"/>
<path d="M63.1373 130L76.7906 121.918L91.0023 114.226L105.63 106.985L120.55 100.264L135.617 94.1184L150.698 88.6132L165.657 83.7925L180.343 79.7149L194.622 76.4239L208.354 73.9727L221.388 72.3832L233.582 71.7019L244.793 71.9547L254.875 73.1604L263.688 75.3359L270.707 78.3199" stroke="#555CFF" stroke-width="1.34781" stroke-linecap="round" stroke-linejoin="round"/>
<path d="M69.3028 142.964L82.8843 134.87L97.027 127.171L111.6 119.939L126.456 113.239L141.472 107.13L156.511 101.665L171.431 96.905L186.08 92.8947L200.343 89.6844L214.053 87.3166L227.078 85.8261L239.269 85.2564L250.483 85.618L260.58 86.9422L266.089 88.3777" stroke="#555CFF" stroke-width="1.34781" stroke-linecap="round" stroke-linejoin="round"/>
<path d="M75.4202 155.832L88.9362 147.722L103.012 140.023L117.516 132.799L132.322 126.12L147.292 120.039L162.28 114.625L177.157 109.921L191.785 105.979L206.013 102.842L219.709 100.561L232.726 99.1697L244.915 98.6966L256.129 99.1758" stroke="#555CFF" stroke-width="1.34781" stroke-linecap="round" stroke-linejoin="round"/>
<path d="M277.679 79.0614L283.614 93.6099L289.498 108.041L290.157 115.006L296.057 129.438L301.905 143.752L300.782 151.756L297.722 160.461L292.7 169.776L285.739 179.58L276.874 189.74L266.209 200.117L253.85 210.553L239.969 220.885L224.754 230.953L208.439 240.587L191.263 249.625L173.515 257.919" stroke="#555CFF" stroke-width="1.34781" stroke-linecap="round" stroke-linejoin="round"/>
<path d="M81.4998 168.599L94.9379 160.479L108.948 152.779L123.396 145.564L138.147 138.909L153.057 132.861L168.004 127.487L182.845 122.835L197.442 118.958L211.648 115.904L225.321 113.706L238.328 112.408L247.182 112.141" stroke="#555CFF" stroke-width="1.34781" stroke-linecap="round" stroke-linejoin="round"/>
<path d="M87.5301 181.283L100.9 173.141L114.844 165.441L129.231 158.238L143.923 151.601L158.79 145.587L173.695 140.253L188.497 135.662L203.054 131.846L217.235 128.87L230.894 126.759" stroke="#555CFF" stroke-width="1.34781" stroke-linecap="round" stroke-linejoin="round"/>
<path d="M93.514 193.864L106.815 185.716L120.698 178.012L135.022 170.815L149.658 164.202L164.478 158.215L179.332 152.933L194.095 148.389L205.374 145.482" stroke="#555CFF" stroke-width="1.34781" stroke-linecap="round" stroke-linejoin="round"/>
<path d="M265.235 53.909L271.119 68.3036L272.055 69.4106" stroke="#555CFF" stroke-width="1.34781" stroke-linecap="round" stroke-linejoin="round"/>
<path d="M99.4604 206.358L112.69 198.196L126.504 190.486L139.429 183.977" stroke="#555CFF" stroke-width="1.34781" stroke-linecap="round" stroke-linejoin="round"/>
<path d="M289.498 108.041L295.337 122.352L301.126 136.545L301.904 143.753L307.705 157.956L306.65 166.069L312.469 180.264L309.548 189.188L315.392 203.372L310.601 212.983" stroke="#555CFF" stroke-width="1.34781" stroke-linecap="round" stroke-linejoin="round"/>
<path d="M259.446 50.0675L265.294 64.3305L271.119 68.3032L272.156 70.8433" stroke="#555CFF" stroke-width="1.34781" stroke-linecap="round" stroke-linejoin="round"/>
<path d="M252.104 47.1871L257.917 61.3184L265.294 64.3308L270.813 77.8034" stroke="#555CFF" stroke-width="1.34781" stroke-linecap="round" stroke-linejoin="round"/>
<path d="M301.127 136.546L306.873 150.625L312.568 164.587L313.461 172.039L312.47 180.264L318.24 194.348L315.392 203.372" stroke="#555CFF" stroke-width="1.34781" stroke-linecap="round" stroke-linejoin="round"/>
<path d="M243.338 45.2707L249.131 59.2711L254.875 73.1604L260.58 86.9419L263.14 93.1407" stroke="#555CFF" stroke-width="1.34781" stroke-linecap="round" stroke-linejoin="round"/>
<path d="M233.278 44.3046L239.063 58.1839L244.793 71.9547L250.483 85.6176L256.128 99.1755L258.455 99.5094" stroke="#555CFF" stroke-width="1.34781" stroke-linecap="round" stroke-linejoin="round"/>
<path d="M312.568 164.587L318.215 178.438L319.165 186.004" stroke="#555CFF" stroke-width="1.34781" stroke-linecap="round" stroke-linejoin="round"/>
<path d="M222.082 44.2883L227.858 58.0463L233.582 71.702L239.27 85.2561L244.915 98.6964L249.53 109.696" stroke="#555CFF" stroke-width="1.34781" stroke-linecap="round" stroke-linejoin="round"/>
<path d="M209.88 45.1862L215.659 58.8328L221.388 72.3832L227.079 85.8257L232.726 99.1694L238.328 112.408L240.779 118.206" stroke="#555CFF" stroke-width="1.34781" stroke-linecap="round" stroke-linejoin="round"/>
<path d="M196.826 46.9681L202.61 60.5245L208.354 73.973L214.053 87.3165L219.709 100.561L225.321 113.707L230.894 126.76" stroke="#555CFF" stroke-width="1.34781" stroke-linecap="round" stroke-linejoin="round"/>
<path d="M183.057 49.6045L188.867 63.0687L194.622 76.4243L200.343 89.6844L206.013 102.842L211.648 115.905L217.234 128.871L220 135.274" stroke="#555CFF" stroke-width="1.34781" stroke-linecap="round" stroke-linejoin="round"/>
<path d="M168.73 53.0552L174.557 66.4388L180.344 79.7146L186.081 92.8941L191.785 105.978L197.443 118.957L203.054 131.846L208.175 143.604" stroke="#555CFF" stroke-width="1.34781" stroke-linecap="round" stroke-linejoin="round"/>
<path d="M153.979 57.2717L159.839 70.5817L165.656 83.7927L171.431 96.9049L177.156 109.921L182.845 122.835L188.496 135.663L194.095 148.388L195.555 151.7" stroke="#555CFF" stroke-width="1.34781" stroke-linecap="round" stroke-linejoin="round"/>
<path d="M99.4607 206.358L93.514 193.864L87.5296 181.284L81.4996 168.598L75.4196 155.832L69.303 142.964L63.1371 130L56.9221 116.939L50.6553 103.776" stroke="#555CFF" stroke-width="1.34781" stroke-linecap="round" stroke-linejoin="round"/>
<path d="M112.69 198.196L106.815 185.715L100.9 173.142L94.9379 160.479L88.9359 147.722L82.8848 134.87L76.7907 121.919L70.6474 108.871L64.4639 95.7307" stroke="#555CFF" stroke-width="1.34781" stroke-linecap="round" stroke-linejoin="round"/>
<path d="M126.505 190.485L120.699 178.011L114.843 165.441L108.948 152.778L103.012 140.022L97.0276 127.171L91.0026 114.226L84.9284 101.185L78.8086 88.0393" stroke="#555CFF" stroke-width="1.34781" stroke-linecap="round" stroke-linejoin="round"/>
<path d="M139.755 181.088L135.022 170.815L129.231 158.239L123.396 145.564L117.515 132.799L111.6 119.939L105.63 106.986L99.6233 93.9302L93.5698 80.7849" stroke="#555CFF" stroke-width="1.34781" stroke-linecap="round" stroke-linejoin="round"/>
<path d="M154.283 174.345L149.658 164.202L143.922 151.602L138.146 138.909L132.321 126.12L126.456 113.239L120.55 100.264L114.598 87.1846L108.601 74.0151" stroke="#555CFF" stroke-width="1.34781" stroke-linecap="round" stroke-linejoin="round"/>
<path d="M168.49 167.133L164.478 158.215L158.789 145.587L153.057 132.861L147.291 120.039L141.472 107.129L135.617 94.1185L129.719 81.0087L123.771 67.8027" stroke="#555CFF" stroke-width="1.34781" stroke-linecap="round" stroke-linejoin="round"/>
<path d="M306.873 150.625L307.705 157.956L313.46 172.039L319.164 186.004L318.24 194.348" stroke="#555CFF" stroke-width="1.34781" stroke-linecap="round" stroke-linejoin="round"/>
<path d="M182.285 159.563L179.333 152.933L173.695 140.254L168.004 127.487L162.279 114.625L156.512 101.664L150.698 88.6134L144.844 75.4548L138.944 62.2061" stroke="#555CFF" stroke-width="1.34781" stroke-linecap="round" stroke-linejoin="round"/>
<path d="M295.338 122.352L296.056 129.438L294.867 137.324L291.735 145.913L286.634 155.13L279.581 164.842L270.63 174.922L259.869 185.23L247.413 195.612L233.435 205.907L218.121 215.951L201.708 225.576L184.449 234.628L166.618 242.951" stroke="#555CFF" stroke-width="1.34781" stroke-linecap="round" stroke-linejoin="round"/>
<path d="M283.614 93.6103L284.21 100.448L290.157 115.007L288.905 122.765L285.691 131.251L280.511 140.354L273.373 149.971L264.33 159.973L253.47 170.207L240.918 180.536L226.842 190.792L211.433 200.818L194.923 210.442L177.571 219.497L159.656 227.849" stroke="#555CFF" stroke-width="1.34781" stroke-linecap="round" stroke-linejoin="round"/>
<path d="M269.356 58.6951L271.694 64.4171L277.678 79.0617L278.212 85.7727L276.822 93.2825L273.455 101.533L268.109 110.423L260.791 119.845L251.562 129.672L240.51 139.768L227.761 149.984L213.482 160.159L197.873 170.133L181.167 179.746L163.636 188.828L145.546 197.234" stroke="#555CFF" stroke-width="1.34781" stroke-linecap="round" stroke-linejoin="round"/>
<path d="M256.129 99.1761L257.021 101.316" stroke="#555CFF" stroke-width="1.34781" stroke-linecap="round" stroke-linejoin="round"/>
<path d="M138.39 181.717L139.755 181.088L154.284 174.345L156.569 173.28L168.49 167.133L174.2 164.191L182.285 159.563L190.999 154.589L195.555 151.7L205.374 145.481L206.706 144.639L208.174 143.604L220 135.273L221.092 134.505L230.894 126.759L233.94 124.349L240.779 118.206L245.096 114.325L247.182 112.141L249.53 109.696L254.421 104.582L257.021 101.315L258.455 99.5094L261.83 95.267L263.14 93.1407L266.089 88.3774L267.26 86.4878L267.775 85.2722L270.702 78.3587L270.707 78.3198L270.814 77.8034L272.167 70.9709L272.156 70.8436L272.055 69.4105L272.018 68.9196L271.696 64.4383L271.692 64.3958L269.356 58.6951L265.235 53.9089L259.446 50.0678L252.104 47.1871L243.337 45.2706L233.279 44.3046L222.082 44.2882L209.879 45.1862L196.826 46.9678L183.057 49.6041L168.73 53.0554L153.979 57.2715L138.944 62.2058L123.771 67.8026L108.601 74.0152L93.5698 80.7847L78.8083 88.0395L64.4637 95.7304L50.6554 103.776" stroke="#555CFF" stroke-width="1.34781" stroke-linecap="round" stroke-linejoin="round"/>
<path d="M138.503 181.749L50.7595 103.828L99.208 206.407L193.899 302.008L138.503 181.749Z" stroke="#555CFF" stroke-width="1.2422"/>
</g>
</g>
<defs>
<filter id="filter0_b_769_4755" x="24.6403" y="18.2734" width="320.539" height="309.775" filterUnits="userSpaceOnUse" color-interpolation-filters="sRGB">
<feFlood flood-opacity="0" result="BackgroundImageFix"/>
<feGaussianBlur in="BackgroundImageFix" stdDeviation="12.6704"/>
<feComposite in2="SourceAlpha" operator="in" result="effect1_backgroundBlur_769_4755"/>
<feBlend mode="normal" in="SourceGraphic" in2="effect1_backgroundBlur_769_4755" result="shape"/>
</filter>
<clipPath id="clip0_769_4755">
<rect width="377" height="292" rx="9" fill="white"/>
</clipPath>
</defs>
</svg>
