<svg width="377" height="292" viewBox="0 0 377 292" fill="none" xmlns="http://www.w3.org/2000/svg">
<g clip-path="url(#clip0_769_4767)">
<rect width="377" height="292" rx="9" fill="#022301"/>
<g filter="url(#filter0_b_769_4767)">
<path d="M152.891 307.009C85.2722 266.482 66.1944 225.961 65.1079 210.766L73.6851 199.815L311.024 66.0317C309.438 148.503 305.762 317.7 303.747 334.717C307.553 354.869 283.316 356.548 270.721 354.869C259.619 355.801 220.511 347.536 152.891 307.009Z" fill="#91FF95" fill-opacity="0.2"/>
<path d="M304.59 334.396L183.693 278.823L65.563 210.669M290.868 354.289L183.693 278.823L72.7707 200.71M68.0028 225.642L183.693 278.815L296.648 316.265M271.358 355.094L183.693 278.815L89.5702 196.915M115.004 199.985L183.693 278.815L278.765 294.323M252.174 270.459L183.693 278.807L152.789 306.554M184.315 324.772L183.693 278.807L147.104 209.943M304.597 334.38L305.483 293.613L298.785 277.659L300.858 240.098L288.532 224.111L293.188 190.64L297.701 158.198L302.078 126.728L306.32 96.1906L302.931 92.8419L298.729 89.7004L294.073 87.0374L289.345 85.0681L284.936 83.9598L258.68 101.883L231.651 120.341L203.809 139.349L175.114 158.939L145.534 179.135L115.02 199.969L89.5861 196.899L72.7867 200.686L65.5869 210.645L68.0268 225.626L79.3885 244.212L98.4202 264.886L123.504 286.142L183.709 278.799L245.74 349.991L271.382 355.086L290.892 354.273L302.437 347.296L304.613 334.372L296.672 316.257L278.788 294.315L283.748 258.643L288.547 224.104L270.289 207.129L247.653 190.712L222.705 176.384L197.766 165.477L175.122 158.939L156.752 157.265L123.607 176.831L108.809 180.363L72.7787 200.702M296.664 316.265L298.793 277.659L283.732 258.651L261.391 238.24L233.685 218.315L203.203 200.79L172.865 187.331L145.526 179.151L123.591 176.839L89.5702 196.915M310.426 66.5704L309.645 102.449L310.426 66.5704ZM278.765 294.339L252.174 270.475L219.197 246.955L182.983 226.105L147.104 209.959M123.496 286.166L152.789 306.57L184.315 324.788L216 339.618M310.426 66.5704L308.608 99.4994L309.645 102.449L308.847 139.086M245.724 350.023L216 339.626L183.693 278.831L79.3645 244.244M310.426 66.5704L306.304 96.2145L308.608 99.4994L306.742 133.282L308.839 139.086L308.026 176.496L307.197 214.703L306.344 253.74M115.004 200.001L147.096 209.967L172.857 187.347L197.742 165.501L221.788 144.388L245.046 123.969L267.546 104.212L289.329 85.084L310.426 66.5624M252.174 270.475L261.383 238.256L270.265 207.153L278.844 177.11L287.136 148.08L295.157 120.006L302.915 92.8498L310.426 66.5624M310.426 66.5624L294.057 87.0534L277.13 108.246L259.613 130.172L241.474 152.88L222.682 176.408L203.195 200.798L182.983 226.105L183.693 278.831L302.413 347.328M98.3963 264.918L183.685 278.831L219.189 246.962L233.669 218.331L247.622 190.736L261.08 164.13L274.06 138.456L286.594 113.668L298.705 89.7164L310.41 66.5624M245.836 103.016L251.217 101.501L281.18 83.8163L284.904 83.9757L310.41 66.5624M278.438 84.6136L281.18 83.8242L310.418 66.5704M305.475 293.629L306.344 253.74L300.85 240.114L302.867 203.557L304.829 167.957L306.742 133.282L302.054 126.744L295.149 120.014L286.594 113.668L277.122 108.246L267.538 104.212L258.656 101.907L251.225 101.509L220.513 119.64L189.019 138.225L156.72 157.289L144.082 160.454L116.384 176.089L108.785 180.379M307.189 214.695L302.859 203.549L293.164 190.656L278.836 177.11L261.08 164.122L241.466 152.872L221.78 144.38L203.785 139.365L189.027 138.209L178.686 140.912L150.684 156.723L144.09 160.446M308.026 176.48L304.829 167.941L297.685 158.198L287.136 148.072L274.068 138.44L259.613 130.156L245.046 123.953L231.635 120.349L220.521 119.616L212.603 121.768L184.163 137.826L178.694 140.912M212.603 121.768L216.845 119.376L245.852 103.008L248.77 101.365L278.454 84.6056L279.953 83.7605L310.426 66.5544" fill="#91FF95" fill-opacity="0.2"/>
<path d="M304.59 334.396L183.693 278.823M183.693 278.823L65.563 210.669M183.693 278.823L290.868 354.289M183.693 278.823L72.7707 200.71M68.0028 225.642L183.693 278.815M183.693 278.815L296.648 316.265M183.693 278.815L271.358 355.094M183.693 278.815L89.5702 196.915L123.591 176.839L145.526 179.151L172.865 187.331L203.203 200.79L233.685 218.315L261.391 238.24L283.732 258.651L298.793 277.659L296.664 316.265M183.693 278.815L115.004 199.985M183.693 278.815L278.765 294.323M252.174 270.459L183.693 278.807M183.693 278.807L152.789 306.554M183.693 278.807L184.315 324.772M183.693 278.807L147.104 209.943M304.597 334.38L305.483 293.613L298.785 277.659L300.858 240.098L288.532 224.111L293.188 190.64L297.701 158.198L302.078 126.728L306.32 96.1906L302.931 92.8419L298.729 89.7004L294.073 87.0374L289.345 85.0681L284.936 83.9598L258.68 101.883L231.651 120.341L203.809 139.349L175.114 158.939L145.534 179.135L115.02 199.969L89.5861 196.899L72.7867 200.686L65.5869 210.645L68.0268 225.626L79.3885 244.212L98.4202 264.886L123.504 286.142L183.709 278.799L245.74 349.991L271.381 355.086L290.892 354.273L302.437 347.296L304.613 334.372L296.672 316.257L278.788 294.315L283.748 258.643L288.547 224.104L270.289 207.129L247.653 190.712L222.705 176.384L197.766 165.477L175.122 158.939L156.752 157.265L123.607 176.831L108.809 180.363L72.7787 200.702M310.426 66.5704L309.645 102.449M310.426 66.5704L308.608 99.4994M310.426 66.5704L306.304 96.2145L308.608 99.4994M309.645 102.449L308.608 99.4994M309.645 102.449L308.847 139.086M278.765 294.339L252.174 270.475M252.174 270.475L219.197 246.955L182.983 226.105M252.174 270.475L261.383 238.256L270.265 207.153L278.844 177.11L287.136 148.08L295.157 120.006L302.915 92.8498L310.426 66.5624M182.983 226.105L147.104 209.959M182.983 226.105L203.195 200.798L222.682 176.408L241.474 152.88L259.613 130.172L277.13 108.246L294.057 87.0534L310.426 66.5624M182.983 226.105L183.693 278.831M123.496 286.166L152.789 306.57L184.315 324.788L216 339.618M308.608 99.4994L306.742 133.282M245.724 350.023L216 339.626L183.693 278.831M183.693 278.831L79.3645 244.244M183.693 278.831L302.413 347.328M306.742 133.282L308.839 139.086L308.026 176.496L307.197 214.703L306.344 253.74M306.742 133.282L304.829 167.957L302.867 203.557L300.85 240.114L306.344 253.74M306.742 133.282L302.054 126.744L295.149 120.014L286.594 113.668M306.344 253.74L305.475 293.629M115.004 200.001L147.096 209.967L172.857 187.347L197.742 165.501L221.788 144.388L245.046 123.969L267.546 104.212L289.329 85.084L310.426 66.5624M98.3963 264.918L183.685 278.831L219.189 246.962L233.669 218.331L247.622 190.736L261.08 164.13L274.06 138.456L286.594 113.668M286.594 113.668L298.705 89.7164L310.41 66.5624L284.904 83.9757L281.18 83.8163L251.217 101.501L245.836 103.016M286.594 113.668L277.122 108.246L267.538 104.212L258.656 101.907L251.225 101.509L220.513 119.64L189.019 138.225L156.72 157.289L144.082 160.454L116.384 176.089L108.785 180.379M278.438 84.6136L281.18 83.8242L310.418 66.5704M307.189 214.695L302.859 203.549L293.164 190.656L278.836 177.11L261.08 164.122L241.466 152.872L221.78 144.38L203.785 139.365L189.027 138.209L178.686 140.912L150.684 156.723L144.09 160.446M308.026 176.48L304.829 167.941L297.685 158.198L287.136 148.072L274.068 138.44L259.613 130.156L245.046 123.953L231.635 120.349L220.521 119.616L212.603 121.768M212.603 121.768L184.163 137.826L178.694 140.912M212.603 121.768L216.845 119.376L245.852 103.008L248.77 101.365L278.454 84.6056L279.953 83.7605L310.426 66.5544" stroke="#30FF51" stroke-width="1.59463" stroke-linecap="round" stroke-linejoin="round"/>
</g>
</g>
<defs>
<filter id="filter0_b_769_4767" x="39.781" y="40.7725" width="296.427" height="340.103" filterUnits="userSpaceOnUse" color-interpolation-filters="sRGB">
<feFlood flood-opacity="0" result="BackgroundImageFix"/>
<feGaussianBlur in="BackgroundImageFix" stdDeviation="12.4923"/>
<feComposite in2="SourceAlpha" operator="in" result="effect1_backgroundBlur_769_4767"/>
<feBlend mode="normal" in="SourceGraphic" in2="effect1_backgroundBlur_769_4767" result="shape"/>
</filter>
<clipPath id="clip0_769_4767">
<rect width="377" height="292" rx="9" fill="white"/>
</clipPath>
</defs>
</svg>
