<svg width="54" height="50" viewBox="0 0 54 50" fill="none" xmlns="http://www.w3.org/2000/svg">
<path d="M19.2969 21.0825C24.6817 21.0825 29.0469 16.7173 29.0469 11.3325C29.0469 5.94773 24.6817 1.58252 19.2969 1.58252C13.9121 1.58252 9.54688 5.94773 9.54688 11.3325C9.54688 16.7173 13.9121 21.0825 19.2969 21.0825Z" stroke="white" stroke-width="2" stroke-linecap="round" stroke-linejoin="round"/>
<path d="M1.74805 48.3823H36.848V46.2679C36.817 43.2952 36.033 40.3789 34.5693 37.7918C33.1056 35.2039 31.01 33.0298 28.4786 31.4718C25.9468 29.9138 23.0611 29.0228 20.092 28.8823C19.8269 28.8696 19.5623 28.8632 19.298 28.8628C19.0338 28.8632 18.7692 28.8696 18.5045 28.8823C15.5349 29.0228 12.6493 29.9138 10.1179 31.4718C7.58611 33.0298 5.49046 35.2039 4.02676 37.7918C2.56307 40.3789 1.77909 43.2952 1.74805 46.2679V48.3823Z" stroke="white" stroke-width="2" stroke-linecap="round" stroke-linejoin="round"/>
<path d="M34.8975 21.0825C40.2822 21.0825 44.6475 16.7173 44.6475 11.3325C44.6475 5.94773 40.2822 1.58252 34.8975 1.58252" stroke="white" stroke-width="2" stroke-linecap="round" stroke-linejoin="round"/>
<path d="M44.6479 48.3827H52.4479V46.268C52.4168 43.2952 51.6328 40.379 50.1691 37.7918C48.7054 35.2039 46.6098 33.0298 44.078 31.4718C42.4416 30.4646 40.6571 29.7363 38.7979 29.3093" stroke="white" stroke-width="2" stroke-linecap="round" stroke-linejoin="round"/>
</svg>
