<svg width="55" height="55" viewBox="0 0 55 55" fill="none" xmlns="http://www.w3.org/2000/svg">
<path d="M15.5399 1.68677H5.59092C3.39305 1.68677 1.61133 3.46849 1.61133 5.66636V49.4419C1.61133 51.6398 3.39305 53.4215 5.59092 53.4215H15.5399C17.7377 53.4215 19.5195 51.6398 19.5195 49.4419V5.66636C19.5195 3.46849 17.7377 1.68677 15.5399 1.68677Z" stroke="white" stroke-width="2" stroke-linecap="round" stroke-linejoin="round"/>
<path d="M49.368 1.68652H39.419C37.2212 1.68652 35.4395 3.46825 35.4395 5.66612V49.4416C35.4395 51.6396 37.2212 53.4212 39.419 53.4212H49.368C51.566 53.4212 53.3476 51.6396 53.3476 49.4416V5.66612C53.3476 3.46825 51.566 1.68652 49.368 1.68652Z" stroke="white" stroke-width="2" stroke-linecap="round" stroke-linejoin="round"/>
</svg>
