<svg width="28" height="29" viewBox="0 0 28 29" fill="none" xmlns="http://www.w3.org/2000/svg">
<path d="M14 16.3571C16.5642 16.3571 18.6429 14.2784 18.6429 11.7143C18.6429 9.15009 16.5642 7.07141 14 7.07141C11.4359 7.07141 9.35718 9.15009 9.35718 11.7143C9.35718 14.2784 11.4359 16.3571 14 16.3571Z" stroke="white" stroke-linecap="round" stroke-linejoin="round"/>
<path d="M6.06995 23.6C6.89868 22.2397 8.06342 21.1154 9.45219 20.3354C10.841 19.5551 12.4071 19.1454 13.9999 19.1454C15.5928 19.1454 17.1589 19.5551 18.5477 20.3354C19.9365 21.1154 21.1011 22.2397 21.93 23.6" stroke="white" stroke-linecap="round" stroke-linejoin="round"/>
<path d="M14 26.5714C20.667 26.5714 26.0714 21.167 26.0714 14.5C26.0714 7.83315 20.667 2.42859 14 2.42859C7.33315 2.42859 1.92859 7.83315 1.92859 14.5C1.92859 21.167 7.33315 26.5714 14 26.5714Z" stroke="white" stroke-linecap="round" stroke-linejoin="round"/>
</svg>
