<svg width="61" height="61" viewBox="0 0 61 61" fill="none" xmlns="http://www.w3.org/2000/svg">
<path d="M55.9505 44.0052V51.9644C55.9505 53.0198 55.531 54.0322 54.7849 54.7784C54.0387 55.5246 53.0263 55.944 51.9709 55.944H44.0117" stroke="white" stroke-width="2" stroke-linecap="round" stroke-linejoin="round"/>
<path d="M44.0117 4.20935H51.9709C53.0263 4.20935 54.0387 4.62863 54.7849 5.37495C55.531 6.12127 55.9505 7.13348 55.9505 8.18894V16.1481" stroke="white" stroke-width="2" stroke-linecap="round" stroke-linejoin="round"/>
<path d="M4.21484 16.1481V8.18894C4.21484 7.13348 4.63412 6.12127 5.38044 5.37495C6.12676 4.62863 7.13897 4.20935 8.19444 4.20935H16.1536" stroke="white" stroke-width="2" stroke-linecap="round" stroke-linejoin="round"/>
<path d="M16.1536 55.944H8.19444C7.13897 55.944 6.12676 55.5246 5.38044 54.7784C4.63412 54.0322 4.21484 53.0198 4.21484 51.9644V44.0052" stroke="white" stroke-width="2" stroke-linecap="round" stroke-linejoin="round"/>
<path d="M30.0822 28.0867C34.4779 28.0867 38.0413 24.5233 38.0413 20.1276C38.0413 15.7319 34.4779 12.1685 30.0822 12.1685C25.6865 12.1685 22.123 15.7319 22.123 20.1276C22.123 24.5233 25.6865 28.0867 30.0822 28.0867Z" stroke="white" stroke-width="2" stroke-linecap="round" stroke-linejoin="round"/>
<path d="M45.2185 45.9955C44.1902 42.7892 42.1705 39.9926 39.4506 38.0085C36.7306 36.0242 33.4507 34.9551 30.0838 34.9551C26.717 34.9551 23.4371 36.0242 20.717 38.0085C17.997 39.9926 15.9773 42.7892 14.9492 45.9955H45.2185Z" stroke="white" stroke-width="2" stroke-linecap="round" stroke-linejoin="round"/>
</svg>
