<svg width="61" height="61" viewBox="0 0 61 61" fill="none" xmlns="http://www.w3.org/2000/svg">
<path d="M31.7687 56.0577C30.8543 56.4102 29.8414 56.4102 28.927 56.0577C21.7922 53.3181 15.6561 48.4793 11.3294 42.1793C7.0026 35.8794 4.68874 28.4153 4.69337 20.7727V8.9322C4.69337 7.88544 5.10919 6.88151 5.84937 6.14136C6.58956 5.40118 7.59345 4.98535 8.6402 4.98535H52.0555C53.1021 4.98535 54.1062 5.40118 54.8464 6.14136C55.5866 6.88151 56.0024 7.88544 56.0024 8.9322V20.7727C56.0068 28.4153 53.6931 35.8794 49.3665 42.1793C45.0395 48.4793 38.9035 53.3181 31.7687 56.0577Z" stroke="white" stroke-width="2" stroke-linecap="round" stroke-linejoin="round"/>
<path d="M42.2994 18.7146L26.3811 36.6228L18.4219 30.6534" stroke="white" stroke-width="2" stroke-linecap="round" stroke-linejoin="round"/>
</svg>
