<svg width="91" height="21" viewBox="0 0 91 21" fill="none" xmlns="http://www.w3.org/2000/svg">
<g opacity="0.8" clip-path="url(#clip0_753_3232)">
<path fill-rule="evenodd" clip-rule="evenodd" d="M7.18631 14.9412L12.4659 11.8933C13.1642 11.4899 13.1642 10.483 12.4659 10.0807L7.30005 7.0981C6.37114 6.56203 5.64234 7.26661 5.64234 7.95434V14.0196C5.64234 14.7505 6.41222 15.3382 7.18631 14.9412ZM8.08152 5.80373L14.8577 9.71632C15.2843 9.96276 15.8108 9.96276 16.2374 9.71632L16.2837 9.68894C16.982 9.28662 16.982 8.27872 16.2837 7.8764L7.299 2.68946C6.48805 2.16919 5.64129 2.77793 5.64129 3.5457V3.64681C5.64129 3.83428 5.43907 3.95118 5.27688 3.85745L4.29637 3.29188C4.20579 3.24028 4.1584 3.13601 4.17841 3.03385C4.51332 1.31927 6.49647 0.410368 8.08046 1.3951L17.0399 6.56835C18.7387 7.54886 18.744 9.99857 17.0578 10.9896V10.9907L6.37746 17.156C5.92143 17.4193 5.64023 17.9059 5.64023 18.4325C5.64023 19.2003 6.48699 19.8101 7.29795 19.2887L16.2827 14.1018C16.9809 13.6995 16.9809 12.6916 16.2827 12.2893L16.1953 12.2387C16.0331 12.145 16.0331 11.9112 16.1953 11.8174L17.1737 11.2519C17.2642 11.2003 17.378 11.2108 17.4559 11.2792C18.7282 12.3946 18.5892 14.5157 17.0389 15.4109L8.07941 20.5831C6.35113 21.6584 4.14471 20.4767 4.12891 18.4546L4.12786 18.4557V6.01753C4.12786 5.55307 3.88036 5.12443 3.47909 4.89273C2.66814 4.37245 1.82138 4.98119 1.82138 5.74897V16.224C1.82138 16.9917 2.66814 17.6015 3.47909 17.0802C3.64129 16.9865 3.8435 17.1034 3.8435 17.2908V18.4167C3.8435 18.522 3.77715 18.6147 3.67709 18.6484C2.06677 19.1824 0.310059 18.0375 0.310059 16.224V5.74897C0.310059 3.76371 2.41538 2.57993 4.12891 3.52043C5.4475 4.28188 6.76398 5.04228 8.08152 5.80373Z" fill="#9D9D9D"/>
<path d="M7.03149 12.8906C7.03149 13.1739 7.34324 13.3982 7.64234 13.2066L10.9546 11.295C11.2116 11.1465 11.2116 10.7748 10.9546 10.6263L7.64234 8.71473C7.34324 8.52305 7.03149 8.74738 7.03149 9.03069V12.8906Z" fill="white"/>
<path d="M26.7966 7.02443L25.4159 7.84275C25.1578 7.39515 24.9114 7.10237 24.6776 6.9665C24.4343 6.81063 24.1205 6.7327 23.735 6.7327C23.2621 6.7327 22.8703 6.86645 22.5586 7.13396C22.2468 7.39726 22.091 7.72796 22.091 8.12711C22.091 8.67793 22.4996 9.12027 23.3179 9.45624L24.4427 9.91648C25.358 10.2861 26.0278 10.738 26.4512 11.2719C26.8745 11.8048 27.0862 12.4589 27.0862 13.233C27.0862 14.2703 26.7408 15.1276 26.0488 15.8038C25.3527 16.4852 24.488 16.8264 23.4559 16.8264C22.4775 16.8264 21.6686 16.5368 21.0304 15.9576C20.4027 15.3783 20.0099 14.5621 19.854 13.511L21.5781 13.1308C21.656 13.7933 21.7919 14.2514 21.9867 14.5042C22.3374 14.9907 22.8482 15.2351 23.5201 15.2351C24.0509 15.2351 24.4912 15.0571 24.8419 14.7022C25.1926 14.3472 25.3674 13.8965 25.3674 13.3509C25.3674 13.1319 25.3369 12.9307 25.2758 12.7485C25.2147 12.5663 25.1199 12.3978 24.9914 12.244C24.8619 12.0903 24.6955 11.947 24.4912 11.8133C24.2869 11.6795 24.0436 11.5521 23.7603 11.4299L22.6723 10.977C21.1284 10.3241 20.3564 9.36987 20.3564 8.11342C20.3564 7.26561 20.6797 6.55787 21.3274 5.98809C21.9751 5.41305 22.7808 5.12659 23.7455 5.12659C25.0515 5.12554 26.0667 5.7585 26.7966 7.02443Z" fill="white"/>
<path d="M28.8271 4.28503H30.4712V10.0997C31.0557 9.57413 31.7002 9.31084 32.4069 9.31084C33.2105 9.31084 33.853 9.57097 34.3353 10.0923C34.7439 10.5452 34.9493 11.2687 34.9493 12.2619V16.6231H33.3053V12.4156C33.3053 11.8459 33.2042 11.433 33.002 11.1771C32.7998 10.9212 32.4743 10.7937 32.0267 10.7937C31.4517 10.7937 31.0483 10.9717 30.8145 11.3266C30.586 11.6868 30.4712 12.305 30.4712 13.1823V16.6231H28.8271V4.28503Z" fill="white"/>
<path d="M36.7819 6.54942C36.7819 6.2619 36.8861 6.01335 37.0957 5.80482C37.3053 5.59523 37.556 5.49097 37.8477 5.49097C38.1447 5.49097 38.3974 5.59523 38.607 5.80482C38.8166 6.00913 38.9209 6.25979 38.9209 6.55679C38.9209 6.85379 38.8166 7.10761 38.607 7.31614C38.4027 7.52572 38.1521 7.62999 37.8551 7.62999C37.5581 7.62999 37.3042 7.52572 37.0957 7.31614C36.8872 7.10761 36.7819 6.85168 36.7819 6.54942ZM38.6734 9.50782V16.6221H37.0294V9.50782H38.6734Z" fill="white"/>
<path d="M42.3996 20.4946H40.7556V9.50774H42.3996V10.2818C43.0473 9.63412 43.7824 9.31079 44.606 9.31079C45.5844 9.31079 46.3912 9.67098 47.0241 10.3914C47.6666 11.1075 47.9888 12.0101 47.9888 13.1012C47.9888 14.1681 47.6697 15.0559 47.0315 15.7668C46.3985 16.4725 45.6002 16.8263 44.6355 16.8263C43.8024 16.8263 43.0578 16.4925 42.4006 15.8258V20.4946H42.3996ZM46.3069 13.1096C46.3069 12.4282 46.1215 11.8732 45.7519 11.4445C45.3769 11.0117 44.9041 10.7947 44.3343 10.7947C43.7308 10.7947 43.2411 11.0043 42.8661 11.4224C42.4912 11.8416 42.3037 12.3914 42.3037 13.0728C42.3037 13.7405 42.4912 14.2903 42.8661 14.7231C43.2358 15.1465 43.7234 15.3582 44.3269 15.3582C44.8967 15.3582 45.3664 15.1444 45.7371 14.7157C46.1173 14.2881 46.3069 13.7521 46.3069 13.1096Z" fill="white"/>
<path d="M49.7255 9.50774H51.3695V10.1428C51.6718 9.8258 51.9393 9.6099 52.1731 9.49299C52.4111 9.37082 52.6945 9.31079 53.0209 9.31079C53.4538 9.31079 53.9067 9.45192 54.3796 9.73417L53.6276 11.2392C53.3158 11.0148 53.0115 10.9032 52.7145 10.9032C51.8182 10.9032 51.3706 11.5804 51.3706 12.9338V16.622H49.7266V9.50774H49.7255Z" fill="white"/>
<path d="M54.8535 13.0138C54.8535 11.9859 55.221 11.1117 55.9561 10.3914C56.6913 9.67098 57.5875 9.31079 58.6439 9.31079C59.7055 9.31079 60.606 9.67414 61.3463 10.3987C62.0773 11.1244 62.4417 12.0154 62.4417 13.0717C62.4417 14.1386 62.0741 15.0317 61.339 15.7521C60.5986 16.4682 59.6907 16.8263 58.6144 16.8263C57.5475 16.8263 56.6544 16.4609 55.934 15.731C55.2136 15.0106 54.8535 14.1049 54.8535 13.0138ZM56.5333 13.0433C56.5333 13.7542 56.7229 14.3166 57.1031 14.7305C57.4927 15.1497 58.0067 15.3582 58.6439 15.3582C59.2863 15.3582 59.8003 15.1518 60.1847 14.7368C60.5691 14.3229 60.7618 13.77 60.7618 13.0791C60.7618 12.3871 60.5691 11.8353 60.1847 11.4214C59.795 11.0022 59.281 10.7937 58.6439 10.7937C58.0162 10.7937 57.5064 11.0033 57.1168 11.4214C56.7281 11.8405 56.5333 12.3808 56.5333 13.0433Z" fill="white"/>
<path d="M69.7181 9.81534V11.9997C69.3432 11.5415 69.0072 11.2277 68.7102 11.057C68.4185 10.8822 68.0752 10.7938 67.6802 10.7938C67.062 10.7938 66.548 11.0107 66.1394 11.4436C65.7308 11.8775 65.5254 12.4199 65.5254 13.0728C65.5254 13.7406 65.7223 14.2882 66.1173 14.7169C66.5164 15.1455 67.0251 15.3593 67.6444 15.3593C68.0394 15.3593 68.3869 15.274 68.6892 15.1034C68.9809 14.938 69.3242 14.6168 69.7192 14.1387V16.3082C69.0515 16.6537 68.3848 16.8264 67.7181 16.8264C66.6175 16.8264 65.6971 16.4715 64.9567 15.7595C64.2163 15.0434 63.8466 14.1555 63.8466 13.0929C63.8466 12.0312 64.2216 11.135 64.9714 10.4051C65.7213 9.67422 66.6418 9.30981 67.7329 9.30981C68.4322 9.31087 69.0946 9.47938 69.7181 9.81534Z" fill="white"/>
<path d="M73.3411 4.28503V11.809L75.657 9.50778H77.8635L74.7734 12.4957L78.0899 16.6231H75.9572L73.6054 13.6205L73.3421 13.8838V16.6231H71.6981V4.28503H73.3411Z" fill="white"/>
<path d="M85.3864 13.453H80.2879C80.3321 14.0375 80.5217 14.5019 80.8577 14.8484C81.1936 15.1897 81.6244 15.3592 82.151 15.3592C82.5596 15.3592 82.8988 15.2623 83.1663 15.0675C83.4296 14.8727 83.7287 14.5125 84.0646 13.9869L85.4527 14.761C85.2379 15.1265 85.0114 15.4393 84.7734 15.6994C84.5344 15.9596 84.2795 16.1744 84.0067 16.3419C83.7339 16.5104 83.439 16.6325 83.1231 16.7105C82.8061 16.7884 82.4627 16.8274 82.0931 16.8274C81.0315 16.8274 80.1794 16.4861 79.537 15.8047C78.8945 15.1181 78.5723 14.2071 78.5723 13.0728C78.5723 11.948 78.884 11.037 79.5075 10.3408C80.1352 9.65413 80.9683 9.31079 82.0057 9.31079C83.0525 9.31079 83.8803 9.64465 84.4891 10.3113C85.0925 10.9738 85.3948 11.8911 85.3948 13.0654L85.3864 13.453ZM83.6992 12.1081C83.4706 11.2318 82.9177 10.7937 82.0415 10.7937C81.8414 10.7937 81.6539 10.8242 81.4791 10.8853C81.3042 10.9464 81.1441 11.0338 81.0009 11.1486C80.8577 11.2634 80.7345 11.4003 80.6323 11.5614C80.5301 11.7226 80.4522 11.9048 80.3985 12.1091H83.6992V12.1081Z" fill="white"/>
<path d="M89.0093 11.0423V16.6232H87.3653V11.0423H86.6639V9.50783H87.3653V6.90015H89.0093V9.50783H90.2879V11.0413L89.0093 11.0423Z" fill="white"/>
</g>
<defs>
<clipPath id="clip0_753_3232">
<rect width="89.9779" height="20" fill="white" transform="translate(0.310059 0.989624)"/>
</clipPath>
</defs>
</svg>
