<svg width="91" height="21" viewBox="0 0 91 21" fill="none" xmlns="http://www.w3.org/2000/svg">
<g opacity="0.8" clip-path="url(#clip0_770_210)">
<path d="M65.8354 5.00643V6.07242H65.8934C66.3756 5.42798 67.0728 4.97774 67.8586 4.80339C68.6809 4.57248 69.5558 4.61317 70.3531 4.91941C70.9552 5.12483 71.4676 5.53221 71.8035 6.07242C71.8558 6.14972 71.9042 6.22959 71.9485 6.31173C71.9712 6.25763 72.0005 6.2065 72.0355 6.15944C72.3034 5.7789 72.6436 5.45493 73.0368 5.20606C73.4301 4.95719 73.8685 4.78832 74.327 4.70912C75.2499 4.51528 76.2113 4.64056 77.0537 5.06445C77.5664 5.30691 78.0084 5.67694 78.3373 6.1391C78.6661 6.60127 78.8708 7.14011 78.9318 7.70404C78.98 8.00609 78.9994 8.31203 78.9898 8.61775V15.4995H75.9079V9.5387C75.9033 9.31047 75.8839 9.08278 75.8499 8.85705C75.8029 8.54833 75.6576 8.26301 75.4355 8.04351C75.2134 7.82402 74.9264 7.68207 74.6171 7.63878C74.321 7.56876 74.0113 7.58182 73.7222 7.6765C73.433 7.77118 73.1756 7.94381 72.9782 8.1754C72.6854 8.52149 72.5282 8.96214 72.5359 9.41543V15.4995H69.3887V9.5097C69.3961 9.21718 69.3544 8.92549 69.2654 8.64675C69.1719 8.35773 68.9929 8.10387 68.7521 7.91872C68.5113 7.73357 68.2199 7.62584 67.9166 7.60977C67.6729 7.58582 67.4269 7.60796 67.1914 7.67503C66.8983 7.76286 66.6357 7.931 66.4332 8.1604C66.2307 8.38981 66.0964 8.67132 66.0457 8.97308C66.0304 9.14194 66.0304 9.31183 66.0457 9.48069V15.4995H62.8477V5.00643H65.8354ZM87.7426 5.9854V5.00643H90.81V14.6003C90.8149 15.7631 90.5122 16.9064 89.9326 17.9143C89.6538 18.4191 89.2765 18.8628 88.8231 19.219C88.3697 19.5753 87.8494 19.8369 87.293 19.9883C85.9607 20.3791 84.5426 20.3665 83.2175 19.952C82.172 19.6344 81.2679 18.9659 80.6577 18.0594C80.3897 17.6773 80.2 17.246 80.0993 16.7903V16.6381C80.1107 16.5904 80.1107 16.5407 80.0993 16.493L82.884 15.6953C82.9187 15.7581 82.9409 15.8271 82.9492 15.8984C83.0794 16.3504 83.3525 16.7481 83.7278 17.0318C84.103 17.3155 84.5601 17.47 85.0304 17.472C85.4062 17.4841 85.7813 17.4326 86.14 17.3197C86.5065 17.1779 86.8314 16.9462 87.0849 16.6458C87.3383 16.3455 87.5121 15.9862 87.5903 15.6011C87.7023 15.087 87.7413 14.5597 87.7063 14.0347C87.2765 14.5723 86.6555 14.9231 85.9732 15.0137C85.044 15.2082 84.078 15.125 83.1958 14.7744C82.4778 14.517 81.8332 14.0887 81.3177 13.5265C80.8022 12.9643 80.4313 12.285 80.2371 11.5474C80.0201 10.8719 79.9416 10.1596 80.0064 9.45312C80.0712 8.74661 80.2779 8.06044 80.6142 7.43573C80.8837 6.87775 81.2607 6.37848 81.7237 5.96658C82.1866 5.55467 82.7263 5.23824 83.3118 5.03544C84.2223 4.73899 85.1984 4.70879 86.1255 4.94842C86.7666 5.10037 87.337 5.4661 87.7426 5.9854ZM83.2248 9.92304V10.2494C83.2473 10.6491 83.3835 11.0341 83.6173 11.3591C83.8511 11.6841 84.1728 11.9356 84.5446 12.084C84.88 12.2196 85.2439 12.2695 85.6033 12.2291C86.0381 12.2236 86.4599 12.0802 86.8078 11.8195C87.1558 11.5589 87.412 11.1944 87.5395 10.7787C87.6515 10.4153 87.6909 10.0334 87.6555 9.65473C87.6375 9.31336 87.5392 8.98107 87.3687 8.68478C87.1982 8.38848 86.9603 8.13654 86.6742 7.94937C86.3882 7.76221 86.0621 7.64508 85.7223 7.6075C85.3825 7.56991 85.0387 7.61292 84.7186 7.73305C84.2671 7.88871 83.8779 8.1859 83.6087 8.58045C83.3396 8.975 83.205 9.44585 83.2248 9.92304ZM62.7897 3.55611V0.271118H90.7592C90.8174 1.35567 90.8174 2.44255 90.7592 3.5271C90.6142 3.58511 63.2538 3.61412 62.7897 3.55611ZM58.1777 20.1913V16.9064H78.9971V20.1913H58.1777ZM61.4119 15.4995H58.1269V5.09345H54.8999V2.84545H55.161C56.076 2.82007 56.9554 2.48519 57.6555 1.89548C58.109 1.52494 58.4276 1.01516 58.562 0.445157V0.329131H61.3756L61.4119 15.4995ZM26.372 16.522H21.7962C21.7176 16.5351 21.637 16.5176 21.571 16.4731C21.5049 16.4286 21.4583 16.3604 21.4409 16.2827L19.0986 9.38642C19.0986 9.2994 19.0406 9.21238 18.9826 9.0601L18.7433 9.71274L16.5678 16.2392C16.5644 16.2804 16.5524 16.3205 16.5327 16.3568C16.5129 16.3932 16.4858 16.425 16.453 16.4502C16.4202 16.4755 16.3826 16.4936 16.3424 16.5035C16.3022 16.5133 16.2605 16.5147 16.2197 16.5075H11.6512C11.7962 16.1522 11.9123 15.7824 12.0283 15.4415L16.227 4.28127C16.314 4.07822 16.401 3.98395 16.6331 3.98395H21.2669C21.3528 3.97278 21.4399 3.9941 21.511 4.04372C21.582 4.09335 21.632 4.16771 21.6512 4.25226L26.2705 16.2247C26.319 16.3182 26.3532 16.4184 26.372 16.522ZM50.7665 16.522H46.1617C45.9587 16.522 45.8716 16.464 45.8136 16.2827L43.4641 9.38642C43.4641 9.2994 43.4061 9.21238 43.3481 9.0601L43.232 9.41543L40.9115 16.2247C40.9071 16.2693 40.8937 16.3125 40.8721 16.3519C40.8506 16.3912 40.8213 16.4257 40.7861 16.4535C40.7509 16.4812 40.7105 16.5016 40.6673 16.5134C40.624 16.5252 40.5788 16.5281 40.5344 16.522H36.0457C36.0457 16.406 36.1037 16.3117 36.1327 16.2247L40.6505 4.23776C40.6729 4.14919 40.7279 4.07234 40.8046 4.02259C40.8812 3.97285 40.9738 3.95387 41.0638 3.96945H45.7266C45.8033 3.96304 45.8799 3.98337 45.9434 4.02699C46.0068 4.07061 46.0532 4.13482 46.0747 4.20875L50.7375 16.3117C50.7341 16.383 50.744 16.4543 50.7665 16.522ZM37.2785 4.02746V7.70404H33.8484V16.551H28.8666V7.73305H25.3133V4.05647L37.2785 4.02746ZM0.889771 4.02746H12.884V7.69679H9.45395V16.551H4.43582V7.73305H0.889771V4.02746Z" fill="white"/>
</g>
<defs>
<clipPath id="clip0_770_210">
<rect width="89.9202" height="20" fill="white" transform="translate(0.889771 0.271118)"/>
</clipPath>
</defs>
</svg>
